#N canvas 493 260 713 709 10;
#X declare -lib Gem;
#N canvas 640 443 450 300 fps 0;
#X obj 60 28 gemhead;
#X obj 60 68 realtime;
#X obj 60 48 t b b;
#X obj 60 130 /;
#X msg 60 110 1000 \$1;
#X obj 60 235 outlet;
#X obj 60 152 + 0.5;
#X obj 60 214 i;
#N canvas 3 119 450 300 iir 0;
#X obj 63 31 inlet;
#X obj 63 81 +;
#X obj 63 107 / 21;
#X obj 119 138 * 20;
#X obj 63 176 outlet;
#X connect 0 0 1 0;
#X connect 1 0 2 0;
#X connect 2 0 3 0;
#X connect 2 0 4 0;
#X connect 3 0 1 1;
#X restore 60 182 pd iir;
#X connect 0 0 2 0;
#X connect 1 0 4 0;
#X connect 2 0 1 0;
#X connect 2 1 1 1;
#X connect 3 0 6 0;
#X connect 4 0 3 0;
#X connect 6 0 8 0;
#X connect 7 0 5 0;
#X connect 8 0 7 0;
#X restore 44 104 pd fps;
#X floatatom 44 127 5 0 0 1 fps - - 0;
#X msg 347 275 link \$1 \$2;
#X obj 267 189 glsl_vertex;
#X obj 267 232 glsl_fragment;
#X obj 281 45 loadbang;
#X obj 267 324 glsl_program;
#X obj 267 14 gemhead;
#X msg 363 454 program \$1;
#X obj 373 484 cnv 15 120 30 empty empty empty 20 12 0 14 #c4fcc4 #404040 0;
#X msg 381 490 print_attributes;
#X obj 336 346 t b f;
#X text 447 454 <----- essential for lookup functions;
#X obj 374 320 print linking;
#X obj 347 297 t a a;
#X obj 330 610 print vb;
#X msg 385 341 bang;
#X obj 44 9 declare -lib Gem;
#X obj 347 255 pack f f;
#X obj 336 368 f \$0;
#X msg 336 400 attribute position \$1_position \, attribute color \$1_color;
#N canvas 340 107 682 322 gemwin 0;
#X obj 102 122 tgl 15 0 \$0-gemstart \$0-gemstart empty 17 7 0 10 #fcfcfc #000000 #000000 0 1;
#X obj 102 161 r \$0-gemstart;
#X obj 102 182 select 1 0;
#X msg 102 214 create \, 1;
#X msg 177 215 destroy;
#X obj 102 239 t a;
#X obj 318 54 inlet;
#X obj 318 255 gemwin;
#X obj 318 100 t a a;
#X obj 318 287 outlet;
#X obj 350 128 route create destroy;
#X obj 350 150 t b;
#X msg 350 172 1;
#X obj 390 150 t b;
#X msg 390 172 0;
#X obj 350 195 t f;
#X msg 350 219 set \$1;
#X text 118 122 rendering;
#X connect 1 0 2 0;
#X connect 2 0 3 0;
#X connect 2 1 4 0;
#X connect 3 0 5 0;
#X connect 4 0 5 0;
#X connect 5 0 8 0;
#X connect 6 0 8 0;
#X connect 7 0 9 0;
#X connect 8 0 7 0;
#X connect 8 1 10 0;
#X connect 10 0 11 0;
#X connect 10 1 13 0;
#X connect 11 0 12 0;
#X connect 12 0 15 0;
#X connect 13 0 14 0;
#X connect 14 0 15 0;
#X connect 15 0 16 0;
#X connect 16 0 0 0;
#X coords 0 -1 1 1 85 40 1 100 100;
#X restore 42 51 pd gemwin;
#X obj 281 104 t a a;
#X msg 312 130 open shader/\$1.vert;
#X msg 315 159 open shader/\$1.frag;
#X obj 303 586 t a a;
#X obj 40 175 table \$0_position 9;
#X obj 40 196 table \$0_color 9;
#X obj 41 235 loadbang;
#X obj 41 283 s \$0_position;
#X obj 40 364 s \$0_color;
#X msg 40 341 0 1 0 0 0 1 0 0 0 1;
#X msg 41 260 0 -0.8 -0.8 0 0 0.8 0 0.8 -0.8 0;
#X obj 40 317 loadbang;
#X msg 281 72 symbol 01.basic;
#X obj 267 638 gemvertexbuffer \; resize 9 \; draw tri;
#X connect 0 0 1 0;
#X connect 2 0 14 0;
#X connect 3 0 4 0;
#X connect 3 1 18 1;
#X connect 4 0 6 0;
#X connect 4 1 18 0;
#X connect 5 0 34 0;
#X connect 6 0 35 0;
#X connect 6 1 11 0;
#X connect 7 0 3 0;
#X connect 8 0 25 0;
#X connect 10 0 25 0;
#X connect 11 0 19 0;
#X connect 11 1 8 0;
#X connect 14 0 6 0;
#X connect 14 1 13 0;
#X connect 16 0 19 0;
#X connect 18 0 2 0;
#X connect 19 0 20 0;
#X connect 20 0 25 0;
#X connect 22 0 24 0;
#X connect 22 1 23 0;
#X connect 23 0 3 0;
#X connect 24 0 4 0;
#X connect 25 0 35 0;
#X connect 25 1 15 0;
#X connect 28 0 32 0;
#X connect 31 0 30 0;
#X connect 32 0 29 0;
#X connect 33 0 31 0;
#X connect 34 0 22 0;
