#N canvas 621 225 1140 655 12;
#X obj 469 431 VBOsphere;
#X obj 555 428 VBOcube;
#X obj 268 429 VBOcircle;
#X obj 354 429 BBOmesh_square;
#X obj 130 362 == 0;
#X obj 184 389 spigot;
#X obj 279 390 spigot;
#X obj 365 391 spigot;
#X obj 465 394 spigot;
#X obj 550 394 spigot;
#X obj 639 395 spigot;
#X obj 223 363 == 1;
#X obj 318 364 == 2;
#X obj 404 365 == 3;
#X obj 504 368 == 4;
#X obj 589 368 == 5;
#X obj 678 369 == 6;
#X obj 769 144 vradio 20 1 0 8 empty empty empty 0 -10 0 12 #fcfcfc #000000 #000000 0;
#X text 792 143 line;
#X text 792 166 square;
#X obj 77 252 rotateXYZ;
#X floatatom 98 222 5 0 0 0 - - - 0;
#X floatatom 145 222 5 0 0 0 - - - 0;
#X floatatom 190 222 5 0 0 0 - - - 0;
#X obj 77 41 gemhead;
#N canvas 340 107 682 322 gemwin 0;
#X obj 102 122 tgl 15 0 \$0-gemstart \$0-gemstart empty 17 7 0 10 #fcfcfc #000000 #000000 0 1;
#X obj 102 161 r \$0-gemstart;
#X obj 102 182 select 1 0;
#X msg 102 214 create \, 1;
#X msg 177 215 destroy;
#X obj 102 239 t a;
#X obj 318 54 inlet;
#X obj 318 255 gemwin;
#X obj 318 100 t a a;
#X obj 318 287 outlet;
#X obj 350 128 route create destroy;
#X obj 350 150 t b;
#X msg 350 172 1;
#X obj 390 150 t b;
#X msg 390 172 0;
#X obj 350 195 t f;
#X msg 350 219 set \$1;
#X text 118 122 rendering;
#X connect 1 0 2 0;
#X connect 2 0 3 0;
#X connect 2 1 4 0;
#X connect 3 0 5 0;
#X connect 4 0 5 0;
#X connect 5 0 8 0;
#X connect 6 0 8 0;
#X connect 7 0 9 0;
#X connect 8 0 7 0;
#X connect 8 1 10 0;
#X connect 10 0 11 0;
#X connect 10 1 13 0;
#X connect 11 0 12 0;
#X connect 12 0 15 0;
#X connect 13 0 14 0;
#X connect 14 0 15 0;
#X connect 15 0 16 0;
#X connect 16 0 0 0;
#X coords 0 -1 1 1 85 40 1 100 100;
#X restore 402 30 pd gemwin;
#X obj 77 388 spigot 1;
#X obj 77 431 VBOline \; res 2 \; width 3 \; pos 0 -1 0 0 \; pos 1 1 0 0 \; color 1 1 1 1;
#X obj 636 428 VBOplane;
#X obj 184 429 VBOsquare;
#X obj 77 85 pix_video;
#X obj 77 159 scaleXYZ;
#X floatatom 161 155 5 0 0 0 - - - 0;
#X obj 150 88 tgl 20 0 empty empty empty 0 -10 0 12 #fcfcfc #000000 #000000 0 1;
#X obj 77 112 pix_texture \; 0;
#X connect 4 0 26 1;
#X connect 5 0 29 0;
#X connect 11 0 5 1;
#X connect 12 0 6 1;
#X connect 13 0 7 1;
#X connect 14 0 8 1;
#X connect 15 0 9 1;
#X connect 16 0 10 1;
#X connect 17 0 16 0;
#X connect 17 0 15 0;
#X connect 17 0 14 0;
#X connect 17 0 13 0;
#X connect 17 0 12 0;
#X connect 17 0 11 0;
#X connect 17 0 4 0;
#X connect 20 0 10 0;
#X connect 20 0 9 0;
#X connect 20 0 8 0;
#X connect 20 0 7 0;
#X connect 20 0 6 0;
#X connect 20 0 5 0;
#X connect 20 0 26 0;
#X connect 21 0 20 1;
#X connect 22 0 20 2;
#X connect 23 0 20 3;
#X connect 24 0 30 0;
#X connect 26 0 27 0;
#X connect 30 0 34 0;
#X connect 31 0 20 0;
#X connect 32 0 31 1;
#X connect 32 0 31 2;
#X connect 32 0 31 3;
#X connect 33 0 34 0;
#X connect 34 0 31 0;
