#N canvas 514 238 782 673 12;
#X declare -lib Gem;
#X text 476 8 GEM object;
#N canvas 484 243 450 300 META 0;
#X obj 10 25 declare -lib Gem;
#X text 10 65 KEYWORDS Gem openGL shape;
#X text 20 85 INLET_0 gemlist draw;
#X text 20 125 OUTLET_0 gemlist;
#X text 10 165 LICENSE GPL v2;
#X text 10 45 DESCRIPTION Renders a line using a VBO;
#X text 20 105 INLET_1 arguments;
#X text 10 145 AUTHOR Cyrille Henry;
#X restore 576 10 pd META;
#X text 471 43 Example:;
#X obj 469 73 cnv 15 280 580 empty empty empty 20 12 0 14 #dce4fc #404040 0;
#X obj 481 165 cnv 15 260 390 empty empty empty 20 12 0 14 #14e814 #404040 0;
#X obj 475 108 gemhead;
#X msg 523 280 res \$1;
#X msg 554 356 color \$1 \$2 \$3 \$4;
#X msg 590 436 pos 0 \$1 \$2 \$3;
#X listbox 554 331 19 0 0 0 - - - 0;
#X msg 523 227 2;
#X floatatom 523 254 5 0 0 0 - - - 0;
#X listbox 590 410 14 0 0 0 - - - 0;
#X msg 590 384 0 0 0;
#X listbox 621 489 14 0 0 0 - - - 0;
#X msg 621 463 1 0 0;
#X msg 621 515 pos 1 \$1 \$2 \$3;
#X obj 475 138 alpha;
#X msg 502 197 width \$1;
#X floatatom 502 172 5 0 0 0 - - - 0;
#X msg 554 305 1 1 1 1;
#X obj 7 74 cnv 15 450 100 empty empty empty 20 12 0 14 #e0e0e0 #404040 0;
#X obj 8 225 cnv 15 450 310 empty empty empty 20 12 0 14 #e0e0e0 #404040 0;
#X text 9 230 Inlets:;
#X obj 8 185 cnv 15 450 30 empty empty empty 20 12 0 14 #bcbcbc #404040 0;
#X text 17 184 Arguments:;
#X text 27 256 Inlet 1: message: draw [line|fill|point];
#X text 27 242 Inlet 1: gemlist;
#X text 9 429 Outlets:;
#X text 23 447 Outlet 1: gemlist;
#X text 17 11 Synopsis: [VBOline];
#X text 37 38 Class: geometric object using Vertex Buffer Object;
#X text 7 78 Description: Renders a line;
#X text 24 101 This primitive create a line \, using only a framebuffer. It replace standard geo object when it's not possible to use them (like in shader version >150);
#X text 61 197 number of points in the line;
#X text 27 272 Inlet 2: message: res : number of point in the line;
#X text 27 288 Inlet 2: message: color float (R) float (G) float (B) float (A) : set the color of the line;
#X text 27 318 Inlet 2: message: pos float (Id) float (X) float (Y) float (Z): set the XYZ position of point: Id;
#X text 27 348 Inlet 2: message: table symbol (name) float (offset) floats (value) : send multiples data to the internal table.;
#X text 28 382 The internal table are : posX \, posY \, posZ \, colorR \, colorG \, colorB \, colorA;
#X obj 639 100 _gemwin;
#X obj 475 606 VBOline 3 \; width 2;
#X obj 475 574 GEMglPointSize 5;
#X text 16 491 internal tables (position and color) are reseted when the resolution is changed;
#X connect 5 0 17 0;
#X connect 6 0 41 1;
#X connect 7 0 41 1;
#X connect 8 0 41 1;
#X connect 9 0 7 0;
#X connect 10 0 11 0;
#X connect 11 0 6 0;
#X connect 12 0 8 0;
#X connect 13 0 12 0;
#X connect 14 0 16 0;
#X connect 15 0 14 0;
#X connect 16 0 41 1;
#X connect 17 0 42 0;
#X connect 18 0 41 0;
#X connect 19 0 18 0;
#X connect 20 0 9 0;
#X connect 42 0 41 0;
