#N canvas 679 46 934 869 12;
#X obj 34 27 inlet;
#X obj 276 113 gemargs;
#X obj 344 30 inlet;
#X text 418 185 forward to the corresponding table, f 21;
#X obj 407 320 send;
#X obj 481 234 list split 1;
#X obj 407 261 list trim;
#X obj 367 236 list split 1;
#X obj 683 251 unpack f f f f;
#X msg 683 417 const \$1;
#X obj 683 440 s table-\$0-colorR;
#X obj 261 21 loadbang;
#X msg 778 278 const \$1;
#X msg 746 324 const \$1;
#X msg 714 371 const \$1;
#X obj 714 394 s table-\$0-colorG;
#X obj 746 347 s table-\$0-colorB;
#X obj 778 301 s table-\$0-colorA;
#X obj 683 188 route color;
#X msg 344 535 color table-\$1-colorR table-\$1-colorG table-\$1-colorB table-\$1-colorA, f 39;
#X obj 344 476 delay 0;
#X text 426 479 delay is here to limit the update rate of thevertex buffer once per input message, f 45;
#X text 694 213 RGB or RGBA value;
#X obj 344 505 \$0;
#X obj 261 614 \$0;
#X obj 379 505 bng 20 250 50 0 empty empty empty 0 -10 0 12 #fcfcfc #000000 #000000;
#X obj 293 612 bng 20 250 50 0 empty empty empty 0 -10 0 12 #fcfcfc #000000 #000000;
#X obj 261 48 t b b;
#X obj 344 185 t b a a;
#X obj 344 430 b;
#X msg 365 116 color 1 1 1 1;
#X obj 344 152 route table, f 27;
#X obj 34 721 gemvertexbuffer \; draw tristrip \; resize 4 \;;
#X obj 58 83 table table-\$0-posX 4;
#X obj 58 105 table table-\$0-posY 4;
#X obj 58 127 table table-\$0-posZ 4;
#X obj 58 152 table table-\$0-colorR 4;
#X obj 58 174 table table-\$0-colorG 4;
#X obj 58 196 table table-\$0-colorB 4;
#X obj 58 218 table table-\$0-colorA 4;
#X obj 58 243 table table-\$0-textureU 4;
#X obj 58 265 table table-\$0-textureV 4;
#X obj 58 290 table table-\$0-normalX 4;
#X obj 58 312 table table-\$0-normalY 4;
#X obj 58 334 table table-\$0-normalZ 4;
#X obj 34 775 outlet;
#X obj 481 258 list prepend \$0;
#X msg 481 281 symbol table-\$1-\$2;
#X msg 261 644 position table-\$1-posX table-\$1-posY table-\$1-posZ \, texture table-\$1-textureU table-\$1-textureV \, normal table-\$1-normalX table-\$1-normalY table-\$1-normalZ;
#X msg 491 99 posX 0 -1 1 -1 1 \, posY 0 -1 -1 1 1 \, textureU 0 0 1 0 1 \, textureV 0 1 1 0 0 \, normalZ 0 1 1 1 1;
#X text 257 722 TODO : for rectangle texturing \, the textureU table must be multiply by the image size X \, and textureV table must be multiply by the image size Y;
#X text 254 780 TODO : add a size message for the square (is that really needed? a scaleXYZ object can be use);
#X connect 0 0 32 0;
#X connect 1 0 31 0;
#X connect 2 0 31 0;
#X connect 5 0 46 0;
#X connect 6 0 4 0;
#X connect 7 1 6 0;
#X connect 8 0 9 0;
#X connect 8 1 14 0;
#X connect 8 2 13 0;
#X connect 8 3 12 0;
#X connect 9 0 10 0;
#X connect 11 0 27 0;
#X connect 12 0 17 0;
#X connect 13 0 16 0;
#X connect 14 0 15 0;
#X connect 18 0 8 0;
#X connect 18 0 20 0;
#X connect 19 0 32 0;
#X connect 20 0 23 0;
#X connect 23 0 19 0;
#X connect 24 0 48 0;
#X connect 25 0 23 0;
#X connect 26 0 24 0;
#X connect 27 0 1 0;
#X connect 27 0 24 0;
#X connect 27 1 30 0;
#X connect 27 1 49 0;
#X connect 28 0 29 0;
#X connect 28 1 7 0;
#X connect 28 2 5 0;
#X connect 29 0 20 0;
#X connect 30 0 31 0;
#X connect 31 0 28 0;
#X connect 31 1 18 0;
#X connect 32 0 45 0;
#X connect 46 0 47 0;
#X connect 47 0 4 1;
#X connect 48 0 32 0;
#X connect 49 0 28 0;
