#N canvas 856 26 505 389 10;
#X obj 142 347 s \$1-ctl;
#X msg 143 144 backend test \, device test;
#X msg 179 185 dimen 720 480;
#X obj 180 299 t a;
#X text 51 50 a test backend for [pix_video];
#X text 55 111 This backend creates simple test patterns:;
#X msg 210 236 set type noise;
#X msg 210 256 set type red;
#X msg 210 276 set type green;
#X msg 210 296 set type blue;
#X connect 1 0 0 0;
#X connect 2 0 0 0;
#X connect 3 0 0 0;
#X connect 6 0 3 0;
#X connect 7 0 3 0;
#X connect 8 0 3 0;
#X connect 9 0 3 0;
