#N canvas 494 187 561 758 12;
#X obj 123 88 inlet;
#X obj 123 143 i \$1;
#X msg 123 228 args \$1;
#X obj 123 253 pdcontrol;
#X obj 140 302 until;
#X obj 140 327 i;
#X obj 140 352 t f f;
#X msg 140 377 get \$1 1;
#X obj 140 402 list store;
#X obj 188 338 + 1;
#X msg 265 301 0;
#X obj 140 427 select \;;
#X obj 186 487 t l l;
#X obj 140 534 list;
#X obj 140 559 t l b;
#X obj 186 462 list prepend;
#X obj 140 589 list prepend 0;
#X obj 140 614 route 1 0, f 31;
#X obj 247 641 list;
#X obj 247 697 outlet arguments;
#X obj 140 697 outlet initmsg;
#X obj 247 664 t a b;
#X msg 300 664 1;
#X msg 340 529 0;
#X obj 340 559 t f;
#X obj 123 277 t b b a b b b;
#X text 61 36 get the arguments of the parent patch (with args and init-messages separated by semicolon);
#X text 271 130 © 2023 IOhannes m zmölnig \; part of GEM \; see LICENSE.txt for license information;
#X obj 123 168 max 0;
#X obj 123 193 + 1;
#X obj 123 112 t b;
#X connect 0 0 30 0;
#X connect 1 0 28 0;
#X connect 2 0 3 0;
#X connect 3 0 25 0;
#X connect 4 0 5 0;
#X connect 5 0 6 0;
#X connect 6 0 7 0;
#X connect 6 1 9 0;
#X connect 7 0 8 0;
#X connect 8 0 11 0;
#X connect 8 1 4 1;
#X connect 9 0 5 1;
#X connect 10 0 5 1;
#X connect 11 0 13 0;
#X connect 11 1 15 0;
#X connect 12 0 13 1;
#X connect 12 1 15 1;
#X connect 13 0 14 0;
#X connect 14 0 16 0;
#X connect 14 1 15 1;
#X connect 15 0 12 0;
#X connect 16 0 17 0;
#X connect 17 0 20 0;
#X connect 17 1 18 0;
#X connect 18 0 21 0;
#X connect 21 0 19 0;
#X connect 21 1 22 0;
#X connect 22 0 24 0;
#X connect 23 0 24 0;
#X connect 24 0 16 1;
#X connect 25 0 13 0;
#X connect 25 1 4 0;
#X connect 25 2 8 1;
#X connect 25 3 10 0;
#X connect 25 4 12 0;
#X connect 25 5 23 0;
#X connect 28 0 29 0;
#X connect 29 0 2 0;
#X connect 30 0 1 0;
