#N canvas 0 0 450 300 10;
#X obj 125 66 inlet;
#X obj 125 183 outlet;
#X obj 125 121 gemglutwindow;
#X obj 137 145 t a a;
#X obj 180 147 route bang;
#X obj 226 168 print gemglutwin;
#X connect 0 0 2 0;
#X connect 2 0 3 0;
#X connect 3 0 1 0;
#X connect 3 1 4 0;
#X connect 4 1 5 0;
