#N canvas 137 227 769 392 10;
#N canvas 508 180 1004 578 gemreceive 0;
#X obj 109 342 gemreceive __gem \$1;
#X text 440 142 LATER: make "50" be the default & handle negative render-orders
;
#X obj 109 413 outlet;
#X obj 239 58 inlet order;
#X obj 239 177 select 0;
#X msg 239 198 50;
#X obj 109 365 spigot 1;
#X obj 109 390 t a;
#X obj 269 342 gemreceive __gem_osd \$1;
#X obj 239 222 t f f f;
#X obj 285 275 t f f;
#X obj 285 301 > 0;
#X obj 317 301 < 0;
#X obj 269 365 spigot 0;
#X connect 0 0 6 0;
#X connect 3 0 4 0;
#X connect 4 0 5 0;
#X connect 4 1 9 0;
#X connect 5 0 9 0;
#X connect 6 0 7 0;
#X connect 7 0 2 0;
#X connect 8 0 13 0;
#X connect 9 0 0 1;
#X connect 9 1 8 1;
#X connect 9 2 10 0;
#X connect 10 0 11 0;
#X connect 10 1 12 0;
#X connect 11 0 6 1;
#X connect 12 0 13 1;
#X connect 13 0 7 0;
#X restore 170 69 pd gemreceive;
#X obj 170 155 gemlist;
#N canvas 602 92 635 363 material 0;
#X obj 98 88 inlet gemlist;
#X obj 98 258 outlet gemlist;
#X obj 98 117 GEMglColor4f 1 1 1 1;
#X obj 98 143 GEMglMaterialfv GL_FRONT_AND_BACK GL_AMBIENT 0.2 0.2
0.2 1;
#X obj 98 163 GEMglMaterialfv GL_FRONT_AND_BACK GL_DIFFUSE 0.8 0.8
0.8 1;
#X obj 98 183 GEMglMaterialfv GL_FRONT_AND_BACK GL_EMISSION 0 0 0 1
;
#X obj 98 203 GEMglMaterialfv GL_FRONT_AND_BACK GL_SPECULAR 0 0 0 1
;
#X obj 98 223 GEMglMaterialfv GL_FRONT_AND_BACK GL_SHININESS 0;
#X connect 0 0 2 0;
#X connect 2 0 3 0;
#X connect 3 0 4 0;
#X connect 4 0 5 0;
#X connect 5 0 6 0;
#X connect 6 0 7 0;
#X connect 7 0 1 0;
#X restore 170 197 pd material;
#X obj 170 221 t a a a;
#X obj 216 242 GEMglPushMatrix;
#X obj 170 282 GEMglPopMatrix;
#X obj 193 333 outlet gemlist;
#N canvas 551 220 450 300 gemstate 0;
#X obj 142 76 inlet gemstate;
#X obj 142 216 outlet gemstate;
#X text 150 113 LATER:;
#X text 186 131 state->reset();
#X text 187 147 state->dirty;
#X text 187 163 state->VertexDirty;
#X connect 0 0 1 0;
#X restore 193 309 pd gemstate;
#X obj 130 18 inlet control;
#X obj 130 40 route bang float set;
#X obj 223 94 i;
#X obj 170 116 spigot 1;
#N canvas 0 0 650 510 defaultarg 0;
#X obj 134 132 loadbang;
#X obj 134 265 outlet;
#X obj 134 157 f \$1;
#X connect 0 0 2 0;
#X connect 2 0 1 0;
#X restore 286 39 pd defaultarg;
#N canvas 677 348 450 300 TODO 0;
#X obj 103 97 loadbang;
#X obj 103 186 print gemhead;
#X msg 238 177 04.pix/16.alphaGrey;
#X msg 103 139 need to fix cache thing... \, need to fix single-buffer
mode;
#X msg 239 207 02.advanced/07.Snapshot1;
#X connect 0 0 3 0;
#X connect 3 0 1 0;
#X restore 518 161 pd TODO;
#X connect 0 0 11 0;
#X connect 1 0 2 0;
#X connect 2 0 3 0;
#X connect 3 0 5 0;
#X connect 3 1 7 0;
#X connect 3 2 4 0;
#X connect 7 0 6 0;
#X connect 8 0 9 0;
#X connect 9 0 1 0;
#X connect 9 1 10 0;
#X connect 9 2 0 0;
#X connect 10 0 11 1;
#X connect 11 0 1 0;
#X connect 12 0 0 0;
