#N canvas 187 51 535 410 10;
#X obj 104 17 r __gem;
#X obj 104 119 list split 1;
#X obj 104 93 route keyboard dimen;
#X obj 138 140 list trim;
#X obj 400 262 outlet keyname;
#X obj 138 261 outlet state;
#X obj 138 162 route keyname;
#X obj 138 184 list;
#X msg 138 206 list \$2 \$1;
#X obj 138 228 unpack 0 s;
#X text 106 302 © 2014 IOhannes m zmölnig \; part of GEM \; see LICENSE.txt for license information;
#X obj 289 22 loadbang;
#X obj 289 70 list prepend \$1;
#X obj 289 93 list trim;
#X obj 289 116 list split 1;
#X obj 289 139 route symbol;
#X obj 289 46 t b b, f 17;
#X obj 104 55 route contextname;
#X msg 388 70 symbol;
#X obj 289 162 t s;
#X connect 0 0 17 0;
#X connect 1 1 3 0;
#X connect 2 0 1 0;
#X connect 3 0 6 0;
#X connect 6 0 7 0;
#X connect 7 0 8 0;
#X connect 8 0 9 0;
#X connect 9 0 5 0;
#X connect 9 1 4 0;
#X connect 11 0 16 0;
#X connect 12 0 13 0;
#X connect 13 0 14 0;
#X connect 14 0 15 0;
#X connect 15 0 19 0;
#X connect 16 0 12 0;
#X connect 16 1 18 0;
#X connect 17 0 2 0;
#X connect 18 0 19 0;
#X connect 19 0 17 1;
