#N canvas 187 51 535 289 10;
#X obj 104 31 r __gem;
#X obj 104 83 list split 1;
#X obj 410 79 inlet ???;
#X obj 104 52 route keyboard dimen;
#X obj 138 104 list trim;
#X obj 400 226 outlet keyname;
#X obj 138 225 outlet state;
#X obj 138 126 route keyname;
#X obj 138 148 list;
#X msg 138 170 list \$2 \$1;
#X obj 138 192 unpack 0 s;
#X connect 0 0 3 0;
#X connect 1 1 4 0;
#X connect 3 0 1 0;
#X connect 4 0 7 0;
#X connect 7 0 8 0;
#X connect 8 0 9 0;
#X connect 9 0 10 0;
#X connect 10 0 6 0;
#X connect 10 1 5 0;
