#N canvas 189 51 535 360 10;
#X obj 104 31 r __gem;
#X obj 104 136 list split 1;
#X obj 104 105 route keyboard dimen;
#X obj 138 258 outlet keynum;
#X obj 138 157 list trim;
#X obj 138 179 route key;
#X obj 138 201 unpack 0 0;
#X obj 138 223 spigot;
#X text 101 283 © 2014 IOhannes m zmölnig \; part of GEM \; see LICENSE.txt for license information;
#X obj 289 22 loadbang;
#X obj 289 70 list prepend \$1;
#X obj 289 93 list trim;
#X obj 289 116 list split 1;
#X obj 289 139 route symbol;
#X obj 289 46 t b b, f 17;
#X obj 104 68 route contextname;
#X msg 388 70 symbol;
#X obj 289 162 t s;
#X connect 0 0 15 0;
#X connect 1 1 4 0;
#X connect 2 0 1 0;
#X connect 4 0 5 0;
#X connect 5 0 6 0;
#X connect 6 0 7 0;
#X connect 6 1 7 1;
#X connect 7 0 3 0;
#X connect 9 0 14 0;
#X connect 10 0 11 0;
#X connect 11 0 12 0;
#X connect 12 0 13 0;
#X connect 13 0 17 0;
#X connect 14 0 10 0;
#X connect 14 1 16 0;
#X connect 15 0 2 0;
#X connect 16 0 17 0;
#X connect 17 0 15 1;
