#N canvas 1229 116 717 703 10;
#X obj 114 567 outlet x;
#X obj 183 567 outlet y;
#X obj 390 507 outlet Left;
#X obj 500 507 outlet Middle;
#X obj 610 507 outlet Right;
#N canvas 777 211 506 567 arguments 0;
#X obj 54 19 inlet reset;
#X obj 213 499 outlet yscale;
#X obj 225 296 unpack 0 0;
#X obj 198 269 t b l;
#X obj 198 18 inlet dimen;
#X obj 54 206 list split 2;
#X obj 54 234 t l l;
#X obj 54 257 list length;
#X obj 54 280 list append;
#X obj 54 303 route 0 1 2;
#X obj 123 389 pack 500 500;
#X obj 123 412 unpack;
#X obj 123 453 pack 500 500;
#X obj 123 476 /;
#X obj 213 453 pack 500 500;
#X obj 213 476 /;
#X obj 123 499 outlet xscale;
#X msg 54 406 1;
#X obj 54 429 t f f;
#X obj 75 330 t f f, f 20;
#X obj 54 42 t b a b, f 10;
#X obj 82 67 list split 1;
#X obj 54 169 list store;
#X obj 116 89 t a;
#X obj 82 119 route float, f 40;
#X msg 82 142 prepend \$1;
#X obj 319 452 route symbol;
#X obj 319 499 outlet context;
#X msg 410 452 symbol;
#X connect 0 0 20 0;
#X connect 2 0 12 1;
#X connect 2 1 14 1;
#X connect 3 0 10 0;
#X connect 3 1 2 0;
#X connect 4 0 3 0;
#X connect 5 0 6 0;
#X connect 5 2 6 0;
#X connect 6 0 7 0;
#X connect 6 1 8 1;
#X connect 7 0 8 0;
#X connect 8 0 9 0;
#X connect 9 0 17 0;
#X connect 9 1 19 0;
#X connect 9 2 10 0;
#X connect 10 0 11 0;
#X connect 11 0 12 0;
#X connect 11 1 14 0;
#X connect 12 0 13 0;
#X connect 13 0 16 0;
#X connect 14 0 15 0;
#X connect 15 0 1 0;
#X connect 17 0 18 0;
#X connect 18 0 16 0;
#X connect 18 1 1 0;
#X connect 19 0 10 0;
#X connect 19 1 10 1;
#X connect 20 0 22 0;
#X connect 20 1 21 0;
#X connect 20 2 22 1;
#X connect 20 2 28 0;
#X connect 21 0 24 0;
#X connect 21 1 23 0;
#X connect 22 0 5 0;
#X connect 23 0 21 0;
#X connect 24 0 25 0;
#X connect 24 1 26 0;
#X connect 25 0 22 0;
#X connect 26 0 27 0;
#X connect 28 0 27 0;
#X restore 186 373 pd arguments;
#X f 18;
#X obj 171 401 * 1;
#X obj 223 402 * 1;
#X obj 110 7 r __gem;
#X obj 110 79 route mouse dimen;
#X obj 171 208 route motion button;
#X obj 144 157 t b a;
#X obj 144 454 f;
#X obj 390 365 route 0 1 2;
#X obj 110 110 list split 1;
#X obj 144 135 list trim;
#X obj 144 483 pack;
#X obj 144 505 unpack;
#N canvas 179 390 849 418 out-of-window 0;
#X obj 336 22 inlet dimen;
#X obj 53 22 inlet XY;
#X obj 134 94 unpack;
#X obj 134 116 t f f;
#X obj 134 138 > 0;
#X obj 134 160 *;
#X obj 161 138 < 500;
#X obj 134 182 *;
#X obj 204 116 t f f;
#X obj 204 138 > 0;
#X obj 204 160 *;
#X obj 231 138 < 500;
#X obj 225 92 unpack;
#X obj 53 207 list prepend 1;
#X obj 53 58 t l l;
#X obj 53 229 route 1 0;
#X obj 53 251 outlet inside;
#X obj 153 251 outlet outside;
#X connect 0 0 12 0;
#X connect 1 0 14 0;
#X connect 2 0 3 0;
#X connect 2 1 8 0;
#X connect 3 0 4 0;
#X connect 3 1 6 0;
#X connect 4 0 5 0;
#X connect 5 0 7 0;
#X connect 6 0 5 1;
#X connect 7 0 13 1;
#X connect 8 0 9 0;
#X connect 8 1 11 0;
#X connect 9 0 10 0;
#X connect 10 0 7 1;
#X connect 11 0 10 1;
#X connect 12 0 6 1;
#X connect 12 1 11 1;
#X connect 13 0 15 0;
#X connect 14 0 13 0;
#X connect 14 1 2 0;
#X connect 15 0 16 0;
#X connect 15 1 17 0;
#X restore 171 261 pd out-of-window;
#X obj 264 237 t l l;
#X obj 171 283 unpack;
#X obj 68 321 gemargs;
#N canvas 735 459 450 300 initbang 0;
#X obj 95 95 loadbang;
#X obj 180 95 savestate;
#X msg 240 121 list init;
#X obj 95 130 t b;
#X obj 95 155 spigot 1;
#X obj 95 180 t b b;
#X msg 140 180 0;
#X obj 95 205 outlet;
#X connect 0 0 3 0;
#X connect 1 0 3 0;
#X connect 1 1 2 0;
#X connect 2 0 1 0;
#X connect 3 0 4 0;
#X connect 4 0 5 0;
#X connect 5 0 7 0;
#X connect 5 1 6 0;
#X connect 6 0 4 1;
#X restore 68 298 pd initbang;
#X text 363 33 0 args: do not scale;
#X text 367 48 1 args: xscale=yscale;
#X text 371 65 2 args: xscale \, yscale;
#X obj 144 427 delay 0;
#X text 101 620 © 2009 IOhannes m zmölnig \; part of GEM \; see LICENSE.txt for license information;
#N canvas 405 75 426 291 get-window-dimen-on-create 0;
#X obj 54 198 pack f f;
#X obj 54 221 outlet;
#X obj 54 54 r \$0-contextname;
#X obj 54 149 v;
#X obj 99 174 v;
#X msg 69 118 symbol __gem_window-\$1-width;
#X msg 114 146 symbol __gem_window-\$1-height;
#X obj 54 77 t b b s;
#X connect 0 0 1 0;
#X connect 2 0 7 0;
#X connect 3 0 0 0;
#X connect 4 0 0 1;
#X connect 5 0 3 1;
#X connect 6 0 4 1;
#X connect 7 0 3 0;
#X connect 7 1 4 0;
#X connect 7 2 5 0;
#X connect 7 2 6 0;
#X restore 264 175 pd get-window-dimen-on-create;
#X obj 291 400 s \$0-contextname;
#X obj 110 43 route contextname;
#X obj 209 11 r \$0-contextname;
#X text 351 12 float arguments:;
#X text 523 12 symbol argument:;
#X text 534 30 contextname;
#X connect 5 0 6 1;
#X connect 5 1 7 1;
#X connect 5 2 29 0;
#X connect 6 0 12 1;
#X connect 7 0 16 1;
#X connect 8 0 30 0;
#X connect 9 0 14 0;
#X connect 9 1 19 0;
#X connect 10 0 18 0;
#X connect 10 1 13 0;
#X connect 11 0 26 0;
#X connect 11 1 10 0;
#X connect 12 0 16 0;
#X connect 13 0 2 0;
#X connect 13 1 3 0;
#X connect 13 2 4 0;
#X connect 14 1 15 0;
#X connect 15 0 11 0;
#X connect 16 0 17 0;
#X connect 17 0 0 0;
#X connect 17 1 1 0;
#X connect 18 0 20 0;
#X connect 19 0 18 1;
#X connect 19 1 5 1;
#X connect 20 0 6 0;
#X connect 20 1 7 0;
#X connect 21 1 5 0;
#X connect 22 0 21 0;
#X connect 26 0 12 0;
#X connect 28 0 19 0;
#X connect 30 0 9 0;
#X connect 31 0 30 1;
