#N canvas 56 51 1068 713 10;
#X obj 114 537 outlet x;
#X obj 183 537 outlet y;
#X obj 390 477 outlet Left;
#X obj 500 477 outlet Middle;
#X obj 610 477 outlet Right;
#N canvas 336 87 557 430 arguments 0;
#X obj 139 87 inlet reset;
#X obj 139 110 t b;
#N canvas 0 50 877 440 argcount 0;
#X obj 32 46 inlet;
#X obj 50 178 select s;
#X obj 50 128 t b b;
#X obj 156 155 makefilename $%d-test;
#X obj 50 155 symbol \$1-test;
#X msg 156 135 1;
#X obj 570 178 select s;
#X obj 570 128 t b b;
#X obj 676 155 makefilename $%d-test;
#X msg 676 135 3;
#X obj 50 242 t f;
#X obj 32 306 f;
#X obj 32 74 t b b b;
#X msg 78 279 -1;
#X obj 32 360 outlet;
#X obj 570 155 symbol \$3-test;
#X msg 50 199 0;
#X obj 310 178 select s;
#X obj 310 128 t b b;
#X obj 416 155 makefilename $%d-test;
#X msg 416 135 2;
#X obj 310 155 symbol \$2-test;
#X msg 310 199 1;
#X msg 570 199 2;
#X obj 287 101 t b b b;
#X connect 0 0 12 0;
#X connect 1 0 16 0;
#X connect 2 0 4 0;
#X connect 2 1 5 0;
#X connect 3 0 1 1;
#X connect 4 0 1 0;
#X connect 5 0 3 0;
#X connect 6 0 23 0;
#X connect 7 0 15 0;
#X connect 7 1 9 0;
#X connect 8 0 6 1;
#X connect 9 0 8 0;
#X connect 10 0 11 1;
#X connect 11 0 14 0;
#X connect 12 0 11 0;
#X connect 12 1 24 0;
#X connect 12 2 13 0;
#X connect 13 0 11 1;
#X connect 15 0 6 0;
#X connect 16 0 10 0;
#X connect 17 0 22 0;
#X connect 18 0 21 0;
#X connect 18 1 20 0;
#X connect 19 0 17 1;
#X connect 20 0 19 0;
#X connect 21 0 17 0;
#X connect 22 0 10 0;
#X connect 23 0 10 0;
#X connect 24 0 2 0;
#X connect 24 1 18 0;
#X connect 24 2 7 0;
#X restore 139 134 pd argcount;
#X obj 139 182 select 0 1 2;
#X obj 253 352 outlet yscale;
#X obj 139 322 outlet yscale;
#X obj 139 160 i;
#X obj 253 323 /;
#X obj 201 201 t b b;
#X obj 166 223 f \$1;
#X obj 201 223 f \$1;
#X obj 233 223 f \$2;
#X obj 366 142 unpack 0 0;
#X obj 334 121 t b l;
#X obj 166 244 pack 0 500;
#X obj 139 270 pack 500 500;
#X obj 253 300 pack 500 500;
#X obj 139 293 /;
#X obj 334 97 inlet dimen;
#X floatatom 65 186 5 0 0 0 - - -, f 5;
#X msg 77 87 bang;
#X msg 139 203 1 1;
#X connect 0 0 1 0;
#X connect 1 0 2 0;
#X connect 2 0 6 0;
#X connect 3 0 21 0;
#X connect 3 1 9 0;
#X connect 3 2 8 0;
#X connect 6 0 3 0;
#X connect 6 0 19 0;
#X connect 7 0 4 0;
#X connect 8 0 10 0;
#X connect 8 1 11 0;
#X connect 9 0 14 0;
#X connect 10 0 15 0;
#X connect 11 0 16 0;
#X connect 12 0 15 1;
#X connect 12 0 17 1;
#X connect 12 1 14 1;
#X connect 12 1 16 1;
#X connect 13 0 6 0;
#X connect 13 1 12 0;
#X connect 14 0 15 0;
#X connect 14 0 16 0;
#X connect 15 0 17 0;
#X connect 16 0 7 0;
#X connect 17 0 5 0;
#X connect 18 0 13 0;
#X connect 20 0 1 0;
#X connect 21 0 15 0;
#X connect 21 0 16 0;
#X restore 186 303 pd arguments;
#X obj 171 341 * 1;
#X obj 240 341 * 1;
#X obj 186 278 loadbang;
#X obj 110 28 r __gem;
#X obj 110 49 route mouse dimen;
#X obj 171 178 route motion button;
#X obj 144 127 t b a;
#X obj 144 394 f;
#X obj 144 367 del 0;
#X obj 390 295 route 0 1 2;
#X obj 110 80 list split 1;
#X obj 144 105 list trim;
#X obj 144 453 pack;
#X obj 144 475 unpack;
#N canvas 179 390 849 418 out-of-window 0;
#X obj 336 22 inlet dimen;
#X obj 53 22 inlet XY;
#X obj 134 94 unpack;
#X obj 134 116 t f f;
#X obj 134 138 > 0;
#X obj 134 160 *;
#X obj 161 138 < 500;
#X obj 134 182 *;
#X obj 204 116 t f f;
#X obj 204 138 > 0;
#X obj 204 160 *;
#X obj 231 138 < 500;
#X obj 225 92 unpack;
#X obj 53 207 list prepend 1;
#X obj 53 58 t l l;
#X obj 53 229 route 1 0;
#X obj 53 251 outlet inside;
#X obj 153 251 outlet outside;
#X connect 0 0 12 0;
#X connect 1 0 14 0;
#X connect 2 0 3 0;
#X connect 2 1 8 0;
#X connect 3 0 4 0;
#X connect 3 1 6 0;
#X connect 4 0 5 0;
#X connect 5 0 7 0;
#X connect 6 0 5 1;
#X connect 7 0 13 1;
#X connect 8 0 9 0;
#X connect 8 1 11 0;
#X connect 9 0 10 0;
#X connect 10 0 7 1;
#X connect 11 0 10 1;
#X connect 12 0 6 1;
#X connect 12 1 11 1;
#X connect 13 0 15 0;
#X connect 14 0 13 0;
#X connect 14 1 2 0;
#X connect 15 0 16 0;
#X connect 15 1 17 0;
#X restore 171 231 pd out-of-window;
#X obj 264 207 t l l;
#X obj 171 253 unpack;
#X connect 5 0 6 1;
#X connect 5 1 7 1;
#X connect 6 0 13 1;
#X connect 7 0 18 1;
#X connect 8 0 5 0;
#X connect 9 0 10 0;
#X connect 10 0 16 0;
#X connect 10 1 21 0;
#X connect 11 0 20 0;
#X connect 11 1 15 0;
#X connect 12 0 14 0;
#X connect 12 1 11 0;
#X connect 13 0 18 0;
#X connect 14 0 13 0;
#X connect 15 0 2 0;
#X connect 15 1 3 0;
#X connect 15 2 4 0;
#X connect 16 1 17 0;
#X connect 17 0 12 0;
#X connect 18 0 19 0;
#X connect 19 0 0 0;
#X connect 19 1 1 0;
#X connect 20 0 22 0;
#X connect 21 0 20 1;
#X connect 21 1 5 1;
#X connect 22 0 6 0;
#X connect 22 1 7 0;
