#N canvas 449 340 729 383 10;
#X declare -lib Gem;
#X obj 489 64 cnv 15 200 250 empty empty empty 20 12 0 14 #dce4fc #404040 0;
#X obj 574 249 cnv 15 100 60 empty empty empty 20 12 0 14 #bcbcbc #404040 0;
#N canvas 0 0 450 300 gemwin 0;
#X obj 132 136 gemwin;
#X obj 67 89 outlet;
#X obj 67 10 inlet;
#X obj 67 41 route create;
#X msg 67 70 set destroy;
#X msg 142 68 set create;
#X msg 198 112 destroy;
#X msg 132 112 create \, 1;
#X connect 2 0 3 0;
#X connect 3 0 4 0;
#X connect 3 0 7 0;
#X connect 3 1 5 0;
#X connect 3 1 6 0;
#X connect 4 0 1 0;
#X connect 5 0 1 0;
#X connect 6 0 0 0;
#X connect 7 0 0 0;
#X restore 579 288 pd gemwin;
#X msg 579 269 destroy;
#X text 575 248 Create window:;
#X obj 7 65 cnv 15 450 100 empty empty empty 20 12 0 14 #e0e0e0 #404040 0;
#X obj 8 216 cnv 15 450 100 empty empty empty 20 12 0 14 #e0e0e0 #404040 0;
#X text 9 221 Inlets:;
#X obj 8 176 cnv 15 450 30 empty empty empty 20 12 0 14 #bcbcbc #404040 0;
#X text 17 175 Arguments:;
#X text 502 8 GEM object;
#X text 27 233 Inlet 1: gemlist;
#X text 9 280 Outlets:;
#X text 21 293 Outlet 1: gemlist;
#X text 495 44 Example:;
#X obj 492 113 cnv 15 150 50 empty empty empty 20 12 0 14 #14e814 #404040 0;
#X msg 606 193 draw line;
#X obj 500 72 gemhead;
#X text 597 72 size;
#X obj 500 238 square;
#X obj 578 8 declare -lib Gem;
#X obj 500 175 rotateXYZ 0 0 20;
#X obj 500 93 t a b;
#X obj 500 197 scaleXYZ 0.9;
#X obj 593 119 i;
#X obj 622 119 + 1;
#X obj 606 169 loadbang;
#X floatatom 593 140 5 0 0 0 - - - 0;
#X obj 650 120 mod 359;
#X text 7 69 Description: Repeat any message several times.;
#X text 16 86 Repeat the gemlist to generate multiple copies of the same object.;
#X text 63 186 initializes the number of repeats;
#X text 27 247 Inlet 1: message: number of repeats (int);
#X text 33 14 Synopsis: [repeat];
#X text 54 30 Class: manipulation object;
#X floatatom 552 122 5 0 0 0 - - - 0;
#X obj 500 141 gemrepeat 20;
#X connect 2 0 3 0;
#X connect 3 0 2 0;
#X connect 16 0 19 0;
#X connect 17 0 22 0;
#X connect 21 0 23 0;
#X connect 22 0 36 0;
#X connect 22 1 24 0;
#X connect 23 0 19 0;
#X connect 24 0 27 0;
#X connect 24 0 25 0;
#X connect 25 0 28 0;
#X connect 26 0 16 0;
#X connect 27 0 21 3;
#X connect 28 0 24 1;
#X connect 35 0 36 1;
#X connect 36 0 21 0;
