#N canvas 493 338 450 395 12;
#X obj 50 94 inlet gemlist;
#X obj 296 94 inlet count;
#X obj 124 196 t b a;
#X obj 124 221 i \$1, f 25;
#X obj 124 246 until;
#X obj 50 122 route gem_state;
#X obj 50 148 route float;
#X msg 50 173 gem_state \$1;
#X obj 124 330 t a;
#X obj 124 355 outlet;
#X text 36 21 repeat gem_state messages \, but nothing else;
#X text 39 57 also \, the start/stop gem_state messages are not repeated;
#X obj 124 300 gemlist;
#X obj 170 245 list prepend gem_state;
#X obj 170 273 list trim;
#X connect 0 0 5 0;
#X connect 1 0 3 1;
#X connect 2 0 3 0;
#X connect 2 1 13 0;
#X connect 3 0 4 0;
#X connect 4 0 12 0;
#X connect 5 0 6 0;
#X connect 5 1 8 0;
#X connect 6 0 7 0;
#X connect 6 1 2 0;
#X connect 7 0 8 0;
#X connect 8 0 9 0;
#X connect 12 0 8 0;
#X connect 13 0 14 0;
#X connect 14 0 12 1;
