#N canvas 647 206 450 568 10;
#X obj 47 84 route 0;
#X msg 47 56 \$2 \$3 \$1;
#X obj 47 409 f;
#X obj 91 111 unpack 0 0 0;
#X text 110 71 svh;
#X obj 47 28 inlet hsv;
#X obj 47 520 outlet rgb;
#X obj 261 149 * 6;
#X obj 240 196 % 6;
#X obj 210 173 t f f;
#X msg 210 149 0;
#X text 266 196 i;
#X obj 210 219 -;
#X obj 91 217 *;
#X obj 91 178 - 1;
#X obj 91 198 * -1;
#X obj 123 330 *;
#X obj 123 291 - 1;
#X obj 123 311 * -1;
#X obj 123 269 *;
#X obj 210 240 t f f;
#X obj 240 262 - 1;
#X obj 240 283 * -1;
#X obj 162 356 *;
#X obj 162 317 - 1;
#X obj 162 337 * -1;
#X obj 162 295 *;
#X obj 91 151 t f f f;
#X obj 101 392 pack 0 0 0 0;
#N canvas 387 255 646 315 select 0;
#X obj 290 37 inlet;
#X obj 16 247 outlet;
#X obj 92 104 t b l;
#X obj 125 128 unpack 0 0 0 0;
#X obj 89 43 inlet p q t v;
#X obj 92 128 i;
#X obj 92 151 select 0 1 2 3 4 5;
#X obj 16 223 pack 0 0 0;
#X obj 16 203 f;
#X obj 96 223 pack 0 0 0;
#X obj 96 203 f;
#X obj 176 223 pack 0 0 0;
#X obj 176 203 f;
#X obj 256 223 pack 0 0 0;
#X obj 256 203 f;
#X obj 336 223 pack 0 0 0;
#X obj 336 203 f;
#X obj 416 223 pack 0 0 0;
#X obj 416 203 f;
#X connect 0 0 5 1;
#X connect 2 0 5 0;
#X connect 2 1 3 0;
#X connect 3 0 7 2;
#X connect 3 0 9 2;
#X connect 3 0 12 1;
#X connect 3 0 14 1;
#X connect 3 0 15 1;
#X connect 3 0 17 1;
#X connect 3 1 10 1;
#X connect 3 1 13 1;
#X connect 3 1 17 2;
#X connect 3 2 7 1;
#X connect 3 2 11 2;
#X connect 3 2 16 1;
#X connect 3 3 8 1;
#X connect 3 3 9 1;
#X connect 3 3 11 1;
#X connect 3 3 13 2;
#X connect 3 3 15 2;
#X connect 3 3 18 1;
#X connect 4 0 2 0;
#X connect 5 0 6 0;
#X connect 6 0 8 0;
#X connect 6 1 10 0;
#X connect 6 2 12 0;
#X connect 6 3 14 0;
#X connect 6 4 16 0;
#X connect 6 5 18 0;
#X connect 7 0 1 0;
#X connect 8 0 7 0;
#X connect 9 0 1 0;
#X connect 10 0 9 0;
#X connect 11 0 1 0;
#X connect 12 0 11 0;
#X connect 13 0 1 0;
#X connect 14 0 13 0;
#X connect 15 0 1 0;
#X connect 16 0 15 0;
#X connect 17 0 1 0;
#X connect 18 0 17 0;
#X restore 101 416 pd select;
#X msg 47 478 \$1 \$1 \$1;
#X obj 47 450 clip 0 1;
#X obj 91 131 clip 0 1;
#X obj 130 173 clip 0 1;
#X obj 210 109 clip 0 1;
#X obj 210 129 select 1;
#X text 171 470 © 2006 IOhannes m zmölnig \; part of GEM \; see LICENSE.txt for license information;
#X connect 0 0 2 0;
#X connect 0 1 3 0;
#X connect 1 0 0 0;
#X connect 2 0 31 0;
#X connect 3 0 32 0;
#X connect 3 1 33 0;
#X connect 3 2 34 0;
#X connect 5 0 1 0;
#X connect 7 0 9 0;
#X connect 8 0 12 1;
#X connect 8 0 29 1;
#X connect 9 0 12 0;
#X connect 9 1 8 0;
#X connect 10 0 9 0;
#X connect 12 0 20 0;
#X connect 13 0 28 0;
#X connect 14 0 15 0;
#X connect 15 0 13 0;
#X connect 16 0 28 1;
#X connect 17 0 18 0;
#X connect 18 0 16 0;
#X connect 19 0 17 0;
#X connect 20 0 19 1;
#X connect 20 1 21 0;
#X connect 21 0 22 0;
#X connect 22 0 26 1;
#X connect 23 0 28 2;
#X connect 24 0 25 0;
#X connect 25 0 23 0;
#X connect 26 0 24 0;
#X connect 27 0 14 0;
#X connect 27 1 19 0;
#X connect 27 2 26 0;
#X connect 28 0 29 0;
#X connect 29 0 6 0;
#X connect 30 0 6 0;
#X connect 31 0 30 0;
#X connect 32 0 27 0;
#X connect 33 0 13 1;
#X connect 33 0 28 3;
#X connect 33 0 16 1;
#X connect 33 0 23 1;
#X connect 34 0 35 0;
#X connect 35 0 10 0;
#X connect 35 1 7 0;
