#N canvas 348 249 859 513 10;
#X obj 81 82 inlet gemlist;
#X obj 351 471 outlet gemlist;
#X obj 351 439 pix_writer;
#A saved init;
#X obj 351 298 pix_snap;
#N canvas 0 0 450 300 once 0;
#X obj 82 68 inlet;
#X obj 82 136 spigot;
#X obj 82 163 t a b;
#X msg 122 108 0;
#X obj 270 61 inlet reset;
#X obj 270 90 t b;
#X msg 269 113 1;
#X obj 82 197 outlet;
#X connect 0 0 1 0;
#X connect 1 0 2 0;
#X connect 2 0 7 0;
#X connect 2 1 3 0;
#X connect 3 0 1 1;
#X connect 4 0 5 0;
#X connect 5 0 6 0;
#X connect 6 0 1 1;
#X restore 374 245 pd once;
#X obj 351 192 t a b b;
#X msg 374 265 snap;
#X obj 420 224 i 0;
#X obj 438 198 r \$0-auto;
#X obj 460 223 r \$0-banged;
#X obj 81 204 s \$0-banged;
#X obj 81 182 t b;
#X obj 395 400 r \$0-banged;
#X obj 81 155 route bang auto file vert_size vert_pos;
#X obj 135 227 i;
#X obj 135 247 != 0;
#X obj 135 267 s \$0-auto;
#X obj 189 325 list prepend file;
#X obj 189 350 list trim;
#X obj 189 370 t a;
#X obj 474 59 inlet size;
#X obj 619 61 inlet pos;
#X obj 538 364 r \$0-auto;
#X msg 538 385 auto \$1;
#X obj 236 74 gemargs;
#N canvas 2702 542 573 310 arguments 0;
#X obj 31 15 inlet args;
#X obj 31 241 outlet initmsg;
#X obj 31 38 t l l;
#X obj 58 61 list length;
#X obj 31 92 list prepend;
#X msg 31 208 vert_pos \$1 \$2 \, vert_size \$3 \$4;
#X obj 31 115 route 4 2 0;
#X msg 73 181 0 0 128 128;
#X msg 52 142 0 0 \$1 \$2;
#X obj 174 166 print error;
#X msg 174 146 [pix_write] needs 0 2 or 4 arguments (but got \$1);
#X connect 0 0 2 0;
#X connect 2 0 4 0;
#X connect 2 1 3 0;
#X connect 3 0 4 1;
#X connect 4 0 6 0;
#X connect 5 0 1 0;
#X connect 6 0 5 0;
#X connect 6 1 8 0;
#X connect 6 2 7 0;
#X connect 6 3 10 0;
#X connect 7 0 5 0;
#X connect 8 0 5 0;
#X connect 10 0 9 0;
#X restore 275 96 pd arguments;
#X obj 275 119 t a;
#N canvas 735 459 450 300 initbang 0;
#X obj 95 95 loadbang;
#X obj 180 95 savestate;
#X msg 240 121 list init;
#X obj 95 130 t b;
#X obj 95 155 spigot 1;
#X obj 95 180 t b b;
#X msg 140 180 0;
#X obj 95 205 outlet;
#X connect 0 0 3 0;
#X connect 1 0 3 0;
#X connect 1 1 2 0;
#X connect 2 0 1 0;
#X connect 3 0 4 0;
#X connect 4 0 5 0;
#X connect 5 0 7 0;
#X connect 5 1 6 0;
#X connect 6 0 4 1;
#X restore 236 52 pd initbang;
#X text 561 270 © 2009 IOhannes m zmölnig \; part of GEM \; see LICENSE.txt for license information;
#X connect 0 0 13 0;
#X connect 2 0 1 0;
#X connect 3 0 2 0;
#X connect 4 0 6 0;
#X connect 5 0 3 0;
#X connect 5 1 4 0;
#X connect 5 2 7 0;
#X connect 6 0 3 0;
#X connect 7 0 4 1;
#X connect 8 0 7 1;
#X connect 9 0 4 1;
#X connect 11 0 10 0;
#X connect 12 0 2 0;
#X connect 13 0 11 0;
#X connect 13 1 14 0;
#X connect 13 2 17 0;
#X connect 13 3 3 1;
#X connect 13 4 3 2;
#X connect 13 5 5 0;
#X connect 14 0 15 0;
#X connect 15 0 16 0;
#X connect 17 0 18 0;
#X connect 18 0 19 0;
#X connect 19 0 2 0;
#X connect 20 0 3 1;
#X connect 21 0 3 2;
#X connect 22 0 23 0;
#X connect 23 0 2 0;
#X connect 24 0 26 0;
#X connect 24 1 25 0;
#X connect 25 0 26 0;
#X connect 26 0 13 0;
#X connect 27 0 24 0;
