#N canvas 253 66 836 530 10;
#X obj 110 23 inlet gemlist;
#X obj 227 125 outlet gemlist;
#X obj 537 418 pix_buffer \$0-buf 1;
#X obj 254 199 pix_buffer_write \$0-buf;
#X obj 227 102 t a a;
#X obj 453 88 unpack s 0;
#X obj 510 139 t f f;
#N canvas 1 51 450 300 spigot 0;
#X obj 49 62 inlet gemlist;
#X obj 49 242 spigot;
#X obj 49 272 outlet gemlist;
#X obj 193 63 inlet;
#N canvas 1 51 450 300 bang 0;
#X obj 187 163 i;
#X obj 187 183 t f b;
#X msg 214 162 0;
#X msg 202 144 1;
#X obj 279 85 inlet;
#X obj 279 105 t b;
#X obj 74 84 inlet;
#X obj 187 203 outlet;
#X connect 0 0 1 0;
#X connect 1 0 7 0;
#X connect 1 1 2 0;
#X connect 2 0 0 1;
#X connect 3 0 0 1;
#X connect 4 0 5 0;
#X connect 5 0 3 0;
#X connect 6 0 0 0;
#X restore 154 166 pd bang;
#X obj 193 83 route bang float;
#X obj 154 145 t b b;
#N canvas 1 51 450 300 float 0;
#X obj 187 163 i;
#X obj 279 85 inlet;
#X obj 74 84 inlet;
#X obj 187 203 outlet;
#X connect 0 0 3 0;
#X connect 1 0 0 1;
#X connect 2 0 0 0;
#X restore 204 166 pd float;
#X obj 154 186 &&;
#X obj 49 82 t a b;
#X connect 0 0 9 0;
#X connect 1 0 2 0;
#X connect 3 0 5 0;
#X connect 4 0 8 0;
#X connect 5 0 4 1;
#X connect 5 1 7 1;
#X connect 6 0 4 0;
#X connect 6 1 7 0;
#X connect 7 0 8 1;
#X connect 8 0 1 1;
#X connect 9 0 1 0;
#X connect 9 1 6 0;
#X restore 254 160 pd spigot;
#X obj 254 180 t a b;
#X msg 389 180 0;
#X obj 254 219 t b;
#X obj 254 239 i;
#X obj 254 259 t f f;
#X obj 281 239 + 1;
#X obj 254 279 makefilename gem%05d.tif;
#X obj 510 159 select 0;
#X msg 510 179 tif;
#X msg 555 179 jpg;
#X obj 510 199 symbol;
#X obj 453 220 pack s s;
#X obj 537 337 t f b;
#X msg 537 377 setProps quality \$1;
#X obj 537 357 select 0;
#X msg 601 357 clearProps;
#X obj 510 115 clip 0 100;
#X msg 254 363 save \$1 0;
#X obj 537 396 t a a;
#X msg 453 260 set \$1%05d.\$2;
#X obj 453 240 t l b;
#X msg 284 220 0;
#X text 104 427 (c) 2011 Jack/RYBN;
#X text 104 437 (c) 2011 IOhannes m zmölnig;
#X obj 537 438 s \$0-info;
#X obj 709 477 outlet info;
#X obj 110 63 f;
#X obj 152 63 t b;
#X obj 110 83 t a;
#X obj 110 43 route auto bang;
#X obj 209 43 route file;
#X obj 277 43 route enumProps clearProps setProps;
#X obj 277 62 t b;
#X obj 346 62 t b;
#X msg 461 357 enumProps;
#X obj 682 357 list prepend setProps;
#X obj 682 377 list trim;
#X obj 709 458 r \$0-info;
#X connect 0 0 37 0;
#X connect 2 0 32 0;
#X connect 3 0 10 0;
#X connect 4 0 1 0;
#X connect 4 1 7 0;
#X connect 5 0 19 0;
#X connect 5 1 24 0;
#X connect 6 0 15 0;
#X connect 6 1 20 0;
#X connect 7 0 8 0;
#X connect 8 0 3 0;
#X connect 8 1 9 0;
#X connect 9 0 3 1;
#X connect 10 0 11 0;
#X connect 11 0 12 0;
#X connect 12 0 14 0;
#X connect 12 1 13 0;
#X connect 13 0 11 1;
#X connect 14 0 25 0;
#X connect 15 0 16 0;
#X connect 15 1 17 0;
#X connect 16 0 18 0;
#X connect 17 0 18 0;
#X connect 18 0 19 1;
#X connect 19 0 28 0;
#X connect 20 0 22 0;
#X connect 20 1 23 0;
#X connect 21 0 26 0;
#X connect 22 1 21 0;
#X connect 23 0 26 0;
#X connect 24 0 6 0;
#X connect 25 0 26 0;
#X connect 26 0 2 0;
#X connect 27 0 14 0;
#X connect 28 0 27 0;
#X connect 28 1 29 0;
#X connect 29 0 11 1;
#X connect 34 0 36 0;
#X connect 35 0 36 0;
#X connect 36 0 7 1;
#X connect 37 0 34 0;
#X connect 37 1 35 0;
#X connect 37 2 38 0;
#X connect 38 0 5 0;
#X connect 38 1 39 0;
#X connect 39 0 40 0;
#X connect 39 1 41 0;
#X connect 39 2 43 0;
#X connect 39 3 4 0;
#X connect 40 0 42 0;
#X connect 41 0 23 0;
#X connect 42 0 26 0;
#X connect 43 0 44 0;
#X connect 44 0 26 0;
#X connect 45 0 33 0;
