#N canvas 236 111 450 476 10;
#N canvas 286 158 450 300 rgb2y 0;
#X obj 82 57 inlet;
#X obj 82 236 outlet;
#X obj 82 78 unpack 0 0 0;
#X obj 82 119 * 65.738;
#X obj 143 120 * 129.075;
#X obj 215 119 * 25.064;
#X obj 82 142 +;
#X obj 82 164 +;
#X obj 82 186 / 256;
#X obj 82 207 + 16;
#X connect 0 0 2 0;
#X connect 2 0 3 0;
#X connect 2 1 4 0;
#X connect 2 2 5 0;
#X connect 3 0 6 0;
#X connect 4 0 6 1;
#X connect 5 0 7 1;
#X connect 6 0 7 0;
#X connect 7 0 8 0;
#X connect 8 0 9 0;
#X connect 9 0 1 0;
#X restore 103 206 pd rgb2y;
#N canvas 286 158 450 300 rgb2u 0;
#X obj 82 57 inlet;
#X obj 82 236 outlet;
#X obj 82 78 unpack 0 0 0;
#X obj 82 142 +;
#X obj 82 164 +;
#X obj 82 186 / 256;
#X obj 82 119 * -37.945;
#X obj 143 120 * -74.494;
#X obj 215 119 * 112.439;
#X obj 82 207 + 128;
#X connect 0 0 2 0;
#X connect 2 0 6 0;
#X connect 2 1 7 0;
#X connect 2 2 8 0;
#X connect 3 0 4 0;
#X connect 4 0 5 0;
#X connect 5 0 9 0;
#X connect 6 0 3 0;
#X connect 7 0 3 1;
#X connect 8 0 4 1;
#X connect 9 0 1 0;
#X restore 163 206 pd rgb2u;
#N canvas 286 158 450 300 rgb2v 0;
#X obj 82 57 inlet;
#X obj 82 236 outlet;
#X obj 82 78 unpack 0 0 0;
#X obj 82 142 +;
#X obj 82 164 +;
#X obj 82 186 / 256;
#X obj 82 207 + 128;
#X obj 82 119 * 112.439;
#X obj 143 120 * -94.154;
#X obj 215 119 * -18.285;
#X connect 0 0 2 0;
#X connect 2 0 7 0;
#X connect 2 1 8 0;
#X connect 2 2 9 0;
#X connect 3 0 4 0;
#X connect 4 0 5 0;
#X connect 5 0 6 0;
#X connect 6 0 1 0;
#X connect 7 0 3 0;
#X connect 8 0 3 1;
#X connect 9 0 4 1;
#X restore 224 207 pd rgb2v;
#X obj 103 166 t l l l;
#X text 106 37 convert RGB to YUV;
#X obj 103 245 pack 0 0 0;
#X obj 103 69 inlet RGB;
#X obj 103 134 pack \$1 \$2 \$3;
#X obj 103 353 outlet YUV;
#X connect 0 0 5 0;
#X connect 1 0 5 1;
#X connect 2 0 5 2;
#X connect 3 0 0 0;
#X connect 3 1 1 0;
#X connect 3 2 2 0;
#X connect 5 0 8 0;
#X connect 6 0 7 0;
#X connect 7 0 3 0;
