#N canvas 602 85 487 610 10;
#X obj 95 292 s \$1-ctl;
#X obj 95 257 t a;
#X text 89 17 QT4L record backend;
#X text 89 29 ===================;
#X text 274 139 1 pick a suitable codec;
#X msg 118 179 file /tmp/test.mov;
#X msg 124 224 record 1;
#X text 272 228 3 start recording, f 39;
#X text 95 342 If the framesize changes while recording \, a new track will be started.;
#X text 62 62 An ordinary backend to write movies.;
#X text 54 95 Supported containers: MOV \, AVI \, MP4 \, M4A;
#X text 102 393 Normally \, the container is guessed from the file extension \, but you can force it with the 'qtformat' property:;
#X text 148 436 qt - QuickTime (QT7 compatible);
#X text 148 456 qtold - QuickTime (qt4l and old lqt);
#X text 148 476 avi_odml - AVI (> 2GB);
#X text 148 496 avi - AVI (< 2GB);
#X text 148 516 mp4 - ISO MPEG-4;
#X text 148 536 m4a - m4a (iTunes compatible);
#X text 384 436 <- "*.mov";
#X text 384 476 <- "*.avi";
#X text 384 516 <- "*.mp4";
#X text 384 536 <- "*.m4a";
#X text 271 178 2 set the output file;
#X msg 95 138 codec x264;
#X connect 1 0 0 0;
#X connect 5 0 1 0;
#X connect 6 0 1 0;
#X connect 23 0 1 0;
