#N canvas 594 85 799 696 10;
#X obj 95 292 s \$1-ctl;
#X obj 95 257 t a;
#X text 89 17 QT4L record backend;
#X text 89 29 ===================;
#X text 274 139 1 pick a suitable codec;
#X msg 118 179 file /tmp/test.mov;
#X msg 124 224 record 1;
#X text 272 228 3 start recording, f 39;
#X text 95 342 If the framesize changes while recording \, a new track will be started.;
#X text 62 62 An ordinary backend to write movies.;
#X text 54 95 Supported containers: MOV \, AVI \, MP4 \, M4A;
#X text 38 413 Normally \, the container is guessed from the file extension \, but you can force it with the 'qtformat' property:;
#X text 64 456 qt - QuickTime (QT7 compatible);
#X text 64 476 qtold - QuickTime (qt4l and old lqt);
#X text 64 496 avi_odml - AVI (> 2GB);
#X text 64 516 avi - AVI (< 2GB);
#X text 64 536 mp4 - ISO MPEG-4;
#X text 64 556 m4a - m4a (iTunes compatible);
#X text 300 456 <- "*.mov";
#X text 300 496 <- "*.avi";
#X text 300 536 <- "*.mp4";
#X text 300 556 <- "*.m4a";
#X text 271 178 2 set the output file;
#X msg 95 138 codec x264;
#X msg 49 612 set lqtformat avi_odml;
#X obj 49 635 s \$1-ctl;
#X text 502 414 While there are a number of codec-specific properties \, you can also set some generic metadata:;
#X msg 519 468 set name my\ first\ video;
#X msg 519 528 set copyright public-domain;
#X msg 519 488 set info just\ a\ test;
#X msg 519 548 set album first\ things\ first;
#X msg 519 568 set genre experimental;
#X msg 519 608 set comment nothing\ to\ say\ (and\ saying\ it);
#X msg 519 508 set author N.N.;
#X obj 519 631 s \$1-ctl;
#X msg 519 588 set track #9;
#X connect 1 0 0 0;
#X connect 5 0 1 0;
#X connect 6 0 1 0;
#X connect 23 0 1 0;
#X connect 24 0 25 0;
#X connect 27 0 34 0;
#X connect 28 0 34 0;
#X connect 29 0 34 0;
#X connect 30 0 34 0;
#X connect 31 0 34 0;
#X connect 32 0 34 0;
#X connect 33 0 34 0;
#X connect 35 0 34 0;
