#N canvas 461 81 585 483 10;
#X text 107 57 Example:;
#X obj 413 132 cnv 15 100 60 empty empty empty 20 12 0 14 -195568 -66577
0;
#N canvas 0 0 450 300 gemwin 0;
#X obj 132 136 gemwin;
#X obj 67 89 outlet;
#X obj 67 10 inlet;
#X msg 67 70 set destroy;
#X msg 132 112 create \, 1;
#X msg 198 112 destroy;
#X msg 156 71 set create;
#X obj 67 41 route create;
#X connect 2 0 7 0;
#X connect 3 0 1 0;
#X connect 4 0 0 0;
#X connect 5 0 0 0;
#X connect 6 0 1 0;
#X connect 7 0 3 0;
#X connect 7 0 4 0;
#X connect 7 1 6 0;
#X connect 7 1 5 0;
#X restore 418 171 pd gemwin;
#X msg 418 152 create;
#X text 414 131 Create window:;
#X obj 51 64 gemhead;
#X obj 69 420 pix_texture;
#X obj 69 442 rectangle 4 3;
#X msg 116 157 start;
#X msg 138 192 stop;
#X msg 104 107 open;
#X obj 110 313 pix_device_read;
#X connect 2 0 3 0;
#X connect 3 0 2 0;
#X connect 5 0 11 0;
#X connect 6 0 7 0;
#X connect 8 0 11 0;
#X connect 9 0 11 0;
#X connect 10 0 11 0;
#X connect 11 0 6 0;
