#N canvas 461 81 617 483 10;
#X text 94 40 Example:;
#X obj 413 132 cnv 15 100 60 empty empty empty 20 12 0 14 -195568 -66577
0;
#N canvas 0 0 450 300 gemwin 0;
#X obj 132 136 gemwin;
#X obj 67 89 outlet;
#X obj 67 10 inlet;
#X msg 67 70 set destroy;
#X msg 132 112 create \, 1;
#X msg 198 112 destroy;
#X msg 156 71 set create;
#X obj 67 41 route create;
#X connect 2 0 7 0;
#X connect 3 0 1 0;
#X connect 4 0 0 0;
#X connect 5 0 0 0;
#X connect 6 0 1 0;
#X connect 7 0 3 0;
#X connect 7 0 4 0;
#X connect 7 1 6 0;
#X connect 7 1 5 0;
#X restore 418 171 pd gemwin;
#X msg 418 152 create;
#X text 414 131 Create window:;
#X obj 38 47 gemhead;
#X obj 69 420 pix_texture;
#X obj 69 442 rectangle 4 3;
#X msg 148 168 start;
#X msg 155 191 stop;
#X obj 110 313 pix_device_read;
#X msg 222 239 forceColorspace RGB;
#X msg 223 261 forceColorspace GRAY;
#X msg 222 284 forceColorspace YUV;
#X msg 223 217 forceColorspace RGBA;
#X msg 227 183 quality \$1;
#X obj 227 164 hradio 15 1 0 6 empty empty empty 0 -8 0 10 -262144
-1 -1 0;
#X text 231 322 NOTE: you have to reopen the device if you change the
colorspace or quality !;
#X msg 77 87 open dv;
#X msg 94 109 open video;
#X msg 113 134 open video /dev/video0;
#X connect 2 0 3 0;
#X connect 3 0 2 0;
#X connect 5 0 10 0;
#X connect 6 0 7 0;
#X connect 8 0 10 0;
#X connect 9 0 10 0;
#X connect 10 0 6 0;
#X connect 11 0 10 0;
#X connect 12 0 10 0;
#X connect 13 0 10 0;
#X connect 14 0 10 0;
#X connect 15 0 10 0;
#X connect 16 0 15 0;
#X connect 18 0 10 0;
#X connect 19 0 10 0;
#X connect 20 0 10 0;
