#N canvas 0 0 724 565 10;
#X obj 15 28 cnv 15 100 60 empty empty empty 20 12 0 14 -195568 -66577
0;
#N canvas 805 346 450 300 gemwin 0;
#X obj 132 136 gemwin;
#X obj 67 89 outlet;
#X obj 67 10 inlet;
#X msg 67 70 set destroy;
#X msg 132 112 create \, 1;
#X msg 198 112 destroy;
#X msg 156 71 set create;
#X obj 67 41 route create;
#X msg 174 186 profile 1;
#X connect 2 0 7 0;
#X connect 3 0 1 0;
#X connect 4 0 0 0;
#X connect 5 0 0 0;
#X connect 6 0 1 0;
#X connect 7 0 3 0;
#X connect 7 0 4 0;
#X connect 7 1 6 0;
#X connect 7 1 5 0;
#X connect 8 0 0 0;
#X restore 20 67 pd gemwin;
#X msg 20 48 create;
#X text 16 27 Create window:;
#X obj 170 23 gemhead;
#X obj 44 322 pix_texture;
#X obj 44 344 rectangle 4 3;
#X obj 44 265 pix_separator;
#X obj 320 248 pix_separator;
#X obj 320 425 pix_file_write;
#X msg 339 287 start;
#X msg 346 319 stop;
#X obj 170 203 pix_file_read;
#X msg 211 95 start;
#X msg 227 125 stop;
#X msg 195 58 open /home/holzi/Desktop/yuv-test.mov;
#X msg 286 156 forceColorspace RGB;
#X msg 307 176 forceColorspace RGBA;
#X msg 334 128 forceColorspace GRAY;
#X msg 327 104 forceColorspace YUV;
#X msg 434 384 open /home/holzi/Desktop/test.avi;
#X msg 438 342 getCodec;
#X msg 438 250 codec ogg;
#X msg 436 283 codec theora;
#X msg 437 311 codec raw;
#X connect 1 0 2 0;
#X connect 2 0 1 0;
#X connect 4 0 12 0;
#X connect 5 0 6 0;
#X connect 7 0 5 0;
#X connect 8 0 9 0;
#X connect 10 0 9 0;
#X connect 11 0 9 0;
#X connect 12 0 7 0;
#X connect 12 0 8 0;
#X connect 13 0 12 0;
#X connect 14 0 12 0;
#X connect 15 0 12 0;
#X connect 16 0 12 0;
#X connect 17 0 12 0;
#X connect 18 0 12 0;
#X connect 19 0 12 0;
#X connect 20 0 9 0;
#X connect 21 0 9 0;
#X connect 22 0 9 0;
#X connect 23 0 9 0;
#X connect 24 0 9 0;
