#N canvas 0 0 585 483 10;
#X text 107 57 Example:;
#X obj 413 132 cnv 15 100 60 empty empty empty 20 12 0 14 -195568 -66577
0;
#N canvas 0 0 450 300 gemwin 0;
#X obj 132 136 gemwin;
#X obj 67 89 outlet;
#X obj 67 10 inlet;
#X msg 67 70 set destroy;
#X msg 132 112 create \, 1;
#X msg 198 112 destroy;
#X msg 156 71 set create;
#X obj 67 41 route create;
#X connect 2 0 7 0;
#X connect 3 0 1 0;
#X connect 4 0 0 0;
#X connect 5 0 0 0;
#X connect 6 0 1 0;
#X connect 7 0 3 0;
#X connect 7 0 4 0;
#X connect 7 1 6 0;
#X connect 7 1 5 0;
#X restore 418 171 pd gemwin;
#X msg 418 152 destroy;
#X text 414 131 Create window:;
#X obj 51 64 gemhead;
#X obj 69 420 pix_texture;
#X obj 69 442 rectangle 4 3;
#X obj 110 313 pix_file_read;
#X msg 86 121 open /home/holzi/Desktop/yuv-test.mov;
#X msg 116 157 start;
#X msg 138 192 stop;
#X msg 236 162 seek 1;
#X msg 257 185 seek 100;
#X msg 302 238 forceColorspace GRAY;
#X msg 305 262 forceColorspace YUV;
#X msg 303 287 forceColorspace RGBA;
#X text 308 218 specify them before open:;
#X obj 131 356 unpack f f f f;
#X floatatom 119 382 5 0 0 0 - - -;
#X floatatom 162 382 5 0 0 0 - - -;
#X floatatom 205 382 5 0 0 0 - - -;
#X floatatom 251 383 5 0 0 0 - - -;
#X msg 358 339 forceColorspace RGB;
#X text 424 317 try RGB;
#X msg 99 96 open /home/holzi/Desktop/schritte.avi;
#X obj 196 335 print VIDEO_END;
#X connect 2 0 3 0;
#X connect 3 0 2 0;
#X connect 5 0 8 0;
#X connect 6 0 7 0;
#X connect 8 0 6 0;
#X connect 8 1 18 0;
#X connect 8 2 26 0;
#X connect 9 0 8 0;
#X connect 10 0 8 0;
#X connect 11 0 8 0;
#X connect 12 0 8 0;
#X connect 13 0 8 0;
#X connect 14 0 8 0;
#X connect 15 0 8 0;
#X connect 16 0 8 0;
#X connect 18 0 19 0;
#X connect 18 1 20 0;
#X connect 18 2 21 0;
#X connect 18 3 22 0;
#X connect 23 0 8 0;
#X connect 25 0 8 0;
