#N canvas 2572 502 952 544 12;
#X obj 202 32 inlet gemlist;
#X obj 202 78 t a a a;
#X obj 202 185 outlet gemlist;
#N canvas 2404 402 580 547 stripes 0;
#X obj 104 172 t a a a a a a a a;
#X obj 104 146 t a b;
#X obj 104 207 t a b;
#X obj 136 230 i;
#X obj 136 255 t f f;
#X obj 188 237 + 1;
#X msg 171 212 0;
#X obj 104 68 separator;
#X obj 104 455 translateXYZ 1 0 0;
#X obj 104 346 colorRGB 1 1 1;
#X obj 308 276 & 2;
#X obj 278 276 & 4;
#X obj 338 276 & 1;
#X obj 104 41 inlet;
#X obj 104 96 translateXYZ -3.5 2 0;
#X floatatom 269 355 5 0 0 0 - - - 0;
#X obj 104 371 rectangle 0.5 2;
#X obj 104 393 t a a;
#X obj 268 467 color 1 1 1;
#X obj 268 492 square 0.5;
#X obj 268 419 separator;
#X obj 268 442 translateXYZ 0 -1.5 0;
#X obj 426 336 / 7;
#X obj 278 251 t f f f f;
#X msg 426 361 \$1 \$1 \$1;
#X msg 426 289 7 \$1;
#X obj 426 314 -;
#X connect 0 0 2 0;
#X connect 0 1 2 0;
#X connect 0 2 2 0;
#X connect 0 3 2 0;
#X connect 0 4 2 0;
#X connect 0 5 2 0;
#X connect 0 6 2 0;
#X connect 0 7 2 0;
#X connect 1 0 0 0;
#X connect 1 1 6 0;
#X connect 2 0 9 0;
#X connect 2 1 3 0;
#X connect 3 0 4 0;
#X connect 4 0 23 0;
#X connect 4 1 5 0;
#X connect 5 0 3 1;
#X connect 6 0 3 1;
#X connect 7 0 14 0;
#X connect 9 0 16 0;
#X connect 10 0 9 2;
#X connect 11 0 9 1;
#X connect 12 0 9 3;
#X connect 13 0 7 0;
#X connect 14 0 1 0;
#X connect 15 0 16 1;
#X connect 16 0 17 0;
#X connect 17 0 8 0;
#X connect 17 1 20 0;
#X connect 18 0 19 0;
#X connect 20 0 21 0;
#X connect 21 0 18 0;
#X connect 22 0 24 0;
#X connect 23 0 11 0;
#X connect 23 1 10 0;
#X connect 23 2 12 0;
#X connect 23 3 25 0;
#X connect 24 0 18 1;
#X connect 25 0 26 0;
#X connect 26 0 22 0;
#X restore 248 102 pd stripes;
#N canvas 2655 474 450 457 primitives 0;
#X obj 225 105 separator;
#X obj 225 130 color 1 1 1;
#X obj 146 129 loadbang;
#X msg 146 154 draw line;
#X obj 225 41 inlet;
#X obj 225 155 translateXYZ -2 -2 0;
#X obj 225 205 translateXYZ 4 0 0;
#X obj 225 255 square 1.5;
#X obj 225 180 circle 2;
#X floatatom 379 222 5 0 0 0 - - - 0;
#X obj 225 230 rotateXYZ 0 0 25;
#X connect 0 0 1 0;
#X connect 1 0 5 0;
#X connect 2 0 3 0;
#X connect 3 0 7 0;
#X connect 3 0 8 0;
#X connect 4 0 0 0;
#X connect 5 0 8 0;
#X connect 6 0 10 0;
#X connect 8 0 6 0;
#X connect 9 0 10 3;
#X connect 10 0 7 0;
#X restore 225 125 pd primitives;
#X connect 0 0 1 0;
#X connect 1 0 2 0;
#X connect 1 1 4 0;
#X connect 1 2 3 0;
