#N canvas 277 250 584 223 12;
#X obj 171 14 cnv 15 200 130 empty empty empty 20 12 0 14 -233017 -66577
0;
#X obj 258 30 bng 30 250 50 0 up y up 8 -8 192 12 -261681 -1 -1;
#X obj 258 90 bng 30 250 50 0 down y down -5 38 192 12 -261681 -1 -1
;
#X obj 288 60 bng 30 250 50 0 right y right 33 15 192 12 -261681 -1
-1;
#X obj 228 60 bng 30 250 50 0 left y left -53 15 192 12 -261681 -1
-1;
#N canvas 57 47 754 533 code 0;
#X obj 128 45 gemkeyname;
#X obj 128 77 select 1;
#X obj 128 104 symbol;
#X obj 128 184 route Left Right Up Down;
#X msg 169 342 move \$1;
#X msg 181 274 5;
#X msg 139 274 4;
#X msg 221 274 6;
#X msg 182 247 8;
#X msg 183 301 2;
#X msg 128 131 \$1 0;
#X obj 275 254 loadbang;
#N canvas 97 61 600 498 code 0;
#X obj 120 110 gemhead;
#X obj 120 342 pix_texture2;
#X obj 120 415 square 4;
#X floatatom 179 389 5 0 0;
#X obj 120 309 pix_puzzle 4 4;
#X msg 221 203 size 4 4;
#X obj 120 213 pix_image;
#X msg 153 175 open ../data/fractal.JPG;
#X obj 204 97 loadbang;
#X obj 204 125 t b b;
#X obj 222 18 inlet;
#X obj 221 48 t b a;
#X obj 343 27 inlet;
#X obj 341 56 t b b;
#X obj 117 40 r help;
#X obj 120 79 == 0;
#X obj 37 27 loadbang;
#X msg 38 52 0;
#X connect 0 0 6 0;
#X connect 1 0 2 0;
#X connect 3 0 2 1;
#X connect 4 0 1 0;
#X connect 5 0 4 0;
#X connect 6 0 4 0;
#X connect 7 0 6 0;
#X connect 8 0 9 0;
#X connect 9 0 5 0;
#X connect 9 1 7 0;
#X connect 10 0 11 0;
#X connect 11 0 7 0;
#X connect 11 1 4 0;
#X connect 12 0 13 0;
#X connect 13 0 7 0;
#X connect 13 1 4 0;
#X connect 14 0 15 0;
#X connect 15 0 0 0;
#X connect 16 0 17 0;
#X connect 17 0 15 0;
#X restore 169 371 pd code;
#X obj 38 234 r up;
#X obj 37 303 r down;
#X obj -10 265 r left;
#X obj 61 267 r right;
#X obj 430 234 r reset;
#X obj 430 260 t b b;
#X msg 505 229 bang;
#X obj 418 194 gemwin;
#X msg 415 132 create;
#X msg 422 157 destroy;
#X obj 501 147 tgl 30 0 empty empty empty 20 8 0 8 -262144 -1 -1 0
1;
#X obj 342 79 del 100;
#X msg 342 130 1;
#X obj 364 17 r start;
#X msg 509 113 reset;
#N canvas 77 73 600 400 original 0;
#X obj 86 109 gemhead;
#X obj 86 272 pix_texture2;
#X obj 86 345 square 4;
#X obj 86 30 r help;
#X obj 86 73 != 0;
#X obj 173 45 loadbang;
#X msg 173 68 0;
#X obj 86 143 pix_image ../data/fractal.JPG;
#X connect 0 0 7 0;
#X connect 1 0 2 0;
#X connect 3 0 4 0;
#X connect 4 0 0 0;
#X connect 5 0 6 0;
#X connect 6 0 4 0;
#X connect 7 0 1 0;
#X restore 317 346 pd original;
#X obj 584 204 gemmouse;
#X obj 617 239 s help;
#X obj 383 45 t b b b;
#X obj 341 103 t b b b;
#X connect 0 0 1 0;
#X connect 0 1 2 1;
#X connect 1 0 2 0;
#X connect 2 0 10 0;
#X connect 3 0 6 0;
#X connect 3 1 7 0;
#X connect 3 2 8 0;
#X connect 3 3 9 0;
#X connect 4 0 12 0;
#X connect 5 0 4 0;
#X connect 6 0 4 0;
#X connect 7 0 4 0;
#X connect 8 0 4 0;
#X connect 9 0 4 0;
#X connect 10 0 3 0;
#X connect 11 0 5 0;
#X connect 13 0 8 0;
#X connect 14 0 9 0;
#X connect 15 0 6 0;
#X connect 16 0 7 0;
#X connect 17 0 18 0;
#X connect 18 0 5 0;
#X connect 18 1 12 1;
#X connect 19 0 18 0;
#X connect 21 0 20 0;
#X connect 22 0 20 0;
#X connect 23 0 20 0;
#X connect 24 0 32 0;
#X connect 25 0 20 0;
#X connect 26 0 31 0;
#X connect 27 0 20 0;
#X connect 29 2 30 0;
#X connect 31 0 24 0;
#X connect 31 1 27 0;
#X connect 31 2 22 0;
#X connect 32 0 25 0;
#X connect 32 1 21 0;
#X connect 32 2 19 0;
#X restore 420 99 pd code;
#X obj 435 39 bng 50 250 50 0 reset empty RESET 0 -8 128 12 -258699
-1 -1;
#X obj 50 38 bng 50 250 50 0 start empty start 0 -8 128 12 -24198 -1
-1;
#X obj 257 60 tgl 30 0 help help ? 7 15 192 24 -262144 -258699 -1 0
1;
#X text 61 168 on linux you can use the arrow-keys too...;
#X text 46 187 first mouse-button toggles between help/game;
