#N canvas 367 146 595 486 10;
#N canvas 0 0 450 300 1002-creator 0;
#X restore 265 34 pd \$0-creator;
#X obj 178 199 textfile;
#X msg 213 156 read objects.txt \, rewind;
#X msg 152 149 bang;
#X obj 152 171 until;
#X msg 174 107 bang;
#X obj 178 225 symbol;
#X obj 178 287 pack s s;
#X obj 174 129 t b b b;
#X obj 262 200 i \$0;
#X obj 262 224 makefilename pd-%d-creator;
#X obj 178 248 t s s;
#X msg 178 413 \; \$2 clear \;;
#X msg 299 415 \; \$2 obj 100 100 \$1;
#X obj 65 18 loadbang;
#X msg 329 375 \$1;
#X obj 329 395 print creating;
#X msg 208 374 \$1;
#X obj 208 394 print destroying;
#X obj 178 354 t l s;
#X obj 299 354 t l s;
#X obj 178 319 t l l;
#X obj 65 48 t b b;
#X msg 8 137 \; pd quit;
#X obj 8 71 t b b;
#X obj 15 99 print done;
#X connect 1 0 6 0;
#X connect 1 1 4 1;
#X connect 2 0 1 0;
#X connect 3 0 4 0;
#X connect 4 0 1 0;
#X connect 5 0 8 0;
#X connect 6 0 11 0;
#X connect 7 0 21 0;
#X connect 8 0 3 0;
#X connect 8 1 2 0;
#X connect 8 2 9 0;
#X connect 9 0 10 0;
#X connect 10 0 7 1;
#X connect 11 0 7 0;
#X connect 14 0 22 0;
#X connect 15 0 16 0;
#X connect 17 0 18 0;
#X connect 19 0 12 0;
#X connect 19 1 17 0;
#X connect 20 0 13 0;
#X connect 20 1 15 0;
#X connect 21 0 19 0;
#X connect 21 1 20 0;
#X connect 22 0 24 0;
#X connect 22 1 5 0;
#X connect 24 0 23 0;
#X connect 24 1 25 0;
