#N canvas 313 112 703 503 10;
#X text 360 20 O: create Object;
#X text 360 30 o: destroy Object;
#X text 360 40 W: create Window;
#X text 360 50 w: destroy Window;
#X text 360 60 R: start rendering;
#X text 360 70 r: stop rendering;
#X obj 118 37 r object;
#X msg 288 265 nonexistant;
#X msg 164 150 \; pd quit;
#X msg 414 274 create;
#X obj 154 315 objectmaker_io;
#X obj 164 104 r order;
#N canvas 64 327 618 321 sequ 0;
#X obj 293 23 inlet order;
#X obj 118 36 inlet next;
#X obj 118 125 list prepend O W R r w o;
#X obj 118 147 list split 1;
#X obj 118 169 outlet;
#X obj 199 199 outlet done;
#X obj 293 67 list prepend O W R r w o;
#X obj 293 45 t b a;
#X obj 200 173 t b b;
#X msg 432 22 bang;
#X obj 118 58 t b;
#X obj 118 80 del 0;
#X connect 0 0 7 0;
#X connect 1 0 10 0;
#X connect 2 0 3 0;
#X connect 3 0 4 0;
#X connect 3 1 2 1;
#X connect 3 2 8 0;
#X connect 6 0 2 1;
#X connect 7 0 6 0;
#X connect 7 1 6 1;
#X connect 8 0 5 0;
#X connect 8 1 6 0;
#X connect 9 0 6 0;
#X connect 10 0 11 0;
#X connect 11 0 2 0;
#X restore 118 126 pd sequ;
#X obj 119 199 list append;
#X obj 118 68 t b a;
#X obj 408 206 route O o W w R r;
#X obj 414 250 t b;
#X msg 456 298 destroy;
#X obj 448 248 t b;
#X obj 588 248 t b;
#X msg 514 274 1;
#X msg 588 274 0;
#X obj 154 271 gemhead;
#X obj 446 349 t a;
#X obj 446 371 gemwin;
#X msg 188 35 rotate;
#X obj 406 151 t a a;
#X obj 454 157 print info;
#X obj 119 221 list trim;
#X obj 415 228 t b;
#X msg 84 99 bang;
#X obj 414 297 t b a;
#X obj 414 322 t a;
#X obj 588 306 t b a;
#X obj 285 340 t b a;
#X obj 228 421 t b;
#X obj 154 337 t a a;
#X obj 171 440 print;
#N canvas 1 51 450 300 stopit 0;
#X obj 55 48 inlet gem_state;
#X obj 305 45 inlet timeout;
#X obj 55 70 t a;
#X obj 55 92 route gem_state;
#X obj 55 114 route float;
#X obj 174 230 outlet;
#X obj 174 208 t b b;
#X msg 237 149 stop;
#X obj 305 147 delay 100;
#X obj 55 136 outlet state;
#X connect 0 0 2 0;
#X connect 1 0 8 0;
#X connect 2 0 3 0;
#X connect 3 0 4 0;
#X connect 4 0 9 0;
#X connect 4 1 6 0;
#X connect 6 0 5 0;
#X connect 6 1 7 0;
#X connect 7 0 8 0;
#X connect 8 0 5 0;
#X restore 154 369 pd stopit;
#X obj 514 250 t b b;
#X msg 546 274 100;
#N canvas 1 51 450 300 stopstate 0;
#X obj 76 22 inlet;
#X obj 76 94 select 0;
#X obj 76 176 outlet;
#X obj 279 22 inlet <state> <timeout>;
#X obj 279 94 unpack;
#X obj 318 119 delay;
#X obj 76 116 t b b;
#X msg 174 126 stop;
#X obj 279 44 t a b;
#X msg 363 86 0;
#X connect 0 0 1 0;
#X connect 1 0 6 0;
#X connect 3 0 8 0;
#X connect 4 0 1 1;
#X connect 4 1 5 0;
#X connect 5 0 2 0;
#X connect 6 0 2 0;
#X connect 6 1 7 0;
#X connect 7 0 5 0;
#X connect 8 0 4 0;
#X connect 8 1 9 0;
#X connect 9 0 5 0;
#X restore 154 390 pd stopstate;
#X msg 588 328 0 100;
#X connect 6 0 14 0;
#X connect 7 0 10 1;
#X connect 9 0 31 0;
#X connect 10 0 36 0;
#X connect 11 0 12 1;
#X connect 12 0 13 0;
#X connect 12 1 8 0;
#X connect 13 0 28 0;
#X connect 14 0 12 0;
#X connect 14 1 13 1;
#X connect 15 0 34 0;
#X connect 15 1 29 0;
#X connect 15 2 16 0;
#X connect 15 3 18 0;
#X connect 15 4 39 0;
#X connect 15 5 19 0;
#X connect 16 0 9 0;
#X connect 17 0 31 0;
#X connect 18 0 17 0;
#X connect 19 0 21 0;
#X connect 20 0 23 0;
#X connect 21 0 33 0;
#X connect 22 0 10 0;
#X connect 23 0 24 0;
#X connect 25 0 14 0;
#X connect 26 0 15 0;
#X connect 26 1 27 0;
#X connect 28 0 26 0;
#X connect 29 0 34 0;
#X connect 30 0 12 0;
#X connect 31 0 32 0;
#X connect 31 1 23 0;
#X connect 32 0 12 0;
#X connect 33 0 42 0;
#X connect 33 1 23 0;
#X connect 34 0 12 0;
#X connect 34 1 10 1;
#X connect 35 0 32 0;
#X connect 36 0 38 0;
#X connect 36 1 37 0;
#X connect 38 0 41 0;
#X connect 38 1 35 0;
#X connect 39 0 20 0;
#X connect 39 1 40 0;
#X connect 40 0 38 1;
#X connect 41 0 35 0;
#X connect 42 0 41 1;
