#N canvas 581 262 782 474 10;
#X obj 192 45 inlet object;
#N canvas 2 51 450 300 \$0-sandbox 0;
#X restore 478 200 pd \$0-sandbox;
#N canvas 1 51 607 493 creator 0;
#X obj 67 45 inlet;
#X obj 170 184 list trim;
#X obj 170 216 outlet;
#X obj 163 69 print creating;
#X obj 147 253 print created;
#X obj 67 281 print loadbanged;
#X obj 170 162 list prepend obj 100 100;
#X obj 67 68 t a b a a a;
#X obj 101 95 list prepend \$0;
#X msg 101 118 obj 100 50 r \$1-send \, obj 100 150 s \$1-receive \,
connect 1 0 0 0 \, connect 0 0 2 0 \, loadbang;
#X connect 0 0 7 0;
#X connect 1 0 2 0;
#X connect 6 0 1 0;
#X connect 7 0 5 0;
#X connect 7 1 8 0;
#X connect 7 2 4 0;
#X connect 7 3 6 0;
#X connect 7 4 3 0;
#X connect 8 0 9 0;
#X connect 9 0 2 0;
#X restore 211 138 pd creator;
#N canvas 1 51 526 431 destructor 0;
#X obj 147 56 inlet;
#X obj 170 286 outlet;
#X msg 170 253 clear;
#X obj 147 208 t a b a;
#X obj 216 207 print destroying;
#X obj 147 323 print destroyed;
#X obj 147 105 list prepend;
#X obj 147 127 list trim;
#X obj 348 64 inlet;
#X obj 147 78 b;
#X connect 0 0 9 0;
#X connect 2 0 1 0;
#X connect 3 0 5 0;
#X connect 3 1 2 0;
#X connect 3 2 4 0;
#X connect 6 0 7 0;
#X connect 7 0 3 0;
#X connect 8 0 6 1;
#X connect 9 0 6 0;
#X restore 75 146 pd destructor;
#X obj 232 250 s pd-\$0-sandbox;
#X obj 232 224 t a;
#X obj 76 89 loadbang;
#X obj 76 114 t a;
#X obj 63 202 inlet;
#X obj 63 224 s \$0-send;
#X obj 63 246 r \$0-receive;
#X obj 63 268 outlet;
#X msg 47 47 bang;
#X obj 192 67 route bang;
#X obj 232 98 t a a;
#X connect 0 0 13 0;
#X connect 2 0 5 0;
#X connect 3 0 5 0;
#X connect 5 0 4 0;
#X connect 6 0 7 0;
#X connect 7 0 3 0;
#X connect 8 0 9 0;
#X connect 10 0 11 0;
#X connect 12 0 7 0;
#X connect 13 0 7 0;
#X connect 13 1 14 0;
#X connect 14 0 2 0;
#X connect 14 1 3 1;
