#N canvas 411 484 782 474 10;
#X obj 92 45 inlet object;
#N canvas 8 49 450 300 \$0-sandbox 0;
#X restore 318 200 pd \$0-sandbox;
#X msg 233 105 clear;
#X text 291 18 0: clear;
#X text 290 46 1: pre-create;
#X text 292 73 2: create;
#X text 293 99 3: post-create/pre-destroy;
#X text 295 124 4: destroy;
#X text 297 146 5: DESTROY;
#X text 299 165 6: post-destroy;
#N canvas 5 50 450 300 creator 0;
#X obj 67 45 inlet;
#X obj 170 112 list prepend obj 0 0;
#X obj 170 134 list trim;
#X obj 170 156 outlet;
#X obj 163 69 print creating;
#X obj 147 193 print created;
#X obj 67 68 t a a a a a;
#X msg 101 118 loadbang;
#X obj 67 221 print loadbanged;
#X connect 0 0 6 0;
#X connect 1 0 2 0;
#X connect 2 0 3 0;
#X connect 6 0 8 0;
#X connect 6 1 7 0;
#X connect 6 2 5 0;
#X connect 6 3 1 0;
#X connect 6 4 4 0;
#X connect 7 0 3 0;
#X restore 192 168 pd creator;
#N canvas 8 50 450 300 destructor 0;
#X obj 147 56 inlet;
#X obj 170 156 outlet;
#X msg 170 123 clear;
#X obj 147 78 t a b a;
#X obj 216 77 print destroying;
#X obj 147 193 print destroyed;
#X connect 0 0 3 0;
#X connect 2 0 1 0;
#X connect 3 0 5 0;
#X connect 3 1 2 0;
#X connect 3 2 4 0;
#X restore 92 169 pd destructor;
#X obj 72 250 s pd-\$0-sandbox;
#X obj 72 224 t a;
#X obj 92 66 t a b a b;
#X obj 188 250 outlet created;
#N canvas 8 49 450 300 wait? 0;
#X obj 72 17 inlet;
#X obj 72 110 list prepend;
#X obj 72 132 list trim;
#X obj 139 198 outlet;
#X obj 302 28 inlet state;
#X obj 72 39 t b a;
#X obj 72 61 i 1;
#X obj 72 83 select 1;
#X obj 302 50 t f;
#X obj 302 72 != 0;
#X obj 72 154 t a b;
#X obj 72 176 route bang;
#X obj 302 94 t f f;
#X obj 302 116 select 1;
#X connect 0 0 5 0;
#X connect 1 0 2 0;
#X connect 2 0 10 0;
#X connect 4 0 8 0;
#X connect 5 0 6 0;
#X connect 5 1 1 1;
#X connect 6 0 7 0;
#X connect 7 0 1 0;
#X connect 8 0 9 0;
#X connect 9 0 12 0;
#X connect 10 0 11 0;
#X connect 10 1 1 1;
#X connect 11 1 3 0;
#X connect 12 0 13 0;
#X connect 12 1 6 1;
#X connect 13 0 6 0;
#X restore 92 122 pd wait?;
#X obj 201 81 t b b;
#X msg 201 103 1;
#X obj 533 65 inlet hold?;
#X obj 201 56 loadbang;
#X connect 0 0 14 0;
#X connect 2 0 13 0;
#X connect 10 0 13 0;
#X connect 11 0 13 0;
#X connect 13 0 12 0;
#X connect 14 0 16 0;
#X connect 14 1 15 0;
#X connect 14 2 10 0;
#X connect 14 3 17 0;
#X connect 16 0 11 0;
#X connect 17 0 18 0;
#X connect 17 1 2 0;
#X connect 18 0 16 1;
#X connect 19 0 16 1;
#X connect 20 0 17 0;
