#N canvas 6 61 725 412 10;
#X declare -lib Gem;
#X text 247 146 just enable the toggle labeled "rendering" to create a window and start rendering \; switching the toggle off will destroy the window;
#X text 260 60 by now we assume that you know how to control a Gem-window;
#X text 252 268 apart from that \, the subpatch is really the same as [gemwin] itself \; e.g. you can send any message to it that [gemwin] understands.;
#X text 249 204 thus you don't have to click on [create( and then [1( anymore...;
#X text 249 113 for the sake of simplicity \, from now on the examples will use the subpatch on the left side to control the Gem-window.;
#X obj 618 8 declare -lib Gem;
#X obj 88 131 _gemwin;
