#N canvas 215 61 781 537 10;
#X declare -lib Gem;
#X obj 607 137 separator;
#X text 206 264 on;
#X text 243 262 off;
#X msg 19 288 1;
#X msg 55 290 0;
#X msg 200 290 1;
#X msg 238 290 0;
#X obj 276 308 gemhead 1;
#X obj 482 239 int 0;
#X obj 534 240 + 2;
#X floatatom 646 351 0 0 0 0 - - - 0;
#X obj 607 494 sphere;
#X obj 488 19 gemhead;
#X floatatom 482 306 0 0 0 0 - - - 0;
#X obj 97 350 world_light;
#X obj 97 295 gemhead 1;
#X obj 443 448 sphere;
#X obj 276 364 light;
#X msg 644 461 20;
#X msg 480 418 5;
#X text 31 246 global light;
#X text 242 236 local light;
#X text 25 266 on;
#X text 55 267 off;
#X obj 482 215 metro 50;
#X obj 443 142 separator;
#X obj 443 368 translateXYZ 2 0 0;
#X obj 443 331 rotate 0 1 0;
#X obj 607 371 rotate 1 0 0;
#X obj 607 404 translateXYZ 0 2 0;
#X obj 607 179 color 0 1 0;
#X obj 644 431 r initstuff;
#X obj 480 392 r initstuff;
#X obj 94 473 s initstuff;
#X obj 94 443 loadbang;
#X obj 488 99 translateXYZ;
#X floatatom 540 62 0 0 0 0 - - - 0;
#X text 582 60 change this number;
#X msg 100 102 lighting \$1;
#X text 89 60 turn lighting on/off;
#X obj 100 78 tgl 15 0 empty empty empty 0 -6 0 8 #fcfcfc #000000 #000000 0 1;
#X obj 668 8 declare -lib Gem;
#X obj 100 134 _gemwin \; 0 \; 0 \; dimen 300 300;
#X obj 482 283 t a a;
#X obj 482 188 t f f;
#X obj 482 261 % 360;
#X obj 482 164 tgl 18 0 empty empty empty 0 -9 0 10 #fcfcfc #000000 #000000 0 1;
#X obj 646 285 int 0;
#X obj 646 329 t a a;
#X obj 646 234 t f f;
#X obj 646 307 % 360;
#X obj 646 210 tgl 18 0 empty empty empty 0 -9 0 10 #fcfcfc #000000 #000000 0 1;
#X obj 646 261 metro 100;
#X obj 698 286 + 1;
#X connect 0 0 30 0;
#X connect 3 0 14 0;
#X connect 4 0 14 0;
#X connect 5 0 17 0;
#X connect 6 0 17 0;
#X connect 7 0 17 0;
#X connect 8 0 45 0;
#X connect 9 0 8 1;
#X connect 10 0 28 1;
#X connect 12 0 35 0;
#X connect 13 0 27 1;
#X connect 15 0 14 0;
#X connect 18 0 11 2;
#X connect 19 0 16 2;
#X connect 24 0 8 0;
#X connect 25 0 27 0;
#X connect 26 0 16 0;
#X connect 27 0 26 0;
#X connect 28 0 29 0;
#X connect 29 0 11 0;
#X connect 30 0 28 0;
#X connect 31 0 18 0;
#X connect 32 0 19 0;
#X connect 34 0 33 0;
#X connect 35 0 25 0;
#X connect 35 0 0 0;
#X connect 36 0 35 2;
#X connect 38 0 42 0;
#X connect 40 0 38 0;
#X connect 43 0 13 0;
#X connect 43 1 9 0;
#X connect 44 0 24 0;
#X connect 44 1 8 0;
#X connect 45 0 43 0;
#X connect 46 0 44 0;
#X connect 47 0 50 0;
#X connect 48 0 10 0;
#X connect 48 1 53 0;
#X connect 49 0 52 0;
#X connect 49 1 47 0;
#X connect 50 0 48 0;
#X connect 51 0 49 0;
#X connect 52 0 47 0;
#X connect 53 0 47 1;
