#N canvas 215 92 781 568 10;
#X obj 607 137 separator;
#X msg 697 200 1;
#X msg 734 199 0;
#X text 219 407 on;
#X text 256 405 off;
#X msg 32 431 1;
#X msg 68 433 0;
#X msg 213 433 1;
#X msg 251 433 0;
#X obj 289 451 gemhead 1;
#X obj 482 240 int 0;
#X obj 534 241 + 2;
#X floatatom 646 302 0 0 0;
#X obj 607 464 sphere;
#X obj 17 334 gemwin;
#X msg 66 68 create;
#X obj 488 19 gemhead;
#X msg 73 96 destroy;
#X msg 76 155 1;
#X msg 78 182 0;
#X floatatom 482 273 0 0 0;
#X obj 110 493 world_light;
#X obj 110 438 gemhead 1;
#X obj 443 418 sphere;
#X obj 646 275 int 0;
#X obj 289 507 light;
#X msg 644 431 20;
#X msg 480 388 5;
#X text 44 389 global light;
#X text 255 379 local light;
#X text 38 409 on;
#X text 68 410 off;
#X text 123 167 turn rendering on and off;
#X text 140 79 create and destroy the graphics window;
#X obj 482 206 metro 50;
#X msg 482 176 1;
#X msg 519 178 0;
#X obj 646 241 metro 100;
#X obj 708 273 + 1;
#X obj 443 142 separator;
#X obj 443 338 translateXYZ 2 0 0;
#X obj 443 301 rotate 0 1 0;
#X obj 607 341 rotate 1 0 0;
#X obj 607 374 translateXYZ 0 2 0;
#X obj 607 179 color 0 1 0;
#X obj 644 401 r initstuff;
#X obj 480 362 r initstuff;
#X obj 355 528 s initstuff;
#X obj 355 498 loadbang;
#X obj 488 99 translateXYZ;
#X floatatom 540 62 0 0 0;
#X text 582 60 change this number;
#N canvas 95 194 290 179 Gem.init 0;
#X obj 83 30 loadbang;
#X msg 161 76 reset;
#X obj 45 107 outlet;
#X msg 45 75 dimen 300 300;
#X obj 88 51 t b b;
#X connect 0 0 4 0;
#X connect 1 0 2 0;
#X connect 3 0 2 0;
#X connect 4 0 3 0;
#X connect 4 1 1 0;
#X restore 66 312 pd Gem.init;
#X msg 126 275 lighting \$1;
#X text 71 230 turn lighting on/off;
#X obj 126 251 tgl 15 0 empty empty empty 0 -6 0 8 -262144 -1 -1 0
1;
#X connect 0 0 44 0;
#X connect 1 0 37 0;
#X connect 2 0 37 0;
#X connect 2 0 24 0;
#X connect 5 0 21 0;
#X connect 6 0 21 0;
#X connect 7 0 25 0;
#X connect 8 0 25 0;
#X connect 9 0 25 0;
#X connect 10 0 11 0;
#X connect 10 0 20 0;
#X connect 11 0 10 1;
#X connect 12 0 42 1;
#X connect 15 0 14 0;
#X connect 16 0 49 0;
#X connect 17 0 14 0;
#X connect 18 0 14 0;
#X connect 19 0 14 0;
#X connect 20 0 41 1;
#X connect 22 0 21 0;
#X connect 24 0 12 0;
#X connect 24 0 38 0;
#X connect 26 0 13 2;
#X connect 27 0 23 2;
#X connect 34 0 10 0;
#X connect 35 0 34 0;
#X connect 36 0 34 0;
#X connect 36 0 10 0;
#X connect 37 0 24 0;
#X connect 38 0 24 1;
#X connect 39 0 41 0;
#X connect 40 0 23 0;
#X connect 41 0 40 0;
#X connect 42 0 43 0;
#X connect 43 0 13 0;
#X connect 44 0 42 0;
#X connect 45 0 26 0;
#X connect 46 0 27 0;
#X connect 48 0 47 0;
#X connect 49 0 39 0;
#X connect 49 0 0 0;
#X connect 50 0 49 2;
#X connect 52 0 14 0;
#X connect 53 0 14 0;
#X connect 55 0 53 0;
