#N canvas 396 100 600 500 10;
#X declare -lib Gem;
#X obj 358 140 gemhead;
#X floatatom 377 222 0 0 0 0 - - - 0;
#X obj 358 256 rotateXYZ;
#X obj 150 135 gemhead 60;
#X obj 150 162 ortho;
#X obj 150 314 colorRGB 0 1 0;
#X obj 358 332 model ../data/venus.obj;
#X obj 150 347 model ../data/venus.obj;
#X obj 12 257 gemhead 1;
#X obj 12 296 world_light;
#X floatatom 169 213 0 0 0 0 - - - 0;
#X obj 150 249 rotateXYZ;
#X obj 358 182 translateXYZ 1 0 0;
#X obj 150 189 translateXYZ -1 0 0;
#X obj 358 301 scale 3;
#X obj 150 282 scale 3;
#X text 168 6 display two models;
#X text 136 85 rotate the two models to see the effect;
#X text 142 32 one model is in "perspective" mode;
#X text 159 54 the other is in "orthographic" mode;
#X obj 488 8 declare -lib Gem;
#X obj 18 95 _gemwin \; 0 \; 0 \; lighting 1;
#X connect 0 0 12 0;
#X connect 1 0 2 1;
#X connect 2 0 14 0;
#X connect 3 0 4 0;
#X connect 4 0 13 0;
#X connect 5 0 7 0;
#X connect 8 0 9 0;
#X connect 10 0 11 1;
#X connect 11 0 15 0;
#X connect 12 0 2 0;
#X connect 13 0 11 0;
#X connect 14 0 6 0;
#X connect 15 0 5 0;
