#N canvas 69 358 602 502 8;
#X obj 58 260 gemwin;
#X obj 59 291 gemhead;
#X msg 119 130 create;
#X msg 120 159 destroy;
#X msg 117 72 1;
#X msg 118 102 0;
#X msg 124 224 lighting 1;
#X obj 62 383 gemhead 1;
#X obj 62 421 world_light;
#X obj 59 329 model ../data/venus.obj;
#X text 185 21 load in a model file;
#X obj 124 190 loadbang;
#X msg 240 111 view 0 0 \$1;
#X floatatom 240 85 0 0 0;
#X text 344 85 move the camera;
#X msg 240 183 view 0 0 4 \$1;
#X floatatom 240 147 0 0 0;
#X text 343 106 default is 0 \, 0 \, 4;
#X text 370 168 turn left and right;
#X floatatom 236 220 0 0 0;
#X msg 236 256 view 0 0 4 0 \$1;
#X text 363 237 turn up and down;
#X floatatom 237 294 0 0 0;
#X msg 237 330 view 0 0 4 \$1 \$1;
#X text 296 301 turn left and right and up and down;
#X connect 1 0 9 0;
#X connect 2 0 0 0;
#X connect 3 0 0 0;
#X connect 4 0 0 0;
#X connect 5 0 0 0;
#X connect 6 0 0 0;
#X connect 7 0 8 0;
#X connect 11 0 6 0;
#X connect 12 0 0 0;
#X connect 13 0 12 0;
#X connect 15 0 0 0;
#X connect 16 0 15 0;
#X connect 19 0 20 0;
#X connect 20 0 0 0;
#X connect 22 0 23 0;
#X connect 23 0 0 0;
