#N canvas 30 138 946 464 10;
#X obj 58 260 gemwin;
#X msg 119 130 create;
#X msg 120 159 destroy;
#X msg 117 72 1;
#X msg 118 102 0;
#N canvas 46 140 290 229 Gem.init 0;
#X obj 71 191 outlet;
#X obj 71 81 loadbang;
#X msg 101 134 reset;
#X obj 71 109 t b b;
#X msg 71 164 lighting 1;
#X msg 155 164 lighting 0;
#X connect 1 0 3 0;
#X connect 2 0 0 0;
#X connect 3 0 4 0;
#X connect 3 1 2 0;
#X connect 4 0 0 0;
#X connect 5 0 0 0;
#X restore 120 196 pd Gem.init;
#X obj 249 195 cube;
#X msg 249 121 set \$1;
#X floatatom 249 98 5 0 0 0 - - -;
#X obj 249 169 translateXYZ 1 2 -3;
#X obj 119 230 r view_mess;
#N canvas 285 0 450 300 lighting 0;
#X obj 214 196 world_light;
#X obj 214 136 gemhead 1;
#X obj 65 157 world_light;
#X obj 65 105 gemhead 1;
#X msg 278 97 0.5 0.8 0.6;
#X obj 161 42 loadbang;
#X obj 65 129 rotateXYZ -104 160 0;
#X obj 214 164 rotateXYZ 104 -100 0;
#X msg 137 98 1 1 1;
#X connect 1 0 7 0;
#X connect 3 0 6 0;
#X connect 4 0 0 1;
#X connect 5 0 8 0;
#X connect 5 0 4 0;
#X connect 6 0 2 0;
#X connect 7 0 0 0;
#X connect 8 0 2 1;
#X restore 729 106 pd lighting;
#X obj 271 291 translateXYZ 0 -2 -2;
#X obj 271 265 gemhead -50;
#X obj 675 106 gemhead;
#X obj 675 129 model ../data/venus.obj;
#X obj 249 145 gemhead -50;
#X obj 271 315 text2d;
#N canvas 8 40 381 205 textinit 0;
#X obj 85 140 outlet;
#X obj 94 63 loadbang;
#X msg 100 107 text press left button and move mouse;
#X msg 82 86 font ../data/vera.ttf;
#X connect 1 0 3 0;
#X connect 1 0 2 0;
#X connect 2 0 0 0;
#X connect 3 0 0 0;
#X restore 469 297 pd textinit;
#X obj 249 56 tgl 15 0 empty stay_cube empty 0 -6 0 8 -262144 -1 -1
100 100;
#X obj 249 76 - 50;
#X text 125 6 change the view-point \, but keep some objects at a fixed
position;
#X text 307 120 set the priority for rendering;
#X text 431 188 a priority<0 will be rendered AFTER all other things
\, and with viewpoint set to the origin! (objects will not be affected
by a change of view);
#X text 431 240 this is good for displaying logos \, help messages
and cetera...;
#X obj 588 282 gemhead -50;
#N canvas 108 327 419 265 textinit 0;
#X obj 82 198 outlet;
#X obj 78 82 loadbang;
#X msg 97 165 text occasionally press right button;
#X obj 225 10 gemhead -1;
#X obj 225 80 spigot;
#X obj 225 39 t b b;
#X obj 225 102 t b f;
#X obj 264 60 f 1;
#X msg 225 126 font ../data/vera.ttf;
#X connect 1 0 2 0;
#X connect 2 0 0 0;
#X connect 3 0 5 0;
#X connect 4 0 6 0;
#X connect 5 0 4 0;
#X connect 5 1 7 0;
#X connect 6 0 8 0;
#X connect 6 1 7 1;
#X connect 7 0 4 1;
#X connect 8 0 0 0;
#X restore 786 389 pd textinit;
#X obj 588 407 text3d;
#X obj 588 380 rotateXYZ;
#X obj 588 332 render_trigger;
#X obj 634 353 i;
#X obj 687 353 % 360;
#X obj 660 353 - 5;
#X obj 588 308 translateXYZ 0 -7 -10;
#N canvas 20 100 362 426 mousemove 0;
#X obj 129 8 gemmouse;
#X obj 136 88 pack;
#X obj 136 110 spigot;
#X obj 136 131 unpack;
#X obj 136 196 t f f;
#X obj 36 16 gemkeyname;
#X obj 36 39 pack 0 s;
#X obj 36 62 route 1;
#X obj 36 84 route space;
#X msg 36 107 0;
#X msg 136 365 view \$2 \$3 \$1 0 0 0 0 1 0;
#X obj 136 173 +;
#X obj 136 221 * -1;
#X obj 201 237 t f f;
#X obj 201 174 +;
#X obj 201 262 * -1;
#X obj 36 129 t f f f;
#X obj 136 388 s view_mess;
#X text 61 106 reset;
#N canvas 292 198 304 356 coordinates 0;
#X obj 89 52 inlet;
#X obj 94 331 outlet;
#X obj 193 62 atan;
#X msg 193 41 1;
#X obj 193 84 / 45;
#X obj 193 20 loadbang;
#X text 94 29 r phi theta;
#X obj 89 78 unpack 0 0 0;
#X obj 128 123 *;
#X obj 168 123 *;
#X obj 120 197 cos;
#X obj 150 198 sin;
#X obj 120 166 t f f;
#X obj 183 198 cos;
#X obj 213 199 sin;
#X obj 183 167 t f f;
#X obj 120 230 *;
#X obj 150 231 *;
#X obj 85 275 *;
#X obj 125 275 *;
#X obj 174 277 *;
#X obj 66 242 t f f f;
#X obj 91 308 pack 0 0 0;
#X connect 0 0 7 0;
#X connect 2 0 4 0;
#X connect 3 0 2 0;
#X connect 4 0 9 1;
#X connect 4 0 8 1;
#X connect 5 0 3 0;
#X connect 7 0 21 0;
#X connect 7 1 8 0;
#X connect 7 2 9 0;
#X connect 8 0 12 0;
#X connect 9 0 15 0;
#X connect 10 0 16 0;
#X connect 11 0 17 0;
#X connect 12 0 10 0;
#X connect 12 1 11 0;
#X connect 13 0 16 1;
#X connect 13 0 17 1;
#X connect 14 0 20 1;
#X connect 15 0 13 0;
#X connect 15 1 14 0;
#X connect 16 0 18 1;
#X connect 17 0 19 1;
#X connect 18 0 22 0;
#X connect 19 0 22 1;
#X connect 20 0 22 2;
#X connect 21 0 18 0;
#X connect 21 1 19 0;
#X connect 21 2 20 0;
#X connect 22 0 1 0;
#X restore 136 310 pd coordinates;
#X obj 136 249 t b f;
#X obj 136 289 pack 4 0 0;
#X obj 177 46 t f f;
#X obj 177 67 -;
#X obj 136 45 t f f;
#X obj 136 66 -;
#X obj 278 57 s stay_cube;
#X obj 278 35 select 1;
#X obj 201 151 * 0.5;
#X obj 136 153 * 0.5;
#X obj 201 209 clip -90 90;
#X connect 0 0 24 0;
#X connect 0 1 22 0;
#X connect 0 2 2 1;
#X connect 0 4 27 0;
#X connect 1 0 2 0;
#X connect 2 0 3 0;
#X connect 3 0 29 0;
#X connect 3 1 28 0;
#X connect 4 0 12 0;
#X connect 4 1 11 1;
#X connect 5 0 6 0;
#X connect 5 1 6 1;
#X connect 6 0 7 0;
#X connect 7 0 8 0;
#X connect 8 0 9 0;
#X connect 9 0 16 0;
#X connect 10 0 17 0;
#X connect 11 0 4 0;
#X connect 12 0 20 0;
#X connect 13 0 15 0;
#X connect 13 1 14 1;
#X connect 14 0 30 0;
#X connect 15 0 21 2;
#X connect 16 0 11 0;
#X connect 16 1 11 1;
#X connect 16 1 14 0;
#X connect 16 2 14 1;
#X connect 19 0 10 0;
#X connect 20 0 21 0;
#X connect 20 1 21 1;
#X connect 21 0 19 0;
#X connect 22 0 23 1;
#X connect 22 1 23 0;
#X connect 23 0 1 1;
#X connect 24 0 25 1;
#X connect 24 1 25 0;
#X connect 25 0 1 0;
#X connect 27 0 26 0;
#X connect 28 0 14 0;
#X connect 29 0 11 0;
#X connect 30 0 13 0;
#X restore 731 34 pd mousemove;
#X text 275 48 0...[cube] is rendered OSD;
#X text 275 60 1...[cube] is rendered at "view";
#X connect 1 0 0 0;
#X connect 2 0 0 0;
#X connect 3 0 0 0;
#X connect 4 0 0 0;
#X connect 5 0 0 0;
#X connect 7 0 16 0;
#X connect 8 0 7 0;
#X connect 9 0 6 0;
#X connect 10 0 0 0;
#X connect 12 0 17 0;
#X connect 13 0 12 0;
#X connect 14 0 15 0;
#X connect 16 0 9 0;
#X connect 18 0 17 0;
#X connect 19 0 20 0;
#X connect 20 0 8 0;
#X connect 25 0 33 0;
#X connect 26 0 27 0;
#X connect 28 0 27 0;
#X connect 29 0 28 0;
#X connect 29 1 30 0;
#X connect 30 0 32 0;
#X connect 30 0 28 1;
#X connect 31 0 30 1;
#X connect 32 0 31 0;
#X connect 33 0 29 0;
