#N canvas 659 128 721 506 10;
#X declare -lib Gem;
#X floatatom 414 85 0 0 0 0 - - - 0;
#X obj 385 44 gemhead;
#X floatatom 403 165 0 0 0 0 - - - 0;
#X obj 268 149 gemhead 1;
#X obj 268 187 world_light;
#X obj 385 279 model ../data/venus.obj;
#X obj 385 134 translateXYZ;
#X obj 385 205 rotateXYZ;
#X obj 385 238 scale 3;
#X obj 40 198 r fogmess;
#X text 39 349 no fog;
#X text 190 354 linear fog;
#X text 371 353 exp fog;
#X text 520 357 exp^2 fog;
#X text 184 21 various fog types;
#X obj 552 212 gemhead;
#X floatatom 458 97 5 0 0 0 - - - 0;
#X obj 552 250 rotateXYZ 0 -117 0;
#X obj 552 269 square 5;
#X obj 552 231 translateXYZ -3.5 0 -6.57;
#X obj 385 22 tgl 15 1 empty empty empty 20 8 0 8 #fcfcfc #000000 #000000 1 1;
#X obj 552 193 tgl 15 1 empty empty empty 20 8 0 8 #fcfcfc #000000 #000000 1 1;
#X obj 608 8 declare -lib Gem;
#X msg 11 394 \; fogmess fogmode 0;
#X msg 505 393 \; fogmess fogcolor 0 0 1 \; fogmess fogmode 3 \; fogmess fog 0.1;
#X msg 335 393 \; fogmess fogcolor 0 1 0 \; fogmess fogmode 2 \; fogmess fog 0.1;
#X msg 172 393 \; fogmess fogcolor 1 0 0 \; fogmess fogmode 1 \; fogmess fog 0.7;
#X obj 536 10 tgl 18 0 empty empty empty 0 -9 0 10 #fcfcfc #000000 #000000 0 1;
#X obj 536 33 metro 2000;
#X obj 536 56 tgl 18 0 empty empty empty 0 -9 0 10 #fcfcfc #000000 #000000 0 1;
#X obj 536 79 * -8;
#X msg 536 102 \$1 1000;
#X obj 536 125 line;
#X obj 40 228 _gemwin \; 0 \; 0 \; lighting 1 \; fogcolor 1 0 0;
#X connect 0 0 6 3;
#X connect 1 0 6 0;
#X connect 2 0 7 1;
#X connect 3 0 4 0;
#X connect 6 0 7 0;
#X connect 7 0 8 0;
#X connect 8 0 5 0;
#X connect 9 0 33 0;
#X connect 15 0 19 0;
#X connect 16 0 6 1;
#X connect 17 0 18 0;
#X connect 19 0 17 0;
#X connect 20 0 1 0;
#X connect 21 0 15 0;
#X connect 27 0 28 0;
#X connect 28 0 29 0;
#X connect 29 0 30 0;
#X connect 30 0 31 0;
#X connect 31 0 32 0;
#X connect 32 0 0 0;
