#N canvas 557 325 600 500 8;
#X obj 59 259 gemwin;
#X obj 426 54 gemhead;
#X msg 120 159 destroy;
#X msg 117 72 1;
#X msg 118 102 0;
#X floatatom 464 174;
#X msg 124 224 lighting 1;
#X obj 427 315 gemhead 1;
#X obj 427 353 world_light;
#X obj 426 265 model ../data/venus.obj;
#X text 185 21 load in a model file;
#X obj 124 190 loadbang;
#X msg 118 132 createStereo;
#X obj 426 103 translateXYZ 0 0 2;
#X obj 426 216 rotateXYZ;
#X text 149 40 and display it stereoscopically;
#X msg 221 130 stereoSep \$1;
#X msg 318 129 stereoFoc \$1;
#X floatatom 221 92;
#X floatatom 318 87;
#X text 39 309 The default stereoSep is -15;
#X text 39 329 The model may appear inside out depending on what viewing method you use.;
#X text 39 364 If it does \, change the stereoSep to 15;
#X connect 1 0 13 0;
#X connect 2 0 0 0;
#X connect 3 0 0 0;
#X connect 4 0 0 0;
#X connect 5 0 14 2;
#X connect 6 0 0 0;
#X connect 7 0 8 0;
#X connect 11 0 6 0;
#X connect 12 0 0 0;
#X connect 13 0 14 0;
#X connect 14 0 9 0;
#X connect 16 0 0 0;
#X connect 17 0 0 0;
#X connect 18 0 16 0;
#X connect 19 0 17 0;
