#N canvas 396 160 600 500 10;
#X declare -lib Gem;
#X obj 198 50 gemhead;
#X obj 198 82 part_head;
#X obj 198 136 part_color;
#X obj 198 447 part_draw;
#X msg 335 69 0 1 0;
#X text 329 37 set the color range;
#X obj 198 331 part_gravity 0 -0.01 0;
#X obj 198 206 part_velocity sphere 0 0.2 0 0.2;
#X text 310 269 set the number per frame;
#X text 310 378 set the age to kill at;
#X text 366 327 gravity to affect the particles;
#X text 408 174 the velocity domain;
#X text 406 191 a sphere at 0 \, 0.2 \, 0;
#X msg 219 413 draw line;
#X msg 298 413 draw point;
#X msg 393 69 1 0 0;
#X obj 198 270 part_source 25;
#X obj 198 381 part_killold 45;
#X text 406 208 radius = 0.2;
#X msg 31 131 stereoSep 15;
#X obj 198 174 part_size 2;
#X obj 488 8 declare -lib Gem;
#X obj 31 187 _gemwin \; 0 \; 0 \; stereo 1;
#X connect 0 0 1 0;
#X connect 1 0 2 0;
#X connect 2 0 20 0;
#X connect 4 0 2 1;
#X connect 6 0 17 0;
#X connect 7 0 16 0;
#X connect 13 0 3 0;
#X connect 14 0 3 0;
#X connect 15 0 2 2;
#X connect 16 0 6 0;
#X connect 17 0 3 0;
#X connect 19 0 22 0;
#X connect 20 0 7 0;
