#N canvas 163 176 624 412 10;
#X declare -lib Gem;
#X floatatom 481 249 0 0 0 0 - - - 0;
#X msg 422 21 1;
#X msg 455 21 0;
#X floatatom 471 172 0 0 0 0 - - - 0;
#X obj 350 184 gemhead;
#X obj 350 240 color;
#X obj 350 364 square;
#X obj 422 124 line;
#X msg 422 95 0 \, 1 2000;
#X obj 350 334 translate 1 0 0 0;
#X obj 422 63 metro 2000;
#X text 109 29 this demonstrates the linear_path object;
#X obj 518 8 declare -lib Gem;
#X obj 54 151 _gemwin;
#X obj 422 147 t f f;
#X obj 422 213 linear_path 3 \$0.array2;
#X obj 464 300 linear_path 3 \$0.array3;
#X obj 24 336 array define -k \$0.array2;
#A resize 18;
#A 0 0 0 0 1 1 1 0.5 0 1 0 1 0 1 1 1 0 0 0;
#X obj 24 356 array define -k \$0.array3;
#A resize 24;
#A 0 0 0 0 0 0 0 2 2 -2 -3 -1 0.5 -2 4 -1 0.5 -0.5 0 0 0 0 0 0 0;
#X connect 0 0 16 0;
#X connect 1 0 10 0;
#X connect 2 0 10 0;
#X connect 3 0 15 0;
#X connect 4 0 5 0;
#X connect 5 0 9 0;
#X connect 7 0 14 0;
#X connect 8 0 7 0;
#X connect 9 0 6 0;
#X connect 10 0 8 0;
#X connect 14 0 15 0;
#X connect 14 1 16 0;
#X connect 15 0 5 1;
#X connect 16 0 9 2;
