#N canvas 355 106 641 432 10;
#X declare -lib Gem;
#X floatatom 492 288 0 0 0 0 - - - 0;
#X msg 421 55 1;
#X msg 461 55 0;
#X floatatom 463 210 0 0 0 0 - - - 0;
#X obj 350 226 gemhead;
#X obj 350 289 color;
#X obj 350 403 square;
#X obj 421 254 spline_path 3 array2;
#X obj 421 153 line;
#X msg 421 129 0 \, 1 2000;
#X obj 350 351 translate 1 0 0 0;
#X obj 464 320 spline_path 3 array3;
#X obj 421 98 metro 2000;
#X text 109 29 this demonstrates the spline_path object;
#X obj 528 8 declare -lib Gem;
#N canvas 0 0 895 498 arrays 0;
#N canvas 0 0 450 300 (subpatch) 0;
#X array \$0.array2 18 float 0;
#A color 0;
#A width 1;
#X array \$0.array3 24 float 0;
#A color 0;
#A width 1;
#X coords 0 5 23 -5 400 300 1;
#X restore 51 88 graph;
#X obj 508 135 loadbang;
#X obj 508 173 list prepend \$0;
#X msg 508 210 \; \$1.array2 resize 18 \; \$1.array2 read ../data/valcolor.tab \; \$1.array3 resize 24 \; \$1.array3 read ../data/valmotion.tab;
#X connect 1 0 2 0;
#X connect 2 0 3 0;
#X restore 26 394 pd arrays;
#X obj 33 171 _gemwin;
#X obj 421 176 t a a;
#X connect 0 0 11 0;
#X connect 1 0 12 0;
#X connect 2 0 12 0;
#X connect 3 0 7 0;
#X connect 4 0 5 0;
#X connect 5 0 10 0;
#X connect 7 0 5 1;
#X connect 8 0 17 0;
#X connect 9 0 8 0;
#X connect 10 0 6 0;
#X connect 11 0 10 2;
#X connect 12 0 9 0;
#X connect 17 0 7 0;
#X connect 17 1 11 0;
