#N canvas 433 87 762 506 12;
#X declare -lib Gem;
#X obj 248 352 gemhead;
#X obj 248 412 color;
#X msg 559 202 1 1 1;
#X msg 524 156 1 0 0;
#X obj 248 441 square;
#X text 396 19 change the color;
#X text 2 90 create and destroy the graphics window;
#X obj 524 266 rgb2hsv;
#X obj 379 303 hsv2rgb;
#X obj 379 330 unpack 0 0 0;
#X floatatom 379 363 0 0 0 3 red - - 0;
#X floatatom 431 361 0 0 0 3 green - - 0;
#X floatatom 490 361 0 0 0 3 blue - - 0;
#X obj 541 327 unpack 0 0 0;
#X floatatom 541 416 0 0 0 3 hue - - 0;
#X floatatom 593 391 0 0 0 3 saturation - - 0;
#X floatatom 632 353 0 0 0 3 value - - 0;
#X msg 612 246 0 1 0;
#X floatatom 379 85 0 0 1 2 hue \$0-hue - 0;
#X floatatom 400 121 0 0 1 2 saturation \$0-saturation - 0;
#X obj 399 174 t b f;
#X floatatom 437 148 0 0 1 2 value \$0-value - 0;
#X obj 437 174 t b f;
#X text 526 139 red;
#X text 559 185 white;
#X text 614 224 green;
#X obj 379 203 pack 0 1 1;
#X obj 532 52 hsl 128 15 0 1 0 0 \$0-hue empty hue -2 -8 0 10 #fcfcfc #000000 #000000 0 1;
#X obj 532 82 hsl 128 15 0 1 0 0 \$0-saturation empty saturation -2 -8 0 10 #fcfcfc #000000 #000000 0 1;
#X obj 532 112 hsl 128 15 0 1 0 0 \$0-value empty value -2 -8 0 10 #fcfcfc #000000 #000000 0 1;
#X obj 638 8 declare -lib Gem;
#X obj 26 132 _gemwin;
#X connect 0 0 1 0;
#X connect 1 0 4 0;
#X connect 2 0 7 0;
#X connect 3 0 7 0;
#X connect 7 0 8 0;
#X connect 7 0 13 0;
#X connect 8 0 1 1;
#X connect 8 0 9 0;
#X connect 9 0 10 0;
#X connect 9 1 11 0;
#X connect 9 2 12 0;
#X connect 13 0 14 0;
#X connect 13 1 15 0;
#X connect 13 2 16 0;
#X connect 17 0 7 0;
#X connect 18 0 26 0;
#X connect 19 0 20 0;
#X connect 20 0 26 0;
#X connect 20 1 26 1;
#X connect 21 0 22 0;
#X connect 22 0 26 0;
#X connect 22 1 26 2;
#X connect 26 0 8 0;
