#N canvas 197 95 762 506 12;
#X obj 27 337 gemwin;
#X msg 59 120 create;
#X obj 248 352 gemhead;
#X msg 65 147 destroy;
#X msg 86 218 1;
#X msg 85 256 0;
#X obj 248 412 color;
#X msg 559 152 1 1 1;
#X msg 524 106 1 0 0;
#X obj 248 441 square;
#X text 420 25 change the color;
#X text 2 90 create and destroy the graphics window;
#X obj 524 216 rgb2hsv;
#X obj 379 273 hsv2rgb;
#X obj 379 330 unpack 0 0 0;
#X floatatom 379 373 0 0 0;
#X floatatom 424 371 0 0 0;
#X floatatom 470 371 0 0 0;
#X obj 541 257 unpack 0 0 0;
#X floatatom 541 357 0 0 0;
#X floatatom 586 321 0 0 0;
#X floatatom 632 283 0 0 0;
#X msg 612 196 0 1 0;
#X floatatom 379 76 0 0 1;
#X floatatom 399 109 0 0 1;
#X text 381 390 red;
#X text 416 388 green;
#X text 465 390 blue;
#X obj 399 164 t b f;
#X floatatom 437 135 0 0 1;
#X obj 437 164 t b f;
#X text 376 58 hue;
#X text 434 118 value;
#X text 395 92 saturation;
#X text 546 378 hue;
#X text 642 305 value;
#X text 526 79 red;
#X text 563 132 white;
#X text 614 174 green;
#X text 588 338 saturation;
#X obj 379 193 pack 0 1 1;
#N canvas 30 60 290 300 Gem.init 0;
#X obj 68 196 outlet;
#X obj 68 86 loadbang;
#X msg 68 136 reset;
#X connect 1 0 2 0;
#X connect 2 0 0 0;
#X restore 53 304 pd Gem.init;
#X connect 1 0 0 0;
#X connect 2 0 6 0;
#X connect 3 0 0 0;
#X connect 4 0 0 0;
#X connect 5 0 0 0;
#X connect 6 0 9 0;
#X connect 7 0 12 0;
#X connect 8 0 12 0;
#X connect 12 0 13 0;
#X connect 12 0 18 0;
#X connect 13 0 6 1;
#X connect 13 0 14 0;
#X connect 14 0 15 0;
#X connect 14 1 16 0;
#X connect 14 2 17 0;
#X connect 18 0 19 0;
#X connect 18 1 20 0;
#X connect 18 2 21 0;
#X connect 22 0 12 0;
#X connect 23 0 40 0;
#X connect 24 0 28 0;
#X connect 28 0 40 0;
#X connect 28 1 40 1;
#X connect 29 0 30 0;
#X connect 30 0 40 0;
#X connect 30 1 40 2;
#X connect 40 0 13 0;
#X connect 41 0 0 0;
