#N canvas 8 40 682 502 12;
#X floatatom 241 220 0 0 0;
#X obj 208 268 translate;
#X msg 275 220 0 0 1;
#X obj 21 242 gemwin;
#X obj 208 178 gemhead;
#X msg 81 113 create;
#X msg 82 142 destroy;
#X msg 79 55 1;
#X msg 80 85 0;
#X floatatom 237 304 0 0 0;
#X obj 43 357 gemhead 1;
#X obj 43 395 world_light;
#X msg 285 307 open ../data/venus.obj;
#X floatatom 511 227 0 0 0;
#X obj 478 275 translate;
#X msg 545 227 0 0 1;
#X obj 478 185 gemhead;
#X msg 521 321 0 1 0;
#X obj 478 346 rotate;
#X floatatom 499 298 0 0 0;
#X obj 478 396 model ../data/venus.obj;
#X obj 208 339 scaleXYZ;
#X obj 327 149 loadbang;
#X msg 271 187 -10;
#X msg 325 246 0.1;
#X obj 333 278 t b b;
#X text 224 34 notice that the 'rescale 0' message is sent;
#X text 228 51 before the open occurs;
#X text 227 90 notice the size difference due to the scale and;
#X text 229 109 translate objects on the left chain;
#N canvas 22 20 213 300 Gem.init 0;
#X obj 71 191 outlet;
#X obj 71 81 loadbang;
#X msg 101 134 reset;
#X obj 71 109 t b b;
#X msg 71 164 lighting 1;
#X connect 1 0 3 0;
#X connect 2 0 0 0;
#X connect 3 0 4 0;
#X connect 3 1 2 0;
#X connect 4 0 0 0;
#X restore 59 212 pd Gem.init;
#X msg 289 347 rescale 0;
#X obj 208 389 model;
#X connect 0 0 1 1;
#X connect 1 0 21 0;
#X connect 2 0 1 2;
#X connect 4 0 1 0;
#X connect 5 0 3 0;
#X connect 6 0 3 0;
#X connect 7 0 3 0;
#X connect 8 0 3 0;
#X connect 9 0 21 1;
#X connect 9 0 21 2;
#X connect 9 0 21 3;
#X connect 10 0 11 0;
#X connect 12 0 32 0;
#X connect 13 0 14 1;
#X connect 14 0 18 0;
#X connect 15 0 14 2;
#X connect 16 0 14 0;
#X connect 17 0 18 2;
#X connect 18 0 20 0;
#X connect 19 0 18 1;
#X connect 21 0 32 0;
#X connect 22 0 2 0;
#X connect 22 0 23 0;
#X connect 22 0 24 0;
#X connect 22 0 25 0;
#X connect 23 0 0 0;
#X connect 24 0 9 0;
#X connect 25 0 12 0;
#X connect 25 1 31 0;
#X connect 30 0 3 0;
#X connect 31 0 32 0;
