#N canvas 27 90 540 557 10;
#X obj 404 142 bng 15 250 50 0 empty empty empty 0 -6 0 8 -262144 -1
-1;
#X obj 235 42 gemhead;
#X obj 66 154 gemwin;
#X obj 235 111 pix_texture;
#X obj 235 497 rotateXYZ;
#X obj 106 467 nbx 5 14 -1e+37 1e+37 0 0 empty empty empty 0 -6 0 10
-262144 -1 -1 0 256;
#X obj 167 467 nbx 5 14 -1e+37 1e+37 0 0 empty empty empty 0 -6 0 10
-262144 -1 -1 0 256;
#X obj 395 250 nbx 5 14 -1e+37 1e+37 0 0 empty empty empty 0 -6 0 10
-262144 -1 -1 -0.25 256;
#X obj 425 267 nbx 5 14 -1e+37 1e+37 0 0 empty empty empty 0 -6 0 10
-262144 -1 -1 0.5 256;
#X obj 458 285 nbx 5 14 -1e+37 1e+37 0 0 empty empty empty 0 -6 0 10
-262144 -1 -1 0.2 256;
#X obj 425 304 t b f;
#X obj 462 304 t b f;
#X obj 303 413 nbx 5 14 -1e+37 1e+37 0 0 empty empty empty 0 -6 0 10
-262144 -1 -1 34336 256;
#X obj 371 355 nbx 5 14 -1e+37 1e+37 0 0 empty empty parameter# 0 -6
0 10 -262144 -1 -1 0 256;
#X obj 440 324 pack 0 0 0 0;
#X obj 235 431 GEMglProgramEnvParameter4fvARB;
#X obj 242 358 loadbang;
#X obj 242 390 GLdefine GL_VERTEX_PROGRAM_ARB;
#X text 253 374 GL_VERTEX_PROGRAM_ARB = 34336;
#X msg 188 136 print;
#X msg 66 40 create \, 1;
#X msg 77 66 0 \, destroy;
#X text 382 23 open a texture;
#X text 343 123 open a vertex-program;
#X text 420 469 open a model;
#N canvas 0 0 450 300 defaults 0;
#X obj 112 43 loadbang;
#X msg 102 121 0;
#X obj 102 186 outlet;
#X obj 102 84 t b b;
#X obj 164 156 unpack 0 0 0;
#X obj 168 188 outlet;
#X obj 217 189 outlet;
#X obj 263 189 outlet;
#X text 101 208 param#;
#X text 205 216 param-values;
#X obj 179 44 inlet;
#X msg 161 122 -0.25 0.5 0.2;
#X connect 0 0 3 0;
#X connect 1 0 2 0;
#X connect 3 0 1 0;
#X connect 3 1 11 0;
#X connect 4 0 5 0;
#X connect 4 1 6 0;
#X connect 4 2 7 0;
#X connect 10 0 3 0;
#X connect 11 0 4 0;
#X restore 371 228 pd defaults;
#X msg 371 211 default;
#X obj 235 531 model ../data/venus.obj;
#X obj 235 82 pix_image ../data/64shade.tif;
#N canvas 0 0 450 300 open 0;
#X obj 75 103 openpanel;
#X obj 75 173 outlet;
#X obj 75 127 t b s;
#X msg 105 152 set open \$1;
#X obj 75 80 inlet;
#X connect 0 0 2 0;
#X connect 2 0 1 0;
#X connect 2 1 3 0;
#X connect 3 0 1 0;
#X connect 4 0 0 0;
#X restore 347 141 pd open;
#X obj 418 46 bng 15 250 50 0 empty empty empty 0 -6 0 8 -262144 -1
-1;
#N canvas 0 0 450 300 open 0;
#X obj 75 103 openpanel;
#X obj 75 173 outlet;
#X obj 75 127 t b s;
#X msg 105 152 set open \$1;
#X obj 75 80 inlet;
#X connect 0 0 2 0;
#X connect 2 0 1 0;
#X connect 2 1 3 0;
#X connect 3 0 1 0;
#X connect 4 0 0 0;
#X restore 361 45 pd open;
#X msg 361 65 open ../data/64shade.tif;
#X obj 434 495 bng 15 250 50 0 empty empty empty 0 -6 0 8 -262144 -1
-1;
#N canvas 0 0 450 300 open 0;
#X obj 75 103 openpanel;
#X obj 75 173 outlet;
#X obj 75 127 t b s;
#X msg 105 152 set open \$1;
#X obj 75 80 inlet;
#X connect 0 0 2 0;
#X connect 2 0 1 0;
#X connect 2 1 3 0;
#X connect 3 0 1 0;
#X connect 4 0 0 0;
#X restore 377 494 pd open;
#X msg 377 514 open ../data/venus.obj;
#X obj 44 467 nbx 5 14 -1e+37 1e+37 0 0 empty empty empty 0 -6 0 10
-262144 -1 -1 0 256;
#X msg 66 313 bang;
#X text 60 294 2nd click me;
#X obj 143 330 t b b b;
#X text 54 448 3rd play me;
#X text 79 18 1st click me;
#X text 295 275 4th play me;
#X msg 347 161 open ../data/toon.vp;
#X obj 235 178 vertex_program ../data/toon.vp;
#X connect 0 0 29 0;
#X connect 1 0 28 0;
#X connect 3 0 44 0;
#X connect 4 0 27 0;
#X connect 5 0 4 2;
#X connect 6 0 4 3;
#X connect 7 0 14 0;
#X connect 8 0 10 0;
#X connect 9 0 11 0;
#X connect 10 0 14 0;
#X connect 10 1 14 1;
#X connect 11 0 14 0;
#X connect 11 1 14 2;
#X connect 12 0 15 1;
#X connect 13 0 15 2;
#X connect 14 0 15 3;
#X connect 15 0 4 0;
#X connect 16 0 17 0;
#X connect 17 0 12 0;
#X connect 19 0 44 0;
#X connect 20 0 2 0;
#X connect 21 0 2 0;
#X connect 25 0 13 0;
#X connect 25 1 7 0;
#X connect 25 2 8 0;
#X connect 25 3 9 0;
#X connect 26 0 25 0;
#X connect 28 0 3 0;
#X connect 29 0 43 0;
#X connect 30 0 31 0;
#X connect 31 0 32 0;
#X connect 32 0 28 0;
#X connect 33 0 34 0;
#X connect 34 0 35 0;
#X connect 35 0 27 0;
#X connect 36 0 4 1;
#X connect 37 0 39 0;
#X connect 39 0 35 0;
#X connect 39 1 43 0;
#X connect 39 2 32 0;
#X connect 43 0 44 0;
#X connect 44 0 15 0;
