#N canvas 27 90 540 557 10;
#X declare -lib Gem;
#X obj 404 142 bng 15 250 50 0 empty empty empty 0 -6 0 8 #fcfcfc #000000 #000000;
#X obj 235 42 gemhead;
#X obj 235 497 rotateXYZ;
#X obj 106 467 nbx 5 14 -1e+37 1e+37 0 0 empty empty empty 0 -6 0 10 #fcfcfc #000000 #000000 0 256;
#X obj 167 467 nbx 5 14 -1e+37 1e+37 0 0 empty empty empty 0 -6 0 10 #fcfcfc #000000 #000000 0 256;
#X msg 188 136 print;
#X text 343 123 open a vertex-program;
#X text 420 469 open a model;
#X obj 235 531 model ../data/venus.obj;
#N canvas 0 0 450 300 open 0;
#X obj 75 103 openpanel;
#X obj 75 173 outlet;
#X obj 75 127 t b s;
#X msg 105 152 set open \$1;
#X obj 75 80 inlet;
#X connect 0 0 2 0;
#X connect 2 0 1 0;
#X connect 2 1 3 0;
#X connect 3 0 1 0;
#X connect 4 0 0 0;
#X restore 347 141 pd open;
#X obj 434 495 bng 15 250 50 0 empty empty empty 0 -6 0 8 #fcfcfc #000000 #000000;
#N canvas 0 0 450 300 open 0;
#X obj 75 103 openpanel;
#X obj 75 173 outlet;
#X obj 75 127 t b s;
#X msg 105 152 set open \$1;
#X obj 75 80 inlet;
#X connect 0 0 2 0;
#X connect 2 0 1 0;
#X connect 2 1 3 0;
#X connect 3 0 1 0;
#X connect 4 0 0 0;
#X restore 377 494 pd open;
#X msg 377 514 open ../data/venus.obj;
#X obj 44 467 nbx 5 14 -1e+37 1e+37 0 0 empty empty empty 0 -6 0 10 #fcfcfc #000000 #000000 0 256;
#X msg 66 313 bang;
#X text 60 294 2nd click me;
#X obj 143 330 t b b b;
#X text 54 448 3rd play me;
#X msg 347 161 open ../data/random.fp;
#X floatatom 318 49 5 0 0 0 - - - 0;
#X obj 235 85 colorRGB 1 1 1;
#X obj 60 237 world_light;
#X obj 60 214 gemhead 1;
#X obj 235 178 fragment_program ../data/random.fp;
#X text 362 48 play me;
#X obj 380 390 gemhead;
#X obj 380 412 translateXYZ -2 0 0;
#X obj 235 416 translateXYZ 2 0 0;
#X obj 428 8 declare -lib Gem;
#X obj 70 126 _gemwin \; 0 \; 0 \; lighting 1;
#X connect 0 0 9 0;
#X connect 1 0 20 0;
#X connect 2 0 8 0;
#X connect 3 0 2 2;
#X connect 4 0 2 3;
#X connect 5 0 23 0;
#X connect 9 0 18 0;
#X connect 10 0 11 0;
#X connect 11 0 12 0;
#X connect 12 0 8 0;
#X connect 13 0 2 1;
#X connect 14 0 16 0;
#X connect 16 0 12 0;
#X connect 16 1 18 0;
#X connect 18 0 23 0;
#X connect 19 0 20 2;
#X connect 20 0 23 0;
#X connect 22 0 21 0;
#X connect 23 0 27 0;
#X connect 25 0 26 0;
#X connect 26 0 2 0;
#X connect 27 0 2 0;
