#N canvas 155 100 742 519 10;
#X msg 39 53 create \, 1;
#X obj 39 100 gemwin;
#X obj 93 174 gemhead;
#X obj 93 197 b;
#X obj 93 154 tgl 15 1 empty empty empty 17 7 0 10 -262144 -1 -1 1
1;
#X obj 93 336 gemhead;
#X msg 25 305 0;
#X obj 25 285 loadbang;
#X obj 93 260 t b a;
#X obj 156 336 unpack 0 0 0;
#X obj 93 385 translateXYZ 0 -2 0;
#X msg 93 225 0 -2 0 \, 0 2 0;
#X text 203 225 two messages in one;
#X text 151 174 [gemhead]-"metro";
#X obj 93 426 circle 0.2;
#X text 40 25 the "double [gemhead] idiom" vs. [repeat];
#X obj 438 163 gemhead;
#X obj 438 143 tgl 15 1 empty empty empty 17 7 0 10 -262144 -1 -1 0
1;
#X obj 479 375 unpack 0 0 0;
#X text 525 186 two messages in one;
#X obj 438 425 square 0.2;
#X obj 479 307 select 0 1;
#X obj 479 284 f;
#X obj 438 404 translateXYZ 0 0 0;
#X obj 354 341 loadbang;
#X msg 354 368 draw line;
#X obj 438 186 t a a b;
#X obj 438 229 separator;
#X obj 438 257 t a b;
#X msg 497 259 0;
#X msg 479 328 0 -2 0;
#X msg 511 348 0 2 0;
#X obj 508 284 + 1;
#X msg 54 76 destroy;
#X text 258 65 The gemhead object resets the states for OpenGL and
also some pix_ settings. Anything after it is starts as a clean state
similar to combining [separator] and [pix_separator]. (cc);
#N canvas 220 0 701 555 more_on_the_"repeat"_technics 0;
#X obj 21 54 gemhead;
#X obj 21 281 separator;
#X obj 21 128 t a b;
#X msg 118 270 seed 1;
#X obj 21 445 translateXYZ;
#X obj 21 470 circle 0.1;
#X obj 118 354 random 200;
#X obj 199 354 random 200;
#X obj 118 376 - 100;
#X obj 199 377 - 100;
#X obj 199 398 / 30;
#X obj 118 397 / 30;
#X msg 199 270 seed 2;
#X obj 21 310 t a b b;
#X obj 118 313 spigot 0;
#X obj 199 312 spigot 0;
#X obj 278 276 tgl 15 0 empty empty empty 17 7 0 10 -262144 -1 -1 0
1;
#X text 311 274 <- if you reset the random at the begining of each
frame \, then all frames look the same.;
#X obj 21 101 scaleXYZ 1 1 1;
#X floatatom 52 80 5 0 0 0 - - -;
#X floatatom 95 80 5 0 0 0 - - -;
#X obj 21 230 gemlist;
#X obj 21 208 until;
#X msg 21 184 100;
#X obj 21 162 t b a;
#X text 23 504 This patch shows how to draw the same primitive
with the a single [gemhead] many times;
#X obj 21 35 tgl 15 1 empty empty empty 17 7 0 10 -262144 -1 -1 0 1
;
#X connect 0 0 18 0;
#X connect 1 0 13 0;
#X connect 2 0 24 0;
#X connect 2 1 3 0;
#X connect 2 1 12 0;
#X connect 3 0 14 0;
#X connect 4 0 5 0;
#X connect 6 0 8 0;
#X connect 7 0 9 0;
#X connect 8 0 11 0;
#X connect 9 0 10 0;
#X connect 10 0 4 2;
#X connect 11 0 4 1;
#X connect 12 0 15 0;
#X connect 13 0 4 0;
#X connect 13 1 6 0;
#X connect 13 1 7 0;
#X connect 14 0 6 0;
#X connect 15 0 7 0;
#X connect 16 0 14 1;
#X connect 16 0 15 1;
#X connect 18 0 2 0;
#X connect 19 0 18 1;
#X connect 20 0 18 2;
#X connect 21 0 1 0;
#X connect 22 0 21 0;
#X connect 23 0 22 0;
#X connect 24 0 23 0;
#X connect 24 1 21 1;
#X connect 26 0 0 0;
#X restore 370 469 pd more_on_the_"repeat"_technics;
#X connect 0 0 1 0;
#X connect 2 0 3 0;
#X connect 3 0 11 0;
#X connect 4 0 2 0;
#X connect 5 0 10 0;
#X connect 6 0 5 0;
#X connect 7 0 6 0;
#X connect 8 0 5 0;
#X connect 8 1 9 0;
#X connect 9 0 10 1;
#X connect 9 1 10 2;
#X connect 9 2 10 3;
#X connect 10 0 14 0;
#X connect 11 0 8 0;
#X connect 16 0 26 0;
#X connect 17 0 16 0;
#X connect 18 0 23 1;
#X connect 18 1 23 2;
#X connect 18 2 23 3;
#X connect 21 0 30 0;
#X connect 21 1 31 0;
#X connect 22 0 21 0;
#X connect 22 0 32 0;
#X connect 23 0 20 0;
#X connect 24 0 25 0;
#X connect 25 0 20 0;
#X connect 26 0 27 0;
#X connect 26 1 27 0;
#X connect 26 2 29 0;
#X connect 27 0 28 0;
#X connect 28 0 23 0;
#X connect 28 1 22 0;
#X connect 29 0 22 1;
#X connect 30 0 18 0;
#X connect 31 0 18 0;
#X connect 32 0 22 1;
#X connect 33 0 1 0;
