#N canvas 778 250 473 588 10;
#X declare -lib Gem;
#X obj 29 134 gemhead;
#X obj 29 248 rotateXYZ 10 20 30;
#X obj 29 393 rotateXYZ 10 20 30;
#X obj 29 477 cube 0.1;
#X obj 29 271 separator;
#N canvas 0 0 450 300 light 0;
#X obj 225 45 gemhead 10;
#X floatatom 258 78 5 0 0 0 - - - 0;
#X floatatom 299 77 5 0 0 0 - - - 0;
#X floatatom 341 78 5 0 0 0 - - - 0;
#X msg 319 150 1 0 0;
#X obj 225 227 world_light;
#X msg 333 173 0.4 0.4 0.4;
#X msg 309 127 0 0 0;
#X obj 228 160 tgl 15 0 empty empty empty 0 -6 0 8 #fcfcfc #000000 #000000 0 1;
#X msg 228 181 debug \$1;
#X obj 225 103 rotateXYZ 0 30 0;
#X obj 27 51 gemhead 10;
#X floatatom 60 84 5 0 0 0 - - - 0;
#X floatatom 101 83 5 0 0 0 - - - 0;
#X floatatom 143 84 5 0 0 0 - - - 0;
#X msg 121 156 1 0 0;
#X obj 27 233 world_light;
#X msg 130 173 0.4 0.4 0.4;
#X msg 111 133 0 0 0;
#X obj 30 166 tgl 15 0 empty empty empty 0 -6 0 8 #fcfcfc #000000 #000000 0 1;
#X msg 30 187 debug \$1;
#X obj 27 109 rotateXYZ 0 -90 0;
#X msg 362 225 0.8 0.8 0.8;
#X msg 144 199 0.7 0.7 0.7;
#X msg 346 198 0.6 0.6 0.6;
#X obj 408 87 loadbang;
#X connect 0 0 10 0;
#X connect 1 0 10 1;
#X connect 2 0 10 2;
#X connect 3 0 10 3;
#X connect 4 0 5 1;
#X connect 6 0 5 1;
#X connect 7 0 5 1;
#X connect 8 0 9 0;
#X connect 9 0 5 0;
#X connect 10 0 5 0;
#X connect 11 0 21 0;
#X connect 12 0 21 1;
#X connect 13 0 21 2;
#X connect 14 0 21 3;
#X connect 15 0 16 1;
#X connect 17 0 16 1;
#X connect 18 0 16 1;
#X connect 19 0 20 0;
#X connect 20 0 16 0;
#X connect 21 0 16 0;
#X connect 22 0 5 1;
#X connect 23 0 16 1;
#X connect 24 0 5 1;
#X connect 25 0 23 0;
#X connect 25 0 24 0;
#X restore 300 152 pd light;
#X obj 300 131 gemwin;
#X msg 300 104 lighting 1 \, create \, 1;
#X obj 29 453 translateXYZ 0.3 0 0;
#X floatatom 64 367 5 0 0 0 - - - 0;
#X floatatom 104 368 5 0 0 0 - - - 0;
#X floatatom 146 368 5 0 0 0 - - - 0;
#X floatatom 68 427 5 0 0 0 - - - 0;
#X floatatom 114 427 5 0 0 0 - - - 0;
#X floatatom 156 428 5 0 0 0 - - - 0;
#X floatatom 64 221 5 0 0 0 - - - 0;
#X floatatom 104 222 5 0 0 0 - - - 0;
#X floatatom 146 222 5 0 0 0 - - - 0;
#X text 197 223 <- fun 1;
#X text 198 369 <- fun 2;
#X text 203 428 <- fun 3;
#X text 136 30 double iterative process;
#X obj 368 8 declare -lib Gem;
#X obj 29 167 gemrepeat 20;
#X obj 29 328 gemrepeat 20;
#X connect 0 0 23 0;
#X connect 1 0 4 0;
#X connect 2 0 8 0;
#X connect 4 0 24 0;
#X connect 7 0 6 0;
#X connect 8 0 3 0;
#X connect 9 0 2 1;
#X connect 10 0 2 2;
#X connect 11 0 2 3;
#X connect 12 0 8 1;
#X connect 13 0 8 2;
#X connect 14 0 8 3;
#X connect 15 0 1 1;
#X connect 16 0 1 2;
#X connect 17 0 1 3;
#X connect 23 0 1 0;
#X connect 24 0 2 0;
