#N canvas 143 49 609 575 10;
#X obj 152 105 gemframebuffer;
#X obj 179 148 translateXYZ 0 0 -4;
#X obj 152 126 t a a;
#X obj 242 181 inlet;
#X msg 224 84 dimen \$1 \$2;
#X obj 179 169 outlet;
#X obj 224 64 t l l;
#X obj 317 41 /;
#X obj 317 62 t f f;
#X obj 317 82 * -1;
#X obj 317 103 pack f f;
#X msg 317 126 perspec \$1 \$2 -1 1 1 20;
#X obj 374 352 pix_texture;
#X obj 70 16 loadbang;
#X obj 365 181 * 4;
#X msg 365 202 \$1 4;
#X obj 435 181 /;
#X msg 435 161 4 \$1;
#X msg 435 202 4 \$1;
#X obj 365 225 spigot;
#X obj 435 225 spigot;
#X obj 402 263 unpack f f;
#X obj 374 373 rectangle 4 4;
#X obj 347 394 rectangle 4 4;
#X obj 295 342 loadbang;
#X msg 295 363 draw line;
#X obj 401 202 < 1;
#X obj 477 202 >= 1;
#X obj 347 321 t a a;
#X obj 152 84 inlet;
#X obj 347 300 gemhead 100000;
#X msg 225 13 bang;
#X obj 152 548 pix_buffer \$0-buf 1;
#X obj 167 432 pix_buffer_write \$0-buf;
#X msg 313 392 0;
#X msg 152 521 save \$1 0;
#X msg 152 474 bang;
#X obj 152 323 spigot;
#X msg 185 303 1;
#X msg 200 323 0;
#X obj 242 201 route symbol;
#X obj 242 219 symbol;
#X obj 242 239 t s b;
#X obj 294 237 t b;
#X obj 224 43 pack \$1 \$2;
#X obj 167 410 pix_snap 0 0 \$1 \$2;
#X obj 152 501 symbol \$3;
#X obj 152 343 t b a b b b;
#X obj 167 374 t a b a;
#X text 453 523 (c) Jack/RYBN 2011;
#X connect 0 0 2 0;
#X connect 0 1 12 1;
#X connect 1 0 5 0;
#X connect 2 0 37 0;
#X connect 2 1 1 0;
#X connect 3 0 40 0;
#X connect 4 0 0 0;
#X connect 6 0 4 0;
#X connect 6 1 7 0;
#X connect 7 0 8 0;
#X connect 8 0 9 0;
#X connect 8 0 14 0;
#X connect 8 0 17 0;
#X connect 8 1 10 1;
#X connect 8 1 26 0;
#X connect 8 1 27 0;
#X connect 9 0 10 0;
#X connect 10 0 11 0;
#X connect 11 0 0 0;
#X connect 12 0 22 0;
#X connect 13 0 44 0;
#X connect 14 0 15 0;
#X connect 15 0 19 0;
#X connect 16 0 18 0;
#X connect 17 0 16 0;
#X connect 18 0 20 0;
#X connect 19 0 21 0;
#X connect 20 0 21 0;
#X connect 21 0 22 1;
#X connect 21 0 23 1;
#X connect 21 1 22 2;
#X connect 21 1 23 2;
#X connect 24 0 25 0;
#X connect 25 0 23 0;
#X connect 26 0 19 1;
#X connect 27 0 20 1;
#X connect 28 0 23 0;
#X connect 28 1 12 0;
#X connect 29 0 0 0;
#X connect 30 0 28 0;
#X connect 31 0 44 0;
#X connect 34 0 33 1;
#X connect 35 0 32 0;
#X connect 36 0 46 0;
#X connect 37 0 47 0;
#X connect 38 0 37 1;
#X connect 39 0 37 1;
#X connect 40 0 41 0;
#X connect 40 1 43 0;
#X connect 41 0 42 0;
#X connect 42 0 46 1;
#X connect 42 1 43 0;
#X connect 43 0 38 0;
#X connect 44 0 6 0;
#X connect 45 0 33 0;
#X connect 46 0 35 0;
#X connect 47 0 36 0;
#X connect 47 1 48 0;
#X connect 47 3 34 0;
#X connect 47 4 39 0;
#X connect 48 0 45 0;
#X connect 48 1 45 0;
#X connect 48 2 45 0;
