#N canvas 6 85 730 205 10;
#X text 56 64 mode can be MANUAL \, AUTO and ONE_PUSH.;
#X text 57 118 in AUTO mode \, the camera adjusts itself the parameter
all the time.;
#X text 56 79 in MANUAL mode \, the parameter's value is set with;
#X text 55 18 if your device supports it \, you can change the mode
of a paramter (aka feature) with the message;
#X msg 296 33 set featureMode mode;
#X msg 357 79 set feature value;
#X text 547 12 example :;
#X msg 543 31 set gainMode AUTO;
#X msg 542 76 set gain 124;
#X text 57 158 in ONE_PUSH mode \, the camera adjusts itself the parameter
only once.;
