#N canvas 94 121 763 563 10;
#X obj 142 223 s \$1-ctl;
#X text 63 27 With VLC backend you can open whatever VLC can as far
as its a video : a file \, a stream;
#X msg 44 89 driver vlc;
#X text 19 72 1- select the backend;
#X text 194 73 2- open what you want;
#X msg 180 90 device file:///home/me/video.avi;
#X text 196 109 note the path should be the same you enter in VLC in
"Open network stream" window;
#X text 54 372 VLC doesn't know the resolution of the video \, so please
set it yourself :;
#X obj 148 457 s \$1-ctl;
#X msg 104 416 dimen 640 480;
#X msg 216 418 dimen 1920 1080;
#X text 61 473 you can easily over- or undersample your video with
this (if don't care about the interpolation quality...);
#X msg 169 160 set screen-fps 50 \, set screen-top 100 \, set-screen
left 0 \, set screen-width 500 \, set screen-height 500 \, device screen://
;
#X text 537 174 screen capturing;
#X text 53 275 The available properties are the VLC cmdline options.
See the VLC documentation for a list (you could also check https://wiki.videolan.org/VLC_command-line_help/).
You need to remove the leading dashes ("--") from the cmdline options.
;
#X connect 2 0 0 0;
#X connect 5 0 0 0;
#X connect 9 0 8 0;
#X connect 10 0 8 0;
#X connect 12 0 0 0;
