#N canvas 62 14 791 542 10;
#X obj 366 251 GEMglGenLists 1;
#X obj 336 418 GEMglNewList;
#X obj 147 392 GEMglCallList;
#N canvas 0 0 450 300 once 0;
#X obj 91 62 inlet;
#X obj 91 266 outlet;
#X obj 91 150 spigot 1;
#X obj 91 175 t a b;
#X msg 121 197 0;
#X obj 298 57 inlet open;
#X obj 298 92 t b;
#X msg 142 128 1;
#X connect 0 0 2 0;
#X connect 2 0 3 0;
#X connect 3 0 1 0;
#X connect 3 1 4 0;
#X connect 4 0 2 1;
#X connect 5 0 6 0;
#X connect 6 0 7 0;
#X connect 7 0 2 1;
#X restore 366 229 pd once;
#N canvas 0 0 450 300 once 0;
#X obj 91 62 inlet;
#X obj 91 266 outlet;
#X obj 91 150 spigot 1;
#X obj 91 175 t a b;
#X msg 121 197 0;
#X obj 298 57 inlet open;
#X obj 298 92 t b;
#X msg 142 128 1;
#X connect 0 0 2 0;
#X connect 2 0 3 0;
#X connect 3 0 1 0;
#X connect 3 1 4 0;
#X connect 4 0 2 1;
#X connect 5 0 6 0;
#X connect 6 0 7 0;
#X connect 7 0 2 1;
#X restore 336 392 pd once;
#X obj 549 281 t b f;
#X obj 415 374 loadbang;
#X obj 415 393 GLdefine GL_COMPILE;
#X msg 410 208 bang;
#X obj 336 508 GEMglEndList;
#X obj 336 445 t a a;
#X obj 366 466 separator;
#X obj 336 173 gemhead 1;
#X obj 336 198 t a a;
#X obj 466 271 t f b;
#X obj 345 298 t f f;
#X text 26 21 this is an example of how to use Gem's openGL-wrapper-objects
to speed up things;
#X obj 147 248 gemhead;
#X obj 147 311 translateXYZ;
#X obj 147 364 rotateXYZ;
#X floatatom 549 236 5 -2 2 2 pos - -;
#X floatatom 199 282 5 -4 4 0 - - -;
#X floatatom 185 339 5 0 0 0 - - -;
#X text 346 25 1 generate a displaylist with [GEMglGenLists];
#X text 376 38 you should do this only once;
#X text 346 65 2 compile what is between [GEMglNewList] and [GEMglEndList]
;
#X text 377 82 you should do this \, whenever a parameter of the display-list
has changed;
#X text 346 125 3 call the displaylist with [GEMglCallList];
#X obj 21 337 gemwin;
#X msg 53 120 create;
#X msg 56 241 destroy;
#X msg 54 311 reset;
#X obj 54 285 loadbang;
#X obj 76 164 tgl 30 0 empty empty empty 0 -6 0 8 -262144 -1 -1 1 1
;
#N canvas 0 0 450 300 weird 0;
#X obj 37 9 inlet gemlist;
#X obj 37 125 cylinder;
#X obj 190 30 inlet dist;
#X obj 360 30 inlet tearot;
#X obj 67 204 rotate 0 0 1 0;
#X obj 67 231 teapot 0.2;
#X obj 67 173 translate 1 0 0 2;
#X obj 67 144 color 1 0 0;
#X obj 37 103 color 1 1 1 0.5;
#X obj 37 81 alpha;
#X obj 37 34 t a a;
#X obj 67 56 separator;
#X connect 0 0 10 0;
#X connect 2 0 6 1;
#X connect 3 0 4 1;
#X connect 4 0 5 0;
#X connect 6 0 4 0;
#X connect 7 0 6 0;
#X connect 8 0 1 0;
#X connect 9 0 8 0;
#X connect 10 0 9 0;
#X connect 10 1 11 0;
#X connect 11 0 7 0;
#X restore 366 487 pd weird thing;
#X msg 496 318 bang;
#X floatatom 663 264 5 0 0 0 - - -;
#X text 529 320 recompile the display-list;
#X connect 0 1 14 0;
#X connect 1 0 10 0;
#X connect 3 0 0 0;
#X connect 4 0 1 0;
#X connect 5 0 35 0;
#X connect 5 1 34 1;
#X connect 6 0 7 0;
#X connect 7 0 1 2;
#X connect 8 0 3 1;
#X connect 10 0 9 0;
#X connect 10 1 11 0;
#X connect 11 0 34 0;
#X connect 12 0 13 0;
#X connect 13 0 4 0;
#X connect 13 1 3 0;
#X connect 14 0 15 0;
#X connect 14 1 35 0;
#X connect 15 0 2 1;
#X connect 15 1 1 1;
#X connect 17 0 18 0;
#X connect 18 0 19 0;
#X connect 19 0 2 0;
#X connect 20 0 5 0;
#X connect 21 0 18 1;
#X connect 21 0 18 2;
#X connect 22 0 19 1;
#X connect 22 0 19 2;
#X connect 22 0 19 3;
#X connect 29 0 28 0;
#X connect 30 0 28 0;
#X connect 31 0 28 0;
#X connect 32 0 31 0;
#X connect 33 0 28 0;
#X connect 35 0 4 1;
#X connect 36 0 34 2;
