#N canvas 712 350 857 584 10;
#X text 75 101 1- select the backend;
#X obj 232 273 s \$1-ctl;
#X obj 192 445 s \$1-ctl;
#X text 88 47 PIPEWIRE - receive video streams via pipewire;
#X text 88 57 =============================================;
#X msg 261 102 driver pipewire;
#X msg 261 162 device pipewire;
#X text 426 160 The device-name is ignored!;
#X text 426 188 In order to be able to identify your device when connecting it \, you can set the AppName (default "Pd") and the NodeName (default "Gem");
#X msg 332 273 close;
#X text 84 151 2- open the a port (listening for new connections), f 24;
#X msg 192 422 close \, clearProps \, set autoconnect 1 \, device wirepipe;
#X text 68 352 per default \, the input will not be connected to a matching output. You can enable autoconnection by setting the "autoconnect" property to "1" (and disable it again \, by setting the property to "0"):;
#X text 374 275 close the device;
#X msg 253 232 set AppName foo \, set NodeName bar \, device pipiwee;
#X connect 5 0 1 0;
#X connect 6 0 1 0;
#X connect 9 0 1 0;
#X connect 11 0 2 0;
#X connect 14 0 1 0;
