#N canvas 735 459 904 450 12;
#X obj 297 337 gemwin;
#X obj 102 121 cnv 25 25 25 empty empty empty 20 12 0 12 #000000 #404040 0;
#X obj 104 123 tgl 21 0 \$0-tgl \$0-tgl create 25 10 0 12 #fcfcfc #000000 #000000 0 1;
#N canvas 735 459 784 307 tgl 0;
#X obj 70 51 r \$0-tgl;
#X obj 70 101 t f f;
#X obj 70 126 select 0 1;
#X msg 70 151 0 \, destroy;
#X msg 152 151 create \, 1;
#X obj 230 126 select 0 1;
#X msg 230 151 create;
#X msg 282 151 destroy;
#X obj 230 176 symbol;
#X msg 230 201 label \$1;
#X obj 230 226 s \$0-tgl;
#X obj 207 20 loadbang;
#X obj 70 176 s \$0-gemwin;
#X obj 70 76 route float;
#X obj 460 61 inlet;
#X msg 460 117 set \$1;
#X obj 460 142 s \$0-tgl;
#X obj 279 65 t b;
#X obj 249 65 t b;
#X obj 460 92 route float destroy create;
#X connect 0 0 13 0;
#X connect 1 0 2 0;
#X connect 1 1 5 0;
#X connect 2 0 3 0;
#X connect 2 1 4 0;
#X connect 3 0 12 0;
#X connect 4 0 12 0;
#X connect 5 0 6 0;
#X connect 5 1 7 0;
#X connect 6 0 8 0;
#X connect 7 0 8 0;
#X connect 8 0 9 0;
#X connect 9 0 10 0;
#X connect 11 0 18 0;
#X connect 13 0 1 0;
#X connect 14 0 19 0;
#X connect 15 0 16 0;
#X connect 17 0 7 0;
#X connect 18 0 6 0;
#X connect 19 0 15 0;
#X connect 19 1 18 0;
#X connect 19 2 17 0;
#X restore 364 149 pd tgl;
#X obj 160 280 r \$0-gemwin;
#X obj 264 99 inlet;
#X obj 264 124 t a a;
#X obj 264 149 s \$0-gemwin;
#X obj 537 59 loadbang;
#X obj 537 124 gemargs;
#X msg 482 59 bang;
#X obj 537 149 route float;
#X obj 538 174 t a a;
#X obj 538 239 s \$0-gemwin;
#X obj 297 362 outlet;
#X obj 537 84 t b b;
#X msg 664 108 reset;
#N canvas 0 0 524 388 args 0;
#X obj 78 113 list split 2;
#X obj 78 136 list split 1;
#X obj 59 90 t b a b;
#X obj 78 159 route float;
#X obj 112 187 route bang;
#X obj 59 256 pack 0 f s;
#X obj 271 191 unpack f s;
#X obj 59 283 route 0;
#X obj 59 306 unpack f s;
#X msg 116 213 symbol \$1;
#X msg 271 145 symbol;
#X msg 271 168 20 \$1;
#X obj 59 62 inlet args;
#X obj 59 329 outlet rate;
#X obj 151 329 outlet contextname;
#X text 52 22 taken from [gemwin];
#X connect 0 0 1 0;
#X connect 0 2 1 0;
#X connect 1 0 3 0;
#X connect 1 1 4 0;
#X connect 2 0 5 0;
#X connect 2 1 0 0;
#X connect 2 2 10 0;
#X connect 3 0 5 1;
#X connect 3 1 4 0;
#X connect 4 1 9 0;
#X connect 5 0 7 0;
#X connect 6 0 5 1;
#X connect 6 1 5 2;
#X connect 7 0 8 0;
#X connect 8 0 13 0;
#X connect 8 1 14 0;
#X connect 9 0 5 2;
#X connect 10 0 11 0;
#X connect 11 0 6 0;
#X connect 12 0 2 0;
#X restore 663 156 pd args;
#X msg 663 181 frame \$1;
#X msg 742 183 context \$1;
#X text 745 208 ???;
#X obj 160 309 t a a, f 20;
#X obj 160 339 route float;
#X obj 160 363 outlet rendering;
#X connect 0 0 14 0;
#X connect 4 0 21 0;
#X connect 5 0 6 0;
#X connect 6 0 7 0;
#X connect 6 1 3 0;
#X connect 8 0 15 0;
#X connect 9 0 11 0;
#X connect 9 1 17 0;
#X connect 10 0 15 0;
#X connect 11 1 12 0;
#X connect 12 0 13 0;
#X connect 15 0 9 0;
#X connect 15 1 16 0;
#X connect 16 0 13 0;
#X connect 17 0 18 0;
#X connect 17 1 19 0;
#X connect 18 0 13 0;
#X connect 21 0 22 0;
#X connect 21 1 0 0;
#X connect 22 0 23 0;
#X coords 0 -1 1 1 85 46 1 100 100;
