#N canvas 2076 404 880 589 12;
#X obj 234 146 inlet;
#X obj 32 270 spigot;
#X text 97 283 global bounding box;
#X obj 32 403 polygon 4 \; draw line;
#X msg 233 405 \$1 \$2 \$3 \$1 \$5 \$3 \$4 \$5 \$3 \$4 \$2 \$3;
#X obj 233 373 route 0;
#X obj 32 145 inlet gemlist;
#X obj 137 145 inlet bbox;
#X obj 233 196 >= 0;
#X obj 280 308 - 1;
#X obj 137 309 list prepend -1;
#X msg 284 436 0 0 0 0 0 0 0 0 0 0 0 0;
#X obj 137 244 route bbox bboxline ascender;
#X obj 233 436 t a a;
#X text 487 438 clear for out-of-range lines;
#X text 47 31 helper for drawing boundingboxes for [text*] objects;
#X obj 537 59 loadbang;
#X obj 537 124 gemargs;
#X msg 482 59 bang;
#X obj 234 171 t f f;
#X obj 32 170 route width;
#X obj 537 267 t f;
#X msg 537 292 width \$1;
#X obj 537 242 route width;
#X obj 537 84 t b;
#X obj 583 151 route float;
#X connect 0 0 19 0;
#X connect 1 0 3 0;
#X connect 4 0 13 0;
#X connect 5 0 4 0;
#X connect 6 0 20 0;
#X connect 7 0 12 0;
#X connect 8 0 1 1;
#X connect 9 0 5 1;
#X connect 10 0 5 0;
#X connect 11 0 13 0;
#X connect 12 0 10 0;
#X connect 12 1 5 0;
#X connect 12 2 11 0;
#X connect 13 0 3 0;
#X connect 16 0 24 0;
#X connect 17 0 23 0;
#X connect 17 1 25 0;
#X connect 18 0 24 0;
#X connect 19 0 8 0;
#X connect 19 1 9 0;
#X connect 20 0 21 0;
#X connect 20 1 1 0;
#X connect 21 0 22 0;
#X connect 22 0 3 0;
#X connect 23 0 21 0;
#X connect 24 0 17 0;
#X connect 25 0 19 0;
