#N canvas 443 161 639 369 10;
#X declare -lib Gem;
#X text 452 8 GEM object;
#X obj 8 196 cnv 15 430 130 empty empty empty 20 12 0 14 #e0e0e0 #404040 0;
#X text 39 198 Inlets:;
#X text 63 211 Inlet 1: gemlist;
#X text 39 252 Outlets:;
#X text 57 265 Outlet 1: gemlist;
#X obj 8 146 cnv 15 430 40 empty empty empty 20 12 0 14 #bcbcbc #404040 0;
#X text 17 145 Arguments:;
#X obj 8 76 cnv 15 430 60 empty empty empty 20 12 0 14 #e0e0e0 #404040 0;
#X obj 449 77 cnv 15 170 250 empty empty empty 20 12 0 14 #dce4fc #404040 0;
#X text 453 60 Example:;
#X text 71 31 Class: manipulation object;
#X obj 450 118 cnv 15 160 60 empty empty empty 20 12 0 14 #14e814 #404040 0;
#X obj 451 84 gemhead;
#X text 29 77 Description: ambient colouring;
#X obj 451 193 cube;
#X obj 500 192 gemhead;
#X obj 500 230 world_light;
#X obj 500 211 rotate 180 1 0 0;
#X text 62 156 a list of 3 (RGB) or 4 (RGBA) float-values.;
#X text 60 171 defaults: 0.2 0.2 0.2 1;
#X text 22 91 [ambient] accepts a gemList and sets the ambient-color for all subsequent vertex-operations. You have to enable lighting to see any effects.;
#X text 50 12 Synopsis: [ambient];
#X obj 451 156 ambient 0 1 0;
#X msg 478 130 0.4 0.8 1;
#X text 63 229 Inlet 2: list: 3(RGB) or 4(RGBA) float values;
#X floatatom 549 193 5 0 0 0 - - - 0;
#X obj 84 332 ambientRGB;
#X text 21 332 see also:;
#N canvas 484 243 450 300 META 0;
#X obj 10 25 declare -lib Gem;
#X text 10 45 DESCRIPTION ambient colouring;
#X text 10 65 KEYWORDS Gem openGL transformation;
#X text 20 85 INLET_0 gemlist;
#X text 20 105 INLET_1 list;
#X text 20 125 OUTLET_0 gemlist;
#X text 10 145 AUTHOR IOhannes m zmölnig;
#X text 10 165 LICENSE GPL v2;
#X restore 519 8 pd META;
#X obj 461 256 _gemwin \; 0 \; 0 \; lighting 1;
#X connect 13 0 23 0;
#X connect 16 0 18 0;
#X connect 18 0 17 0;
#X connect 23 0 15 0;
#X connect 24 0 23 1;
#X connect 26 0 18 1;
