#N canvas 271 381 600 500 10;
#X text 124 68 GEM object;
#X obj 123 298 print out1;
#X obj 123 220 average;
#X floatatom 123 160 0 0 0;
#X msg 184 162 bang;
#X msg 247 164 reset 5;
#X msg 345 168 clear;
#X text 89 408 The initial argument is the number to average together.
The default is 10 numbers.;
#X obj 421 231 average 20;
#X text 139 23 [average];
#X text 81 371 [average] together a series of numbers.;
#X connect 2 0 1 0;
#X connect 3 0 2 0;
#X connect 4 0 2 0;
#X connect 5 0 2 0;
#X connect 6 0 2 0;
