#N canvas 220 199 967 506 10;
#X declare -lib Gem;
#X obj 162 82 tgl 15 0 empty empty empty 0 -6 0 8 #fcfcfc #000000 #000000 0 1;
#X obj 185 63 tgl 15 0 empty empty empty 0 -6 0 8 #fcfcfc #000000 #000000 0 1;
#X obj 241 107 tgl 15 0 empty empty empty 0 -6 0 8 #fcfcfc #000000 #000000 0 1;
#X obj 260 86 tgl 15 0 empty empty empty 0 -6 0 8 #fcfcfc #000000 #000000 0 1;
#X msg 241 123 left \$1;
#X msg 260 102 right \$1;
#X obj 75 120 tgl 15 0 empty empty empty 0 -6 0 8 #fcfcfc #000000 #000000 0 1;
#X obj 54 142 tgl 15 0 empty empty empty 0 -6 0 8 #fcfcfc #000000 #000000 0 1;
#X msg 54 158 up \$1;
#X msg 75 136 down \$1;
#X msg 537 256 reset;
#X msg 185 80 forward \$1;
#X msg 162 98 reverse \$1;
#X msg 66 252 speed \$1;
#X floatatom 66 234 5 0 0 0 - - - 0;
#X floatatom 67 195 5 0 0 0 - - - 0;
#X msg 379 150 lookX \$1;
#X msg 379 187 lookY \$1;
#X msg 379 223 lookZ \$1;
#X floatatom 379 134 5 0 0 0 - - - 0;
#X floatatom 379 207 5 0 0 0 - - - 0;
#X floatatom 379 170 5 0 0 0 - - - 0;
#X msg 67 213 distance \$1;
#X obj 170 305 cnv 15 100 60 empty empty empty 20 12 0 14 #bcbcbc #404040 0;
#N canvas 0 22 450 300 gemwin 0;
#X obj 132 136 gemwin;
#X obj 67 89 outlet;
#X obj 67 10 inlet;
#X msg 67 70 set destroy;
#X msg 142 68 set create;
#X msg 198 112 destroy;
#X msg 132 112 create \, 1;
#X obj 67 41 route create destroy;
#X obj 298 42 loadbang;
#X msg 298 65 lighting 1;
#X connect 2 0 7 0;
#X connect 3 0 1 0;
#X connect 4 0 1 0;
#X connect 5 0 0 0;
#X connect 6 0 0 0;
#X connect 7 0 3 0;
#X connect 7 0 6 0;
#X connect 7 1 4 0;
#X connect 7 1 5 0;
#X connect 7 2 0 0;
#X connect 8 0 9 0;
#X connect 9 0 0 0;
#X restore 175 344 pd gemwin;
#X msg 175 325 create;
#X text 171 304 Create window:;
#X obj 488 18 declare -lib Gem;
#X msg 537 279 bang;
#X obj 699 307 gemhead;
#X obj 699 444 teapot;
#X obj 500 418 list prepend view;
#X obj 500 441 list trim;
#X obj 109 438 gemhead;
#X obj 109 461 world_light;
#X obj 467 351 camera;
#X obj 467 307 t a a;
#X obj 699 330 list prepend 0;
#X obj 670 162 tgl 18 0 empty empty empty 0 -9 0 10 #fcfcfc #000000 #000000 0 1;
#X obj 670 185 t f f;
#X obj 699 393 camera;
#X obj 467 257 metro 20;
#X obj 699 353 route 0 1;
#X text 715 157 0.."local" mode;
#X text 716 172 1.."gemwin" mode;
#X connect 0 0 12 0;
#X connect 1 0 11 0;
#X connect 2 0 4 0;
#X connect 3 0 5 0;
#X connect 4 0 36 0;
#X connect 5 0 36 0;
#X connect 6 0 9 0;
#X connect 7 0 8 0;
#X connect 8 0 36 0;
#X connect 9 0 36 0;
#X connect 10 0 36 0;
#X connect 11 0 36 0;
#X connect 12 0 36 0;
#X connect 13 0 36 0;
#X connect 14 0 13 0;
#X connect 15 0 22 0;
#X connect 16 0 36 0;
#X connect 17 0 36 0;
#X connect 18 0 36 0;
#X connect 19 0 16 0;
#X connect 20 0 18 0;
#X connect 21 0 17 0;
#X connect 22 0 36 0;
#X connect 24 0 25 0;
#X connect 25 0 24 0;
#X connect 28 0 36 0;
#X connect 29 0 37 0;
#X connect 31 0 32 0;
#X connect 32 0 24 0;
#X connect 33 0 34 0;
#X connect 35 1 31 0;
#X connect 36 0 35 0;
#X connect 36 1 40 0;
#X connect 37 0 42 0;
#X connect 38 0 39 0;
#X connect 39 0 41 0;
#X connect 39 1 37 1;
#X connect 40 0 30 0;
#X connect 41 0 36 0;
#X connect 42 0 40 0;
#X connect 42 1 30 0;
