#N canvas 356 327 600 500 10;
#X text 124 68 GEM object;
#X obj 123 298 print out1;
#X obj 123 219 change;
#X msg 123 156 0;
#X msg 166 154 1;
#X text 138 23 [change];
#X text 58 360 [change] only outputs when the inlet receives a value
that is different than the previous value.;
#X text 57 404 [change] is very nice for the == and > objects.;
#X connect 2 0 1 0;
#X connect 3 0 2 0;
#X connect 4 0 2 0;
