#N canvas 48 102 639 342 10;
#X text 452 8 GEM object;
#X obj 8 196 cnv 15 430 130 empty empty empty 20 12 0 14 -233017 -66577
0;
#X text 39 198 Inlets:;
#X text 63 211 Inlet 1: gemlist;
#X text 39 292 Outlets:;
#X text 57 305 Outlet 1: gemlist;
#X obj 8 146 cnv 15 430 40 empty empty empty 20 12 0 14 -195568 -66577
0;
#X text 17 145 Arguments:;
#X obj 8 66 cnv 15 430 70 empty empty empty 20 12 0 14 -233017 -66577
0;
#X obj 449 66 cnv 15 170 200 empty empty empty 20 12 0 14 -228992 -66577
0;
#X text 453 49 Example:;
#X obj 510 183 cnv 15 100 60 empty empty empty 20 12 0 14 -195568 -66577
0;
#N canvas 0 22 450 300 gemwin 0;
#X obj 132 136 gemwin;
#X obj 67 89 outlet;
#X obj 67 10 inlet;
#X obj 67 41 route create;
#X msg 67 70 set destroy;
#X msg 142 68 set create;
#X msg 197 134 destroy;
#X msg 132 112 reset \, create \, 1;
#X connect 2 0 3 0;
#X connect 3 0 4 0;
#X connect 3 0 7 0;
#X connect 3 1 5 0;
#X connect 3 1 6 0;
#X connect 4 0 1 0;
#X connect 5 0 1 0;
#X connect 6 0 0 0;
#X connect 7 0 0 0;
#X restore 515 222 pd gemwin;
#X msg 515 203 create;
#X text 511 182 Create window:;
#X text 71 31 Class: manipulation object;
#X obj 450 107 cnv 15 160 60 empty empty empty 20 12 0 14 -24198 -66577
0;
#X obj 451 73 gemhead;
#X obj 451 182 cube;
#X text 62 156 a list of 3 (RGB) or 4 (RGBA) float-values.;
#X text 60 171 defaults: 0 0 0 1;
#X obj 451 145 color 0 1 0;
#X msg 487 116 0 0 1;
#X text 63 229 Inlet 2: list: 3(RGB) or 4(RGBA) float values;
#X text 22 81 [color] sets the colour of all subsequent shape and vertex
operations until reset by another [color]/[colorRGB] object. If you
set the alpha-value \, you will need an [alpha] object to enable alpha-blending
;
#X text 50 12 Synopsis: [color];
#X text 29 67 Description: colouring;
#X text 449 272 see also:;
#X obj 452 301 colorRGB;
#X connect 12 0 13 0;
#X connect 13 0 12 0;
#X connect 17 0 21 0;
#X connect 21 0 18 0;
#X connect 22 0 21 1;
