#N canvas 98 358 600 500 12;
#X msg 181 129 gemList;
#X msg 38 124 draw line;
#X msg 38 155 draw fill;
#X msg 38 187 draw point;
#X text 133 67 GEM object;
#X msg 423 236 r g b a;
#X msg 412 203 r g b a;
#X obj 181 328 colorSquare;
#X msg 244 170 size;
#X msg 317 241 r g b a;
#X msg 299 203 r g b a;
#X text 42 405 a square with colour gradients;
#X text 138 25 [colorSquare];
#X connect 0 0 7 0;
#X connect 1 0 7 0;
#X connect 2 0 7 0;
#X connect 3 0 7 0;
#X connect 5 0 7 5;
#X connect 6 0 7 4;
#X connect 8 0 7 1;
#X connect 9 0 7 3;
#X connect 10 0 7 2;
