#N canvas 289 160 710 345 10;
#X declare -lib Gem;
#X text 54 30 Class: geometric object;
#X obj 519 47 cnv 15 170 250 empty empty empty 20 12 0 14 #dce4fc #404040 0;
#X obj 7 65 cnv 15 450 100 empty empty empty 20 12 0 14 #e0e0e0 #404040 0;
#X obj 8 216 cnv 15 450 100 empty empty empty 20 12 0 14 #e0e0e0 #404040 0;
#X text 9 221 Inlets:;
#X obj 8 176 cnv 15 450 30 empty empty empty 20 12 0 14 #bcbcbc #404040 0;
#X text 17 175 Arguments:;
#X text 27 247 Inlet 1: message: draw [line|fill|point];
#X text 27 261 Inlet 2: float: size;
#X text 452 8 GEM object;
#X text 27 233 Inlet 1: gemlist;
#X text 9 280 Outlets:;
#X text 21 293 Outlet 1: gemlist;
#X text 33 14 Synopsis: [cube];
#X text 7 69 Description: Renders a cube.;
#X text 63 186 size of the cube;
#X text 16 86 The cube object renders a cube at the current position with current color. The size of the cube can be changed via the second inlet.;
#X text 525 29 Example:;
#X obj 522 78 cnv 15 150 100 empty empty empty 20 12 0 14 #14e814 #404040 0;
#X msg 525 128 draw point;
#X obj 593 54 gemhead;
#X floatatom 624 114 5 0 0 0 - - - 0;
#X text 624 98 size;
#X obj 593 159 cube;
#X msg 525 106 draw line;
#X msg 525 85 draw default;
#N canvas 484 243 450 300 META 0;
#X obj 10 25 declare -lib Gem;
#X text 10 45 DESCRIPTION Renders a cube.;
#X text 10 65 KEYWORDS Gem openGL shape;
#X text 20 85 INLET_0 gemlist draw;
#X text 20 105 INLET_1 float;
#X text 20 125 OUTLET_0 gemlist;
#X text 10 145 AUTHOR IOhannes m zmölnig;
#X text 10 165 LICENSE GPL v2;
#X restore 588 8 pd META;
#X obj 583 236 _gemwin;
#X connect 19 0 23 0;
#X connect 20 0 23 0;
#X connect 21 0 23 1;
#X connect 24 0 23 0;
#X connect 25 0 23 0;
