#N canvas 73 42 722 541 10;
#X msg 447 454 destroy;
#N canvas 448 80 472 322 gemwin 0;
#X obj 67 89 outlet;
#X obj 67 10 inlet;
#X obj 67 41 route create;
#X msg 67 70 set destroy;
#X msg 142 68 set create;
#X msg 198 112 destroy;
#X msg 132 112 create \, 1;
#X msg 290 67 lighting 1;
#X obj 288 45 loadbang;
#X obj 132 136 gemwin 40;
#X msg 317 90 lighting 0;
#X connect 1 0 2 0;
#X connect 2 0 3 0;
#X connect 2 0 6 0;
#X connect 2 1 4 0;
#X connect 2 1 5 0;
#X connect 3 0 0 0;
#X connect 4 0 0 0;
#X connect 5 0 9 0;
#X connect 6 0 9 0;
#X connect 7 0 9 0;
#X connect 8 0 7 0;
#X connect 10 0 9 0;
#X restore 447 474 pd gemwin;
#N canvas 0 0 247 188 cpu 0;
#X obj 30 45 metro 1000;
#X obj 32 22 loadbang;
#X obj 33 96 cputime;
#X obj 30 69 t b b;
#X obj 34 125 / 10;
#X obj 33 150 outlet;
#X connect 0 0 3 0;
#X connect 1 0 0 0;
#X connect 2 0 4 0;
#X connect 3 0 2 0;
#X connect 3 1 2 1;
#X connect 4 0 5 0;
#X restore 597 454 pd cpu;
#X floatatom 597 476 5 0 0 0 - - -;
#X obj 516 454 gemhead;
#X obj 516 474 world_light;
#X obj 537 113 gemhead;
#X floatatom 565 158 5 0 0 0 - - -;
#X msg 47 69 draw line;
#X msg 47 49 draw fill;
#X msg 47 89 draw point;
#X floatatom 600 158 5 0 0 0 - - -;
#X floatatom 636 158 5 0 0 0 - - -;
#X floatatom 585 114 5 0 0 0 - - -;
#X floatatom 633 114 5 0 0 0 - - -;
#X floatatom 682 114 5 0 0 0 - - -;
#X msg 47 194 width 1;
#X obj 537 179 rotateXYZ 0 0 0;
#X msg 47 215 width 4;
#X msg 47 110 draw line1;
#X msg 47 131 draw line2;
#X msg 47 152 draw line3;
#X msg 47 173 draw line4;
#X msg 47 236 draw control_line;
#X msg 47 257 draw control_line1;
#X msg 47 278 draw control_line2;
#X msg 47 299 draw control_fill;
#X msg 47 320 draw control_point;
#X obj 469 404 pix_texture;
#X obj 537 344 color 1 0 1;
#X obj 537 322 spigot;
#X obj 500 92 tgl 15 0 empty empty empty 0 -6 0 8 -262144 -1 -1 1 1
;
#X obj 469 359 spigot;
#X obj 500 313 - 1;
#X obj 500 337 abs;
#X msg 243 241 res 2 2;
#X msg 361 277 grid 2 10;
#X msg 243 262 res 3 3;
#X msg 361 298 grid 10 10;
#X msg 361 339 grid 40 40;
#N canvas 253 49 685 487 forme2 0;
#N canvas 0 0 351 255 tripleRnd 0;
#X obj 12 63 random 100;
#X obj 12 121 pack 0 1000;
#X obj 12 149 line;
#X obj 12 219 outlet;
#X obj 92 64 random 100;
#X obj 92 122 pack 0 1000;
#X obj 92 145 line;
#X obj 170 64 random 100;
#X obj 170 122 pack 0 1000;
#X obj 170 145 line;
#X obj 12 189 pack f f f;
#X obj 12 90 / 20;
#X obj 92 91 / 20;
#X obj 170 91 / 20;
#X obj 12 12 r bang_forme2;
#X obj 231 9 r line_forme2;
#X connect 0 0 11 0;
#X connect 1 0 2 0;
#X connect 2 0 10 0;
#X connect 4 0 12 0;
#X connect 5 0 6 0;
#X connect 6 0 10 1;
#X connect 7 0 13 0;
#X connect 8 0 9 0;
#X connect 9 0 10 2;
#X connect 10 0 3 0;
#X connect 11 0 1 0;
#X connect 12 0 5 0;
#X connect 13 0 8 0;
#X connect 14 0 0 0;
#X connect 14 0 4 0;
#X connect 14 0 7 0;
#X connect 15 0 1 1;
#X connect 15 0 5 1;
#X connect 15 0 8 1;
#X restore 28 92 pd tripleRnd;
#X msg 26 270 set 2 0 \$1 \$2 \$3;
#X msg 161 269 set 2 1 \$1 \$2 \$3;
#X msg 298 269 set 2 2 \$1 \$2 \$3;
#X msg 299 190 set 1 2 \$1 \$2 \$3;
#X msg 299 112 set 0 2 \$1 \$2 \$3;
#X msg 161 112 set 0 1 \$1 \$2 \$3;
#X msg 28 114 set 0 0 \$1 \$2 \$3;
#X msg 29 193 set 1 0 \$1 \$2 \$3;
#X msg 161 189 set 1 1 \$1 \$2 \$3;
#X msg 26 337 set 3 0 \$1 \$2 \$3;
#X msg 162 336 set 3 1 \$1 \$2 \$3;
#X msg 298 338 set 3 2 \$1 \$2 \$3;
#X msg 423 111 set 0 3 \$1 \$2 \$3;
#X msg 424 189 set 1 3 \$1 \$2 \$3;
#X msg 424 265 set 2 3 \$1 \$2 \$3;
#X msg 423 335 set 3 3 \$1 \$2 \$3;
#X msg 544 109 set 0 4 \$1 \$2 \$3;
#X msg 545 187 set 1 4 \$1 \$2 \$3;
#X msg 540 263 set 2 4 \$1 \$2 \$3;
#X msg 543 333 set 3 4 \$1 \$2 \$3;
#X msg 28 399 set 4 0 \$1 \$2 \$3;
#X msg 162 392 set 4 1 \$1 \$2 \$3;
#X msg 299 393 set 4 2 \$1 \$2 \$3;
#X msg 424 391 set 4 3 \$1 \$2 \$3;
#X msg 545 389 set 4 4 \$1 \$2 \$3;
#X obj 10 445 outlet;
#X obj 36 15 inlet;
#X obj 36 39 s bang_forme2;
#X obj 178 39 s line_forme2;
#X obj 178 17 inlet;
#N canvas 0 0 351 255 tripleRnd 0;
#X obj 12 63 random 100;
#X obj 12 121 pack 0 1000;
#X obj 12 149 line;
#X obj 12 219 outlet;
#X obj 92 64 random 100;
#X obj 92 122 pack 0 1000;
#X obj 92 145 line;
#X obj 170 64 random 100;
#X obj 170 122 pack 0 1000;
#X obj 170 145 line;
#X obj 12 189 pack f f f;
#X obj 12 90 / 20;
#X obj 92 91 / 20;
#X obj 170 91 / 20;
#X obj 12 12 r bang_forme2;
#X obj 231 9 r line_forme2;
#X connect 0 0 11 0;
#X connect 1 0 2 0;
#X connect 2 0 10 0;
#X connect 4 0 12 0;
#X connect 5 0 6 0;
#X connect 6 0 10 1;
#X connect 7 0 13 0;
#X connect 8 0 9 0;
#X connect 9 0 10 2;
#X connect 10 0 3 0;
#X connect 11 0 1 0;
#X connect 12 0 5 0;
#X connect 13 0 8 0;
#X connect 14 0 0 0;
#X connect 14 0 4 0;
#X connect 14 0 7 0;
#X connect 15 0 1 1;
#X connect 15 0 5 1;
#X connect 15 0 8 1;
#X restore 161 90 pd tripleRnd;
#N canvas 0 0 351 255 tripleRnd 0;
#X obj 12 63 random 100;
#X obj 12 121 pack 0 1000;
#X obj 12 149 line;
#X obj 12 219 outlet;
#X obj 92 64 random 100;
#X obj 92 122 pack 0 1000;
#X obj 92 145 line;
#X obj 170 64 random 100;
#X obj 170 122 pack 0 1000;
#X obj 170 145 line;
#X obj 12 189 pack f f f;
#X obj 12 90 / 20;
#X obj 92 91 / 20;
#X obj 170 91 / 20;
#X obj 12 12 r bang_forme2;
#X obj 231 9 r line_forme2;
#X connect 0 0 11 0;
#X connect 1 0 2 0;
#X connect 2 0 10 0;
#X connect 4 0 12 0;
#X connect 5 0 6 0;
#X connect 6 0 10 1;
#X connect 7 0 13 0;
#X connect 8 0 9 0;
#X connect 9 0 10 2;
#X connect 10 0 3 0;
#X connect 11 0 1 0;
#X connect 12 0 5 0;
#X connect 13 0 8 0;
#X connect 14 0 0 0;
#X connect 14 0 4 0;
#X connect 14 0 7 0;
#X connect 15 0 1 1;
#X connect 15 0 5 1;
#X connect 15 0 8 1;
#X restore 299 91 pd tripleRnd;
#N canvas 0 0 351 255 tripleRnd 0;
#X obj 12 63 random 100;
#X obj 12 121 pack 0 1000;
#X obj 12 149 line;
#X obj 12 219 outlet;
#X obj 92 64 random 100;
#X obj 92 122 pack 0 1000;
#X obj 92 145 line;
#X obj 170 64 random 100;
#X obj 170 122 pack 0 1000;
#X obj 170 145 line;
#X obj 12 189 pack f f f;
#X obj 12 90 / 20;
#X obj 92 91 / 20;
#X obj 170 91 / 20;
#X obj 12 12 r bang_forme2;
#X obj 231 9 r line_forme2;
#X connect 0 0 11 0;
#X connect 1 0 2 0;
#X connect 2 0 10 0;
#X connect 4 0 12 0;
#X connect 5 0 6 0;
#X connect 6 0 10 1;
#X connect 7 0 13 0;
#X connect 8 0 9 0;
#X connect 9 0 10 2;
#X connect 10 0 3 0;
#X connect 11 0 1 0;
#X connect 12 0 5 0;
#X connect 13 0 8 0;
#X connect 14 0 0 0;
#X connect 14 0 4 0;
#X connect 14 0 7 0;
#X connect 15 0 1 1;
#X connect 15 0 5 1;
#X connect 15 0 8 1;
#X restore 423 89 pd tripleRnd;
#N canvas 0 0 351 255 tripleRnd 0;
#X obj 12 63 random 100;
#X obj 12 121 pack 0 1000;
#X obj 12 149 line;
#X obj 12 219 outlet;
#X obj 92 64 random 100;
#X obj 92 122 pack 0 1000;
#X obj 92 145 line;
#X obj 170 64 random 100;
#X obj 170 122 pack 0 1000;
#X obj 170 145 line;
#X obj 12 189 pack f f f;
#X obj 12 90 / 20;
#X obj 92 91 / 20;
#X obj 170 91 / 20;
#X obj 12 12 r bang_forme2;
#X obj 231 9 r line_forme2;
#X connect 0 0 11 0;
#X connect 1 0 2 0;
#X connect 2 0 10 0;
#X connect 4 0 12 0;
#X connect 5 0 6 0;
#X connect 6 0 10 1;
#X connect 7 0 13 0;
#X connect 8 0 9 0;
#X connect 9 0 10 2;
#X connect 10 0 3 0;
#X connect 11 0 1 0;
#X connect 12 0 5 0;
#X connect 13 0 8 0;
#X connect 14 0 0 0;
#X connect 14 0 4 0;
#X connect 14 0 7 0;
#X connect 15 0 1 1;
#X connect 15 0 5 1;
#X connect 15 0 8 1;
#X restore 544 86 pd tripleRnd;
#N canvas 0 0 351 255 tripleRnd 0;
#X obj 12 63 random 100;
#X obj 12 121 pack 0 1000;
#X obj 12 149 line;
#X obj 12 219 outlet;
#X obj 92 64 random 100;
#X obj 92 122 pack 0 1000;
#X obj 92 145 line;
#X obj 170 64 random 100;
#X obj 170 122 pack 0 1000;
#X obj 170 145 line;
#X obj 12 189 pack f f f;
#X obj 12 90 / 20;
#X obj 92 91 / 20;
#X obj 170 91 / 20;
#X obj 12 12 r bang_forme2;
#X obj 231 9 r line_forme2;
#X connect 0 0 11 0;
#X connect 1 0 2 0;
#X connect 2 0 10 0;
#X connect 4 0 12 0;
#X connect 5 0 6 0;
#X connect 6 0 10 1;
#X connect 7 0 13 0;
#X connect 8 0 9 0;
#X connect 9 0 10 2;
#X connect 10 0 3 0;
#X connect 11 0 1 0;
#X connect 12 0 5 0;
#X connect 13 0 8 0;
#X connect 14 0 0 0;
#X connect 14 0 4 0;
#X connect 14 0 7 0;
#X connect 15 0 1 1;
#X connect 15 0 5 1;
#X connect 15 0 8 1;
#X restore 29 169 pd tripleRnd;
#N canvas 0 0 351 255 tripleRnd 0;
#X obj 12 63 random 100;
#X obj 12 121 pack 0 1000;
#X obj 12 149 line;
#X obj 12 219 outlet;
#X obj 92 64 random 100;
#X obj 92 122 pack 0 1000;
#X obj 92 145 line;
#X obj 170 64 random 100;
#X obj 170 122 pack 0 1000;
#X obj 170 145 line;
#X obj 12 189 pack f f f;
#X obj 12 90 / 20;
#X obj 92 91 / 20;
#X obj 170 91 / 20;
#X obj 12 12 r bang_forme2;
#X obj 231 9 r line_forme2;
#X connect 0 0 11 0;
#X connect 1 0 2 0;
#X connect 2 0 10 0;
#X connect 4 0 12 0;
#X connect 5 0 6 0;
#X connect 6 0 10 1;
#X connect 7 0 13 0;
#X connect 8 0 9 0;
#X connect 9 0 10 2;
#X connect 10 0 3 0;
#X connect 11 0 1 0;
#X connect 12 0 5 0;
#X connect 13 0 8 0;
#X connect 14 0 0 0;
#X connect 14 0 4 0;
#X connect 14 0 7 0;
#X connect 15 0 1 1;
#X connect 15 0 5 1;
#X connect 15 0 8 1;
#X restore 162 167 pd tripleRnd;
#N canvas 0 0 351 255 tripleRnd 0;
#X obj 12 63 random 100;
#X obj 12 121 pack 0 1000;
#X obj 12 149 line;
#X obj 12 219 outlet;
#X obj 92 64 random 100;
#X obj 92 122 pack 0 1000;
#X obj 92 145 line;
#X obj 170 64 random 100;
#X obj 170 122 pack 0 1000;
#X obj 170 145 line;
#X obj 12 189 pack f f f;
#X obj 12 90 / 20;
#X obj 92 91 / 20;
#X obj 170 91 / 20;
#X obj 12 12 r bang_forme2;
#X obj 231 9 r line_forme2;
#X connect 0 0 11 0;
#X connect 1 0 2 0;
#X connect 2 0 10 0;
#X connect 4 0 12 0;
#X connect 5 0 6 0;
#X connect 6 0 10 1;
#X connect 7 0 13 0;
#X connect 8 0 9 0;
#X connect 9 0 10 2;
#X connect 10 0 3 0;
#X connect 11 0 1 0;
#X connect 12 0 5 0;
#X connect 13 0 8 0;
#X connect 14 0 0 0;
#X connect 14 0 4 0;
#X connect 14 0 7 0;
#X connect 15 0 1 1;
#X connect 15 0 5 1;
#X connect 15 0 8 1;
#X restore 300 168 pd tripleRnd;
#N canvas 0 0 351 255 tripleRnd 0;
#X obj 12 63 random 100;
#X obj 12 121 pack 0 1000;
#X obj 12 149 line;
#X obj 12 219 outlet;
#X obj 92 64 random 100;
#X obj 92 122 pack 0 1000;
#X obj 92 145 line;
#X obj 170 64 random 100;
#X obj 170 122 pack 0 1000;
#X obj 170 145 line;
#X obj 12 189 pack f f f;
#X obj 12 90 / 20;
#X obj 92 91 / 20;
#X obj 170 91 / 20;
#X obj 12 12 r bang_forme2;
#X obj 231 9 r line_forme2;
#X connect 0 0 11 0;
#X connect 1 0 2 0;
#X connect 2 0 10 0;
#X connect 4 0 12 0;
#X connect 5 0 6 0;
#X connect 6 0 10 1;
#X connect 7 0 13 0;
#X connect 8 0 9 0;
#X connect 9 0 10 2;
#X connect 10 0 3 0;
#X connect 11 0 1 0;
#X connect 12 0 5 0;
#X connect 13 0 8 0;
#X connect 14 0 0 0;
#X connect 14 0 4 0;
#X connect 14 0 7 0;
#X connect 15 0 1 1;
#X connect 15 0 5 1;
#X connect 15 0 8 1;
#X restore 424 166 pd tripleRnd;
#N canvas 0 0 351 255 tripleRnd 0;
#X obj 12 63 random 100;
#X obj 12 121 pack 0 1000;
#X obj 12 149 line;
#X obj 12 219 outlet;
#X obj 92 64 random 100;
#X obj 92 122 pack 0 1000;
#X obj 92 145 line;
#X obj 170 64 random 100;
#X obj 170 122 pack 0 1000;
#X obj 170 145 line;
#X obj 12 189 pack f f f;
#X obj 12 90 / 20;
#X obj 92 91 / 20;
#X obj 170 91 / 20;
#X obj 12 12 r bang_forme2;
#X obj 231 9 r line_forme2;
#X connect 0 0 11 0;
#X connect 1 0 2 0;
#X connect 2 0 10 0;
#X connect 4 0 12 0;
#X connect 5 0 6 0;
#X connect 6 0 10 1;
#X connect 7 0 13 0;
#X connect 8 0 9 0;
#X connect 9 0 10 2;
#X connect 10 0 3 0;
#X connect 11 0 1 0;
#X connect 12 0 5 0;
#X connect 13 0 8 0;
#X connect 14 0 0 0;
#X connect 14 0 4 0;
#X connect 14 0 7 0;
#X connect 15 0 1 1;
#X connect 15 0 5 1;
#X connect 15 0 8 1;
#X restore 545 163 pd tripleRnd;
#N canvas 0 0 351 255 tripleRnd 0;
#X obj 12 63 random 100;
#X obj 12 121 pack 0 1000;
#X obj 12 149 line;
#X obj 12 219 outlet;
#X obj 92 64 random 100;
#X obj 92 122 pack 0 1000;
#X obj 92 145 line;
#X obj 170 64 random 100;
#X obj 170 122 pack 0 1000;
#X obj 170 145 line;
#X obj 12 189 pack f f f;
#X obj 12 90 / 20;
#X obj 92 91 / 20;
#X obj 170 91 / 20;
#X obj 12 12 r bang_forme2;
#X obj 231 9 r line_forme2;
#X connect 0 0 11 0;
#X connect 1 0 2 0;
#X connect 2 0 10 0;
#X connect 4 0 12 0;
#X connect 5 0 6 0;
#X connect 6 0 10 1;
#X connect 7 0 13 0;
#X connect 8 0 9 0;
#X connect 9 0 10 2;
#X connect 10 0 3 0;
#X connect 11 0 1 0;
#X connect 12 0 5 0;
#X connect 13 0 8 0;
#X connect 14 0 0 0;
#X connect 14 0 4 0;
#X connect 14 0 7 0;
#X connect 15 0 1 1;
#X connect 15 0 5 1;
#X connect 15 0 8 1;
#X restore 28 247 pd tripleRnd;
#N canvas 0 0 351 255 tripleRnd 0;
#X obj 12 63 random 100;
#X obj 12 121 pack 0 1000;
#X obj 12 149 line;
#X obj 12 219 outlet;
#X obj 92 64 random 100;
#X obj 92 122 pack 0 1000;
#X obj 92 145 line;
#X obj 170 64 random 100;
#X obj 170 122 pack 0 1000;
#X obj 170 145 line;
#X obj 12 189 pack f f f;
#X obj 12 90 / 20;
#X obj 92 91 / 20;
#X obj 170 91 / 20;
#X obj 12 12 r bang_forme2;
#X obj 231 9 r line_forme2;
#X connect 0 0 11 0;
#X connect 1 0 2 0;
#X connect 2 0 10 0;
#X connect 4 0 12 0;
#X connect 5 0 6 0;
#X connect 6 0 10 1;
#X connect 7 0 13 0;
#X connect 8 0 9 0;
#X connect 9 0 10 2;
#X connect 10 0 3 0;
#X connect 11 0 1 0;
#X connect 12 0 5 0;
#X connect 13 0 8 0;
#X connect 14 0 0 0;
#X connect 14 0 4 0;
#X connect 14 0 7 0;
#X connect 15 0 1 1;
#X connect 15 0 5 1;
#X connect 15 0 8 1;
#X restore 161 245 pd tripleRnd;
#N canvas 0 0 351 255 tripleRnd 0;
#X obj 12 63 random 100;
#X obj 12 121 pack 0 1000;
#X obj 12 149 line;
#X obj 12 219 outlet;
#X obj 92 64 random 100;
#X obj 92 122 pack 0 1000;
#X obj 92 145 line;
#X obj 170 64 random 100;
#X obj 170 122 pack 0 1000;
#X obj 170 145 line;
#X obj 12 189 pack f f f;
#X obj 12 90 / 20;
#X obj 92 91 / 20;
#X obj 170 91 / 20;
#X obj 12 12 r bang_forme2;
#X obj 231 9 r line_forme2;
#X connect 0 0 11 0;
#X connect 1 0 2 0;
#X connect 2 0 10 0;
#X connect 4 0 12 0;
#X connect 5 0 6 0;
#X connect 6 0 10 1;
#X connect 7 0 13 0;
#X connect 8 0 9 0;
#X connect 9 0 10 2;
#X connect 10 0 3 0;
#X connect 11 0 1 0;
#X connect 12 0 5 0;
#X connect 13 0 8 0;
#X connect 14 0 0 0;
#X connect 14 0 4 0;
#X connect 14 0 7 0;
#X connect 15 0 1 1;
#X connect 15 0 5 1;
#X connect 15 0 8 1;
#X restore 299 246 pd tripleRnd;
#N canvas 0 0 351 255 tripleRnd 0;
#X obj 12 63 random 100;
#X obj 12 121 pack 0 1000;
#X obj 12 149 line;
#X obj 12 219 outlet;
#X obj 92 64 random 100;
#X obj 92 122 pack 0 1000;
#X obj 92 145 line;
#X obj 170 64 random 100;
#X obj 170 122 pack 0 1000;
#X obj 170 145 line;
#X obj 12 189 pack f f f;
#X obj 12 90 / 20;
#X obj 92 91 / 20;
#X obj 170 91 / 20;
#X obj 12 12 r bang_forme2;
#X obj 231 9 r line_forme2;
#X connect 0 0 11 0;
#X connect 1 0 2 0;
#X connect 2 0 10 0;
#X connect 4 0 12 0;
#X connect 5 0 6 0;
#X connect 6 0 10 1;
#X connect 7 0 13 0;
#X connect 8 0 9 0;
#X connect 9 0 10 2;
#X connect 10 0 3 0;
#X connect 11 0 1 0;
#X connect 12 0 5 0;
#X connect 13 0 8 0;
#X connect 14 0 0 0;
#X connect 14 0 4 0;
#X connect 14 0 7 0;
#X connect 15 0 1 1;
#X connect 15 0 5 1;
#X connect 15 0 8 1;
#X restore 422 244 pd tripleRnd;
#N canvas 0 0 351 255 tripleRnd 0;
#X obj 12 63 random 100;
#X obj 12 121 pack 0 1000;
#X obj 12 149 line;
#X obj 12 219 outlet;
#X obj 92 64 random 100;
#X obj 92 122 pack 0 1000;
#X obj 92 145 line;
#X obj 170 64 random 100;
#X obj 170 122 pack 0 1000;
#X obj 170 145 line;
#X obj 12 189 pack f f f;
#X obj 12 90 / 20;
#X obj 92 91 / 20;
#X obj 170 91 / 20;
#X obj 12 12 r bang_forme2;
#X obj 231 9 r line_forme2;
#X connect 0 0 11 0;
#X connect 1 0 2 0;
#X connect 2 0 10 0;
#X connect 4 0 12 0;
#X connect 5 0 6 0;
#X connect 6 0 10 1;
#X connect 7 0 13 0;
#X connect 8 0 9 0;
#X connect 9 0 10 2;
#X connect 10 0 3 0;
#X connect 11 0 1 0;
#X connect 12 0 5 0;
#X connect 13 0 8 0;
#X connect 14 0 0 0;
#X connect 14 0 4 0;
#X connect 14 0 7 0;
#X connect 15 0 1 1;
#X connect 15 0 5 1;
#X connect 15 0 8 1;
#X restore 544 241 pd tripleRnd;
#N canvas 0 0 351 255 tripleRnd 0;
#X obj 12 63 random 100;
#X obj 12 121 pack 0 1000;
#X obj 12 149 line;
#X obj 12 219 outlet;
#X obj 92 64 random 100;
#X obj 92 122 pack 0 1000;
#X obj 92 145 line;
#X obj 170 64 random 100;
#X obj 170 122 pack 0 1000;
#X obj 170 145 line;
#X obj 12 189 pack f f f;
#X obj 12 90 / 20;
#X obj 92 91 / 20;
#X obj 170 91 / 20;
#X obj 12 12 r bang_forme2;
#X obj 231 9 r line_forme2;
#X connect 0 0 11 0;
#X connect 1 0 2 0;
#X connect 2 0 10 0;
#X connect 4 0 12 0;
#X connect 5 0 6 0;
#X connect 6 0 10 1;
#X connect 7 0 13 0;
#X connect 8 0 9 0;
#X connect 9 0 10 2;
#X connect 10 0 3 0;
#X connect 11 0 1 0;
#X connect 12 0 5 0;
#X connect 13 0 8 0;
#X connect 14 0 0 0;
#X connect 14 0 4 0;
#X connect 14 0 7 0;
#X connect 15 0 1 1;
#X connect 15 0 5 1;
#X connect 15 0 8 1;
#X restore 28 318 pd tripleRnd;
#N canvas 0 0 351 255 tripleRnd 0;
#X obj 12 63 random 100;
#X obj 12 121 pack 0 1000;
#X obj 12 149 line;
#X obj 12 219 outlet;
#X obj 92 64 random 100;
#X obj 92 122 pack 0 1000;
#X obj 92 145 line;
#X obj 170 64 random 100;
#X obj 170 122 pack 0 1000;
#X obj 170 145 line;
#X obj 12 189 pack f f f;
#X obj 12 90 / 20;
#X obj 92 91 / 20;
#X obj 170 91 / 20;
#X obj 12 12 r bang_forme2;
#X obj 231 9 r line_forme2;
#X connect 0 0 11 0;
#X connect 1 0 2 0;
#X connect 2 0 10 0;
#X connect 4 0 12 0;
#X connect 5 0 6 0;
#X connect 6 0 10 1;
#X connect 7 0 13 0;
#X connect 8 0 9 0;
#X connect 9 0 10 2;
#X connect 10 0 3 0;
#X connect 11 0 1 0;
#X connect 12 0 5 0;
#X connect 13 0 8 0;
#X connect 14 0 0 0;
#X connect 14 0 4 0;
#X connect 14 0 7 0;
#X connect 15 0 1 1;
#X connect 15 0 5 1;
#X connect 15 0 8 1;
#X restore 161 316 pd tripleRnd;
#N canvas 0 0 351 255 tripleRnd 0;
#X obj 12 63 random 100;
#X obj 12 121 pack 0 1000;
#X obj 12 149 line;
#X obj 12 219 outlet;
#X obj 92 64 random 100;
#X obj 92 122 pack 0 1000;
#X obj 92 145 line;
#X obj 170 64 random 100;
#X obj 170 122 pack 0 1000;
#X obj 170 145 line;
#X obj 12 189 pack f f f;
#X obj 12 90 / 20;
#X obj 92 91 / 20;
#X obj 170 91 / 20;
#X obj 12 12 r bang_forme2;
#X obj 231 9 r line_forme2;
#X connect 0 0 11 0;
#X connect 1 0 2 0;
#X connect 2 0 10 0;
#X connect 4 0 12 0;
#X connect 5 0 6 0;
#X connect 6 0 10 1;
#X connect 7 0 13 0;
#X connect 8 0 9 0;
#X connect 9 0 10 2;
#X connect 10 0 3 0;
#X connect 11 0 1 0;
#X connect 12 0 5 0;
#X connect 13 0 8 0;
#X connect 14 0 0 0;
#X connect 14 0 4 0;
#X connect 14 0 7 0;
#X connect 15 0 1 1;
#X connect 15 0 5 1;
#X connect 15 0 8 1;
#X restore 299 317 pd tripleRnd;
#N canvas 0 0 351 255 tripleRnd 0;
#X obj 12 63 random 100;
#X obj 12 121 pack 0 1000;
#X obj 12 149 line;
#X obj 12 219 outlet;
#X obj 92 64 random 100;
#X obj 92 122 pack 0 1000;
#X obj 92 145 line;
#X obj 170 64 random 100;
#X obj 170 122 pack 0 1000;
#X obj 170 145 line;
#X obj 12 189 pack f f f;
#X obj 12 90 / 20;
#X obj 92 91 / 20;
#X obj 170 91 / 20;
#X obj 12 12 r bang_forme2;
#X obj 231 9 r line_forme2;
#X connect 0 0 11 0;
#X connect 1 0 2 0;
#X connect 2 0 10 0;
#X connect 4 0 12 0;
#X connect 5 0 6 0;
#X connect 6 0 10 1;
#X connect 7 0 13 0;
#X connect 8 0 9 0;
#X connect 9 0 10 2;
#X connect 10 0 3 0;
#X connect 11 0 1 0;
#X connect 12 0 5 0;
#X connect 13 0 8 0;
#X connect 14 0 0 0;
#X connect 14 0 4 0;
#X connect 14 0 7 0;
#X connect 15 0 1 1;
#X connect 15 0 5 1;
#X connect 15 0 8 1;
#X restore 423 315 pd tripleRnd;
#N canvas 0 0 351 255 tripleRnd 0;
#X obj 12 63 random 100;
#X obj 12 121 pack 0 1000;
#X obj 12 149 line;
#X obj 12 219 outlet;
#X obj 92 64 random 100;
#X obj 92 122 pack 0 1000;
#X obj 92 145 line;
#X obj 170 64 random 100;
#X obj 170 122 pack 0 1000;
#X obj 170 145 line;
#X obj 12 189 pack f f f;
#X obj 12 90 / 20;
#X obj 92 91 / 20;
#X obj 170 91 / 20;
#X obj 12 12 r bang_forme2;
#X obj 231 9 r line_forme2;
#X connect 0 0 11 0;
#X connect 1 0 2 0;
#X connect 2 0 10 0;
#X connect 4 0 12 0;
#X connect 5 0 6 0;
#X connect 6 0 10 1;
#X connect 7 0 13 0;
#X connect 8 0 9 0;
#X connect 9 0 10 2;
#X connect 10 0 3 0;
#X connect 11 0 1 0;
#X connect 12 0 5 0;
#X connect 13 0 8 0;
#X connect 14 0 0 0;
#X connect 14 0 4 0;
#X connect 14 0 7 0;
#X connect 15 0 1 1;
#X connect 15 0 5 1;
#X connect 15 0 8 1;
#X restore 544 312 pd tripleRnd;
#N canvas 0 0 351 255 tripleRnd 0;
#X obj 12 63 random 100;
#X obj 12 121 pack 0 1000;
#X obj 12 149 line;
#X obj 12 219 outlet;
#X obj 92 64 random 100;
#X obj 92 122 pack 0 1000;
#X obj 92 145 line;
#X obj 170 64 random 100;
#X obj 170 122 pack 0 1000;
#X obj 170 145 line;
#X obj 12 189 pack f f f;
#X obj 12 90 / 20;
#X obj 92 91 / 20;
#X obj 170 91 / 20;
#X obj 12 12 r bang_forme2;
#X obj 231 9 r line_forme2;
#X connect 0 0 11 0;
#X connect 1 0 2 0;
#X connect 2 0 10 0;
#X connect 4 0 12 0;
#X connect 5 0 6 0;
#X connect 6 0 10 1;
#X connect 7 0 13 0;
#X connect 8 0 9 0;
#X connect 9 0 10 2;
#X connect 10 0 3 0;
#X connect 11 0 1 0;
#X connect 12 0 5 0;
#X connect 13 0 8 0;
#X connect 14 0 0 0;
#X connect 14 0 4 0;
#X connect 14 0 7 0;
#X connect 15 0 1 1;
#X connect 15 0 5 1;
#X connect 15 0 8 1;
#X restore 29 374 pd tripleRnd;
#N canvas 0 0 351 255 tripleRnd 0;
#X obj 12 63 random 100;
#X obj 12 121 pack 0 1000;
#X obj 12 149 line;
#X obj 12 219 outlet;
#X obj 92 64 random 100;
#X obj 92 122 pack 0 1000;
#X obj 92 145 line;
#X obj 170 64 random 100;
#X obj 170 122 pack 0 1000;
#X obj 170 145 line;
#X obj 12 189 pack f f f;
#X obj 12 90 / 20;
#X obj 92 91 / 20;
#X obj 170 91 / 20;
#X obj 12 12 r bang_forme2;
#X obj 231 9 r line_forme2;
#X connect 0 0 11 0;
#X connect 1 0 2 0;
#X connect 2 0 10 0;
#X connect 4 0 12 0;
#X connect 5 0 6 0;
#X connect 6 0 10 1;
#X connect 7 0 13 0;
#X connect 8 0 9 0;
#X connect 9 0 10 2;
#X connect 10 0 3 0;
#X connect 11 0 1 0;
#X connect 12 0 5 0;
#X connect 13 0 8 0;
#X connect 14 0 0 0;
#X connect 14 0 4 0;
#X connect 14 0 7 0;
#X connect 15 0 1 1;
#X connect 15 0 5 1;
#X connect 15 0 8 1;
#X restore 162 372 pd tripleRnd;
#N canvas 0 0 351 255 tripleRnd 0;
#X obj 12 63 random 100;
#X obj 12 121 pack 0 1000;
#X obj 12 149 line;
#X obj 12 219 outlet;
#X obj 92 64 random 100;
#X obj 92 122 pack 0 1000;
#X obj 92 145 line;
#X obj 170 64 random 100;
#X obj 170 122 pack 0 1000;
#X obj 170 145 line;
#X obj 12 189 pack f f f;
#X obj 12 90 / 20;
#X obj 92 91 / 20;
#X obj 170 91 / 20;
#X obj 12 12 r bang_forme2;
#X obj 231 9 r line_forme2;
#X connect 0 0 11 0;
#X connect 1 0 2 0;
#X connect 2 0 10 0;
#X connect 4 0 12 0;
#X connect 5 0 6 0;
#X connect 6 0 10 1;
#X connect 7 0 13 0;
#X connect 8 0 9 0;
#X connect 9 0 10 2;
#X connect 10 0 3 0;
#X connect 11 0 1 0;
#X connect 12 0 5 0;
#X connect 13 0 8 0;
#X connect 14 0 0 0;
#X connect 14 0 4 0;
#X connect 14 0 7 0;
#X connect 15 0 1 1;
#X connect 15 0 5 1;
#X connect 15 0 8 1;
#X restore 300 373 pd tripleRnd;
#N canvas 0 0 351 255 tripleRnd 0;
#X obj 12 63 random 100;
#X obj 12 121 pack 0 1000;
#X obj 12 149 line;
#X obj 12 219 outlet;
#X obj 92 64 random 100;
#X obj 92 122 pack 0 1000;
#X obj 92 145 line;
#X obj 170 64 random 100;
#X obj 170 122 pack 0 1000;
#X obj 170 145 line;
#X obj 12 189 pack f f f;
#X obj 12 90 / 20;
#X obj 92 91 / 20;
#X obj 170 91 / 20;
#X obj 12 12 r bang_forme2;
#X obj 231 9 r line_forme2;
#X connect 0 0 11 0;
#X connect 1 0 2 0;
#X connect 2 0 10 0;
#X connect 4 0 12 0;
#X connect 5 0 6 0;
#X connect 6 0 10 1;
#X connect 7 0 13 0;
#X connect 8 0 9 0;
#X connect 9 0 10 2;
#X connect 10 0 3 0;
#X connect 11 0 1 0;
#X connect 12 0 5 0;
#X connect 13 0 8 0;
#X connect 14 0 0 0;
#X connect 14 0 4 0;
#X connect 14 0 7 0;
#X connect 15 0 1 1;
#X connect 15 0 5 1;
#X connect 15 0 8 1;
#X restore 424 371 pd tripleRnd;
#N canvas 0 0 351 255 tripleRnd 0;
#X obj 12 63 random 100;
#X obj 12 121 pack 0 1000;
#X obj 12 149 line;
#X obj 12 219 outlet;
#X obj 92 64 random 100;
#X obj 92 122 pack 0 1000;
#X obj 92 145 line;
#X obj 170 64 random 100;
#X obj 170 122 pack 0 1000;
#X obj 170 145 line;
#X obj 12 189 pack f f f;
#X obj 12 90 / 20;
#X obj 92 91 / 20;
#X obj 170 91 / 20;
#X obj 12 12 r bang_forme2;
#X obj 231 9 r line_forme2;
#X connect 0 0 11 0;
#X connect 1 0 2 0;
#X connect 2 0 10 0;
#X connect 4 0 12 0;
#X connect 5 0 6 0;
#X connect 6 0 10 1;
#X connect 7 0 13 0;
#X connect 8 0 9 0;
#X connect 9 0 10 2;
#X connect 10 0 3 0;
#X connect 11 0 1 0;
#X connect 12 0 5 0;
#X connect 13 0 8 0;
#X connect 14 0 0 0;
#X connect 14 0 4 0;
#X connect 14 0 7 0;
#X connect 15 0 1 1;
#X connect 15 0 5 1;
#X connect 15 0 8 1;
#X restore 545 368 pd tripleRnd;
#X connect 0 0 7 0;
#X connect 1 0 26 0;
#X connect 2 0 26 0;
#X connect 3 0 26 0;
#X connect 4 0 26 0;
#X connect 5 0 26 0;
#X connect 6 0 26 0;
#X connect 7 0 26 0;
#X connect 8 0 26 0;
#X connect 9 0 26 0;
#X connect 10 0 26 0;
#X connect 11 0 26 0;
#X connect 12 0 26 0;
#X connect 13 0 26 0;
#X connect 14 0 26 0;
#X connect 15 0 26 0;
#X connect 16 0 26 0;
#X connect 17 0 26 0;
#X connect 18 0 26 0;
#X connect 19 0 26 0;
#X connect 20 0 26 0;
#X connect 21 0 26 0;
#X connect 22 0 26 0;
#X connect 23 0 26 0;
#X connect 24 0 26 0;
#X connect 25 0 26 0;
#X connect 27 0 28 0;
#X connect 30 0 29 0;
#X connect 31 0 6 0;
#X connect 32 0 5 0;
#X connect 33 0 13 0;
#X connect 34 0 17 0;
#X connect 35 0 8 0;
#X connect 36 0 9 0;
#X connect 37 0 4 0;
#X connect 38 0 14 0;
#X connect 39 0 18 0;
#X connect 40 0 1 0;
#X connect 41 0 2 0;
#X connect 42 0 3 0;
#X connect 43 0 15 0;
#X connect 44 0 19 0;
#X connect 45 0 10 0;
#X connect 46 0 11 0;
#X connect 47 0 12 0;
#X connect 48 0 16 0;
#X connect 49 0 20 0;
#X connect 50 0 21 0;
#X connect 51 0 22 0;
#X connect 52 0 23 0;
#X connect 53 0 24 0;
#X connect 54 0 25 0;
#X restore 334 184 pd forme2;
#X obj 334 149 bng 15 250 50 0 empty empty empty 0 -6 0 8 -262144 -1
-1;
#X floatatom 383 166 5 0 0 0 - - -;
#X msg 243 283 res 5 5;
#X msg 243 304 res 1 4;
#X msg 361 318 grid 20 20;
#X obj 172 149 bng 15 250 50 0 empty empty empty 0 -6 0 8 -262144 -1
-1;
#X floatatom 221 165 5 0 0 0 - - -;
#X obj 558 136 translateXYZ -2.5 -2.5 -2;
#N canvas 253 49 691 493 forme1 0;
#X obj 76 418 outlet;
#X obj 36 15 inlet;
#X obj 178 17 inlet;
#N canvas 0 0 249 237 Rnd 0;
#X obj 12 63 random 100;
#X obj 12 121 pack 0 1000;
#X obj 12 149 line;
#X obj 12 173 outlet;
#X obj 12 90 / 20;
#X obj 12 12 r bang_forme3;
#X obj 105 11 r line_forme3;
#X connect 0 0 4 0;
#X connect 1 0 2 0;
#X connect 2 0 3 0;
#X connect 4 0 1 0;
#X connect 5 0 0 0;
#X connect 6 0 1 1;
#X restore 28 92 pd Rnd;
#X msg 28 114 set 0 0 0 0 \$1;
#X msg 126 115 set 0 1 0 1 \$1;
#X msg 227 116 set 0 2 0 2 \$1;
#X msg 323 117 set 0 3 0 3 \$1;
#X msg 419 116 set 0 4 0 4 \$1;
#X msg 47 159 set 1 0 1 0 \$1;
#X msg 145 160 set 1 1 1 1 \$1;
#X msg 246 161 set 1 2 1 2 \$1;
#X msg 342 162 set 1 3 1 3 \$1;
#X msg 438 161 set 1 4 1 4 \$1;
#X msg 68 202 set 2 0 2 0 \$1;
#X msg 166 203 set 2 1 2 1 \$1;
#X msg 267 204 set 2 2 2 2 \$1;
#X msg 363 205 set 2 3 2 3 \$1;
#X msg 459 204 set 2 4 2 4 \$1;
#X msg 97 249 set 3 0 3 0 \$1;
#X msg 195 250 set 3 1 3 1 \$1;
#X msg 297 251 set 3 2 3 2 \$1;
#X msg 393 252 set 3 3 3 3 \$1;
#X msg 488 251 set 3 4 3 4 \$1;
#X msg 121 296 set 4 0 4 0 \$1;
#X msg 219 297 set 4 1 4 1 \$1;
#X msg 320 298 set 4 2 4 2 \$1;
#X msg 416 299 set 4 3 4 3 \$1;
#X msg 512 298 set 4 4 4 4 \$1;
#X obj 36 39 s bang_forme3;
#X obj 178 39 s line_forme3;
#N canvas 0 0 249 237 Rnd 0;
#X obj 12 63 random 100;
#X obj 12 121 pack 0 1000;
#X obj 12 149 line;
#X obj 12 173 outlet;
#X obj 12 90 / 20;
#X obj 12 12 r bang_forme3;
#X obj 105 11 r line_forme3;
#X connect 0 0 4 0;
#X connect 1 0 2 0;
#X connect 2 0 3 0;
#X connect 4 0 1 0;
#X connect 5 0 0 0;
#X connect 6 0 1 1;
#X restore 127 92 pd Rnd;
#N canvas 0 0 251 239 Rnd 0;
#X obj 12 63 random 100;
#X obj 12 121 pack 0 1000;
#X obj 12 149 line;
#X obj 12 173 outlet;
#X obj 12 90 / 20;
#X obj 12 12 r bang_forme3;
#X obj 105 11 r line_forme3;
#X connect 0 0 4 0;
#X connect 1 0 2 0;
#X connect 2 0 3 0;
#X connect 4 0 1 0;
#X connect 5 0 0 0;
#X connect 6 0 1 1;
#X restore 227 93 pd Rnd;
#N canvas 0 0 249 237 Rnd 0;
#X obj 12 63 random 100;
#X obj 12 121 pack 0 1000;
#X obj 12 149 line;
#X obj 12 173 outlet;
#X obj 12 90 / 20;
#X obj 12 12 r bang_forme3;
#X obj 105 11 r line_forme3;
#X connect 0 0 4 0;
#X connect 1 0 2 0;
#X connect 2 0 3 0;
#X connect 4 0 1 0;
#X connect 5 0 0 0;
#X connect 6 0 1 1;
#X restore 326 93 pd Rnd;
#N canvas 0 0 249 237 Rnd 0;
#X obj 12 63 random 100;
#X obj 12 121 pack 0 1000;
#X obj 12 149 line;
#X obj 12 173 outlet;
#X obj 12 90 / 20;
#X obj 12 12 r bang_forme3;
#X obj 105 11 r line_forme3;
#X connect 0 0 4 0;
#X connect 1 0 2 0;
#X connect 2 0 3 0;
#X connect 4 0 1 0;
#X connect 5 0 0 0;
#X connect 6 0 1 1;
#X restore 420 94 pd Rnd;
#N canvas 0 0 249 237 Rnd 0;
#X obj 12 63 random 100;
#X obj 12 121 pack 0 1000;
#X obj 12 149 line;
#X obj 12 173 outlet;
#X obj 12 90 / 20;
#X obj 12 12 r bang_forme3;
#X obj 105 11 r line_forme3;
#X connect 0 0 4 0;
#X connect 1 0 2 0;
#X connect 2 0 3 0;
#X connect 4 0 1 0;
#X connect 5 0 0 0;
#X connect 6 0 1 1;
#X restore 48 138 pd Rnd;
#N canvas 0 0 249 237 Rnd 0;
#X obj 12 63 random 100;
#X obj 12 121 pack 0 1000;
#X obj 12 149 line;
#X obj 12 173 outlet;
#X obj 12 90 / 20;
#X obj 12 12 r bang_forme3;
#X obj 105 11 r line_forme3;
#X connect 0 0 4 0;
#X connect 1 0 2 0;
#X connect 2 0 3 0;
#X connect 4 0 1 0;
#X connect 5 0 0 0;
#X connect 6 0 1 1;
#X restore 147 138 pd Rnd;
#N canvas 0 0 249 237 Rnd 0;
#X obj 12 63 random 100;
#X obj 12 121 pack 0 1000;
#X obj 12 149 line;
#X obj 12 173 outlet;
#X obj 12 90 / 20;
#X obj 12 12 r bang_forme3;
#X obj 105 11 r line_forme3;
#X connect 0 0 4 0;
#X connect 1 0 2 0;
#X connect 2 0 3 0;
#X connect 4 0 1 0;
#X connect 5 0 0 0;
#X connect 6 0 1 1;
#X restore 247 139 pd Rnd;
#N canvas 0 0 249 237 Rnd 0;
#X obj 12 63 random 100;
#X obj 12 121 pack 0 1000;
#X obj 12 149 line;
#X obj 12 173 outlet;
#X obj 12 90 / 20;
#X obj 12 12 r bang_forme3;
#X obj 105 11 r line_forme3;
#X connect 0 0 4 0;
#X connect 1 0 2 0;
#X connect 2 0 3 0;
#X connect 4 0 1 0;
#X connect 5 0 0 0;
#X connect 6 0 1 1;
#X restore 346 139 pd Rnd;
#N canvas 0 0 249 237 Rnd 0;
#X obj 12 63 random 100;
#X obj 12 121 pack 0 1000;
#X obj 12 149 line;
#X obj 12 173 outlet;
#X obj 12 90 / 20;
#X obj 12 12 r bang_forme3;
#X obj 105 11 r line_forme3;
#X connect 0 0 4 0;
#X connect 1 0 2 0;
#X connect 2 0 3 0;
#X connect 4 0 1 0;
#X connect 5 0 0 0;
#X connect 6 0 1 1;
#X restore 440 140 pd Rnd;
#N canvas 0 0 249 237 Rnd 0;
#X obj 12 63 random 100;
#X obj 12 121 pack 0 1000;
#X obj 12 149 line;
#X obj 12 173 outlet;
#X obj 12 90 / 20;
#X obj 12 12 r bang_forme3;
#X obj 105 11 r line_forme3;
#X connect 0 0 4 0;
#X connect 1 0 2 0;
#X connect 2 0 3 0;
#X connect 4 0 1 0;
#X connect 5 0 0 0;
#X connect 6 0 1 1;
#X restore 68 181 pd Rnd;
#N canvas 0 0 249 237 Rnd 0;
#X obj 12 63 random 100;
#X obj 12 121 pack 0 1000;
#X obj 12 149 line;
#X obj 12 173 outlet;
#X obj 12 90 / 20;
#X obj 12 12 r bang_forme3;
#X obj 105 11 r line_forme3;
#X connect 0 0 4 0;
#X connect 1 0 2 0;
#X connect 2 0 3 0;
#X connect 4 0 1 0;
#X connect 5 0 0 0;
#X connect 6 0 1 1;
#X restore 167 181 pd Rnd;
#N canvas 0 0 249 237 Rnd 0;
#X obj 12 63 random 100;
#X obj 12 121 pack 0 1000;
#X obj 12 149 line;
#X obj 12 173 outlet;
#X obj 12 90 / 20;
#X obj 12 12 r bang_forme3;
#X obj 105 11 r line_forme3;
#X connect 0 0 4 0;
#X connect 1 0 2 0;
#X connect 2 0 3 0;
#X connect 4 0 1 0;
#X connect 5 0 0 0;
#X connect 6 0 1 1;
#X restore 267 182 pd Rnd;
#N canvas 0 0 249 237 Rnd 0;
#X obj 12 63 random 100;
#X obj 12 121 pack 0 1000;
#X obj 12 149 line;
#X obj 12 173 outlet;
#X obj 12 90 / 20;
#X obj 12 12 r bang_forme3;
#X obj 105 11 r line_forme3;
#X connect 0 0 4 0;
#X connect 1 0 2 0;
#X connect 2 0 3 0;
#X connect 4 0 1 0;
#X connect 5 0 0 0;
#X connect 6 0 1 1;
#X restore 366 182 pd Rnd;
#N canvas 0 0 249 237 Rnd 0;
#X obj 12 63 random 100;
#X obj 12 121 pack 0 1000;
#X obj 12 149 line;
#X obj 12 173 outlet;
#X obj 12 90 / 20;
#X obj 12 12 r bang_forme3;
#X obj 105 11 r line_forme3;
#X connect 0 0 4 0;
#X connect 1 0 2 0;
#X connect 2 0 3 0;
#X connect 4 0 1 0;
#X connect 5 0 0 0;
#X connect 6 0 1 1;
#X restore 460 183 pd Rnd;
#N canvas 0 0 249 237 Rnd 0;
#X obj 12 63 random 100;
#X obj 12 121 pack 0 1000;
#X obj 12 149 line;
#X obj 12 173 outlet;
#X obj 12 90 / 20;
#X obj 12 12 r bang_forme3;
#X obj 105 11 r line_forme3;
#X connect 0 0 4 0;
#X connect 1 0 2 0;
#X connect 2 0 3 0;
#X connect 4 0 1 0;
#X connect 5 0 0 0;
#X connect 6 0 1 1;
#X restore 97 227 pd Rnd;
#N canvas 0 0 249 237 Rnd 0;
#X obj 12 63 random 100;
#X obj 12 121 pack 0 1000;
#X obj 12 149 line;
#X obj 12 173 outlet;
#X obj 12 90 / 20;
#X obj 12 12 r bang_forme3;
#X obj 105 11 r line_forme3;
#X connect 0 0 4 0;
#X connect 1 0 2 0;
#X connect 2 0 3 0;
#X connect 4 0 1 0;
#X connect 5 0 0 0;
#X connect 6 0 1 1;
#X restore 196 227 pd Rnd;
#N canvas 0 0 249 237 Rnd 0;
#X obj 12 63 random 100;
#X obj 12 121 pack 0 1000;
#X obj 12 149 line;
#X obj 12 173 outlet;
#X obj 12 90 / 20;
#X obj 12 12 r bang_forme3;
#X obj 105 11 r line_forme3;
#X connect 0 0 4 0;
#X connect 1 0 2 0;
#X connect 2 0 3 0;
#X connect 4 0 1 0;
#X connect 5 0 0 0;
#X connect 6 0 1 1;
#X restore 296 228 pd Rnd;
#N canvas 0 0 249 237 Rnd 0;
#X obj 12 63 random 100;
#X obj 12 121 pack 0 1000;
#X obj 12 149 line;
#X obj 12 173 outlet;
#X obj 12 90 / 20;
#X obj 12 12 r bang_forme3;
#X obj 105 11 r line_forme3;
#X connect 0 0 4 0;
#X connect 1 0 2 0;
#X connect 2 0 3 0;
#X connect 4 0 1 0;
#X connect 5 0 0 0;
#X connect 6 0 1 1;
#X restore 395 228 pd Rnd;
#N canvas 0 0 249 237 Rnd 0;
#X obj 12 63 random 100;
#X obj 12 121 pack 0 1000;
#X obj 12 149 line;
#X obj 12 173 outlet;
#X obj 12 90 / 20;
#X obj 12 12 r bang_forme3;
#X obj 105 11 r line_forme3;
#X connect 0 0 4 0;
#X connect 1 0 2 0;
#X connect 2 0 3 0;
#X connect 4 0 1 0;
#X connect 5 0 0 0;
#X connect 6 0 1 1;
#X restore 489 229 pd Rnd;
#N canvas 0 0 249 237 Rnd 0;
#X obj 12 63 random 100;
#X obj 12 121 pack 0 1000;
#X obj 12 149 line;
#X obj 12 173 outlet;
#X obj 12 90 / 20;
#X obj 12 12 r bang_forme3;
#X obj 105 11 r line_forme3;
#X connect 0 0 4 0;
#X connect 1 0 2 0;
#X connect 2 0 3 0;
#X connect 4 0 1 0;
#X connect 5 0 0 0;
#X connect 6 0 1 1;
#X restore 121 275 pd Rnd;
#N canvas 0 0 249 237 Rnd 0;
#X obj 12 63 random 100;
#X obj 12 121 pack 0 1000;
#X obj 12 149 line;
#X obj 12 173 outlet;
#X obj 12 90 / 20;
#X obj 12 12 r bang_forme3;
#X obj 105 11 r line_forme3;
#X connect 0 0 4 0;
#X connect 1 0 2 0;
#X connect 2 0 3 0;
#X connect 4 0 1 0;
#X connect 5 0 0 0;
#X connect 6 0 1 1;
#X restore 220 275 pd Rnd;
#N canvas 0 0 249 237 Rnd 0;
#X obj 12 63 random 100;
#X obj 12 121 pack 0 1000;
#X obj 12 149 line;
#X obj 12 173 outlet;
#X obj 12 90 / 20;
#X obj 12 12 r bang_forme3;
#X obj 105 11 r line_forme3;
#X connect 0 0 4 0;
#X connect 1 0 2 0;
#X connect 2 0 3 0;
#X connect 4 0 1 0;
#X connect 5 0 0 0;
#X connect 6 0 1 1;
#X restore 320 276 pd Rnd;
#N canvas 0 0 249 237 Rnd 0;
#X obj 12 63 random 100;
#X obj 12 121 pack 0 1000;
#X obj 12 149 line;
#X obj 12 173 outlet;
#X obj 12 90 / 20;
#X obj 12 12 r bang_forme3;
#X obj 105 11 r line_forme3;
#X connect 0 0 4 0;
#X connect 1 0 2 0;
#X connect 2 0 3 0;
#X connect 4 0 1 0;
#X connect 5 0 0 0;
#X connect 6 0 1 1;
#X restore 419 276 pd Rnd;
#N canvas 0 0 249 237 Rnd 0;
#X obj 12 63 random 100;
#X obj 12 121 pack 0 1000;
#X obj 12 149 line;
#X obj 12 173 outlet;
#X obj 12 90 / 20;
#X obj 12 12 r bang_forme3;
#X obj 105 11 r line_forme3;
#X connect 0 0 4 0;
#X connect 1 0 2 0;
#X connect 2 0 3 0;
#X connect 4 0 1 0;
#X connect 5 0 0 0;
#X connect 6 0 1 1;
#X restore 513 277 pd Rnd;
#X connect 1 0 29 0;
#X connect 2 0 30 0;
#X connect 3 0 4 0;
#X connect 4 0 0 0;
#X connect 5 0 0 0;
#X connect 6 0 0 0;
#X connect 7 0 0 0;
#X connect 8 0 0 0;
#X connect 9 0 0 0;
#X connect 10 0 0 0;
#X connect 11 0 0 0;
#X connect 12 0 0 0;
#X connect 13 0 0 0;
#X connect 14 0 0 0;
#X connect 15 0 0 0;
#X connect 16 0 0 0;
#X connect 17 0 0 0;
#X connect 18 0 0 0;
#X connect 19 0 0 0;
#X connect 20 0 0 0;
#X connect 21 0 0 0;
#X connect 22 0 0 0;
#X connect 23 0 0 0;
#X connect 24 0 0 0;
#X connect 25 0 0 0;
#X connect 26 0 0 0;
#X connect 27 0 0 0;
#X connect 28 0 0 0;
#X connect 31 0 5 0;
#X connect 32 0 6 0;
#X connect 33 0 7 0;
#X connect 34 0 8 0;
#X connect 35 0 9 0;
#X connect 36 0 10 0;
#X connect 37 0 11 0;
#X connect 38 0 12 0;
#X connect 39 0 13 0;
#X connect 40 0 14 0;
#X connect 41 0 15 0;
#X connect 42 0 16 0;
#X connect 43 0 17 0;
#X connect 44 0 18 0;
#X connect 45 0 19 0;
#X connect 46 0 20 0;
#X connect 47 0 21 0;
#X connect 48 0 22 0;
#X connect 49 0 23 0;
#X connect 50 0 24 0;
#X connect 51 0 25 0;
#X connect 52 0 26 0;
#X connect 53 0 27 0;
#X connect 54 0 28 0;
#X restore 172 183 pd forme1;
#X obj 500 49 loadbang;
#X msg 500 71 1;
#X text 529 92 <- color / texture;
#X text 301 3 curve3d;
#X text 186 224 resolution of the control matrix;
#X text 310 257 resolution of the curve grid;
#X text 53 25 draw style;
#X text 447 514 cyrille.henry@la-kitchen.fr;
#X text 192 148 shape1;
#X text 354 148 shape2;
#X text 261 164 line;
#X text 420 165 line;
#X obj 172 128 loadbang;
#X text 240 147 <- try this;
#X text 407 148 <- try this;
#X text 116 452 input args are the size of the control matrix;
#X text 117 468 it can be change using "res" message;
#X text 115 484 defalt = 2;
#X obj 6 457 curve3d 5 5;
#X floatatom 138 59 5 0 0 0 - - -;
#X msg 138 101 set 3 2 \$1 \$2 \$3;
#X text 247 101 <- set the position of control point 3 \, 2;
#X floatatom 177 60 5 0 0 0 - - -;
#N canvas 0 0 173 130 pak 0;
#X obj 73 39 t b f;
#X obj 108 39 t b f;
#X obj 38 19 inlet;
#X obj 38 69 pack f f f;
#X obj 38 90 outlet;
#X obj 73 19 inlet;
#X obj 108 19 inlet;
#X connect 0 0 3 0;
#X connect 0 1 3 1;
#X connect 1 0 3 0;
#X connect 1 1 3 2;
#X connect 2 0 3 0;
#X connect 3 0 4 0;
#X connect 5 0 0 0;
#X connect 6 0 1 0;
#X restore 138 79 pd pak f f f;
#X floatatom 215 58 5 0 0 0 - - -;
#X text 177 24 create a 3d bezier curve \, using a matrix of control
points;
#X obj 469 381 pix_image data/fractal.JPG;
#X obj 263 128 metro 100;
#X obj 281 84 tgl 15 0 empty empty empty 0 -6 0 8 -262144 -1 -1 0 1
;
#X floatatom 339 69 5 0 0 0 - - -;
#N canvas 0 0 450 477 reset 0;
#X obj 103 20 inlet;
#X obj 110 437 outlet;
#X msg 102 79 5;
#X obj 101 99 until;
#X obj 102 58 t b b;
#X obj 101 121 i;
#X obj 129 122 + 1;
#X msg 143 99 0;
#X msg 107 230 5;
#X obj 106 250 until;
#X obj 106 272 i;
#X obj 134 273 + 1;
#X msg 148 250 0;
#X obj 107 209 t b b f f;
#X obj 110 312 t f f;
#X msg 105 414 set \$1 \$2 \$3 \$4 0;
#X obj 111 355 pack 0 0 0 0;
#X connect 0 0 4 0;
#X connect 2 0 3 0;
#X connect 3 0 5 0;
#X connect 4 0 2 0;
#X connect 4 1 7 0;
#X connect 5 0 6 0;
#X connect 5 0 13 0;
#X connect 6 0 5 1;
#X connect 7 0 5 1;
#X connect 8 0 9 0;
#X connect 9 0 10 0;
#X connect 10 0 11 0;
#X connect 10 0 14 0;
#X connect 11 0 10 1;
#X connect 12 0 10 1;
#X connect 13 0 8 0;
#X connect 13 1 12 0;
#X connect 13 2 16 1;
#X connect 13 3 16 3;
#X connect 14 0 16 0;
#X connect 14 1 16 2;
#X connect 15 0 1 0;
#X connect 16 0 15 0;
#X restore 36 506 pd reset;
#X obj 51 485 bng 15 250 50 0 empty empty empty 0 -6 0 8 -262144 -1
-1;
#X connect 0 0 1 0;
#X connect 1 0 0 0;
#X connect 2 0 3 0;
#X connect 4 0 5 0;
#X connect 6 0 48 0;
#X connect 7 0 17 1;
#X connect 8 0 68 0;
#X connect 9 0 68 0;
#X connect 10 0 68 0;
#X connect 11 0 17 2;
#X connect 12 0 17 3;
#X connect 13 0 48 1;
#X connect 14 0 48 2;
#X connect 15 0 48 3;
#X connect 16 0 68 0;
#X connect 17 0 30 0;
#X connect 17 0 32 0;
#X connect 18 0 68 0;
#X connect 19 0 68 0;
#X connect 20 0 68 0;
#X connect 21 0 68 0;
#X connect 22 0 68 0;
#X connect 23 0 68 0;
#X connect 24 0 68 0;
#X connect 25 0 68 0;
#X connect 26 0 68 0;
#X connect 27 0 68 0;
#X connect 28 0 68 0;
#X connect 29 0 68 0;
#X connect 30 0 29 0;
#X connect 31 0 30 1;
#X connect 31 0 33 0;
#X connect 32 0 76 0;
#X connect 33 0 34 0;
#X connect 34 0 32 1;
#X connect 35 0 68 0;
#X connect 36 0 68 0;
#X connect 37 0 68 0;
#X connect 38 0 68 0;
#X connect 39 0 68 0;
#X connect 40 0 68 0;
#X connect 41 0 40 0;
#X connect 42 0 40 1;
#X connect 43 0 68 0;
#X connect 44 0 68 0;
#X connect 45 0 68 0;
#X connect 46 0 49 0;
#X connect 47 0 49 1;
#X connect 48 0 17 0;
#X connect 49 0 68 0;
#X connect 50 0 51 0;
#X connect 51 0 31 0;
#X connect 62 0 46 0;
#X connect 69 0 73 0;
#X connect 70 0 68 0;
#X connect 72 0 73 1;
#X connect 73 0 70 0;
#X connect 74 0 73 2;
#X connect 76 0 28 0;
#X connect 77 0 46 0;
#X connect 78 0 77 0;
#X connect 79 0 77 1;
#X connect 79 0 47 0;
#X connect 80 0 68 0;
#X connect 81 0 80 0;
