#N canvas 291 154 674 345 10;
#X declare -lib Gem;
#X text 54 30 Class: geometric object;
#X obj 479 47 cnv 15 180 250 empty empty empty 20 12 0 14 #dce4fc #404040 0;
#X text 485 29 Example:;
#X obj 7 65 cnv 15 450 80 empty empty empty 20 12 0 14 #e0e0e0 #404040 0;
#X obj 8 216 cnv 15 450 100 empty empty empty 20 12 0 14 #e0e0e0 #404040 0;
#X text 9 221 Inlets:;
#X obj 8 156 cnv 15 450 50 empty empty empty 20 12 0 14 #bcbcbc #404040 0;
#X text 17 155 Arguments:;
#X text 27 261 Inlet 2: float: size;
#X text 452 8 GEM object;
#X text 27 233 Inlet 1: gemlist;
#X text 9 287 Outlets:;
#X text 21 300 Outlet 1: gemlist;
#X obj 546 130 cnv 15 100 80 empty empty empty 20 12 0 14 #14e814 #404040 0;
#X msg 485 65 draw line;
#X msg 485 86 draw fill;
#X msg 485 108 draw point;
#X obj 553 54 gemhead;
#X floatatom 575 144 5 0 0 2 size - - 0;
#X obj 553 79 rotateXYZ 90 0 0;
#X floatatom 598 172 3 0 0 2 segments - - 0;
#X text 27 272 Inlet 3: int: number of segments;
#X text 33 14 Synopsis: [cylinder];
#X obj 553 189 cylinder;
#X text 7 69 Description: Renders a cylinder.;
#X text 14 86 The cylinder object renders a cylinder at the current position with current color. The look of the cylinder can be changed with the draw message \, its size can be changed via the second inlet.;
#X text 63 167 size of the cylinder \, segments;
#X text 63 182 defaults: 1 \, 10;
#X text 27 247 Inlet 1: message: draw [line|fill|point|default];
#N canvas 484 243 450 300 META 0;
#X obj 10 25 declare -lib Gem;
#X text 10 45 DESCRIPTION Renders a cylinder.;
#X text 10 65 KEYWORDS Gem openGL shape;
#X text 20 85 INLET_0 gemlist draw;
#X text 20 105 INLET_1 float;
#X text 20 125 INLET_2 int;
#X text 20 145 OUTLET_0 gemlist;
#X text 10 165 AUTHOR IOhannes m zmölnig;
#X text 10 185 LICENSE GPL v2;
#X restore 558 8 pd META;
#X obj 561 241 _gemwin;
#X connect 14 0 23 0;
#X connect 15 0 23 0;
#X connect 16 0 23 0;
#X connect 17 0 19 0;
#X connect 18 0 23 1;
#X connect 19 0 23 0;
#X connect 20 0 23 2;
