#N canvas 668 300 600 500 10;
#X msg 19 131 gemList;
#X msg 19 278 gemList;
#X msg 63 164 R G B;
#X msg 80 192 R G B A;
#X text 129 29 part of GEM;
#X text 56 454 If you set the alpha value \, then you probably want
to use the alpha object.;
#X msg 275 131 gemList;
#X msg 275 278 gemList;
#X text 130 80 [diffuse];
#X text 60 315 [diffuse] accepts a gemList and sets the ambient-color
for all subsequent vertex operations;
#X text 58 363 [diffuse] accepts either a list of RGB colors or RGBA
(RGBA only has effect if blending is enabled);
#X text 58 408 [diffuse] can take initial arguments. The RGB values
default to 0.8f \, the Alpha value defaults to 1.0f.;
#X obj 19 224 diffuse;
#X obj 275 224 diffuse 1 0 0 0.4;
#X connect 0 0 12 0;
#X connect 2 0 12 1;
#X connect 3 0 12 1;
#X connect 6 0 13 0;
#X connect 12 0 1 0;
#X connect 13 0 7 0;
