#N canvas 61 61 636 395 10;
#X declare -lib Gem;
#X text 432 8 GEM object;
#X obj 8 196 cnv 15 430 180 empty empty empty 20 12 0 14 #e0e0e0 #404040 0;
#X text 34 198 Inlets:;
#X text 58 211 Inlet 1: gemlist;
#X text 34 252 Outlets:;
#X text 52 265 Outlet 1: gemlist;
#X obj 8 146 cnv 15 430 40 empty empty empty 20 12 0 14 #bcbcbc #404040 0;
#X text 17 145 Arguments:;
#X obj 8 76 cnv 15 430 60 empty empty empty 20 12 0 14 #e0e0e0 #404040 0;
#X obj 449 77 cnv 15 170 250 empty empty empty 20 12 0 14 #dce4fc #404040 0;
#X text 453 60 Example:;
#X text 71 31 Class: manipulation object;
#X obj 450 118 cnv 15 160 60 empty empty empty 20 12 0 14 #14e814 #404040 0;
#X obj 451 84 gemhead;
#X obj 451 193 cube;
#X obj 500 192 gemhead;
#X obj 500 230 world_light;
#X text 62 156 a list of 3 (RGB) or 4 (RGBA) float-values.;
#X msg 478 130 0.4 0.8 1;
#X text 58 229 Inlet 2: list: 3(RGB) or 4(RGBA) float values;
#X text 50 12 Synopsis: [diffuse];
#X text 29 77 Description: diffuse colouring;
#X text 61 170 defaults: 0.8 0.8 0.8 1;
#X text 22 91 [diffuse] accepts a gemList and sets the diffuse-color for all subsequent vertex-operations. You have to enable lighting to see any effects.;
#X floatatom 561 190 5 0 0 0 - - - 0;
#X obj 500 211 rotate 66 1 0 0;
#X obj 451 156 diffuse 0 1 0;
#X obj 451 355 diffuseRGB;
#X text 448 332 see also:;
#N canvas 484 243 450 300 META 0;
#X obj 10 25 declare -lib Gem;
#X text 10 45 DESCRIPTION diffuse colouring;
#X text 10 65 KEYWORDS Gem openGL transformation;
#X text 20 85 INLET_0 gemlist;
#X text 20 105 INLET_1 list;
#X text 20 125 OUTLET_0 gemlist;
#X text 10 145 AUTHOR IOhannes m zmölnig;
#X text 10 165 LICENSE GPL v2;
#X restore 508 8 pd META;
#X obj 525 253 _gemwin \; 0 \; 0 \; lighting 1;
#X connect 13 0 26 0;
#X connect 15 0 25 0;
#X connect 18 0 26 1;
#X connect 24 0 25 1;
#X connect 25 0 16 0;
#X connect 26 0 14 0;
