#N canvas 61 61 639 342 10;
#X declare -lib Gem;
#X text 452 8 GEM object;
#X obj 8 196 cnv 15 430 130 empty empty empty 20 12 0 14 #e0e0e0 #404040 0;
#X text 39 198 Inlets:;
#X text 63 211 Inlet 1: gemlist;
#X text 39 292 Outlets:;
#X text 57 305 Outlet 1: gemlist;
#X obj 8 146 cnv 15 430 40 empty empty empty 20 12 0 14 #bcbcbc #404040 0;
#X text 17 145 Arguments:;
#X obj 8 76 cnv 15 430 60 empty empty empty 20 12 0 14 #e0e0e0 #404040 0;
#X obj 449 77 cnv 15 170 200 empty empty empty 20 12 0 14 #dce4fc #404040 0;
#X text 453 60 Example:;
#X text 71 31 Class: manipulation object;
#X obj 450 118 cnv 15 160 60 empty empty empty 20 12 0 14 #14e814 #404040 0;
#X obj 451 84 gemhead;
#X obj 451 193 cube;
#X text 62 156 a list of 3 (RGB) or 4 (RGBA) float-values.;
#X text 63 229 Inlet 2: float: red value;
#X text 63 244 Inlet 3: float: green value;
#X text 63 259 Inlet 4: float: blue value;
#X text 63 274 Inlet 5: float: alpha value;
#X floatatom 479 122 3 0 1 0 - - - 0;
#X floatatom 508 122 3 0 1 0 - - - 0;
#X floatatom 536 122 3 0 1 0 - - - 0;
#X floatatom 565 122 3 0 1 0 - - - 0;
#X obj 451 156 emissionRGB 0 1 0;
#X text 60 171 defaults: 0 0 0 1;
#X text 29 77 Description: emission colouring;
#X text 50 12 Synopsis: [emissionRGB];
#X text 22 91 [emissionRGB] accepts a gemList and sets the emission-color for all subsequent vertex-operations. You have to enable lighting to see any effects.;
#X text 449 284 see also:;
#X obj 451 307 emission;
#N canvas 484 243 450 300 META 0;
#X obj 10 25 declare -lib Gem;
#X text 10 45 DESCRIPTION emission colouring;
#X text 10 65 KEYWORDS Gem openGL transformation;
#X text 20 85 INLET_0 gemlist;
#X text 20 105 INLET_1 float;
#X text 20 125 INLET_2 float;
#X text 20 145 INLET_3 float;
#X text 20 165 INLET_4 float;
#X text 20 185 OUTLET_0 gemlist;
#X text 10 205 AUTHOR IOhannes m zmölnig;
#X text 10 225 LICENSE GPL v2;
#X restore 518 8 pd META;
#X obj 509 198 _gemwin \; 0 \; 0 \; lighting 1;
#X connect 13 0 24 0;
#X connect 20 0 24 1;
#X connect 21 0 24 2;
#X connect 22 0 24 3;
#X connect 23 0 24 4;
#X connect 24 0 14 0;
