#N canvas 443 181 661 405 10;
#X declare -lib Gem;
#X obj 7 65 cnv 15 450 100 empty empty empty 20 12 0 14 #e0e0e0 #404040 0;
#X obj 8 216 cnv 15 450 100 empty empty empty 20 12 0 14 #e0e0e0 #404040 0;
#X text 9 221 Inlets:;
#X obj 8 176 cnv 15 450 30 empty empty empty 20 12 0 14 #bcbcbc #404040 0;
#X text 17 175 Arguments:;
#X text 452 8 GEM object;
#X text 27 233 Inlet 1: gemlist;
#X text 9 280 Outlets:;
#X text 21 293 Outlet 1: gemlist;
#X text 63 186 none;
#X text 475 29 Example:;
#X text 33 14 Synopsis: [gemlist];
#X text 54 30 Class: control object;
#X text 27 247 Inlet 1: bang;
#X text 27 261 Inlet 2: gemlist;
#X text 7 69 Description: Store a gemlist;
#X text 16 86 The gemlist object stores a gemlist \, which may de output by sending it a "bang" message.;
#X obj 467 47 cnv 15 170 340 empty empty empty 20 12 0 14 #dce4fc #404040 0;
#X obj 475 81 cnv 15 150 130 empty empty empty 20 12 0 14 #14e814 #404040 0;
#X obj 498 59 gemhead;
#X obj 484 190 gemlist;
#X obj 484 169 until;
#X obj 484 288 scaleXYZ 0.9 0.9 0.9;
#X obj 484 243 translateXYZ 0.5 0 0;
#X msg 484 149 30;
#X obj 484 265 rotateXYZ 0 0 30;
#X obj 498 107 route gem_state;
#X obj 498 127 route float;
#X obj 498 86 t a a;
#N canvas 484 243 450 300 META 0;
#X obj 10 25 declare -lib Gem;
#X text 10 45 DESCRIPTION Store a gemlist;
#X text 10 65 KEYWORDS Gem control;
#X text 20 85 INLET_0 gemlist bang;
#X text 20 105 INLET_1 gemlist;
#X text 20 125 OUTLET_0 gemlist;
#X text 10 145 AUTHOR IOhannes m zmölnig;
#X text 10 165 LICENSE GPL v2;
#X restore 538 8 pd META;
#X obj 524 317 _gemwin;
#X obj 484 221 circle 0.3;
#X connect 19 0 28 0;
#X connect 20 0 31 0;
#X connect 21 0 20 0;
#X connect 23 0 25 0;
#X connect 24 0 21 0;
#X connect 25 0 22 0;
#X connect 26 0 27 0;
#X connect 27 1 24 0;
#X connect 28 0 26 0;
#X connect 28 1 20 1;
#X connect 31 0 23 0;
