#N canvas 141 33 704 316 10;
#X obj 519 47 cnv 15 170 250 empty empty empty 20 12 0 14 -228992 -66577
0;
#X obj 584 224 cnv 15 100 60 empty empty empty 20 12 0 14 -195568 -66577
0;
#N canvas 0 22 450 300 gemwin 0;
#X obj 132 136 gemwin;
#X obj 67 89 outlet;
#X obj 67 10 inlet;
#X obj 67 41 route create;
#X msg 67 70 set destroy;
#X msg 142 68 set create;
#X msg 198 112 destroy;
#X msg 132 112 create \, 1;
#X connect 2 0 3 0;
#X connect 3 0 4 0;
#X connect 3 0 7 0;
#X connect 3 1 5 0;
#X connect 3 1 6 0;
#X connect 4 0 1 0;
#X connect 5 0 1 0;
#X connect 6 0 0 0;
#X connect 7 0 0 0;
#X restore 589 263 pd gemwin;
#X msg 589 244 create;
#X text 585 223 Create window:;
#X text 525 29 Example:;
#X obj 7 65 cnv 15 450 100 empty empty empty 20 12 0 14 -233017 -66577
0;
#X obj 8 236 cnv 15 450 60 empty empty empty 20 12 0 14 -233017 -66577
0;
#X text 11 237 Inlets:;
#X obj 8 176 cnv 15 450 55 empty empty empty 20 12 0 14 -195568 -66577
0;
#X text 452 8 GEM object;
#X text 11 266 Outlets:;
#X obj 522 81 cnv 15 150 100 empty empty empty 20 12 0 14 -24198 -66577
0;
#X text 7 69 Description: Renders a torus.;
#X obj 530 152 GEMglBegin;
#X obj 534 110 GLdefine GL_LINE_STRIP;
#X obj 534 88 loadbang;
#X obj 604 88 bng 15 250 50 0 empty empty empty 17 7 0 10 -262144 -1
-1;
#X text 54 30 Class: GEMgl object;
#X text 33 14 Synopsis: [GLdefine];
#X text 17 175 Arguments: none;
#X text 15 88 Send an OpenGL configuration constant to a GEMglBegin
to set up the OpenGL environment. These constants are defined in GL/gl.h
in the OpenGL C++ code.;
#X floatatom 610 141 5 0 0 0 - - -;
#X text 29 249 Inlet 1: bang;
#X text 23 279 Outlet 1: float;
#X connect 2 0 3 0;
#X connect 3 0 2 0;
#X connect 15 0 14 1;
#X connect 15 0 22 0;
#X connect 16 0 15 0;
#X connect 17 0 15 0;
