#N canvas 0 0 601 494 10;
#X text 50 319 The R G B is the color of the light.;
#X text 50 351 Keep in mind that the attributes have to be set before
rendering the vertices \, so if you are trying for frame accurate rendering
\, you will want to set the gemhead order to a low nuber so that all
of the values of the light get set first.;
#X obj 148 185 light;
#X obj 148 49 gemhead;
#X text 152 12 light;
#X msg 178 147 R G B;
#X text 48 240 light produces a light which is local to the scene (unlike
world_light which is at an infinite distance). Because light is local
light \, there is more computation required. Use a world_light if you
don't mind parallet light rays.;
#X connect 3 0 2 0;
#X connect 5 0 2 1;
