#N canvas 235 12 710 512 10;
#X text 54 30 Class: geometric object;
#X obj 479 47 cnv 15 170 300 empty empty empty 20 12 0 14 -228992 -66577
0;
#X obj 544 284 cnv 15 100 60 empty empty empty 20 12 0 14 -195568 -66577
0;
#N canvas 0 0 450 300 gemwin 0;
#X obj 132 136 gemwin;
#X obj 67 89 outlet;
#X obj 67 10 inlet;
#X obj 67 41 route create;
#X msg 67 70 set destroy;
#X msg 142 68 set create;
#X msg 198 112 destroy;
#X msg 132 112 create \, 1;
#X connect 2 0 3 0;
#X connect 3 0 4 0;
#X connect 3 0 7 0;
#X connect 3 1 5 0;
#X connect 3 1 6 0;
#X connect 4 0 1 0;
#X connect 5 0 1 0;
#X connect 6 0 0 0;
#X connect 7 0 0 0;
#X restore 549 323 pd gemwin;
#X msg 549 304 create;
#X text 545 283 Create window:;
#X text 485 29 Example:;
#X obj 7 65 cnv 15 450 90 empty empty empty 20 12 0 14 -233017 -66577
0;
#X obj 8 216 cnv 15 450 130 empty empty empty 20 12 0 14 -233017 -66577
0;
#X text 9 221 Inlets:;
#X obj 8 161 cnv 15 450 50 empty empty empty 20 12 0 14 -195568 -66577
0;
#X text 17 160 Arguments:;
#X text 27 247 Inlet 1: message: draw [line|fill|point];
#X text 452 8 GEM object;
#X text 27 233 Inlet 1: gemlist;
#X text 9 315 Outlets:;
#X text 20 328 Outlet 1: gemlist;
#X obj 484 141 cnv 15 160 140 empty empty empty 20 12 0 14 -24198 -66577
0;
#X obj 493 54 gemhead;
#X floatatom 511 163 5 0 0 2 size - -;
#X floatatom 553 162 5 0 0 2 height - -;
#X text 65 187 default: 1 1;
#X floatatom 571 79 5 0 0 0 - - -;
#X msg 481 184 draw line;
#X msg 481 204 draw fill;
#X msg 481 224 draw point;
#X text 33 14 Synopsis: [newWave];
#X obj 493 109 rotateXYZ 135 0 0;
#X floatatom 565 238 5 0 100 2 speed - -;
#X text 27 260 Inlet 2: float: size (dimX & dimY);
#X text 27 274 Inlet 3: float: height (dimZ);
#X text 10 361 actions:;
#X text 27 288 Inlet 4: int: action;
#X text 27 300 Inlet 5: float: speed;
#X text 84 360 00..retrigger current action;
#X text 84 371 01..flat;
#X text 84 382 02..spike;
#X text 84 392 03..diagonal wall;
#X text 84 403 04..sidewall;
#X text 84 414 05..hole;
#X text 84 425 06..middleblock;
#X text 84 436 07..diagonalblock;
#X text 84 447 08..cornerblock;
#X text 84 457 09..hill;
#X floatatom 560 57 5 0 0 0 - - -;
#X obj 493 85 scale 0.1;
#X obj 616 158 vradio 11 1 0 11 empty empty action -10 -6 0 8 -262144
-1 -1 0;
#X obj 493 259 newWave 1 1;
#X text 83 468 10..hill4 (default);
#X text 7 69 Description: Renders a waving square.;
#X text 16 86 The newWaves object renders a number of waving square
at the current position with current color. The size of the square
can be changed via the inlet2 \, the height of the wave can be set
via the 3rd inlet. You can also set the wave-form (inlet4) and the
wave-speed (inlet5);
#X text 63 173 dimensions of the waving square (size height);
#X connect 3 0 4 0;
#X connect 4 0 3 0;
#X connect 18 0 45 0;
#X connect 19 0 47 1;
#X connect 20 0 47 2;
#X connect 22 0 27 1;
#X connect 23 0 47 0;
#X connect 24 0 47 0;
#X connect 25 0 47 0;
#X connect 27 0 47 0;
#X connect 28 0 47 4;
#X connect 44 0 45 1;
#X connect 45 0 27 0;
#X connect 46 0 47 3;
