#N canvas 397 92 954 342 10;
#X declare -lib Gem;
#X obj 462 275 cnv 15 100 60 empty empty empty 20 12 0 14 #bcbcbc #404040
0;
#N canvas 0 22 450 300 gemwin 0;
#X obj 132 136 gemwin;
#X obj 67 89 outlet;
#X obj 67 10 inlet;
#X obj 67 41 route create;
#X msg 67 70 set destroy;
#X msg 142 68 set create;
#X msg 198 112 destroy;
#X msg 132 112 create \, 1;
#X connect 2 0 3 0;
#X connect 3 0 4 0;
#X connect 3 0 7 0;
#X connect 3 1 5 0;
#X connect 3 1 6 0;
#X connect 4 0 1 0;
#X connect 5 0 1 0;
#X connect 6 0 0 0;
#X connect 7 0 0 0;
#X restore 467 314 pd gemwin;
#X msg 467 295 destroy;
#X text 463 274 Create window:;
#X text 465 49 Example:;
#X obj 7 65 cnv 15 450 100 empty empty empty 20 12 0 14 #e0e0e0 #404040
0;
#X obj 8 216 cnv 15 450 120 empty empty empty 20 12 0 14 #e0e0e0 #404040
0;
#X text 9 221 Inlets:;
#X obj 8 176 cnv 15 450 30 empty empty empty 20 12 0 14 #bcbcbc #404040
0;
#X text 17 175 Arguments:;
#X text 432 8 GEM object;
#X text 27 233 Inlet 1: gemlist;
#X text 9 304 Outlets:;
#X text 21 316 Outlet 1: gemlist;
#X text 63 187 (none);
#X text 27 247 Inlet 1: 0|1 : turn orthographic rendering ON(default)
or OFF;
#X text 33 14 Synopsis: [ortho];
#X text 54 30 Class: manipulation object;
#X text 7 69 Description: orthographic rendering;
#X text 27 274 Inlet 1: compat 0|1 : switch aspect ratio default: 1
= 1 \, 0 = window width/height;
#X obj 461 66 cnv 15 160 200 empty empty empty 20 12 0 14 #dce4fc #404040
0;
#X obj 466 157 cnv 15 150 80 empty empty empty 20 12 0 14 #14e814 #404040
0;
#X obj 480 71 gemhead;
#X obj 490 246 cylinder;
#X obj 480 92 t a b;
#X obj 490 200 ortho;
#X obj 470 183 tgl 15 1 empty empty empty 0 -6 0 8 #fcfcfc #000000
#000000 1 1;
#X obj 535 93 tgl 15 0 empty empty empty 0 -6 0 8 #fcfcfc #000000 #000000
0 1;
#X obj 519 114 + 0;
#X obj 480 137 rotateXYZ 45 45 0;
#X msg 521 180 compat \$1;
#X obj 521 160 tgl 15 1 empty empty empty 0 -6 0 8 #fcfcfc #000000
#000000 0 1;
#X obj 508 8 declare -lib Gem;
#X obj 544 114 % 360;
#X obj 487 114 i 45;
#X obj 581 114 t f f;
#X text 19 92 [ortho] changes the current viewing-mode from (evtl.)
"perspective" (objects that are far away appear smaller than objects
that are near) to "orthographic" (parallels appear parallel) for all
subsequent shapes.;
#X connect 1 0 2 0;
#X connect 2 0 1 0;
#X connect 22 0 24 0;
#X connect 24 0 29 0;
#X connect 24 1 34 0;
#X connect 25 0 23 0;
#X connect 26 0 25 0;
#X connect 27 0 28 1;
#X connect 28 0 33 0;
#X connect 29 0 25 0;
#X connect 30 0 25 0;
#X connect 31 0 30 0;
#X connect 33 0 35 0;
#X connect 34 0 28 0;
#X connect 35 0 34 1;
#X connect 35 1 29 1;
#X connect 35 1 29 2;
#X connect 35 1 29 3;
