#N canvas 268 249 600 327 12;
#X msg 110 93 gemList;
#X text 121 50 GEM object;
#X msg 170 151 x y z;
#X text 131 16 [part_velsphere];
#X obj 110 190 part_velsphere;
#X msg 110 219 gemList;
#X text 181 94 partList;
#X text 180 222 partList;
#X msg 231 152 radius;
#X text 65 253 [part_velsphere] sets a sphere with a specified radius
and midpoint to be the velocity-domain of newly emitted particles within
the system.;
#X connect 0 0 4 0;
#X connect 2 0 4 1;
#X connect 4 0 5 0;
#X connect 8 0 4 2;
