#N canvas 796 353 716 478 10;
#X declare -lib Gem;
#X obj 546 32 declare -lib Gem;
#X obj 14 89 cnv 15 450 100 empty empty empty 20 12 0 14 #e0e0e0 #404040
0;
#X text 59 53 Class: particle object;
#X obj 475 88 cnv 15 200 350 empty empty empty 20 12 0 14 #dce4fc #404040
0;
#N canvas 340 107 682 322 gemwin 0;
#X obj 102 122 tgl 15 0 \$0-gemstart \$0-gemstart empty 17 7 0 10 #fcfcfc
#000000 #000000 0 1;
#X obj 102 161 r \$0-gemstart;
#X obj 102 182 select 1 0;
#X msg 102 214 create \, 1;
#X msg 177 215 destroy;
#X obj 102 239 t a;
#X obj 318 54 inlet;
#X obj 318 255 gemwin;
#X obj 318 100 t a a;
#X obj 318 287 outlet;
#X obj 350 128 route create destroy;
#X obj 350 150 t b;
#X msg 350 172 1;
#X obj 390 150 t b;
#X msg 390 172 0;
#X obj 350 195 t f;
#X msg 350 219 set \$1;
#X text 118 122 rendering;
#X connect 1 0 2 0;
#X connect 2 0 3 0;
#X connect 2 1 4 0;
#X connect 3 0 5 0;
#X connect 4 0 5 0;
#X connect 5 0 8 0;
#X connect 6 0 8 0;
#X connect 7 0 9 0;
#X connect 8 0 7 0;
#X connect 8 1 10 0;
#X connect 10 0 11 0;
#X connect 10 1 13 0;
#X connect 11 0 12 0;
#X connect 12 0 15 0;
#X connect 13 0 14 0;
#X connect 14 0 15 0;
#X connect 15 0 16 0;
#X connect 16 0 0 0;
#X coords 0 -1 1 1 85 40 1 100 100;
#X restore 483 391 pd gemwin;
#X obj 476 249 cnv 15 100 40 empty empty empty 20 12 0 14 #14e814 #404040
0;
#X obj 483 117 gemhead;
#X obj 15 200 cnv 15 450 30 empty empty empty 20 12 0 14 #bcbcbc #404040
0;
#X text 471 32 GEM object;
#X text 474 69 Example:;
#X obj 14 239 cnv 15 450 100 empty empty empty 20 12 0 14 #e0e0e0 #404040
0;
#X obj 483 138 part_head;
#X obj 483 296 part_killold 50;
#X obj 483 318 part_render;
#X obj 483 99 tgl 15 0 empty empty empty 17 7 0 10 #fcfcfc #000000
#000000 0 1;
#X obj 483 179 part_source 1;
#X obj 483 159 part_velocity sphere 0 0 0 0.1;
#X text 36 110 part_targetsize changes the size of the particles by
a scale factor every frame. The default size is 1 The scale value defaults
to 0.05;
#X text 26 18 Synopsis: part_targetsize;
#X obj 483 258 part_targetsize;
#X floatatom 526 205 5 0 10 1 size - - 0;
#X obj 483 339 square 0.1 \; draw line;
#X floatatom 570 226 5 0 10 1 scale - - 0;
#X text 24 202 Arguments: size \, scale;
#X connect 6 0 11 0;
#X connect 11 0 16 0;
#X connect 12 0 13 0;
#X connect 13 0 21 0;
#X connect 14 0 6 0;
#X connect 15 0 19 0;
#X connect 16 0 15 0;
#X connect 19 0 12 0;
#X connect 20 0 19 1;
#X connect 22 0 19 2;
