#N canvas 573 367 673 438 10;
#X declare -lib Gem;
#X obj 546 22 declare -lib Gem;
#X obj 14 79 cnv 15 450 100 empty empty empty 20 12 0 14 #e0e0e0 #404040
0;
#X text 59 43 Class: particle object;
#X obj 475 78 cnv 15 170 300 empty empty empty 20 12 0 14 #dce4fc #404040
0;
#N canvas 340 107 682 322 gemwin 0;
#X obj 102 122 tgl 15 0 \$0-gemstart \$0-gemstart empty 17 7 0 10 #fcfcfc
#000000 #000000 0 1;
#X obj 102 161 r \$0-gemstart;
#X obj 102 182 select 1 0;
#X msg 102 214 create \, 1;
#X msg 177 215 destroy;
#X obj 102 239 t a;
#X obj 318 54 inlet;
#X obj 318 255 gemwin;
#X obj 318 100 t a a;
#X obj 318 287 outlet;
#X obj 350 128 route create destroy;
#X obj 350 150 t b;
#X msg 350 172 1;
#X obj 390 150 t b;
#X msg 390 172 0;
#X obj 350 195 t f;
#X msg 350 219 set \$1;
#X text 118 122 rendering;
#X connect 1 0 2 0;
#X connect 2 0 3 0;
#X connect 2 1 4 0;
#X connect 3 0 5 0;
#X connect 4 0 5 0;
#X connect 5 0 8 0;
#X connect 6 0 8 0;
#X connect 7 0 9 0;
#X connect 8 0 7 0;
#X connect 8 1 10 0;
#X connect 10 0 11 0;
#X connect 10 1 13 0;
#X connect 11 0 12 0;
#X connect 12 0 15 0;
#X connect 13 0 14 0;
#X connect 14 0 15 0;
#X connect 15 0 16 0;
#X connect 16 0 0 0;
#X coords 0 -1 1 1 85 40 1 100 100;
#X restore 493 330 pd gemwin;
#X obj 486 234 cnv 15 150 40 empty empty empty 20 12 0 14 #14e814 #404040
0;
#X obj 493 104 gemhead;
#X obj 493 279 part_draw;
#X obj 493 303 part_killold 50;
#X obj 15 190 cnv 15 450 30 empty empty empty 20 12 0 14 #bcbcbc #404040
0;
#X text 471 22 GEM object;
#X text 474 59 Example:;
#X obj 14 229 cnv 15 450 100 empty empty empty 20 12 0 14 #e0e0e0 #404040
0;
#X obj 493 126 part_head;
#X floatatom 580 213 5 0 0 1 attraction - - 0;
#X obj 493 145 part_source 10;
#X msg 514 186 -1 1 0;
#X msg 566 187 1 1 0;
#X text 512 170 orbipoint x y z;
#X text 61 17 Synopsis: [part_orbitpoint];
#X text 24 192 Arguments: orbipoint x y z \, attraction;
#X text 28 110 [part_orbitpoint] will make the particles orbit about
the position x \, y \, z. The gravity is how attracted the particles
are to the point. The default attraction is 1;
#X obj 493 246 part_orbitpoint 0 1 0 0.1;
#X obj 493 85 tgl 15 0 empty empty empty 17 7 0 10 #fcfcfc #000000
#000000 0 1;
#X connect 6 0 13 0;
#X connect 7 0 8 0;
#X connect 13 0 15 0;
#X connect 14 0 22 2;
#X connect 15 0 22 0;
#X connect 16 0 22 1;
#X connect 17 0 22 1;
#X connect 22 0 7 0;
#X connect 23 0 6 0;
