#N canvas 619 383 725 370 10;
#X declare -lib Gem;
#X obj 539 8 declare -lib Gem;
#X obj 7 65 cnv 15 450 100 empty empty empty 20 12 0 14 #e0e0e0 #404040 0;
#X text 13 78 starts a particle-system. The particle-list normally holds a number of [part_source]s (particle-generators) [part_]-modifiers and ends with a particle-renderer such as [part_draw];
#X text 42 9 Synopsis: [part_head];
#X text 52 29 Class: particle object;
#X obj 468 64 cnv 15 170 220 empty empty empty 20 12 0 14 #dce4fc #404040 0;
#X msg 559 105 speed \$1;
#X floatatom 559 81 5 0 0 0 - - - 0;
#X obj 472 124 cnv 15 100 40 empty empty empty 20 12 0 14 #14e814 #404040 0;
#X obj 476 94 gemhead;
#X obj 8 176 cnv 15 450 30 empty empty empty 20 12 0 14 #bcbcbc #404040 0;
#X text 17 175 Arguments:;
#X text 464 8 GEM object;
#X text 467 45 Example:;
#X obj 7 215 cnv 15 450 100 empty empty empty 20 12 0 14 #e0e0e0 #404040 0;
#X text 14 255 if your particles do not die (e.g.: because the are killed with [part_killold]) \, your particle source will stop emitting particles after some time.;
#X text 90 176 the number of particles that can exist in one instance of time as a creation-argument. (default:1000);
#X text 14 231 speed of the particle-emission with the speed-message.;
#X obj 476 138 part_head;
#X obj 476 178 part_source 1;
#X obj 476 202 part_velocity point 0 -0.1 0;
#X obj 476 251 part_draw;
#X obj 476 224 part_killold 50;
#X obj 476 74 tgl 15 0 empty empty empty 17 7 0 10 #fcfcfc #000000 #000000 0 1;
#X obj 494 288 _gemwin;
#X connect 6 0 18 0;
#X connect 7 0 6 0;
#X connect 9 0 18 0;
#X connect 18 0 19 0;
#X connect 19 0 20 0;
#X connect 20 0 22 0;
#X connect 22 0 21 0;
#X connect 23 0 9 0;
