#N canvas 243 115 627 470 12;
#X msg 110 93 gemList;
#X text 121 50 GEM object;
#X msg 110 219 gemList;
#X text 181 94 partList;
#X text 180 222 partList;
#X obj 110 190 part_veldomain;
#X msg 170 151 <domain>;
#X msg 265 150 <arguments>;
#X text 65 253 [part_veldomain] sets the domain+domaincharacteristics
to be the velocity-domain of newly emitted particles within the system.
;
#X text 48 337 <domain>: one of "point" \, "line" \, "triangle" \,
"plane" \, "box" \, "sphere" \, "cylinder" \, "cone" \, "blob" \, "disc"
\, "rectangle";
#X text 49 401 <arguments>: up to 9 floats \, defining the specified
domain (like "x y z" for "point" \, "x1 y1 z1 x2 y2 z2" for "point"
\, "x y z r" for "sphere" \, ...);
#X text 131 16 [part_veldomain];
#X connect 0 0 5 0;
#X connect 5 0 2 0;
#X connect 6 0 5 1;
#X connect 7 0 5 2;
