#N canvas 746 414 689 428 10;
#X declare -lib Gem;
#X text 31 14 Synopsis: [part_color];
#X text 51 37 Class: Particle System;
#X obj 539 18 declare -lib Gem;
#X obj 7 75 cnv 15 450 100 empty empty empty 20 12 0 14 #e0e0e0 #404040
0;
#X obj 468 74 cnv 15 200 300 empty empty empty 20 12 0 14 #dce4fc #404040
0;
#N canvas 340 107 682 322 gemwin 0;
#X obj 102 122 tgl 15 0 \$0-gemstart \$0-gemstart empty 17 7 0 10 #fcfcfc
#000000 #000000 0 1;
#X obj 102 161 r \$0-gemstart;
#X obj 102 182 select 1 0;
#X msg 102 214 create \, 1;
#X msg 177 215 destroy;
#X obj 102 239 t a;
#X obj 318 54 inlet;
#X obj 318 255 gemwin;
#X obj 318 100 t a a;
#X obj 318 287 outlet;
#X obj 350 128 route create destroy;
#X obj 350 150 t b;
#X msg 350 172 1;
#X obj 390 150 t b;
#X msg 390 172 0;
#X obj 350 195 t f;
#X msg 350 219 set \$1;
#X text 118 122 rendering;
#X connect 1 0 2 0;
#X connect 2 0 3 0;
#X connect 2 1 4 0;
#X connect 3 0 5 0;
#X connect 4 0 5 0;
#X connect 5 0 8 0;
#X connect 6 0 8 0;
#X connect 7 0 9 0;
#X connect 8 0 7 0;
#X connect 8 1 10 0;
#X connect 10 0 11 0;
#X connect 10 1 13 0;
#X connect 11 0 12 0;
#X connect 12 0 15 0;
#X connect 13 0 14 0;
#X connect 14 0 15 0;
#X connect 15 0 16 0;
#X connect 16 0 0 0;
#X coords 0 -1 1 1 85 40 1 100 100;
#X restore 476 326 pd gemwin;
#X obj 472 246 cnv 15 100 40 empty empty empty 20 12 0 14 #14e814 #404040
0;
#X obj 8 186 cnv 15 450 30 empty empty empty 20 12 0 14 #bcbcbc #404040
0;
#X text 464 18 GEM object;
#X text 467 55 Example:;
#X obj 7 225 cnv 15 450 100 empty empty empty 20 12 0 14 #e0e0e0 #404040
0;
#X obj 481 293 part_draw;
#X obj 481 101 gemhead;
#X msg 509 208 0 0 1;
#X msg 538 229 1 0 0;
#X obj 481 122 part_head;
#X text 14 111 sets the color(s) of a particle-system. You can set
2 different colors \, particles will have either the one or the other.
;
#X text 12 85 Description: Defines color of particles;
#X obj 481 256 part_color;
#X text 12 195 argument : none;
#X text 19 244 Inlet 1: gemlist (with part_head);
#X text 553 208 color 1;
#X text 577 230 color 2;
#X text 19 271 Inlet 2: color R1 G1 B1;
#X text 19 291 Inlet 3: color R2 G2 B2;
#X obj 481 79 tgl 15 0 empty empty empty 17 7 0 10 #fcfcfc #000000
#000000 0 1;
#X obj 481 185 part_velocity sphere 0 0 0 0.1;
#X obj 481 144 part_source 40;
#X obj 481 164 part_killold 20;
#X connect 12 0 15 0;
#X connect 13 0 18 1;
#X connect 14 0 18 2;
#X connect 15 0 27 0;
#X connect 18 0 11 0;
#X connect 25 0 12 0;
#X connect 26 0 18 0;
#X connect 27 0 28 0;
#X connect 28 0 26 0;
