#N canvas 539 300 676 444 10;
#X declare -lib Gem;
#X text 51 35 Class: Particle System;
#X text 13 358 See also:;
#X obj 86 359 part_render;
#X text 31 14 Synopsis: [part_draw];
#X obj 541 30 declare -lib Gem;
#X obj 9 87 cnv 15 450 100 empty empty empty 20 12 0 14 #e0e0e0 #404040
0;
#X obj 470 86 cnv 15 170 300 empty empty empty 20 12 0 14 #dce4fc #404040
0;
#N canvas 340 107 682 322 gemwin 0;
#X obj 102 122 tgl 15 0 \$0-gemstart \$0-gemstart empty 17 7 0 10 #fcfcfc
#000000 #000000 0 1;
#X obj 102 161 r \$0-gemstart;
#X obj 102 182 select 1 0;
#X msg 102 214 create \, 1;
#X msg 177 215 destroy;
#X obj 102 239 t a;
#X obj 318 54 inlet;
#X obj 318 255 gemwin;
#X obj 318 100 t a a;
#X obj 318 287 outlet;
#X obj 350 128 route create destroy;
#X obj 350 150 t b;
#X msg 350 172 1;
#X obj 390 150 t b;
#X msg 390 172 0;
#X obj 350 195 t f;
#X msg 350 219 set \$1;
#X text 118 122 rendering;
#X connect 1 0 2 0;
#X connect 2 0 3 0;
#X connect 2 1 4 0;
#X connect 3 0 5 0;
#X connect 4 0 5 0;
#X connect 5 0 8 0;
#X connect 6 0 8 0;
#X connect 7 0 9 0;
#X connect 8 0 7 0;
#X connect 8 1 10 0;
#X connect 10 0 11 0;
#X connect 10 1 13 0;
#X connect 11 0 12 0;
#X connect 12 0 15 0;
#X connect 13 0 14 0;
#X connect 14 0 15 0;
#X connect 15 0 16 0;
#X connect 16 0 0 0;
#X coords 0 -1 1 1 85 40 1 100 100;
#X restore 478 344 pd gemwin;
#X obj 474 296 cnv 15 100 40 empty empty empty 20 12 0 14 #14e814 #404040
0;
#X obj 10 198 cnv 15 450 30 empty empty empty 20 12 0 14 #bcbcbc #404040
0;
#X text 466 30 GEM object;
#X text 469 67 Example:;
#X obj 9 237 cnv 15 450 100 empty empty empty 20 12 0 14 #e0e0e0 #404040
0;
#X msg 514 255 draw point;
#X obj 487 112 gemhead;
#X obj 487 133 part_head;
#X msg 502 237 draw line;
#X msg 588 254 draw \$1;
#X floatatom 588 235 5 0 13 0 - - - 0;
#X text 23 105 Description: Draw a particle system;
#X text 22 128 [part_draw] finally draws a particle system that was
set up with [part_head] and other [part_]-objects.;
#X text 24 251 inlet 1: gemlist (with part_head) \, draw [line|point|<nr>]
;
#X text 495 215 drawing mode:;
#X obj 487 157 part_source 1;
#X obj 487 177 part_killold 50;
#X obj 487 308 part_draw;
#X text 17 199 Arguments: none;
#X obj 487 89 tgl 15 0 empty empty empty 17 7 0 10 #fcfcfc #000000
#000000 0 1;
#X obj 487 197 part_velocity sphere 0 0 0 0.1;
#X connect 13 0 25 0;
#X connect 14 0 15 0;
#X connect 15 0 23 0;
#X connect 16 0 25 0;
#X connect 17 0 25 0;
#X connect 18 0 17 0;
#X connect 23 0 24 0;
#X connect 24 0 28 0;
#X connect 27 0 14 0;
#X connect 28 0 25 0;
