#N canvas 79 134 586 558 12;
#X msg 121 121 gemList;
#X msg 121 234 gemList;
#X text 169 16 part of GEM;
#X text 176 43 [pix_puzzle];
#X obj 121 203 pix_puzzle;
#X msg 257 124 bang;
#X msg 258 152 size <x> <y>;
#X text 103 74 shuffle an image...;
#X text 20 257 [pix_puzzle] is an effect that will cut your image into
rectangular pieces and shuffle these.;
#X text 21 304 You can change the number of pieces per row/column with
the "size" message. "bang" triggers a re-shuffling of the pieces.;
#X text 20 377 There is a little game hidden in the [pix_puzzle]. Go
and find it...;
#X text 31 484 acknowledgment: this effect is based on effecTV by Kentarou
Fukuchi (http://effectv.sourceforge.net);
#X connect 0 0 4 0;
#X connect 4 0 1 0;
#X connect 5 0 4 0;
#X connect 6 0 4 0;
