#N canvas 6 61 626 365 10;
#X declare -lib Gem;
#X text 452 8 GEM object;
#X obj 8 245 cnv 15 430 80 empty empty empty 20 12 0 14 #e0e0e0 #404040 0;
#X text 39 248 Inlets:;
#X text 38 295 Outlets:;
#X obj 8 206 cnv 15 430 30 empty empty empty 20 12 0 14 #bcbcbc #404040 0;
#X text 17 205 Arguments:;
#X obj 7 76 cnv 15 430 125 empty empty empty 20 12 0 14 #e0e0e0 #404040 0;
#X obj 449 77 cnv 15 170 250 empty empty empty 20 12 0 14 #dce4fc #404040 0;
#X text 453 60 Example:;
#X obj 514 254 cnv 15 100 60 empty empty empty 20 12 0 14 #bcbcbc #404040 0;
#X obj 450 158 cnv 15 160 60 empty empty empty 20 12 0 14 #14e814 #404040 0;
#X obj 451 84 gemhead;
#X text 71 31 Class: pix object;
#X obj 510 85 bng 15 250 50 0 empty empty pix_load 20 8 0 8 #fcfcfc #000000 #000000;
#N canvas 0 0 587 366 image 0;
#X obj 77 48 inlet;
#X obj 77 344 outlet;
#X obj 77 205 pix_image examples/data/fractal.JPG;
#X obj 223 55 inlet;
#X msg 223 123 open \$1;
#X obj 223 100 openpanel;
#X connect 0 0 2 0;
#X connect 2 0 1 0;
#X connect 3 0 5 0;
#X connect 4 0 2 0;
#X connect 5 0 4 0;
#X restore 451 113 pd image;
#X text 63 216 <none>;
#X text 56 308 Outlet 1: gemlist;
#X text 63 262 Inlet 1: gemlist;
#X obj 451 233 _pix2rectangle 3;
#X text 516 105 open an image;
#X text 509 118 (JPEG \, TIFF \, ..);
#X obj 451 186 pix_hsv2rgb;
#X obj 468 165 tgl 15 1 empty empty empty 0 -6 0 8 #fcfcfc #000000 #000000 1 1;
#X text 63 275 Inlet 1: 1|0 : apply/don't apply (default:1);
#X text 50 12 Synopsis: [pix_hsv2rgb];
#X text 29 76 Description: convert HSV into RGB;
#X text 25 104 [pix_hsv2rgb] will (virtually) transform an HSV(hue \, saturation \, value)images into RGB(red \, green \, blue) color-space.;
#X text 24 156 On the technical (internal) side \, the image is always RGBA. The Red-channel is interpreted as Hue-values....;
#X text 94 340 see also:;
#X obj 187 338 pix_rgb2hsv;
#N canvas 484 243 450 300 META 0;
#X obj 10 25 declare -lib Gem;
#X text 10 45 DESCRIPTION convert HSV into RGB;
#X text 10 65 KEYWORDS Gem pix image;
#X text 20 85 INLET_0 gemlist bool;
#X text 20 105 OUTLET_0 gemlist;
#X text 10 125 AUTHOR IOhannes m zmölnig;
#X text 10 145 LICENSE GPL v2;
#X restore 518 8 pd META;
#X obj 519 258 _gemwin;
#X connect 11 0 14 0;
#X connect 13 0 14 1;
#X connect 14 0 21 0;
#X connect 21 0 18 0;
#X connect 22 0 21 0;
