#N canvas 19 86 676 556 10;
#X declare -lib Gem;
#X text 482 18 GEM object;
#X obj 7 376 cnv 15 430 130 empty empty empty 20 12 0 14 #e0e0e0 #404040 0;
#X text 11 378 Inlets:;
#X text 11 478 Outlets:;
#X obj 8 340 cnv 15 430 30 empty empty empty 20 12 0 14 #bcbcbc #404040 0;
#X text 17 342 Arguments:;
#X obj 8 56 cnv 15 430 280 empty empty empty 20 12 0 14 #e0e0e0 #404040 0;
#X text 451 58 Example:;
#X text 71 31 Class: pix object;
#X text 29 491 Outlet 1: gemlist;
#X text 22 392 Inlet 1: gemlist;
#X obj 13 512 cnv 15 410 30 empty empty empty 20 12 0 14 #fcac44 #404040 0;
#X text 50 12 Synopsis: [pix_frei0r];
#X text 63 353 <symbol>: the plugin to load;
#X text 13 72 This object allows you to load any Frei0r video-effect. Frei0r is a minimalistic plugin API for realtime video effects.;
#X text 15 513 You can get more information as well as links to downloadable plugin-packs at http://piksel.org/frei0r;
#X text 12 308 Plugins are searched in all the paths that Pd searches for abstractions \, ...!;
#X text 28 56 Description: run a Frei0r effect;
#X obj 449 113 gemhead;
#X obj 448 77 cnv 15 200 280 empty empty empty 20 12 0 14 #dce4fc #404040 0;
#X obj 514 344 cnv 15 100 60 empty empty empty 20 12 0 14 #bcbcbc #404040 0;
#X obj 451 83 gemhead;
#X obj 451 151 pix_film;
#X obj 515 151 t f;
#X obj 464 103 bng 25 250 50 0 empty empty empty 0 -6 0 8 #fcfcfc #000000 #000000;
#N canvas 0 0 450 300 open 0;
#X obj 85 49 inlet;
#X obj 85 237 outlet;
#X obj 85 145 openpanel;
#X msg 85 179 open \$1;
#X msg 259 213 auto 1;
#X obj 268 179 loadbang;
#X connect 0 0 2 0;
#X connect 2 0 3 0;
#X connect 3 0 1 0;
#X connect 4 0 1 0;
#X connect 5 0 4 0;
#X restore 464 131 pd open;
#X text 505 77 open a supported;
#X text 506 88 movie-clip;
#X text 523 114 macOS: quicktime;
#X text 516 104 MS Windows: *.AVI;
#X text 523 124 linux: depends...;
#X obj 450 227 cnv 15 160 85 empty empty empty 20 12 0 14 #14e814 #404040 0;
#X floatatom 567 241 5 0 0 0 - - - 0;
#X obj 463 241 hsl 100 15 0 1 0 0 empty empty xSize -2 -6 0 10 #fcfcfc #000000 #000000 0 1;
#X floatatom 567 270 5 0 0 0 - - - 0;
#X obj 463 270 hsl 100 15 0 1 0 0 empty empty ySize -2 -6 0 10 #fcfcfc #000000 #000000 0 1;
#X text 442 411 This example relies on;
#X obj 451 180 pix_rgba;
#X text 513 176 Frei0r plugins;
#X text 515 190 need RGBA images!;
#X obj 451 289 pix_frei0r pixeliz0r;
#X text 442 426 finding the "pixeliz0r" plugin;
#X text 445 457 plugin set) in Pd's search path;
#X text 443 441 (which is part of the official frei0r;
#X text 12 112 If you specify the plugin when creating the object (e.g [pix_frei0r bw0r] or [pix_bw0r] \, the plugin is fixed and you cannot change it (apart from deleting the object and creating a new one);
#X text 13 163 However \, if you only create an object [pix_frei0r] (without specifying the plugin \, you will get a dynamic version \, where you can load in a plugin using the "load" message.;
#X text 12 202 Most plugins have a number of parameters which you can use to change the behaviour of the effect while it runs. For each parameter exposed \, the [pix_frei0r] object will get one additional inlet \, which can be used to modify the given parameter. Alternatively (e.g. when using dynamic plugin instances) you can also use the parametername or "#<num>" (starting from 1).;
#X text 13 284 Frei0r numerical parameters are supposed to be in the range 0..1.;
#X text 21 453 Inlet 2..N (if applicable): <type>: depending on the settable parameter;
#X text 22 419 Inlet 1: #<num> <value>: set parameter #<num> (starting from 1);
#X text 22 441 Inlet 1: <name> <value>: set parameter given by <name>;
#N canvas 484 243 450 300 META 0;
#X obj 10 25 declare -lib Gem;
#X text 10 45 DESCRIPTION run a Frei0r effect;
#X text 10 65 KEYWORDS Gem pix image;
#X text 20 85 INLET_0 gemlist load list <name>;
#X text 20 105 OUTLET_0 gemlist;
#X text 10 125 AUTHOR IOhannes m zmölnig;
#X text 10 145 LICENSE GPL v2;
#X restore 548 18 pd META;
#X text 22 406 Inlet 1: load <symbol>: load another plugin (if applicable);
#X obj 521 350 _gemwin;
#X obj 451 320 _pix2rectangle 3;
#X connect 21 0 22 0;
#X connect 22 0 37 0;
#X connect 22 2 23 0;
#X connect 23 0 22 1;
#X connect 24 0 25 0;
#X connect 25 0 22 0;
#X connect 32 0 40 1;
#X connect 33 0 32 0;
#X connect 34 0 40 2;
#X connect 35 0 34 0;
#X connect 37 0 40 0;
#X connect 40 0 54 0;
