#N canvas 6 61 633 352 10;
#X declare -lib Gem;
#X text 452 8 GEM object;
#X obj 8 196 cnv 15 430 120 empty empty empty 20 12 0 14 #e0e0e0 #404040 0;
#X text 39 198 Inlets:;
#X text 39 282 Outlets:;
#X obj 8 156 cnv 15 430 30 empty empty empty 20 12 0 14 #bcbcbc #404040 0;
#X text 17 155 Arguments:;
#X obj 8 76 cnv 15 430 75 empty empty empty 20 12 0 14 #e0e0e0 #404040 0;
#X obj 449 77 cnv 15 170 250 empty empty empty 20 12 0 14 #dce4fc #404040 0;
#X text 453 60 Example:;
#X obj 514 254 cnv 15 100 60 empty empty empty 20 12 0 14 #bcbcbc #404040 0;
#X obj 450 158 cnv 15 160 60 empty empty empty 20 12 0 14 #14e814 #404040 0;
#X obj 451 84 gemhead;
#X text 50 12 Synopsis: [pix_dot];
#X text 71 31 Class: pix object;
#X obj 451 180 pix_dot;
#X obj 510 85 bng 15 250 50 0 empty empty pix_load 20 8 0 8 #fcfcfc #000000 #000000;
#N canvas 0 22 587 366 image 0;
#X obj 77 48 inlet;
#X obj 77 344 outlet;
#X obj 77 205 pix_image examples/data/fractal.JPG;
#X obj 223 55 inlet;
#X msg 223 123 open \$1;
#X obj 223 100 openpanel;
#X connect 0 0 2 0;
#X connect 2 0 1 0;
#X connect 3 0 5 0;
#X connect 4 0 2 0;
#X connect 5 0 4 0;
#X restore 451 113 pd image;
#X floatatom 524 181 5 0 100 2 size - - 0;
#X text 57 295 Outlet 1: gemlist;
#X text 63 212 Inlet 1: gemlist;
#X text 29 77 Description: make dotty images;
#X text 64 232 Inlet 2: float: size of the dots;
#X text 516 105 open an image;
#X text 509 118 (JPEG \, TIFF \, ..);
#X text 34 94 [pix_dot] will simplify an image \, as the image will be segmented and each segment will be represented by a white dot \, whose size is relative to the luminance of the original segment.;
#X text 63 166 <size>;
#N canvas 484 243 450 300 META 0;
#X obj 10 25 declare -lib Gem;
#X text 10 45 DESCRIPTION make dotty images;
#X text 10 65 KEYWORDS Gem pix image;
#X text 20 85 INLET_0 gemlist;
#X text 20 105 INLET_1 float;
#X text 20 125 OUTLET_0 gemlist;
#X text 10 145 AUTHOR IOhannes m zmölnig;
#X text 10 165 LICENSE GPL v2;
#X restore 518 8 pd META;
#X obj 523 260 _gemwin;
#X obj 451 233 _pix2rectangle 3;
#X connect 11 0 16 0;
#X connect 14 0 28 0;
#X connect 15 0 16 1;
#X connect 16 0 14 0;
#X connect 17 0 14 1;
