#N canvas 224 257 586 422 12;
#X msg 116 114 gemList;
#X msg 116 196 gemList;
#X text 169 16 part of GEM;
#X text 176 43 [pix_rgb2hsv];
#X obj 116 153 pix_rgb2hsv;
#X text 24 232 [pix_rgb2hsv] will (virtually) transform an RGB(red
\, green \, blue)-Image into the HSV (hue \, saturation \, value) color-space.
;
#X text 29 286 This might enable simpler colour-detection...;
#X text 28 318 On the technical (internal) side \, the image still
stays RGBA. The Red-channel is filled with Hue-values....;
#X text 121 376 see also:;
#X obj 214 374 pix_hsv2rgb;
#X text 151 73 convert RGB to HSV;
#X connect 0 0 4 0;
#X connect 4 0 1 0;
