#N canvas 349 193 612 500 12;
#X msg 164 99 gemList;
#X msg 164 223 gemList;
#X text 169 16 part of GEM;
#X obj 164 188 pix_offset;
#X msg 265 103 RGB;
#X msg 271 140 R G B A;
#X msg 275 168 R G B;
#X text 175 43 [pix_offset];
#X text 76 73 add an offset to each color-channel;
#X text 53 278 When adding an offset to each color-channel \, no clipping
is done. Thus you can wrap around the color-space.;
#X text 37 322 (adding "1 0 0" to "0.5 1 1" will result in "0.5 1 1"
instead of "1 1 1");
#X connect 0 0 3 0;
#X connect 3 0 1 0;
#X connect 4 0 3 1;
#X connect 5 0 3 2;
#X connect 6 0 3 2;
