#N canvas 343 266 1044 575 10;
#X obj 40 309 gemwin;
#X msg 47 133 create;
#X msg 62 167 1;
#X msg 71 202 0;
#X obj 346 30 gemhead;
#X msg 112 243 destroy;
#X text 102 169 turn on/off rendering;
#N canvas 95 194 292 181 Gem.init 0;
#X obj 83 30 loadbang;
#X msg 161 76 reset;
#X obj 134 146 outlet;
#X obj 88 51 t b b;
#X msg 45 75 dimen 400 400;
#X connect 0 0 3 0;
#X connect 1 0 2 0;
#X connect 3 0 4 0;
#X connect 3 1 1 0;
#X connect 4 0 2 0;
#X restore 88 292 pd Gem.init;
#X msg 503 93 freq 1234;
#X msg 505 164 dimen 256 256;
#X msg 505 184 dimen 64 64;
#X msg 501 16 mode NTSC;
#X msg 502 42 channel 2;
#X obj 346 331 rectangle 4 3;
#X msg 505 144 dimen 256 128;
#X obj 346 307 pix_texture;
#X text 583 37 depending on your capture-device you can switch between
(e.g) Tuner \, COMPOSITE & S-VHS;
#X text 571 17 defaults to PAL;
#X text 581 95 set the frequency for the TV-Tuner;
#X text 620 148 various dimension (might not work on your specific
capture-device);
#X text 623 225 could be RGBA \, YUV or Grey;
#X msg 508 266 device 0;
#X msg 508 296 driver 0;
#X text 605 266 switch between capture-cards;
#X text 606 293 switch between drivers (e.g: v4l and ieee1394);
#X msg 508 357 enumerate;
#X text 606 356 list all devices to the console;
#X msg 514 399 dialog;
#X msg 508 323 quality 5;
#X text 607 322 set quality of e.g. dv input;
#X text 40 -10 pix_video:;
#X text 44 413 SGI only:;
#X text 70 436 swap 1/0 : swap upside down;
#X text 69 453 offset x y : set the x y offset of the captured frame
;
#X msg 505 225 colorspace RGBA;
#X obj 346 251 pix_video;
#X text 590 401 configure the device via a pop-up dialog (on w32 and
os-X);
#X text 35 512 NOTE: not all messages might currently work on your
operating-system.;
#X connect 1 0 0 0;
#X connect 2 0 0 0;
#X connect 3 0 0 0;
#X connect 4 0 35 0;
#X connect 5 0 0 0;
#X connect 7 0 0 0;
#X connect 8 0 35 0;
#X connect 9 0 35 0;
#X connect 10 0 35 0;
#X connect 11 0 35 0;
#X connect 12 0 35 0;
#X connect 14 0 35 0;
#X connect 15 0 13 0;
#X connect 21 0 35 0;
#X connect 22 0 35 0;
#X connect 25 0 35 0;
#X connect 27 0 35 0;
#X connect 28 0 35 0;
#X connect 34 0 35 0;
#X connect 35 0 15 0;
