#N canvas 22 61 638 358 10;
#X declare -lib Gem;
#X text 452 8 GEM object;
#X obj 8 216 cnv 15 430 125 empty empty empty 20 12 0 14 #e0e0e0 #404040 0;
#X text 39 218 Inlets:;
#X text 39 310 Outlets:;
#X obj 8 176 cnv 15 430 30 empty empty empty 20 12 0 14 #bcbcbc #404040 0;
#X text 17 175 Arguments:;
#X obj 8 76 cnv 15 430 90 empty empty empty 20 12 0 14 #e0e0e0 #404040 0;
#X obj 449 77 cnv 15 170 250 empty empty empty 20 12 0 14 #dce4fc #404040 0;
#X text 453 60 Example:;
#X obj 514 254 cnv 15 100 60 empty empty empty 20 12 0 14 #bcbcbc #404040 0;
#X obj 450 136 cnv 15 160 80 empty empty empty 20 12 0 14 #14e814 #404040 0;
#X obj 451 84 gemhead;
#X text 71 31 Class: pix object;
#X obj 510 85 bng 15 250 50 0 empty empty pix_load 20 8 0 8 #fcfcfc #000000 #000000;
#N canvas 0 22 587 366 image 0;
#X obj 77 48 inlet;
#X obj 77 344 outlet;
#X obj 77 205 pix_image examples/data/fractal.JPG;
#X obj 223 55 inlet;
#X msg 223 123 open \$1;
#X obj 223 100 openpanel;
#X text 231 37 open;
#X text 79 30 gemlist;
#X connect 0 0 2 0;
#X connect 2 0 1 0;
#X connect 3 0 5 0;
#X connect 4 0 2 0;
#X connect 5 0 4 0;
#X restore 451 113 pd image;
#X text 63 186 <stride>;
#X text 57 323 Outlet 1: gemlist;
#X text 63 232 Inlet 1: gemlist;
#X obj 460 158 tgl 15 0 empty empty mode 20 8 0 8 #fcfcfc #000000 #000000 0 1;
#X text 29 77 Description: random dot stereogram for luminance;
#X text 34 96 [pix_rds] produces b/w random dot stereograms (aka: the magic eye (tm)) for either cross-eyed and wall-eyed viewers. Wall-eyed is basically an invertation (front becomes back) of cross-eyed.;
#X text 516 105 open an image;
#X text 509 118 (JPEG \, TIFF \, ..);
#X text 50 12 Synopsis: [pix_rds];
#X msg 460 177 method \$1;
#X obj 451 196 pix_rds;
#X floatatom 495 139 5 10 100 1 stride - - 0;
#X text 63 245 Inlet 1: method [0|1] (crosseyed|walleyed);
#X text 63 259 Inlet 1: stride <int> distance (default:40);
#N canvas 484 243 450 300 META 0;
#X obj 10 25 declare -lib Gem;
#X text 10 45 DESCRIPTION random dot stereogram for luminance;
#X text 10 65 KEYWORDS Gem pix image;
#X text 20 85 INLET_0 gemlist method stride;
#X text 20 105 OUTLET_0 gemlist;
#X text 10 125 AUTHOR IOhannes m zmölnig;
#X text 10 145 LICENSE GPL v2;
#X restore 518 8 pd META;
#X obj 451 223 _pix2rectangle 3;
#X obj 519 261 _gemwin;
#X connect 11 0 14 0;
#X connect 13 0 14 1;
#X connect 14 0 25 0;
#X connect 18 0 24 0;
#X connect 24 0 25 0;
#X connect 25 0 30 0;
#X connect 26 0 25 1;
