#N canvas 473 61 654 372 10;
#X declare -lib Gem;
#X text 452 8 GEM object;
#X obj 8 185 cnv 15 430 80 empty empty empty 20 12 0 14 #e0e0e0 #404040 0;
#X text 19 183 Inlets:;
#X text 18 210 Outlets:;
#X obj 8 146 cnv 15 430 30 empty empty empty 20 12 0 14 #bcbcbc #404040 0;
#X text 17 145 Arguments:;
#X obj 7 76 cnv 15 430 55 empty empty empty 20 12 0 14 #e0e0e0 #404040 0;
#X obj 449 77 cnv 15 170 280 empty empty empty 20 12 0 14 #dce4fc #404040 0;
#X text 453 60 Example:;
#X obj 454 294 cnv 15 100 60 empty empty empty 20 12 0 14 #bcbcbc #404040 0;
#X obj 450 141 cnv 15 160 65 empty empty empty 20 12 0 14 #14e814 #404040 0;
#X obj 451 84 gemhead;
#X text 71 31 Class: pix object;
#X obj 510 85 bng 15 250 50 0 empty empty pix_load 20 8 0 8 #fcfcfc #000000 #000000;
#N canvas 0 0 587 366 image 0;
#X obj 77 48 inlet;
#X obj 77 344 outlet;
#X obj 77 205 pix_image examples/data/fractal.JPG;
#X obj 223 55 inlet;
#X msg 223 123 open \$1;
#X obj 223 100 openpanel;
#X obj 77 290 pix_buf;
#X msg 99 267 auto 1;
#X obj 99 246 loadbang;
#X connect 0 0 2 0;
#X connect 2 0 6 0;
#X connect 3 0 5 0;
#X connect 4 0 2 0;
#X connect 5 0 4 0;
#X connect 6 0 1 0;
#X connect 7 0 6 0;
#X connect 8 0 7 0;
#X restore 451 113 pd image;
#X text 63 156 <none>;
#X text 36 223 Outlet 1: gemlist;
#X text 43 197 Inlet 1: gemlist;
#X text 516 105 open an image;
#X text 509 118 (JPEG \, TIFF \, ..);
#X obj 451 146 pix_mean_color;
#X text 50 12 Synopsis: [pix_mean_color];
#X text 15 77 Description: get the mean color of the current image;
#X text 22 93 Calculates the average color of the current image and outputs it as RGBA values.;
#X obj 476 166 t l l;
#X obj 514 166 unpack 0 0 0 0;
#X obj 550 269 square 1;
#X obj 550 231 gemhead;
#X obj 550 250 color;
#X floatatom 514 186 3 0 0 0 - - - 0;
#X floatatom 537 186 3 0 0 0 - - - 0;
#X floatatom 560 186 3 0 0 0 - - - 0;
#X floatatom 583 186 3 0 0 0 - - - 0;
#X obj 451 208 translateXYZ 0 2 0;
#X text 36 239 Outlet 2: <f:Red> <f:Green> <f:Blue> <f:Alpha>: the mean color of the image;
#N canvas 484 243 450 300 META 0;
#X obj 10 25 declare -lib Gem;
#X text 10 45 DESCRIPTION get the mean color of the current image;
#X text 10 65 KEYWORDS Gem pix image;
#X text 20 85 INLET_0 gemlist;
#X text 20 105 OUTLET_0 gemlist;
#X text 20 125 OUTLET_1 <f;
#X text 10 145 AUTHOR IOhannes m zmölnig;
#X text 10 165 LICENSE GPL v2;
#X restore 518 8 pd META;
#X obj 457 300 _gemwin;
#X obj 451 233 _pix2rectangle;
#X connect 11 0 14 0;
#X connect 13 0 14 1;
#X connect 14 0 20 0;
#X connect 20 0 33 0;
#X connect 20 1 24 0;
#X connect 24 0 28 1;
#X connect 24 1 25 0;
#X connect 25 0 29 0;
#X connect 25 1 30 0;
#X connect 25 2 31 0;
#X connect 25 3 32 0;
#X connect 27 0 28 0;
#X connect 28 0 26 0;
#X connect 33 0 37 0;
