#N canvas 718 455 510 304 10;
#X text 26 13 pix_scanline manipulates each row of an image by either
removing or duplicating them. this can be used an image resoltion decimator
in mode 0 or as an interlacer in mode 1;
#X obj 48 256 pix_scanline;
#X msg 48 153 mode \$1;
#X text 124 147 mode 0 = duplicate mode 1 = draw only;
#X floatatom 127 204 5 0 0 0 - - -;
#X text 179 202 the number of lines to duplicate or the number of lines
to skip between drawing;
#X connect 2 0 1 0;
#X connect 4 0 1 1;
