#N canvas 117 177 635 396 10;
#X declare -lib Gem;
#X text 452 8 GEM object;
#X obj 8 196 cnv 15 430 120 empty empty empty 20 12 0 14 #e0e0e0 #404040 0;
#X text 39 198 Inlets:;
#X text 39 246 Outlets:;
#X obj 8 158 cnv 15 430 30 empty empty empty 20 12 0 14 #bcbcbc #404040 0;
#X text 17 157 Arguments:;
#X obj 8 76 cnv 15 430 75 empty empty empty 20 12 0 14 #e0e0e0 #404040 0;
#X obj 449 77 cnv 15 170 250 empty empty empty 20 12 0 14 #dce4fc #404040 0;
#X text 453 60 Example:;
#X obj 514 254 cnv 15 100 60 empty empty empty 20 12 0 14 #bcbcbc #404040 0;
#X obj 450 158 cnv 15 160 60 empty empty empty 20 12 0 14 #14e814 #404040 0;
#X obj 451 84 gemhead;
#X text 71 31 Class: pix object;
#X obj 510 85 bng 15 250 50 0 empty empty pix_load 20 8 0 8 #fcfcfc #000000 #000000;
#N canvas 0 0 587 366 image 0;
#X obj 77 48 inlet;
#X obj 77 344 outlet;
#X obj 77 205 pix_image examples/data/fractal.JPG;
#X obj 223 55 inlet;
#X msg 223 123 open \$1;
#X obj 223 100 openpanel;
#X connect 0 0 2 0;
#X connect 2 0 1 0;
#X connect 3 0 5 0;
#X connect 4 0 2 0;
#X connect 5 0 4 0;
#X restore 451 113 pd image;
#X text 63 168 <none>;
#X text 516 105 open an image;
#X text 509 118 (JPEG \, TIFF \, ..);
#X text 29 77 Description: detects color classes in an image;
#X obj 8 324 cnv 15 430 30 empty empty empty 20 12 0 14 #bcbcbc #404040 0;
#X text 16 323 See Also:;
#X text 62 334 examples/04.video/08.color_detection.pd;
#X text 56 212 Inlet 1: gemlist \, RGBA image;
#X text 57 232 Inlet 2: whether to output unreliable guesses (todo);
#X text 57 259 Outlet 1: gemlist \, RGBA image with encoded color class representatives for each pixel: red [1 0 0] \, green [0 1 0] \, blue [0 0 1] \, yellow [1 1 0] \, black [0 0 0] \, white [1 1 1] \, unsure [154/255 \, 115/255 \, 86/255];
#X obj 451 180 pix_colorclassify;
#X text 16 357 Author: Ricardo Fabbri labmacambira.sf.net rfabbri at gmail;
#X text 42 95 [pix_colorclassify] will detect colors in a pixImage \, classifying each pixel into 6 classes: red \, green \, blue \, yellow \, black \, white \, or 'uncertain'. It will only detect a color if it is unambiguous.;
#X text 50 12 Synopsis: [pix_colorclassify];
#N canvas 484 243 450 300 META 0;
#X obj 10 25 declare -lib Gem;
#X text 10 45 DESCRIPTION detects color classes in an image;
#X text 10 65 KEYWORDS Gem pix image;
#X text 20 85 INLET_0 gemlist RGBA;
#X text 20 105 INLET_1 bool;
#X text 20 125 OUTLET_0 gemlist;
#X text 10 145 AUTHOR IOhannes m zmölnig;
#X text 10 165 LICENSE GPL v2;
#X restore 518 8 pd META;
#X obj 521 258 _gemwin;
#X obj 451 233 _pix2rectangle 3;
#X connect 11 0 14 0;
#X connect 13 0 14 1;
#X connect 14 0 25 0;
#X connect 25 0 31 0;
#X coords 0 0 1 1 85 60 0;
