#N canvas 477 283 641 360 10;
#X declare -lib Gem;
#X text 452 8 GEM object;
#X obj 8 245 cnv 15 430 80 empty empty empty 20 12 0 14 #e0e0e0 #404040 0;
#X text 39 248 Inlets:;
#X text 38 295 Outlets:;
#X obj 8 206 cnv 15 430 30 empty empty empty 20 12 0 14 #bcbcbc #404040 0;
#X text 17 205 Arguments:;
#X obj 7 76 cnv 15 430 125 empty empty empty 20 12 0 14 #e0e0e0 #404040 0;
#X obj 449 77 cnv 15 170 250 empty empty empty 20 12 0 14 #dce4fc #404040 0;
#X text 453 60 Example:;
#X obj 514 284 cnv 15 100 60 empty empty empty 20 12 0 14 #bcbcbc #404040 0;
#X obj 450 138 cnv 15 160 110 empty empty empty 20 12 0 14 #14e814 #404040 0;
#X obj 451 84 gemhead;
#X text 71 31 Class: pix object;
#X text 63 216 <flipmode>;
#X text 56 308 Outlet 1: gemlist;
#X text 63 262 Inlet 1: gemlist;
#X text 50 12 Synopsis: [pix_color];
#X msg 514 146 none;
#X msg 514 166 horizontal;
#X msg 514 186 vertical;
#X msg 514 206 both;
#X text 29 76 Description: flips the image along an axis;
#X text 19 117 pix_flip flips an image either horizontally \, vertically \, or both \, depending on the message that it receives.;
#X text 20 153 It defaults to none;
#X text 63 275 Inlet 1: none|horizontal|vertical|both;
#X obj 451 226 pix_flip;
#N canvas 484 243 450 300 META 0;
#X obj 10 25 declare -lib Gem;
#X text 10 45 DESCRIPTION flips the image along an axis;
#X text 10 65 KEYWORDS Gem pix image;
#X text 20 85 INLET_0 gemlist none horizontal vertical both;
#X text 20 105 OUTLET_0 gemlist;
#X text 10 125 AUTHOR IOhannes m zmölnig;
#X text 10 145 LICENSE GPL v2;
#X restore 518 8 pd META;
#X obj 520 292 _gemwin;
#X obj 451 253 _pix2rectangle 3;
#X obj 451 113 pix_test;
#X connect 11 0 29 0;
#X connect 17 0 25 0;
#X connect 18 0 25 0;
#X connect 19 0 25 0;
#X connect 20 0 25 0;
#X connect 25 0 28 0;
#X connect 29 0 25 0;
