#N canvas 0 0 654 413 10;
#X text 452 8 GEM object;
#X obj 8 255 cnv 15 430 80 empty empty empty 20 12 0 14 -233017 -66577
0;
#X text 39 258 Inlets:;
#X text 38 305 Outlets:;
#X obj 8 216 cnv 15 430 30 empty empty empty 20 12 0 14 -195568 -66577
0;
#X text 17 215 Arguments:;
#X obj 7 76 cnv 15 430 125 empty empty empty 20 12 0 14 -233017 -66577
0;
#X obj 449 77 cnv 15 170 250 empty empty empty 20 12 0 14 -228992 -66577
0;
#X text 453 60 Example:;
#X obj 514 254 cnv 15 100 60 empty empty empty 20 12 0 14 -195568 -66577
0;
#N canvas 0 0 450 300 gemwin 0;
#X obj 132 136 gemwin;
#X obj 67 89 outlet;
#X obj 67 10 inlet;
#X obj 67 41 route create;
#X msg 67 70 set destroy;
#X msg 142 68 set create;
#X msg 132 112 create \, 1;
#X msg 198 112 destroy;
#X connect 2 0 3 0;
#X connect 3 0 4 0;
#X connect 3 0 6 0;
#X connect 3 1 5 0;
#X connect 3 1 7 0;
#X connect 4 0 1 0;
#X connect 5 0 1 0;
#X connect 6 0 0 0;
#X connect 7 0 0 0;
#X restore 519 293 pd gemwin;
#X msg 519 274 create;
#X text 515 253 Create window:;
#X obj 450 158 cnv 15 160 60 empty empty empty 20 12 0 14 -24198 -66577
0;
#X obj 451 84 gemhead;
#X text 63 226 <none>;
#X text 56 318 Outlet 1: gemlist;
#X text 63 272 Inlet 1: gemlist;
#X obj 451 233 pix_draw;
#X obj 451 196 pix_image;
#X obj 467 116 bng 15 250 50 0 empty empty empty 0 -6 0 8 -262144 -1
-1;
#N canvas 0 0 450 300 openpanel 0;
#X obj 114 62 inlet;
#X obj 121 254 outlet;
#X obj 114 125 openpanel;
#X msg 114 162 set open \$1;
#X obj 114 199 t b a;
#X connect 0 0 2 0;
#X connect 2 0 3 0;
#X connect 3 0 4 0;
#X connect 4 0 1 0;
#X connect 4 1 1 0;
#X restore 467 137 pd openpanel;
#X msg 467 165 open somefile.jpg;
#X text 63 285 Inlet 1: open <filename>;
#X text 29 76 Description: loads in an image file;
#X text 50 12 Synopsis: [pix_image];
#X text 71 31 Class: pix source;
#X text 21 143 pix_image only loads in TIFF files. This is because
gem uses Sam Leffler's libtiff library \, a great \, portable image
file reading and processing package (Thanks Sam!).;
#X text 22 94 pix_image loads in an image to be used a texture \, bitblit
\, or something else. If you don't give it a default image file \,
you can send the open message with a filename.;
#X connect 10 0 11 0;
#X connect 11 0 10 0;
#X connect 14 0 19 0;
#X connect 19 0 18 0;
#X connect 20 0 21 0;
#X connect 21 0 22 0;
#X connect 22 0 19 0;
