#N canvas 473 61 629 372 10;
#X declare -lib Gem;
#X text 452 8 GEM object;
#X obj 8 245 cnv 15 430 80 empty empty empty 20 12 0 14 #e0e0e0 #404040 0;
#X text 39 248 Inlets:;
#X text 38 295 Outlets:;
#X obj 8 206 cnv 15 430 30 empty empty empty 20 12 0 14 #bcbcbc #404040 0;
#X text 17 205 Arguments:;
#X obj 7 76 cnv 15 430 125 empty empty empty 20 12 0 14 #e0e0e0 #404040 0;
#X obj 449 77 cnv 15 170 250 empty empty empty 20 12 0 14 #dce4fc #404040 0;
#X text 453 60 Example:;
#X obj 514 254 cnv 15 100 60 empty empty empty 20 12 0 14 #bcbcbc #404040 0;
#X obj 450 135 cnv 15 160 90 empty empty empty 20 12 0 14 #14e814 #404040 0;
#X obj 451 84 gemhead;
#X text 71 31 Class: pix object;
#X text 63 216 <colorspace>;
#X text 56 308 Outlet 1: gemlist;
#X text 63 262 Inlet 1: gemlist;
#X text 22 93 Images can be stored in various formats/color-spaces.;
#X text 62 339 see also:;
#X obj 205 338 pix_yuv;
#X obj 138 338 pix_grey;
#X text 22 107 GREY-scale images have no color-component \, while YUV is missing the Alpha-channel.;
#X text 19 133 Traditionally \, RGBA is the native colour-space of Gem \, although it is quite CPU-consumptive.;
#X obj 451 206 pix_convert;
#X msg 477 183 color \$1;
#X obj 477 163 symbol;
#X msg 477 141 grey;
#X msg 514 141 YUV;
#X msg 546 141 RGBA;
#X text 50 12 Synopsis: [pix_convert];
#X text 15 77 Description: convert the colorspace of an image;
#X obj 265 338 pix_rgba;
#X text 63 276 Inlet 1: color <symbol> :: colorspace to convert to;
#X text 19 159 You can use [pix_convert] to convert images of any format into a format you can choose.;
#N canvas 484 243 450 300 META 0;
#X obj 10 25 declare -lib Gem;
#X text 10 45 DESCRIPTION convert the colorspace of an image;
#X text 10 65 KEYWORDS Gem pix image;
#X text 20 85 INLET_0 gemlist color;
#X text 20 105 OUTLET_0 gemlist;
#X text 10 125 AUTHOR IOhannes m zmölnig;
#X text 10 145 LICENSE GPL v2;
#X restore 518 8 pd META;
#X obj 451 233 _pix2rectangle 3;
#X obj 451 113 pix_test;
#X obj 521 260 _gemwin;
#X connect 11 0 35 0;
#X connect 22 0 34 0;
#X connect 23 0 22 0;
#X connect 24 0 23 0;
#X connect 25 0 24 0;
#X connect 26 0 24 0;
#X connect 27 0 24 0;
#X connect 35 0 22 0;
