#N canvas 18 285 916 372 10;
#X text 452 8 GEM object;
#X obj 8 196 cnv 15 430 120 empty empty empty 20 12 0 14 -233017 -66577
0;
#X text 39 198 Inlets:;
#X text 39 259 Outlets:;
#X obj 8 156 cnv 15 430 30 empty empty empty 20 12 0 14 -195568 -66577
0;
#X text 17 155 Arguments:;
#X obj 8 76 cnv 15 430 75 empty empty empty 20 12 0 14 -233017 -66577
0;
#X obj 449 77 cnv 15 170 250 empty empty empty 20 12 0 14 -228992 -66577
0;
#X text 453 60 Example:;
#X obj 514 254 cnv 15 100 60 empty empty empty 20 12 0 14 -195568 -66577
0;
#N canvas 0 0 450 300 gemwin 0;
#X obj 132 136 gemwin;
#X obj 67 89 outlet;
#X obj 67 10 inlet;
#X obj 67 41 route create;
#X msg 67 70 set destroy;
#X msg 142 68 set create;
#X msg 132 112 create \, 1;
#X msg 198 112 destroy;
#X connect 2 0 3 0;
#X connect 3 0 4 0;
#X connect 3 0 6 0;
#X connect 3 1 5 0;
#X connect 3 1 7 0;
#X connect 4 0 1 0;
#X connect 5 0 1 0;
#X connect 6 0 0 0;
#X connect 7 0 0 0;
#X restore 519 293 pd gemwin;
#X msg 519 274 create;
#X text 515 253 Create window:;
#X obj 450 158 cnv 15 160 60 empty empty empty 20 12 0 14 -24198 -66577
0;
#X obj 451 84 gemhead;
#X text 71 31 Class: pix object;
#X obj 510 85 bng 15 250 50 0 empty empty pix_load 20 8 0 8 -262144
-1 -1;
#N canvas 0 0 587 366 image 0;
#X obj 77 48 inlet;
#X obj 77 344 outlet;
#X obj 77 205 pix_image examples/data/fractal.JPG;
#X obj 223 55 inlet;
#X msg 223 123 open \$1;
#X obj 223 100 openpanel;
#X connect 0 0 2 0;
#X connect 2 0 1 0;
#X connect 3 0 5 0;
#X connect 4 0 2 0;
#X connect 5 0 4 0;
#X restore 451 113 pd image;
#X obj 451 233 pix_texture;
#X text 63 166 <none>;
#X text 57 272 Outlet 1: gemlist;
#X text 63 212 Inlet 1: gemlist;
#X obj 451 255 square 3;
#X text 516 105 open an image;
#X text 509 118 (JPEG \, TIFF \, ..);
#X text 50 12 Synopsis: [pix_colordetect];
#X text 29 77 Description: detects color classes in an image;
#X text 42 95 [pix_colorreduce] will detect colors in a pixImage \,
classifying each pixel into 6 classes: red \, green \, blue \, yellow
\, black \, white \, or 'uncertain'. It will only detect a color if
it is unambiguous.;
#X text 64 232 Inlet 2: whether to output guesses (todo);
#X text 64 247;
#X text 64 239;
#X obj 451 196 pix_colordetect;
#X connect 10 0 11 0;
#X connect 11 0 10 0;
#X connect 14 0 17 0;
#X connect 16 0 17 1;
#X connect 17 0 31 0;
#X connect 18 0 22 0;
#X connect 31 0 18 0;
