#N canvas 19 61 654 413 10;
#X declare -lib Gem;
#X text 452 8 GEM object;
#X obj 9 265 cnv 15 430 135 empty empty empty 20 12 0 14 #e0e0e0 #404040 0;
#X text 40 267 Inlets:;
#X text 39 352 Outlets:;
#X obj 9 227 cnv 15 430 30 empty empty empty 20 12 0 14 #bcbcbc #404040 0;
#X text 18 226 Arguments:;
#X obj 8 56 cnv 15 430 165 empty empty empty 20 12 0 14 #e0e0e0 #404040 0;
#X obj 449 77 cnv 15 200 280 empty empty empty 20 12 0 14 #dce4fc #404040 0;
#X text 453 60 Example:;
#X obj 536 293 cnv 15 100 60 empty empty empty 20 12 0 14 #bcbcbc #404040 0;
#X obj 451 179 cnv 15 155 70 empty empty empty 20 12 0 14 #14e814 #404040 0;
#X obj 451 83 gemhead;
#X text 17 366 Outlet 1: gemlist;
#X text 24 281 Inlet 1: gemlist;
#X obj 451 151 pix_film;
#X obj 515 151 t f;
#X obj 464 103 bng 25 250 50 0 empty empty empty 0 -6 0 8 #fcfcfc #000000 #000000;
#N canvas 0 0 450 300 open 0;
#X obj 85 49 inlet;
#X obj 85 237 outlet;
#X obj 85 145 openpanel;
#X msg 85 179 open \$1;
#X msg 259 213 auto 1;
#X obj 268 179 loadbang;
#X connect 0 0 2 0;
#X connect 2 0 3 0;
#X connect 3 0 1 0;
#X connect 4 0 1 0;
#X connect 5 0 4 0;
#X restore 464 131 pd open;
#X text 505 77 open a supported;
#X text 506 88 movie-clip;
#X text 523 114 macOS: quicktime;
#X text 516 104 MS Windows: *.AVI;
#X text 523 124 linux: depends...;
#X floatatom 560 196 3 0 9 2 index - - 0;
#X text 50 12 Synopsis: [pix_buffer_write];
#X text 71 31 Class: pix object;
#X obj 451 222 pix_buffer_write depot;
#X text 24 320 Inlet 2: int: index in the named pix_buffer.;
#X msg 464 192 set depot2;
#X text 11 79 [pix_buffer_write] writes an image into a named buffer created by the [pix_buffer] object. When the index of the frame in the buffer is passed via the second inlet to [pix_buffer_write] \, the NEXT incoming image will be written to the buffer \, and the internal state is reset. You have to re-set the index to write again.;
#X text 64 237 list: <buffer_name>;
#X text 24 295 Inlet 1: message: set <buffer_name>: write to another buffer.;
#X text 440 363 see also:;
#X obj 508 382 pix_buffer_read;
#X obj 507 362 pix_buffer depot2 1;
#X text 29 57 Description: write images to a [pix_buffer];
#N canvas 484 243 450 300 META 0;
#X obj 10 25 declare -lib Gem;
#X text 10 45 DESCRIPTION write images to a [pix_buffer];
#X text 10 65 KEYWORDS Gem pix image;
#X text 20 85 INLET_0 gemlist set;
#X text 20 105 INLET_1 int;
#X text 20 125 OUTLET_0 gemlist;
#X text 10 145 AUTHOR IOhannes m zmölnig;
#X text 10 165 LICENSE GPL v2;
#X restore 548 8 pd META;
#X obj 541 298 _gemwin;
#X obj 451 252 translate 2 0 1 0;
#X obj 451 272 _pix2rectangle 1.9;
#X connect 11 0 14 0;
#X connect 14 0 26 0;
#X connect 14 2 15 0;
#X connect 15 0 14 1;
#X connect 16 0 17 0;
#X connect 17 0 14 0;
#X connect 23 0 26 1;
#X connect 26 0 38 0;
#X connect 28 0 26 0;
#X connect 38 0 39 0;
