#N canvas 128 100 612 585 12;
#X msg 122 72 gemList;
#X msg 122 169 gemList;
#X text 83 44 get a video signal;
#X text 36 216 There are a group of messages that can be used to control
the camera (especially to create an image with dimensions a power of
2!);
#X text 32 288 dimen x y : set the x y dimensions in pixels;
#X obj 122 122 pix_video;
#X text 9 329 SGI only:;
#X text 35 352 swap 1/0 : swap upside down;
#X text 35 374 offset x y : set the x y offset of the captured frame
;
#X text 8 411 linux only:;
#X text 36 428 freq <freq> : set the frequency of the tuner (so you
can watch TV);
#X text 36 474 mode <norm> <channel> : set the TV-norm of your system
("PAL" or "NTSC") and the channel you want to capture from (have a
look at the stderr: you can select things like tuner (0) \, composite-in
(1) \, svhs-in (2) \, ... depending on your hardware;
#X text 121 26 [pix_video];
#X connect 0 0 5 0;
#X connect 5 0 1 0;
