#N canvas 343 0 665 538 10;
#X text 452 8 GEM object;
#X obj 7 356 cnv 15 430 100 empty empty empty 20 12 0 14 -233017 -66577
0;
#X text 11 358 Inlets:;
#X text 11 418 Outlets:;
#X obj 8 320 cnv 15 430 30 empty empty empty 20 12 0 14 -195568 -66577
0;
#X text 17 322 Arguments:;
#X obj 8 56 cnv 15 430 260 empty empty empty 20 12 0 14 -233017 -66577
0;
#X text 451 68 Example:;
#X text 71 31 Class: pix object;
#X text 29 431 Outlet 1: gemlist;
#X text 22 376 Inlet 1: gemlist;
#X obj 452 217 cnv 15 160 55 empty empty empty 20 12 0 14 -24198 -66577
0;
#X obj 13 462 cnv 15 410 30 empty empty empty 20 12 0 14 -260818 -66577
0;
#X text 50 12 Synopsis: [pix_freeframe];
#X text 63 333 <symbol>: the plugin to load;
#X text 13 72 This object allows you to load any FreeFrame video-effect.
FreeFrame is an open \, cross-platform (osX \, linux \, w32) standard
for realtime video effects.;
#X text 15 463 You can get more information as well as links to public
domain and commercial plugin-packs at http://freeframe.org;
#X text 15 195 Most plugins have a number of parameters which you can
use to change the behaviour of the effect while it runs. For each parameter
exposed \, the [pix_freeframe] object will get one additional inlet
\, which can be used to modify the given parameter. (FreeFrame numeric
parameters usually are in the range 0..1);
#X text 22 393 Inlet 2..N: <type>: depending on the settable parameter
;
#X msg 455 196 gemList;
#X msg 455 280 gemList;
#X text 16 279 Plugins are searched in all the paths that pd searches
for abstractions \, ...!;
#X floatatom 572 226 5 0 0 0 - - -;
#X obj 455 249 pix_freeframe blurVXF;
#X obj 464 226 hsl 100 15 0 1 0 0 empty empty empty -2 -6 0 8 -262144
-1 -1 0 1;
#X text 12 112 Currently \, you have to specify the plugin you want
to load as object argument. You cannot change the loaded plugin \,
once the object is instantiated. If the object fails to load (e.g.
because the plugin-file is not there or invalid) \, the [pix_freeframe]
object will fail to instantiate.;
#X text 28 56 Description: run a FreeFrame effect;
#X connect 19 0 23 0;
#X connect 22 0 23 1;
#X connect 23 0 20 0;
#X connect 24 0 22 0;
