#N canvas 4 320 683 381 10;
#X text 452 8 GEM object;
#X obj 8 226 cnv 15 430 120 empty empty empty 20 12 0 14 -233017 -66577
0;
#X text 34 236 Inlets:;
#X text 34 292 Outlets:;
#X obj 8 186 cnv 15 430 30 empty empty empty 20 12 0 14 -195568 -66577
0;
#X text 17 185 Arguments:;
#X obj 8 66 cnv 15 430 110 empty empty empty 20 12 0 14 -233017 -66577
0;
#X obj 448 66 cnv 15 170 280 empty empty empty 20 12 0 14 -228992 -66577
0;
#X text 452 49 Example:;
#X obj 513 279 cnv 15 100 60 empty empty empty 20 12 0 14 -195568 -66577
0;
#N canvas 0 22 450 300 gemwin 0;
#X obj 132 136 gemwin;
#X obj 67 89 outlet;
#X obj 67 10 inlet;
#X obj 67 41 route create;
#X msg 67 70 set destroy;
#X msg 142 68 set create;
#X msg 132 112 create \, 1;
#X msg 198 112 destroy;
#X connect 2 0 3 0;
#X connect 3 0 4 0;
#X connect 3 0 6 0;
#X connect 3 1 5 0;
#X connect 3 1 7 0;
#X connect 4 0 1 0;
#X connect 5 0 1 0;
#X connect 6 0 0 0;
#X connect 7 0 0 0;
#X restore 518 318 pd gemwin;
#X msg 518 299 create;
#X text 514 278 Create window:;
#X obj 450 157 cnv 15 160 80 empty empty empty 20 12 0 14 -24198 -66577
0;
#X obj 450 108 gemhead;
#X obj 501 91 bng 15 250 50 0 empty empty pix_load 20 8 0 8 -262144
-1 -1;
#N canvas 0 22 587 366 image 0;
#X obj 77 48 inlet;
#X obj 77 344 outlet;
#X obj 77 205 pix_image examples/data/fractal.JPG;
#X obj 223 55 inlet;
#X msg 223 123 open \$1;
#X obj 223 100 openpanel;
#X connect 0 0 2 0;
#X connect 2 0 1 0;
#X connect 3 0 5 0;
#X connect 4 0 2 0;
#X connect 5 0 4 0;
#X restore 450 127 pd image;
#X obj 450 252 pix_texture;
#X text 63 196 <none>;
#X text 42 306 Outlet 1: gemlist;
#X text 48 250 Inlet 1: gemlist;
#X obj 450 274 square 3;
#X text 502 77 (JPEG \, TIFF \, ..);
#X obj 540 111 gemhead;
#N canvas 0 22 587 366 image 0;
#X obj 77 48 inlet;
#X obj 77 344 outlet;
#X obj 77 205 pix_image examples/data/dancer.JPG;
#X obj 223 55 inlet;
#X msg 223 123 open \$1;
#X obj 223 100 openpanel;
#X connect 0 0 2 0;
#X connect 2 0 1 0;
#X connect 3 0 5 0;
#X connect 4 0 2 0;
#X connect 5 0 4 0;
#X restore 540 130 pd image;
#X obj 591 92 bng 15 250 50 0 empty empty pix_load 20 8 0 8 -262144
-1 -1;
#X text 48 279 Inlet 2: gemlist;
#X text 448 66 open two different images;
#X text 71 31 Class: pix mix object;
#X text 33 150 The 2 images have to be of the same size.;
#X text 50 12 Synopsis: [pix_diff];
#X text 29 67 Description: get the difference between 2 pixes;
#X text 24 94 [pix_diff] will get the absolute value of the difference
between 2 images (in contrastg to [pix_subtract]);
#X obj 450 187 pix_diff;
#X text 32 353 see also:;
#X obj 100 353 pix_subtract;
#X obj 180 353 pix_compare;
#X connect 10 0 11 0;
#X connect 11 0 10 0;
#X connect 14 0 16 0;
#X connect 15 0 16 1;
#X connect 16 0 33 0;
#X connect 17 0 21 0;
#X connect 23 0 24 0;
#X connect 24 0 33 1;
#X connect 25 0 24 1;
#X connect 33 0 17 0;
