#N canvas 207 155 629 372 10;
#X declare -lib Gem;
#X text 452 8 GEM object;
#X obj 8 245 cnv 15 430 100 empty empty empty 20 12 0 14 -233017 -66577
0;
#X text 39 248 Inlets:;
#X text 38 305 Outlets:;
#X obj 8 206 cnv 15 430 30 empty empty empty 20 12 0 14 -195568 -66577
0;
#X text 17 205 Arguments:;
#X obj 7 76 cnv 15 430 125 empty empty empty 20 12 0 14 -233017 -66577
0;
#X obj 449 77 cnv 15 170 250 empty empty empty 20 12 0 14 -228992 -66577
0;
#X text 453 60 Example:;
#X obj 514 304 cnv 15 100 60 empty empty empty 20 12 0 14 -195568 -66577
0;
#N canvas 0 50 450 300 gemwin 0;
#X obj 132 136 gemwin;
#X obj 67 89 outlet;
#X obj 67 10 inlet;
#X obj 67 41 route create;
#X msg 67 70 set destroy;
#X msg 142 68 set create;
#X msg 132 112 create \, 1;
#X msg 198 112 destroy;
#X connect 2 0 3 0;
#X connect 3 0 4 0;
#X connect 3 0 6 0;
#X connect 3 1 5 0;
#X connect 3 1 7 0;
#X connect 4 0 1 0;
#X connect 5 0 1 0;
#X connect 6 0 0 0;
#X connect 7 0 0 0;
#X restore 519 343 pd gemwin;
#X msg 519 324 create;
#X text 515 303 Create window:;
#X obj 448 158 cnv 15 160 80 empty empty empty 20 12 0 14 -24198 -66577
0;
#X obj 451 84 gemhead;
#X text 71 31 Class: pix object;
#X obj 510 85 bng 15 250 50 0 empty empty pix_load 20 8 0 8 -262144
-1 -1;
#N canvas 0 272 587 366 image 0;
#X obj 77 48 inlet;
#X obj 77 344 outlet;
#X obj 77 205 pix_image examples/data/fractal.JPG;
#X obj 223 55 inlet;
#X msg 223 123 open \$1;
#X obj 223 100 openpanel;
#X connect 0 0 2 0;
#X connect 2 0 1 0;
#X connect 3 0 5 0;
#X connect 4 0 2 0;
#X connect 5 0 4 0;
#X restore 451 113 pd image;
#X text 63 216 <none>;
#X text 56 318 Outlet 1: gemlist;
#X text 63 262 Inlet 1: gemlist;
#X text 516 105 open an image;
#X text 509 118 (JPEG \, TIFF \, ..);
#X obj 451 186 pix_dump;
#X obj 502 213 print DATA;
#X msg 487 162 bang;
#X text 29 76 Description: dump all the pixel-data of an image;
#X text 21 111 [pix_dump] will output one long list of (m*n) pixel-tuples.
;
#X text 22 142 For a RGBA-image the list will have the form:;
#X text 42 162 R1 G1 B1 A1 R2 G2 B2 A2 R3 G3 ... B(m*n) A(m*n);
#X text 63 274 Inlet 1: bang: do dump;
#X text 56 332 Outlet 2: list: dumped pixel data;
#X text 50 12 Synopsis: [pix_dump];
#X obj 530 168 tgl 15 0 empty empty empty 17 7 0 10 -262144 -1 -1 0
1;
#X obj 451 135 pix_resize 20 20;
#X obj 451 245 pix_texture;
#X obj 451 267 rectangle 3 3;
#X msg 530 186 bytemode \$1;
#X text 63 286 Inlet 1: bytemode: set normalization on or off;
#X obj 518 8 declare -lib Gem;
#X connect 10 0 11 0;
#X connect 11 0 10 0;
#X connect 14 0 17 0;
#X connect 16 0 17 1;
#X connect 17 0 34 0;
#X connect 23 0 35 0;
#X connect 23 1 24 0;
#X connect 25 0 23 0;
#X connect 33 0 37 0;
#X connect 34 0 23 0;
#X connect 35 0 36 0;
#X connect 37 0 23 0;
