#N canvas 6 61 632 462 10;
#X declare -lib Gem;
#X text 452 8 GEM object;
#X obj 8 305 cnv 15 430 120 empty empty empty 20 12 0 14 #e0e0e0 #404040 0;
#X text 39 308 Inlets:;
#X text 38 395 Outlets:;
#X obj 8 270 cnv 15 430 30 empty empty empty 20 12 0 14 #bcbcbc #404040 0;
#X text 17 269 Arguments:;
#X obj 7 76 cnv 15 430 190 empty empty empty 20 12 0 14 #e0e0e0 #404040 0;
#X obj 449 77 cnv 15 170 250 empty empty empty 20 12 0 14 #dce4fc #404040 0;
#X text 453 60 Example:;
#X obj 514 254 cnv 15 100 60 empty empty empty 20 12 0 14 #bcbcbc #404040 0;
#X obj 450 128 cnv 15 160 100 empty empty empty 20 12 0 14 #14e814 #404040 0;
#X obj 451 84 gemhead;
#X text 16 408 Outlet 1: gemlist;
#X text 23 322 Inlet 1: gemlist;
#X text 71 31 Class: pix source;
#X obj 451 196 pix_multiimage;
#X msg 467 135 open myFiles*.tif 5;
#X floatatom 544 173 3 0 5 0 image$ - - 0;
#X text 28 96 pix_multiimage loads in an image to be used a texture \, bitblit \, or something else. If you don't give it a default image file \, you can send the open message with a filename.;
#X text 26 144 The integer to select which image you want to display is selects the image starting from ZERO! This means \, to display the first image \, you need to send a 0 \, for the second image \, a 1 \, etc.;
#X text 27 202 [pix_multiimage] loads TIFF \, JPEG and PNG images.;
#X text 50 12 Synopsis: [pix_multiimage];
#X text 29 76 Description: loads in multiple image files;
#X text 63 281 <filename> (with wildcard *) for images to load;
#X text 23 335 Inlet 1: open <filename> <#> : open images (the wildcard in the filename is expanded with integer 0..#);
#X text 23 365 Inlet 2: <int> : select image (starting at 0);
#X text 456 336 see also:;
#X obj 465 359 pix_buffer;
#X obj 465 379 pix_image;
#N canvas 484 243 450 300 META 0;
#X obj 10 25 declare -lib Gem;
#X text 10 45 DESCRIPTION loads in multiple image files;
#X text 10 65 KEYWORDS Gem pix image;
#X text 20 85 INLET_0 gemlist open;
#X text 20 105 INLET_1 int;
#X text 20 125 OUTLET_0 gemlist;
#X text 10 145 AUTHOR IOhannes m zmölnig;
#X text 10 165 LICENSE GPL v2;
#X restore 518 8 pd META;
#X text 14 221 The image can be either drawn directly using [pix_draw] (VERY slow) or applied as a texture onto a Geo ([pix_texture]), f 67;
#X obj 451 233 _pix2rectangle 3;
#X obj 521 260 _gemwin;
#X connect 11 0 15 0;
#X connect 15 0 31 0;
#X connect 16 0 15 0;
#X connect 17 0 15 1;
