#N canvas 28 501 647 484 12;
#X obj 14 204 gemhead;
#X msg 221 66 open 0;
#X msg 221 41 enumerate;
#X msg 221 92 close;
#X obj 14 401 pix_texture;
#X obj 14 431 rectangle 4 3;
#X obj 220 18 tgl 15 0 empty empty empty 0 -6 0 8 -262144 -1 -1 0 1
;
#X msg 224 132 setup;
#X msg 224 158 dialog format;
#X msg 224 182 dialog crossbar;
#X msg 224 205 dialog source;
#X msg 224 228 dialog display;
#X msg 224 265 dv res full;
#X msg 224 288 dv res half;
#X msg 225 311 dv res quarter;
#X msg 224 335 dv res dc;
#X text 309 13 enable/disable;
#X text 308 40 list available devices;
#X text 310 67 open device N;
#X text 311 96 close the device;
#X text 354 158 display format dialog;
#X text 356 133 display all configuration dialogs;
#X text 354 182 display crossbar dialog;
#X text 355 208 display source dialog;
#X text 355 231 display display dialog;
#X text 356 267 (DV only) set decode res to full;
#X text 356 288 (DV only) set decode res to half;
#X text 356 310 (DV only) set decode res to quarter;
#X text 355 335 (DV only) set decode res to dc;
#X obj 14 371 pix_videoDS;
#X text 12 -13 pix_videoDS;
#X text 127 -13 Live video capture using DirectShow (Windows only)
;
#X connect 0 0 29 0;
#X connect 1 0 29 0;
#X connect 2 0 29 0;
#X connect 3 0 29 0;
#X connect 4 0 5 0;
#X connect 6 0 29 0;
#X connect 7 0 29 0;
#X connect 8 0 29 0;
#X connect 9 0 29 0;
#X connect 10 0 29 0;
#X connect 11 0 29 0;
#X connect 12 0 29 0;
#X connect 13 0 29 0;
#X connect 14 0 29 0;
#X connect 15 0 29 0;
#X connect 29 0 4 0;
