#N canvas 6 61 629 393 10;
#X declare -lib Gem;
#X text 452 8 GEM object;
#X obj 8 216 cnv 15 430 125 empty empty empty 20 12 0 14 #e0e0e0 #404040 0;
#X text 39 218 Inlets:;
#X text 39 310 Outlets:;
#X obj 8 176 cnv 15 430 30 empty empty empty 20 12 0 14 #bcbcbc #404040 0;
#X text 17 175 Arguments:;
#X obj 8 76 cnv 15 430 90 empty empty empty 20 12 0 14 #e0e0e0 #404040 0;
#X obj 449 77 cnv 15 170 250 empty empty empty 20 12 0 14 #dce4fc #404040 0;
#X text 453 60 Example:;
#X obj 514 254 cnv 15 100 60 empty empty empty 20 12 0 14 #bcbcbc #404040 0;
#X obj 451 138 cnv 15 160 90 empty empty empty 20 12 0 14 #14e814 #404040 0;
#X obj 451 84 gemhead;
#X text 71 31 Class: pix object;
#X obj 510 85 bng 15 250 50 0 empty empty pix_load 20 8 0 8 #fcfcfc #000000 #000000;
#N canvas 0 0 587 366 image 0;
#X obj 77 48 inlet;
#X obj 77 344 outlet;
#X obj 77 205 pix_image examples/data/fractal.JPG;
#X obj 223 55 inlet;
#X msg 223 123 open \$1;
#X obj 223 100 openpanel;
#X connect 0 0 2 0;
#X connect 2 0 1 0;
#X connect 3 0 5 0;
#X connect 4 0 2 0;
#X connect 5 0 4 0;
#X restore 451 113 pd image;
#X text 63 186 <none>;
#X text 57 323 Outlet 1: gemlist;
#X text 63 232 Inlet 1: gemlist;
#X obj 451 207 pix_lumaoffset;
#X text 29 77 Description: offset pixels depending on the luminance;
#X floatatom 497 152 5 0 0 2 offset - - 0;
#X floatatom 544 152 5 0 0 2 gap - - 0;
#X text 63 275 Inlet 2: float: offset-factor;
#X text 64 288 Inlet 3: float: spacing between lines;
#X obj 533 169 tgl 15 0 empty empty empty 0 -6 0 8 #fcfcfc #000000 #000000 0 1;
#X msg 533 187 smooth \$1;
#X msg 465 186 fill \$1;
#X obj 465 168 tgl 15 0 empty empty empty 0 -6 0 8 #fcfcfc #000000 #000000 0 1;
#X text 63 259 Inlet 1: message: smooth [0|1] : do smooth fill;
#X text 63 245 Inlet 1: message: fill [0|1] : draw filled lines;
#X text 13 91 [pix_lumaoffset] will offset each pixel in the y-direction according to its luminance value. The amount of offsetting can be specified as well as a gap between the offsetted lines. The gap can be filled or left black \, if filled \, the transition can be smoothed.;
#X text 50 12 Synopsis: [pix_lumaoffset];
#X text 516 105 open an image;
#X text 509 118 (JPEG \, TIFF \, ..);
#X text 13 357 NOTE: specifying too high offsets might cause crashes!!!;
#N canvas 484 243 450 300 META 0;
#X obj 10 25 declare -lib Gem;
#X text 10 45 DESCRIPTION offset pixels depending on the luminance;
#X text 10 65 KEYWORDS Gem pix image;
#X text 20 85 INLET_0 gemlist fill smooth;
#X text 20 105 INLET_1 float;
#X text 20 125 INLET_2 float;
#X text 20 145 OUTLET_0 gemlist;
#X text 10 165 AUTHOR IOhannes m zmölnig;
#X text 10 185 LICENSE GPL v2;
#X restore 518 8 pd META;
#X obj 522 260 _gemwin;
#X obj 451 233 _pix2rectangle 3;
#X connect 11 0 14 0;
#X connect 13 0 14 1;
#X connect 14 0 18 0;
#X connect 18 0 37 0;
#X connect 20 0 18 1;
#X connect 21 0 18 2;
#X connect 24 0 25 0;
#X connect 25 0 18 0;
#X connect 26 0 18 0;
#X connect 27 0 26 0;
