#N canvas 318 61 628 469 10;
#X declare -lib Gem;
#X text 452 8 GEM object;
#X obj 8 245 cnv 15 430 120 empty empty empty 20 12 0 14 #e0e0e0 #404040 0;
#X text 39 248 Inlets:;
#X text 38 335 Outlets:;
#X obj 8 206 cnv 15 430 30 empty empty empty 20 12 0 14 #bcbcbc #404040 0;
#X text 17 205 Arguments:;
#X obj 7 76 cnv 15 430 125 empty empty empty 20 12 0 14 #e0e0e0 #404040 0;
#X obj 449 77 cnv 15 170 250 empty empty empty 20 12 0 14 #dce4fc #404040 0;
#X text 453 60 Example:;
#X obj 514 261 cnv 15 100 60 empty empty empty 20 12 0 14 #bcbcbc #404040 0;
#X obj 450 133 cnv 15 160 100 empty empty empty 20 12 0 14 #14e814 #404040 0;
#X obj 451 84 gemhead;
#X obj 510 85 bng 15 250 50 0 empty empty pix_load 20 8 0 8 #fcfcfc #000000 #000000;
#N canvas 0 0 587 366 image 0;
#X obj 77 48 inlet;
#X obj 77 344 outlet;
#X obj 77 205 pix_image examples/data/fractal.JPG;
#X obj 223 55 inlet;
#X msg 223 123 open \$1;
#X obj 223 100 openpanel;
#X connect 0 0 2 0;
#X connect 2 0 1 0;
#X connect 3 0 5 0;
#X connect 4 0 2 0;
#X connect 5 0 4 0;
#X restore 451 113 pd image;
#X text 63 216 <none>;
#X text 56 348 Outlet 1: gemlist;
#X text 63 262 Inlet 1: gemlist;
#X text 516 105 open an image;
#X text 509 118 (JPEG \, TIFF \, ..);
#X text 50 13 Synopsis: [pix_halftone];
#X text 71 31 Class: pix object (fx);
#X obj 451 206 pix_halftone;
#X floatatom 467 150 5 1 32 2 size - - 0;
#X floatatom 515 150 5 0 0 2 angle - - 0;
#X floatatom 560 150 5 0 1 2 smooth - - 0;
#X obj 536 187 hradio 15 1 0 5 empty empty style 40 -6 0 8 #fcfcfc #000000 #000000 0;
#X msg 536 206 style \$1;
#X text 29 76 Description: make halftone-patterns;
#X text 19 97 [pix_halftone] draws the input using the patterns of dots or diamonds that are found in newspaper photographs.;
#X text 20 132 You can set the type of pattern \, the size and orientation of the patterns and how blurry they are on-screen.;
#X text 63 275 Inlet 1: message: style [0|1|2|3|4]:: select a style;
#X text 62 291 Inlet 2: float: pattern-size (1..32. default 8);
#X text 62 306 Inlet 3: float: orientation in degree (0..360);
#X text 62 321 Inlet 4: float: smoothness (0..1. default 0.5);
#X text 55 379 Styles: 0...round dots;
#X text 111 392 1...line dots;
#X text 111 405 2...diamond dots;
#X text 111 418 3...'euclidean' dots;
#X text 111 431 4...postscript diamond dots;
#N canvas 484 243 450 300 META 0;
#X obj 10 25 declare -lib Gem;
#X text 10 45 DESCRIPTION make halftone-patterns;
#X text 10 65 KEYWORDS Gem pix image;
#X text 20 85 INLET_0 gemlist style;
#X text 20 105 INLET_1 float;
#X text 20 125 INLET_2 float;
#X text 20 145 INLET_3 float;
#X text 20 165 OUTLET_0 gemlist;
#X text 10 185 AUTHOR IOhannes m zmölnig;
#X text 10 205 LICENSE GPL v2;
#X restore 518 8 pd META;
#X obj 451 237 _pix2rectangle 3;
#X obj 521 268 _gemwin;
#X connect 11 0 13 0;
#X connect 12 0 13 1;
#X connect 13 0 21 0;
#X connect 21 0 40 0;
#X connect 22 0 21 1;
#X connect 23 0 21 2;
#X connect 24 0 21 3;
#X connect 25 0 26 0;
#X connect 26 0 21 0;
