#N canvas 230 61 629 377 10;
#X declare -lib Gem;
#X text 452 8 GEM object;
#X obj 9 225 cnv 15 430 135 empty empty empty 20 12 0 14 #e0e0e0 #404040 0;
#X text 40 227 Inlets:;
#X text 40 322 Outlets:;
#X obj 9 185 cnv 15 430 30 empty empty empty 20 12 0 14 #bcbcbc #404040 0;
#X text 18 184 Arguments:;
#X obj 8 56 cnv 15 430 120 empty empty empty 20 12 0 14 #e0e0e0 #404040 0;
#X obj 449 77 cnv 15 170 280 empty empty empty 20 12 0 14 #dce4fc #404040 0;
#X text 453 60 Example:;
#X obj 514 290 cnv 15 100 60 empty empty empty 20 12 0 14 #bcbcbc #404040 0;
#X obj 451 198 cnv 15 160 60 empty empty empty 20 12 0 14 #14e814 #404040 0;
#X obj 451 83 gemhead;
#X text 18 336 Outlet 1: gemlist;
#X text 24 241 Inlet 1: gemlist;
#X obj 451 232 pix_delay 100;
#X text 50 12 Synopsis: [pix_delay];
#X text 71 31 Class: pix object (timebased effect);
#X text 29 57 Description: delay a series of images;
#X obj 451 162 pix_film;
#X obj 515 162 t f;
#X obj 464 105 bng 25 250 50 0 empty empty empty 0 -6 0 8 #fcfcfc #000000 #000000;
#N canvas 0 0 450 300 open 0;
#X obj 85 49 inlet;
#X obj 85 237 outlet;
#X obj 85 145 openpanel;
#X msg 85 179 open \$1;
#X msg 259 213 auto 1;
#X obj 268 179 loadbang;
#X connect 0 0 2 0;
#X connect 2 0 3 0;
#X connect 3 0 1 0;
#X connect 4 0 1 0;
#X connect 5 0 4 0;
#X restore 464 134 pd open;
#X floatatom 537 213 5 0 0 0 - - - 0;
#X text 505 77 open a supported;
#X text 506 88 movie-clip;
#X text 505 109 macOS: quicktime;
#X text 498 99 MS Windows: *.AVI;
#X text 505 119 linux: depends...;
#X text 528 198 scrub me!;
#X text 64 195 int: max.number of delayed frames;
#X text 24 254 Inlet 1: int: delay (in frames);
#X text 11 79 [pix_delay] is a frame-based delay-line. All frames stored in the delay-line have to have the same dimensions and colour-space. You can specify the length of the entire delay-line (==maximum delay) as an argument to the [pix_delay] object. The delay in frames defaults to 0 (route through) and can be changed via the second inlet.;
#N canvas 484 243 450 300 META 0;
#X obj 10 25 declare -lib Gem;
#X text 10 45 DESCRIPTION delay a series of images;
#X text 10 65 KEYWORDS Gem pix image;
#X text 20 85 INLET_0 gemlist int;
#X text 20 105 OUTLET_0 gemlist;
#X text 10 125 AUTHOR IOhannes m zmölnig;
#X text 10 145 LICENSE GPL v2;
#X restore 518 8 pd META;
#X obj 451 270 _pix2rectangle 3;
#X obj 521 297 _gemwin;
#X connect 11 0 18 0;
#X connect 14 0 33 0;
#X connect 18 0 14 0;
#X connect 18 2 19 0;
#X connect 19 0 18 1;
#X connect 20 0 21 0;
#X connect 21 0 18 0;
#X connect 22 0 14 1;
