#N canvas 103 127 664 397 10;
#X declare -lib Gem;
#X text 452 8 GEM object;
#X obj 8 226 cnv 15 430 135 empty empty empty 20 12 0 14 #e0e0e0 #404040 0;
#X text 39 248 Inlets:;
#X text 39 304 Outlets:;
#X obj 8 186 cnv 15 430 30 empty empty empty 20 12 0 14 #bcbcbc #404040 0;
#X text 17 185 Arguments:;
#X obj 8 66 cnv 15 430 110 empty empty empty 20 12 0 14 #e0e0e0 #404040 0;
#X obj 449 77 cnv 15 170 280 empty empty empty 20 12 0 14 #dce4fc #404040 0;
#X text 453 60 Example:;
#X obj 514 290 cnv 15 100 60 empty empty empty 20 12 0 14 #bcbcbc #404040 0;
#X obj 451 173 cnv 15 160 80 empty empty empty 20 12 0 14 #14e814 #404040 0;
#X obj 451 126 gemhead;
#X obj 496 109 bng 15 250 50 0 empty empty pix_load -45 8 0 8 #fcfcfc #000000 #000000;
#N canvas 0 22 587 366 image 0;
#X obj 77 48 inlet;
#X obj 77 344 outlet;
#X obj 77 205 pix_image examples/data/fractal.JPG;
#X obj 223 55 inlet;
#X msg 223 123 open \$1;
#X obj 223 100 openpanel;
#X connect 0 0 2 0;
#X connect 2 0 1 0;
#X connect 3 0 5 0;
#X connect 4 0 2 0;
#X connect 5 0 4 0;
#X restore 451 147 pd image;
#X text 63 196 <none>;
#X text 47 318 Outlet 1: gemlist;
#X text 53 262 Inlet 1: gemlist;
#X text 503 88 (JPEG \, TIFF \, ..);
#X obj 541 129 gemhead;
#N canvas 0 22 587 366 image 0;
#X obj 77 48 inlet;
#X obj 77 344 outlet;
#X obj 223 55 inlet;
#X msg 223 123 open \$1;
#X obj 223 100 openpanel;
#X obj 77 205 pix_image examples/data/dancer.JPG;
#X connect 0 0 5 0;
#X connect 2 0 4 0;
#X connect 3 0 5 0;
#X connect 4 0 3 0;
#X connect 5 0 1 0;
#X restore 541 150 pd image;
#X obj 586 110 bng 15 250 50 0 empty empty pix_load -45 8 0 8 #fcfcfc #000000 #000000;
#X text 53 291 Inlet 2: gemlist;
#X text 449 77 open two different images;
#X text 71 31 Class: pix mix object;
#X text 32 152 The 2 images have to be of the same size.;
#X obj 451 203 pix_subtract;
#X text 50 12 Synopsis: [pix_subtract];
#X text 29 67 Description: subtract 2 images;
#X text 19 89 [pix_subtract] simply subtracts two pixes from each other. It clamps the resultant image so that no pixel values go below zero (In other words \, it is easy to get a black out).;
#X text 39 366 see also:;
#X obj 101 368 pix_diff;
#X obj 164 368 pix_compare;
#N canvas 484 243 450 300 META 0;
#X obj 10 25 declare -lib Gem;
#X text 10 45 DESCRIPTION subtract 2 images;
#X text 10 65 KEYWORDS Gem pix image;
#X text 20 85 INLET_0 gemlist;
#X text 20 105 INLET_1 gemlist;
#X text 20 125 OUTLET_0 gemlist;
#X text 10 145 AUTHOR IOhannes m zmölnig;
#X text 10 165 LICENSE GPL v2;
#X restore 518 8 pd META;
#X obj 451 268 _pix2rectangle 3;
#X obj 520 296 _gemwin;
#X connect 11 0 13 0;
#X connect 12 0 13 1;
#X connect 13 0 25 0;
#X connect 18 0 19 0;
#X connect 19 0 25 1;
#X connect 20 0 19 1;
#X connect 25 0 33 0;
