#N canvas 376 298 586 375 12;
#X msg 120 148 gemList;
#X msg 120 272 gemList;
#X text 169 16 part of GEM;
#X obj 120 187 pix_invert;
#X text 176 43 [pix_invert];
#X text 151 73 invert an image;
#X text 21 314 [pix_invert] will invert your image. Thus all black
pixels will become white and vice-versa.;
#X connect 0 0 3 0;
#X connect 3 0 1 0;
