#N canvas 550 226 628 363 10;
#X declare -lib Gem;
#X text 452 8 GEM object;
#X obj 8 225 cnv 15 430 120 empty empty empty 20 12 0 14 #e0e0e0 #404040 0;
#X text 39 228 Inlets:;
#X text 38 315 Outlets:;
#X obj 8 186 cnv 15 430 30 empty empty empty 20 12 0 14 #bcbcbc #404040 0;
#X text 17 185 Arguments:;
#X obj 7 56 cnv 15 430 120 empty empty empty 20 12 0 14 #e0e0e0 #404040 0;
#X obj 449 77 cnv 15 170 250 empty empty empty 20 12 0 14 #dce4fc #404040 0;
#X text 453 60 Example:;
#X obj 515 295 cnv 15 100 60 empty empty empty 20 12 0 14 #bcbcbc #404040 0;
#X obj 450 158 cnv 15 160 100 empty empty empty 20 12 0 14 #14e814 #404040 0;
#X obj 451 84 gemhead;
#X text 71 31 Class: pix object;
#X obj 510 85 bng 15 250 50 0 empty empty pix_load 20 8 0 8 #fcfcfc #000000 #000000;
#N canvas 5 49 587 366 image 0;
#X obj 77 48 inlet;
#X obj 77 344 outlet;
#X obj 223 55 inlet;
#X msg 223 123 open \$1;
#X obj 223 100 openpanel;
#X obj 77 205 pix_image examples/data/fractal.JPG;
#X connect 0 0 5 0;
#X connect 2 0 4 0;
#X connect 3 0 5 0;
#X connect 4 0 3 0;
#X connect 5 0 1 0;
#X restore 451 110 pd image;
#X text 63 196 <threshold (scalar/vector)>;
#X text 56 328 Outlet 1: gemlist;
#X text 63 242 Inlet 1: gemlist;
#X text 516 105 open an image;
#X text 509 118 (JPEG \, TIFF \, ..);
#X floatatom 465 162 5 0 1 1 pass - - 0;
#X text 50 12 Synopsis: [pix_threshold];
#X text 29 56 Description: apply a threshold to pixes;
#X text 15 101 pix_threshold is a simply threshold filter. Any pixel above the value is passed. Any pixel below the value is zeroed out.;
#X text 15 155 If the float is used \, alpha is assumed to be 1;
#X obj 451 226 pix_threshold;
#X text 63 255 Inlet 2: <float>: threshold for all channels;
#X text 63 280 Inlet 3: <list>: threshold (RGB) or (RGBA);
#X obj 451 265 _pix2rectangle 3;
#X msg 496 195 0.6 0.1 0.8;
#N canvas 484 243 450 300 META 0;
#X obj 10 25 declare -lib Gem;
#X text 10 45 DESCRIPTION apply a threshold to pixes;
#X text 10 65 KEYWORDS Gem pix image;
#X text 20 85 INLET_0 gemlist;
#X text 20 105 INLET_1 float;
#X text 20 125 INLET_2 list;
#X text 20 145 OUTLET_0 gemlist;
#X text 10 165 AUTHOR IOhannes m zmölnig;
#X text 10 185 LICENSE GPL v2;
#X restore 518 8 pd META;
#X obj 521 301 _gemwin;
#X connect 11 0 14 0;
#X connect 13 0 14 1;
#X connect 14 0 25 0;
#X connect 20 0 25 1;
#X connect 25 0 28 0;
#X connect 29 0 25 2;
