#N canvas 327 31 682 670 12;
#X msg 120 56 gemList;
#X msg 120 267 gemList;
#X msg 171 79 open someFile.avi;
#X msg 187 183 frame#;
#X msg 186 148 auto 1/0;
#X text 51 381 On Windos32-platforms \, you can load only AVI-files.
On Linux-platforms \, you can load only MPEG2-files (*.MPG) and quicktime-files
(*.MOV). However \, most of the quicktime-formats might be unsupported
by Linux (not by GEM);
#X text 48 509 "auto <state>" will start playing the movie from the
current frame. Each rendering-frame the film-frame is incremented by
one. When the last frame is reached \, a <bang> will appear on the
third outlet.;
#X text 50 456 After loading \, the number of frames is output on outlet2
if it is possible (it might not be possible with MPEG-streams);
#X obj 120 212 pix_movie;
#X obj 197 237 print done;
#X floatatom 158 237 3 0 0;
#X text 110 13 [pix_movie];
#X text 62 32 loads in a digital-video file and textures it...;
#X text 47 323 [pix_movie] loads in a digital-video and loads it into
the texture-memory of the grafix-card. You can send the open message
with a filename.;
#X text 59 579 You need no [pix_texture] to texture the image somewhere.
;
#X connect 0 0 8 0;
#X connect 2 0 8 0;
#X connect 3 0 8 1;
#X connect 4 0 8 0;
#X connect 8 0 1 0;
#X connect 8 1 10 0;
#X connect 8 2 9 0;
