#N canvas 100 510;
#X msg 164 99 gemList;
#X msg 164 302 gemList;
#X text 169 16 part of GEM;
#X text 175 43 pix_flip;
#X text 157 72 rotate a pix;
#X obj 164 268 pix_flip;
#X msg 182 160 none;
#X msg 193 187 horizontal;
#X msg 208 217 vertical;
#X msg 223 242 both;
#X text 56 329 pix_flip flips an image either horizontally \, vertically \, or both \, depending on the message that it receives.;
#X text 57 365 It defaults to none;
#X connect 0 0 5 0;
#X connect 5 0 1 0;
#X connect 6 0 5 0;
#X connect 7 0 5 0;
#X connect 8 0 5 0;
#X connect 9 0 5 0;
