#N canvas 6 61 651 356 10;
#X declare -lib Gem;
#X text 452 8 GEM object;
#X obj 8 216 cnv 15 430 125 empty empty empty 20 12 0 14 #e0e0e0 #404040 0;
#X text 39 218 Inlets:;
#X text 39 310 Outlets:;
#X obj 8 176 cnv 15 430 30 empty empty empty 20 12 0 14 #bcbcbc #404040 0;
#X text 17 175 Arguments:;
#X obj 8 76 cnv 15 430 90 empty empty empty 20 12 0 14 #e0e0e0 #404040 0;
#X obj 449 77 cnv 15 170 250 empty empty empty 20 12 0 14 #dce4fc #404040 0;
#X text 453 60 Example:;
#X obj 514 254 cnv 15 100 60 empty empty empty 20 12 0 14 #bcbcbc #404040 0;
#X obj 451 138 cnv 15 160 90 empty empty empty 20 12 0 14 #14e814 #404040 0;
#X obj 451 84 gemhead;
#X text 71 31 Class: pix object;
#X obj 510 85 bng 15 250 50 0 empty empty pix_load 20 8 0 8 #fcfcfc #000000 #000000;
#N canvas 0 0 587 366 image 0;
#X obj 77 48 inlet;
#X obj 77 344 outlet;
#X obj 77 205 pix_image examples/data/fractal.JPG;
#X obj 223 55 inlet;
#X msg 223 123 open \$1;
#X obj 223 100 openpanel;
#X connect 0 0 2 0;
#X connect 2 0 1 0;
#X connect 3 0 5 0;
#X connect 4 0 2 0;
#X connect 5 0 4 0;
#X restore 451 113 pd image;
#X text 63 186 [<scale> <floor> <ceiling>];
#X text 57 323 Outlet 1: gemlist;
#X text 63 232 Inlet 1: gemlist;
#X text 50 12 Synopsis: [pix_backlight];
#X floatatom 469 153 5 0 0 2 scale - - 0;
#X floatatom 509 153 5 0 255 2 floor - - 0;
#X obj 509 171 / 255;
#X floatatom 549 153 5 0 255 2 ceiling - - 0;
#X obj 549 171 / 255;
#X text 29 77 Description: backlighting effect;
#X text 13 91 [pix_backlight] will radially displace pixels depending on their luminance value \, thus producing a backlighting effect. You can set the amount of the displacement as well as floor/ceiling limits \, to produce displacements only within the specified range.;
#X obj 451 207 pix_backlight;
#X text 64 254 Inlet 2: float: scale-factor (default:0.5);
#X text 64 268 Inlet 3: float: floor (default:0);
#X text 64 282 Inlet 4: float: ceiling (default:1);
#X obj 469 172 / 100;
#X text 516 105 open an image;
#X text 509 118 (JPEG \, TIFF \, ..);
#N canvas 484 243 450 300 META 0;
#X obj 10 25 declare -lib Gem;
#X text 10 45 DESCRIPTION backlighting effect;
#X text 10 65 KEYWORDS Gem pix image;
#X text 20 85 INLET_0 gemlist;
#X text 20 105 INLET_1 float;
#X text 20 125 INLET_2 float;
#X text 20 145 INLET_3 float;
#X text 20 165 OUTLET_0 gemlist;
#X text 10 185 AUTHOR IOhannes m zmölnig;
#X text 10 205 LICENSE GPL v2;
#X restore 518 8 pd META;
#X obj 521 259 _gemwin;
#X obj 451 233 _pix2rectangle 3;
#X connect 11 0 14 0;
#X connect 13 0 14 1;
#X connect 14 0 26 0;
#X connect 19 0 30 0;
#X connect 20 0 21 0;
#X connect 21 0 26 2;
#X connect 22 0 23 0;
#X connect 23 0 26 3;
#X connect 26 0 35 0;
#X connect 30 0 26 1;
