#N canvas 157 229 586 558 12;
#X msg 121 121 gemList;
#X msg 121 234 gemList;
#X text 169 16 part of GEM;
#X obj 121 203 pix_aging;
#X text 176 43 [pix_aging];
#X text 103 74 apply a super8-like effect;
#X text 20 257 [pix_aging] is an effect that will make your images
(better: films) have a super8-like look.;
#X msg 239 108 coloraging 1/0;
#X msg 240 137 dust 1/0;
#X msg 240 161 pits 1/0;
#X msg 243 192 scratch #num;
#X text 27 302 There are 4 components (color-aging \, light dusts \,
dark pits and vertical scratches) that can be turned on/off individually.
;
#X text 29 359 The number of scratches can be set via the "scratch"
message.;
#X text 38 422 warning:: both the message-interface and the name ("tv_aging")
of this object is likely to change in the next release.;
#X text 31 484 acknowledgment: this effect is based on effecTV by Kentarou
Fukuchi (http://effectv.sourceforge.net);
#X connect 0 0 3 0;
#X connect 3 0 1 0;
#X connect 7 0 3 0;
#X connect 8 0 3 0;
#X connect 9 0 3 0;
#X connect 10 0 3 0;
