#N canvas 694 194 643 569 10;
#X declare -lib Gem;
#X text 458 13 GEM object;
#X obj 14 391 cnv 15 430 155 empty empty empty 20 12 0 14 #e0e0e0 #404040 0;
#X text 45 392 Inlets:;
#X text 45 513 Outlets:;
#X obj 14 356 cnv 15 430 30 empty empty empty 20 12 0 14 #bcbcbc #404040 0;
#X text 23 358 Arguments:;
#X obj 14 61 cnv 15 430 290 empty empty empty 20 12 0 14 #e0e0e0 #404040 0;
#X obj 452 81 cnv 15 170 465 empty empty empty 20 12 0 14 #dce4fc #404040 0;
#X text 459 64 Example:;
#X obj 516 480 cnv 15 100 60 empty empty empty 20 12 0 14 #bcbcbc #404040 0;
#N canvas 0 0 450 300 gemwin 0;
#X obj 132 136 gemwin;
#X obj 67 89 outlet;
#X obj 67 10 inlet;
#X msg 67 70 set destroy;
#X msg 132 112 create \, 1;
#X msg 198 112 destroy;
#X msg 156 71 set create+DSP;
#X obj 67 41 route create+DSP;
#X msg 102 163 \; pd dsp 1;
#X connect 2 0 7 0;
#X connect 3 0 1 0;
#X connect 4 0 0 0;
#X connect 5 0 0 0;
#X connect 6 0 1 0;
#X connect 7 0 3 0;
#X connect 7 0 4 0;
#X connect 7 0 8 0;
#X connect 7 1 6 0;
#X connect 7 1 5 0;
#X restore 521 519 pd gemwin;
#X msg 521 500 create+DSP;
#X text 517 479 Create window:;
#X obj 457 120 cnv 15 160 190 empty empty empty 20 12 0 14 #14e814 #404040 0;
#X obj 457 94 gemhead;
#X text 23 527 Outlet 1: gemlist;
#X text 29 406 Inlet 1: gemlist;
#X obj 457 479 square 3;
#X text 69 369 list: [<width> <height>];
#X obj 532 94 block~ 4096;
#X obj 465 210 osc~ 1;
#X obj 465 249 *~ 0.5;
#X obj 465 229 +~ 1;
#X obj 519 191 noise~;
#X floatatom 536 239 5 0 0 0 - - - 0;
#X obj 567 191 tgl 15 0 empty empty empty 0 -6 0 8 #14e814 #000000 #000000 0 1;
#X obj 519 214 *~ 0;
#X obj 536 258 phasor~ 700;
#X floatatom 465 192 5 0 0 0 - - - 0;
#X text 56 17 Synopsis: [pix_sig2pix~];
#X text 77 36 Class: pix object (source);
#X text 35 62 Description: convert signals to images;
#X text 29 459 Inlet 1: signal: red channel;
#X text 29 472 Inlet 2: signal: green channel;
#X text 29 484 Inlet 3: signal: blue channel;
#X text 29 497 Inlet 4: signal: alpha channel;
#X text 29 419 Inlet 1: message: dimen <width> <height>;
#X obj 457 413 pix_sig2pix~ 64 64;
#X obj 524 13 declare -lib Gem;
#X text 29 431 Inlet 1: message: type BYTE|FLOAT|DOUBLE;
#X obj 457 168 t a;
#X msg 492 147 type BYTE;
#X text 18 263 By default \, values are converted to unsigned BYTEs. You can change the storage type to FLOAT (or DOUBLE) with the 'type' message. FLOAT images can be uploaded as textures \, but virtually no other pix object can handle such images., f 69;
#X text 17 320 Signal values should be in the range 0..1 (and might be clipped or worse \, if this range is exceeded), f 69;
#X msg 474 314 mode clear;
#X msg 475 334 mode fill;
#X msg 475 354 mode line;
#X msg 481 126 dimen 512 512;
#X text 17 169 There are multiple ways how a signals fill up the image. 'clear' mode (the default) will just start writing the image from the beginning for each signal block. 'fill' mode will continue where it left. 'line' mode will only fill a single line (discarding extraneous samples \, zero-padding missing samples). 'waterfall' is similar to 'line'but will only write the first line and shift the rest of the pixels., f 69;
#X msg 475 374 mode waterfall;
#X text 18 79 [pix_sig2pix~] will interpret the 4 incoming audio-streams as values for the red \, green \, blue and alpha channel of an image. The default image-size is calculated from the blocksize (eg: 64samples -> 8x8 & 128samples -> 16x8) \, but you can set it either with arguments or the [dimen( message. If your imagesize is bigger than the blocksize \, the rest will be zeroed out. For legacy reasons \, images are upside-down. You can flip them with the 'upsidedown' message., f 69;
#X msg 480 285 upsidedown 0;
#X obj 457 445 pix_texture \; quality 0;
#X text 29 444 Inlet 1: message: mode clear|fill|line|waterfall;
#X connect 10 0 11 0;
#X connect 11 0 10 0;
#X connect 14 0 40 0;
#X connect 20 0 22 0;
#X connect 21 0 37 0;
#X connect 22 0 21 0;
#X connect 23 0 26 0;
#X connect 24 0 27 0;
#X connect 25 0 26 1;
#X connect 26 0 37 1;
#X connect 27 0 37 2;
#X connect 28 0 20 0;
#X connect 37 0 52 0;
#X connect 40 0 37 0;
#X connect 41 0 40 0;
#X connect 44 0 37 0;
#X connect 45 0 37 0;
#X connect 46 0 37 0;
#X connect 47 0 40 0;
#X connect 49 0 37 0;
#X connect 51 0 37 0;
#X connect 52 0 17 0;
