#N canvas 0 0 551 441 10;
#X obj 121 167 pix_2grey;
#X msg 121 107 gemList;
#X msg 121 212 gemList;
#X text 120 28 pix_2grey;
#X text 57 63 convert a pix to greyscale;
#X text 46 276 Assuming that you have an image in the gemList (for
instance \, loaded in with pix_image) \, pix_2grey will convert the
image into a greyscale \, without changing the actual colorspace.;
#X text 50 338 So \, if you have an RGBA-image \, after [pix_2grey]
the values for R \, G and B will be the same.;
#X connect 0 0 2 0;
#X connect 1 0 0 0;
