#N canvas 270 306 683 381 10;
#X declare -lib Gem;
#X text 452 8 GEM object;
#X obj 8 226 cnv 15 430 135 empty empty empty 20 12 0 14 #e0e0e0 #404040 0;
#X text 39 248 Inlets:;
#X text 39 304 Outlets:;
#X obj 8 186 cnv 15 430 30 empty empty empty 20 12 0 14 #bcbcbc #404040 0;
#X text 17 185 Arguments:;
#X obj 8 66 cnv 15 430 110 empty empty empty 20 12 0 14 #e0e0e0 #404040 0;
#X obj 449 67 cnv 15 170 300 empty empty empty 20 12 0 14 #dce4fc #404040 0;
#X text 453 50 Example:;
#X obj 514 303 cnv 15 100 60 empty empty empty 20 12 0 14 #bcbcbc #404040 0;
#X obj 451 188 cnv 15 160 80 empty empty empty 20 12 0 14 #14e814 #404040 0;
#X obj 451 139 gemhead;
#X obj 496 122 bng 15 250 50 0 empty empty pix_load -45 8 0 8 #fcfcfc #000000 #000000;
#N canvas 0 0 587 366 image 0;
#X obj 77 48 inlet;
#X obj 77 344 outlet;
#X obj 77 205 pix_image examples/data/fractal.JPG;
#X obj 223 55 inlet;
#X msg 223 123 open \$1;
#X obj 223 100 openpanel;
#X connect 0 0 2 0;
#X connect 2 0 1 0;
#X connect 3 0 5 0;
#X connect 4 0 2 0;
#X connect 5 0 4 0;
#X restore 451 158 pd image;
#X text 63 196 <none>;
#X text 47 318 Outlet 1: gemlist;
#X text 53 262 Inlet 1: gemlist;
#X text 503 88 (JPEG \, TIFF \, ..);
#X obj 541 142 gemhead;
#N canvas 0 0 587 366 image 0;
#X obj 77 48 inlet;
#X obj 77 344 outlet;
#X obj 77 205 pix_image examples/data/dancer.JPG;
#X obj 223 55 inlet;
#X msg 223 123 open \$1;
#X obj 223 100 openpanel;
#X connect 0 0 2 0;
#X connect 2 0 1 0;
#X connect 3 0 5 0;
#X connect 4 0 2 0;
#X connect 5 0 4 0;
#X restore 541 161 pd image;
#X obj 586 123 bng 15 250 50 0 empty empty pix_load -45 8 0 8 #fcfcfc #000000 #000000;
#X text 53 291 Inlet 2: gemlist;
#X text 449 67 open two different images;
#X text 50 12 Synopsis: [pix_add];
#X text 71 31 Class: pix mix object;
#X text 29 67 Description: add 2 images;
#X text 29 91 [pix_add] simply adds two pixes together. It clamps the images so that they remain in the range of the image. (In other words \, it is easy to get a white out).;
#X obj 451 218 pix_add;
#X text 33 137 The 2 images have to be of the same size.;
#N canvas 484 243 450 300 META 0;
#X obj 10 25 declare -lib Gem;
#X text 10 45 DESCRIPTION add 2 images;
#X text 10 65 KEYWORDS Gem pix image;
#X text 20 85 INLET_0 gemlist;
#X text 20 105 INLET_1 gemlist;
#X text 20 125 OUTLET_0 gemlist;
#X text 10 145 AUTHOR IOhannes m zmölnig;
#X text 10 165 LICENSE GPL v2;
#X restore 527 8 pd META;
#X obj 451 276 _pix2rectangle 3;
#X obj 520 310 _gemwin;
#X connect 11 0 13 0;
#X connect 12 0 13 1;
#X connect 13 0 27 0;
#X connect 18 0 19 0;
#X connect 19 0 27 1;
#X connect 20 0 19 1;
#X connect 27 0 30 0;
