#N canvas 6 61 651 353 10;
#X declare -lib Gem;
#X text 452 8 GEM object;
#X obj 8 216 cnv 15 430 125 empty empty empty 20 12 0 14 #e0e0e0 #404040 0;
#X text 39 218 Inlets:;
#X text 39 310 Outlets:;
#X obj 8 176 cnv 15 430 30 empty empty empty 20 12 0 14 #bcbcbc #404040 0;
#X text 17 175 Arguments:;
#X obj 8 76 cnv 15 430 90 empty empty empty 20 12 0 14 #e0e0e0 #404040 0;
#X obj 449 77 cnv 15 170 250 empty empty empty 20 12 0 14 #dce4fc #404040 0;
#X text 453 60 Example:;
#X obj 514 254 cnv 15 100 60 empty empty empty 20 12 0 14 #bcbcbc #404040 0;
#X obj 450 158 cnv 15 160 60 empty empty empty 20 12 0 14 #14e814 #404040 0;
#X obj 451 84 gemhead;
#X text 71 31 Class: pix object;
#X obj 510 85 bng 15 250 50 0 empty empty pix_load 20 8 0 8 #fcfcfc #000000 #000000;
#N canvas 0 0 587 366 image 0;
#X obj 77 48 inlet;
#X obj 77 344 outlet;
#X obj 77 205 pix_image examples/data/fractal.JPG;
#X obj 223 55 inlet;
#X msg 223 123 open \$1;
#X obj 223 100 openpanel;
#X connect 0 0 2 0;
#X connect 2 0 1 0;
#X connect 3 0 5 0;
#X connect 4 0 2 0;
#X connect 5 0 4 0;
#X restore 451 113 pd image;
#X text 63 186 <none>;
#X text 57 323 Outlet 1: gemlist;
#X text 63 232 Inlet 1: gemlist;
#X text 64 258 Inlet 3: list: color if original pixel-value is below threshold;
#X text 64 283 Inlet 4: list: color if original pixel-value is above threshold;
#X text 50 12 Synopsis: [pix_duotone];
#X text 29 77 Description: reduce the number of colours by thresholding;
#X text 13 91 [pix_duotone] will reduce the number of colours in a pixImage \, based on thresholding. If the pixel has a greater value than the threshold (on all channels) \, the pixel will be set to color1 \, else color2 will be used. The same goes for green and blue. In YUV-space the values are not RGB but YCrCb.;
#X obj 451 196 pix_duotone;
#X msg 465 166 0.2 0.1 0.2;
#X msg 562 164 1 0 0;
#X msg 563 190 0 0 1;
#X text 63 245 Inlet 2: list: threshold (RGB);
#X text 516 105 open an image;
#X text 509 118 (JPEG \, TIFF \, ..);
#N canvas 484 243 450 300 META 0;
#X obj 10 25 declare -lib Gem;
#X text 10 45 DESCRIPTION reduce the number of colours by thresholding;
#X text 10 65 KEYWORDS Gem pix image;
#X text 20 85 INLET_0 gemlist;
#X text 20 105 INLET_1 list;
#X text 20 125 INLET_2 list;
#X text 20 145 INLET_3 list;
#X text 20 165 OUTLET_0 gemlist;
#X text 10 185 AUTHOR IOhannes m zmölnig;
#X text 10 205 LICENSE GPL v2;
#X restore 518 8 pd META;
#X obj 521 261 _gemwin;
#X obj 451 233 _pix2rectangle 3;
#X connect 11 0 14 0;
#X connect 13 0 14 1;
#X connect 14 0 23 0;
#X connect 23 0 32 0;
#X connect 24 0 23 1;
#X connect 25 0 23 2;
#X connect 26 0 23 3;
