#N canvas 30 61 629 346 10;
#X declare -lib Gem;
#X text 452 8 GEM object;
#X obj 8 234 cnv 15 430 100 empty empty empty 20 12 0 14 #e0e0e0 #404040 0;
#X text 39 235 Inlets:;
#X text 38 307 Outlets:;
#X obj 8 186 cnv 15 430 40 empty empty empty 20 12 0 14 #bcbcbc #404040 0;
#X text 17 185 Arguments:;
#X obj 7 56 cnv 15 430 120 empty empty empty 20 12 0 14 #e0e0e0 #404040 0;
#X obj 449 57 cnv 15 170 200 empty empty empty 20 12 0 14 #dce4fc #404040 0;
#X text 453 40 Example:;
#X obj 465 265 cnv 15 100 60 empty empty empty 20 12 0 14 #bcbcbc #404040 0;
#X obj 450 138 cnv 15 160 80 empty empty empty 20 12 0 14 #14e814 #404040 0;
#X obj 451 64 gemhead;
#X text 71 31 Class: pix object;
#X obj 510 65 bng 15 250 50 0 empty empty pix_load 20 8 0 8 #fcfcfc #000000 #000000;
#N canvas 0 0 587 366 image 0;
#X obj 77 48 inlet;
#X obj 77 344 outlet;
#X obj 77 205 pix_image examples/data/fractal.JPG;
#X obj 223 55 inlet;
#X msg 223 123 open \$1;
#X obj 223 100 openpanel;
#X obj 77 269 pix_grey;
#X connect 0 0 2 0;
#X connect 2 0 6 0;
#X connect 3 0 5 0;
#X connect 4 0 2 0;
#X connect 5 0 4 0;
#X connect 6 0 1 0;
#X restore 451 90 pd image;
#X text 56 320 Outlet 1: gemlist;
#X text 53 249 Inlet 1: gemlist;
#X text 516 85 open an image;
#X text 509 98 (JPEG \, TIFF \, ..);
#X obj 451 225 _pix2rectangle 3;
#X obj 451 191 pix_threshold_bernsen;
#X text 50 12 Synopsis: [pix_threshold_bernsen];
#X text 29 56 Description: apply dynamic thresholds to pixes for binarization;
#X text 15 89 pix_threshold_bernsen is a dynamic tiled threshold filter. Each tile's threshold is taken of the mean of the min and max value of a surrounding (2*tile_size) square tile. If a pixels value is higher than the threshold \, this pixel is set to 1 else to 0;
#X text 16 159 Currently this object only works on greyscale images.;
#X floatatom 563 141 5 0 0 0 contrast - - 0;
#X msg 522 170 4 4;
#X text 53 264 Inlet 2: list <float> <float>: number of tiles;
#X text 52 278 Inlet 3: <float>: contrast. if the (max-min)<contrast \, values are clamped to 0;
#X text 63 196 <w> <h>: number of tiles in x- & y-direction;
#X text 123 211 default: 16 16;
#X text 482 169 tiles;
#N canvas 484 243 450 300 META 0;
#X obj 10 25 declare -lib Gem;
#X text 10 45 DESCRIPTION apply dynamic thresholds to pixes for binarization;
#X text 10 65 KEYWORDS Gem pix image;
#X text 20 85 INLET_0 gemlist;
#X text 20 105 INLET_1 list;
#X text 20 125 INLET_2 float;
#X text 20 145 OUTLET_0 gemlist;
#X text 10 165 AUTHOR IOhannes m zmölnig;
#X text 10 185 LICENSE GPL v2;
#X restore 518 8 pd META;
#X obj 473 272 _gemwin;
#X connect 11 0 14 0;
#X connect 13 0 14 1;
#X connect 14 0 20 0;
#X connect 20 0 19 0;
#X connect 25 0 20 2;
#X connect 26 0 20 1;
