#N canvas 392 297 654 372 10;
#X declare -lib Gem;
#X text 452 8 GEM object;
#X obj 8 245 cnv 15 430 100 empty empty empty 20 12 0 14 #e0e0e0 #404040 0;
#X text 39 252 Inlets:;
#X text 38 315 Outlets:;
#X obj 8 204 cnv 15 430 30 empty empty empty 20 12 0 14 #bcbcbc #404040 0;
#X text 17 203 Arguments:;
#X obj 7 76 cnv 15 430 120 empty empty empty 20 12 0 14 #e0e0e0 #404040 0;
#X obj 449 77 cnv 15 170 250 empty empty empty 20 12 0 14 #dce4fc #404040 0;
#X text 453 60 Example:;
#X obj 514 254 cnv 15 100 60 empty empty empty 20 12 0 14 #bcbcbc #404040 0;
#X obj 450 138 cnv 15 160 80 empty empty empty 20 12 0 14 #14e814 #404040 0;
#X obj 451 84 gemhead;
#X text 71 31 Class: pix object;
#X obj 510 85 bng 15 250 50 0 empty empty pix_load 20 8 0 8 #fcfcfc #000000 #000000;
#N canvas 0 0 587 366 image 0;
#X obj 77 48 inlet;
#X obj 77 344 outlet;
#X obj 77 205 pix_image examples/data/fractal.JPG;
#X obj 223 55 inlet;
#X msg 223 123 open \$1;
#X obj 223 100 openpanel;
#X obj 77 291 pix_buf;
#X obj 101 244 loadbang;
#X msg 101 266 auto 1;
#X connect 0 0 2 0;
#X connect 2 0 6 0;
#X connect 3 0 5 0;
#X connect 4 0 2 0;
#X connect 5 0 4 0;
#X connect 6 0 1 0;
#X connect 7 0 8 0;
#X connect 8 0 6 0;
#X restore 451 113 pd image;
#X text 63 214 <none>;
#X text 56 328 Outlet 1: gemlist;
#X text 63 266 Inlet 1: gemlist;
#X text 516 105 open an image;
#X text 509 118 (JPEG \, TIFF \, ..);
#X obj 451 196 pix_deinterlace;
#X msg 477 168 mode \$1;
#X obj 477 150 tgl 15 0 empty empty empty 0 -6 0 8 #fcfcfc #000000 #000000 0 1;
#X text 50 12 Synopsis: [pix_deinterlace];
#X text 29 76 Description: deinterlace an image;
#X text 17 97 [pix_deinterlace] will apply a deinterlacing algorithm on the incoming image. This is done by getting the average of neighbouring rows.;
#X text 21 141 When mode is set to "0" \, only those pixels are de-interlaced if they appear to be interlaced (this is detected by thresholding the difference between adjacent pixels). In mode "1" de-interlacing is always enforced.;
#X text 63 282 Inlet 1: mode <int>: enforce(1) or not(0) (default:1);
#N canvas 484 243 450 300 META 0;
#X obj 10 25 declare -lib Gem;
#X text 10 45 DESCRIPTION deinterlace an image;
#X text 10 65 KEYWORDS Gem pix image;
#X text 20 85 INLET_0 gemlist mode;
#X text 20 105 OUTLET_0 gemlist;
#X text 10 125 AUTHOR IOhannes m zmölnig;
#X text 10 145 LICENSE GPL v2;
#X restore 518 8 pd META;
#X obj 451 223 _pix2rectangle 3;
#X obj 521 261 _gemwin;
#X connect 11 0 14 0;
#X connect 13 0 14 1;
#X connect 14 0 20 0;
#X connect 20 0 29 0;
#X connect 21 0 20 0;
#X connect 22 0 21 0;
