#N canvas 728 323 650 585 10;
#X declare -lib Gem;
#X text 452 8 GEM object;
#X obj 9 326 cnv 15 430 240 empty empty empty 20 12 0 14 #e0e0e0 #404040 0;
#X text 39 328 Inlets:;
#X text 38 432 Outlets:;
#X obj 8 286 cnv 15 430 30 empty empty empty 20 12 0 14 #bcbcbc #404040 0;
#X text 17 285 Arguments:;
#X obj 7 56 cnv 15 430 220 empty empty empty 20 12 0 14 #e0e0e0 #404040 0;
#X obj 449 77 cnv 15 200 380 empty empty empty 20 12 0 14 #dce4fc #404040 0;
#X text 453 60 Example:;
#X obj 514 484 cnv 15 100 60 empty empty empty 20 12 0 14 #bcbcbc #404040 0;
#N canvas 1 98 450 300 gemwin 0;
#X obj 132 136 gemwin;
#X obj 67 89 outlet;
#X obj 67 10 inlet;
#X obj 67 41 route create;
#X msg 67 70 set destroy;
#X msg 142 68 set create;
#X msg 198 112 destroy \, reset;
#X msg 132 94 create \, 1 \, color 0.5 0.5 0.5;
#X connect 2 0 3 0;
#X connect 3 0 4 0;
#X connect 3 0 7 0;
#X connect 3 1 5 0;
#X connect 3 1 6 0;
#X connect 4 0 1 0;
#X connect 5 0 1 0;
#X connect 6 0 0 0;
#X connect 7 0 0 0;
#X restore 519 523 pd gemwin;
#X msg 519 504 create;
#X text 515 483 Create window:;
#X text 71 31 Class: pix object;
#X text 46 445 Outlet 1: gemlist;
#X text 53 342 Inlet 1: gemlist;
#X text 63 296 <width> <height>;
#X obj 518 8 declare -lib Gem;
#X text 50 12 Synopsis: [pix_test];
#X text 29 56 Description: create test pixes;
#X text 22 79 [pix_test] creates a test image \, of the specified dimensions and colorspace.;
#X text 24 118 The test-image consists of the SMPTE colorbars (7 colors with decreasing luminance: white \, yellow \, cyan \, green magenta \, red \, blue) \, followed by a black-white gradient and a white-black gradient.;
#X text 24 176 The bottom of the image is filled with grey noise (but this can be turned off with the 'noise' message);
#X text 53 364 Inlet 1: colorspace RGBA|RGB|YUV/GREY : set format of input-data;
#X text 53 390 Inlet 1: dimen <w> <h> : set dimensions.;
#X text 53 405 Inlet 1: noise <1|0> : with noise (default) or without;
#X obj 450 114 cnv 15 160 230 empty empty empty 20 12 0 14 #14e814 #404040 0;
#X obj 451 84 gemhead;
#X obj 451 403 pix_texture;
#X obj 451 425 square 3.5;
#X obj 451 355 pix_info, f 25;
#X floatatom 471 379 5 0 0 0 - - - 0;
#X floatatom 505 379 5 0 0 0 - - - 0;
#X floatatom 549 379 5 0 0 0 - - - 0;
#X msg 476 136 dimen 1920 1080;
#X obj 476 263 tgl 18 0 empty empty empty 0 -9 0 10 #fcfcfc #000000 #000000 0 1;
#X msg 476 286 noise \$1;
#X msg 476 167 colorspace RGBA;
#X obj 451 159 t a;
#X msg 476 187 colorspace RGB;
#X msg 476 207 colorspace YUV;
#X msg 476 227 colorspace grey;
#X obj 451 251 t a;
#X obj 451 316 pix_test;
#X msg 476 116 dimen 64 64;
#X connect 10 0 11 0;
#X connect 11 0 10 0;
#X connect 27 0 38 0;
#X connect 28 0 29 0;
#X connect 30 0 28 0;
#X connect 30 1 31 0;
#X connect 30 2 32 0;
#X connect 30 3 33 0;
#X connect 34 0 38 0;
#X connect 35 0 36 0;
#X connect 36 0 43 0;
#X connect 37 0 42 0;
#X connect 38 0 42 0;
#X connect 39 0 42 0;
#X connect 40 0 42 0;
#X connect 41 0 42 0;
#X connect 42 0 43 0;
#X connect 43 0 30 0;
#X connect 44 0 38 0;
