#N canvas 0 275 762 461 10;
#X text 54 30 Class: geometric object;
#X text 475 39 Example:;
#X obj 7 65 cnv 15 450 100 empty empty empty 20 12 0 14 -233017 -66577
0;
#X obj 8 216 cnv 15 450 140 empty empty empty 20 12 0 14 -233017 -66577
0;
#X text 9 221 Inlets:;
#X obj 8 176 cnv 15 450 30 empty empty empty 20 12 0 14 -195568 -66577
0;
#X text 17 175 Arguments:;
#X text 27 247 Inlet 1: message: draw [line|fill|point];
#X text 452 8 GEM object;
#X text 27 233 Inlet 1: gemlist;
#X text 9 328 Outlets:;
#X text 21 341 Outlet 1: gemlist;
#X obj 469 58 cnv 15 180 210 empty empty empty 20 12 0 14 -228992 -66577
0;
#X obj 528 274 cnv 15 100 60 empty empty empty 20 12 0 14 -195568 -66577
0;
#N canvas 0 0 450 300 gemwin 0;
#X obj 132 136 gemwin;
#X obj 67 89 outlet;
#X obj 67 10 inlet;
#X obj 67 41 route create;
#X msg 67 70 set destroy;
#X msg 142 68 set create;
#X msg 198 112 destroy;
#X msg 132 112 create \, 1;
#X connect 2 0 3 0;
#X connect 3 0 4 0;
#X connect 3 0 7 0;
#X connect 3 1 5 0;
#X connect 3 1 6 0;
#X connect 4 0 1 0;
#X connect 5 0 1 0;
#X connect 6 0 0 0;
#X connect 7 0 0 0;
#X restore 533 313 pd gemwin;
#X msg 533 294 create;
#X text 529 273 Create window:;
#X obj 474 85 cnv 15 170 140 empty empty empty 20 12 0 14 -85973 -66577
0;
#X obj 521 232 cnv 15 100 30 empty empty empty 20 12 0 14 -24198 -66577
0;
#X msg 479 116 draw line;
#X msg 479 137 draw fill;
#X msg 479 159 draw point;
#X obj 537 64 gemhead;
#X obj 537 239 polygon 5;
#X msg 571 132 -1 -1 0;
#X msg 595 194 0 \$1 0;
#X msg 548 92 1 1 0;
#X msg 560 112 1 -1 0;
#X floatatom 595 177 5 0 0 0 - - -;
#X msg 583 152 -2 1 0;
#X text 33 14 Synopsis: [polygon];
#X text 7 69 Description: Renders a polygon.;
#X text 22 88 [polygon] creates a polygon graphics. The initial argument
is the number of points in the polygon. There can be a maximum of 10
points.;
#X text 21 138 Each (additional) inlet will accept an X Y Z point which
is where the control point will be.;
#X text 26 279 Inlet 2: list: 3(XYZ) float values;
#X text 63 187 number of points of the polygon (mandatory);
#X text 26 300 Inlet N: list: 3(XYZ) float values;
#X text 51 287 ...;
#X text 27 263 Inlet 1: message: width <float> : line-width;
#X connect 14 0 15 0;
#X connect 15 0 14 0;
#X connect 19 0 23 0;
#X connect 20 0 23 0;
#X connect 21 0 23 0;
#X connect 22 0 23 0;
#X connect 24 0 23 3;
#X connect 25 0 23 5;
#X connect 26 0 23 1;
#X connect 27 0 23 2;
#X connect 28 0 25 0;
#X connect 29 0 23 4;
