#N canvas 98 358 600 500 12;
#X msg 181 129 gemList;
#X msg 38 124 draw line;
#X msg 38 155 draw fill;
#X msg 38 187 draw point;
#X text 133 67 GEM object;
#X obj 181 328 primTri;
#X msg 244 170 x y z;
#X msg 254 204 x y z;
#X msg 272 242 x y z;
#X msg 394 238 r g b a;
#X msg 385 202 r g b a;
#X msg 374 169 r g b a;
#X text 138 25 [primTri];
#X text 43 405 a triangle primitive \, with colour gradient;
#X connect 0 0 5 0;
#X connect 1 0 5 0;
#X connect 2 0 5 0;
#X connect 3 0 5 0;
#X connect 6 0 5 1;
#X connect 7 0 5 2;
#X connect 8 0 5 3;
#X connect 9 0 5 6;
#X connect 10 0 5 5;
#X connect 11 0 5 4;
