#N canvas 621 231 600 500 8;
#X msg 198 130 gemList;
#X msg 100 123 draw line;
#X msg 100 154 draw fill;
#X msg 100 186 draw point;
#X text 176 62 GEM object;
#X text 173 18 rectangle;
#X obj 198 230 rectangle;
#X msg 227 169 width;
#X msg 256 197 height;
#X text 90 291 rectangle renders a rectangle with the current color \, transformation matrix \, and texture information.;
#X connect 0 0 6 0;
#X connect 1 0 6 0;
#X connect 2 0 6 0;
#X connect 3 0 6 0;
#X connect 7 0 6 1;
#X connect 8 0 6 2;
