#N canvas 441 266 600 500 10;
#X msg 22 104 gemList;
#X msg 22 283 gemList;
#X text 123 66 GEM object;
#X msg 317 131 gemList;
#X msg 317 278 gemList;
#X text 130 40 scaleXYZ;
#X obj 22 229 scaleXYZ;
#X obj 317 230 scaleXYZ 2 1 1;
#X msg 41 133 X scale;
#X msg 61 160 Y scale;
#X msg 81 188 Z scale;
#X text 32 319 scaleXYZ accepts a gemList and changes the current transformation matrix by the specified scale;
#X connect 0 0 6 0;
#X connect 3 0 7 0;
#X connect 6 0 1 0;
#X connect 7 0 4 0;
#X connect 8 0 6 1;
#X connect 9 0 6 2;
#X connect 10 0 6 3;
