#N canvas 57 61 625 325 10;
#X declare -lib Gem;
#X text 452 8 GEM object;
#X obj 8 226 cnv 15 430 90 empty empty empty 20 12 0 14 #e0e0e0 #404040 0;
#X text 39 233 Inlets:;
#X text 63 246 Inlet 1: gemlist;
#X text 39 276 Outlets:;
#X text 57 289 Outlet 1: gemlist;
#X obj 8 176 cnv 15 430 40 empty empty empty 20 12 0 14 #bcbcbc #404040 0;
#X text 17 175 Arguments:;
#X obj 8 76 cnv 15 440 90 empty empty empty 20 12 0 14 #e0e0e0 #404040 0;
#X text 453 60 Example:;
#X text 71 31 Class: manipulation object;
#X text 29 77 Description: shear;
#X text 50 12 Synopsis: [shearXZ];
#X text 41 91 [shearXZ] accepts a gemList and changes the current transformation matrix by the specified shear;
#X text 60 194 1st argument: shear factor (XZ);
#X text 63 261 Inlet 2: float: XZ shear factor;
#X obj 449 77 cnv 15 170 239 empty empty empty 20 12 0 14 #dce4fc #404040 0;
#X obj 514 249 cnv 15 100 60 empty empty empty 20 12 0 14 #bcbcbc #404040 0;
#X obj 450 108 cnv 15 160 60 empty empty empty 20 12 0 14 #14e814 #404040 0;
#X obj 458 82 gemhead;
#X obj 458 177 square;
#X floatatom 507 115 3 -4 4 0 - - - 0;
#X obj 458 136 shearXZ 1;
#X text 36 122 the X translation depend on Z position and the shear factor (float).;
#N canvas 484 243 450 300 META 0;
#X obj 10 25 declare -lib Gem;
#X text 10 45 DESCRIPTION shear;
#X text 10 65 KEYWORDS Gem openGL transformation;
#X text 20 85 INLET_0 gemlist;
#X text 20 105 INLET_1 float;
#X text 20 125 OUTLET_0 gemlist;
#X text 10 145 AUTHOR IOhannes m zmölnig;
#X text 10 165 LICENSE GPL v2;
#X restore 518 8 pd META;
#X obj 521 254 _gemwin;
#X connect 19 0 22 0;
#X connect 21 0 22 1;
#X connect 22 0 20 0;
