#N canvas 61 61 639 342 10;
#X declare -lib Gem;
#X text 452 8 GEM object;
#X obj 8 216 cnv 15 430 100 empty empty empty 20 12 0 14 #e0e0e0 #404040 0;
#X text 39 218 Inlets:;
#X text 63 231 Inlet 1: gemlist;
#X text 39 272 Outlets:;
#X text 57 285 Outlet 1: gemlist;
#X obj 8 166 cnv 15 430 40 empty empty empty 20 12 0 14 #bcbcbc #404040 0;
#X text 17 165 Arguments:;
#X obj 8 66 cnv 15 430 90 empty empty empty 20 12 0 14 #e0e0e0 #404040 0;
#X obj 449 77 cnv 15 170 250 empty empty empty 20 12 0 14 #dce4fc #404040 0;
#X text 453 60 Example:;
#X obj 514 254 cnv 15 100 75 empty empty empty 20 12 0 14 #bcbcbc #404040 0;
#X text 71 31 Class: manipulation object;
#X obj 450 112 cnv 15 120 50 empty empty empty 20 12 0 14 #14e814 #404040 0;
#X obj 451 84 gemhead;
#X obj 500 192 gemhead;
#X obj 500 230 world_light;
#X obj 451 193 sphere;
#X obj 500 211 rotate 90 1 0 0;
#X obj 451 166 specular 1 0 0;
#X floatatom 509 121 5 0 128 0 shiny - - 0;
#X text 63 249 Inlet 2: int: shininess 0..128;
#X text 62 176 the shininess value;
#X text 13 69 Description: shininess of the material;
#X text 50 12 Synopsis: [shininess];
#X text 22 86 [shininess] accepts a gemList and sets the shininess-value for all subsequent vertex operations;
#X text 20 114 [shininess] accepts a single shininess-value that ranges between 0 and 128 the shininess can be set via an initial argument.;
#X obj 451 140 shininess;
#X text 60 191 default:0;
#N canvas 484 243 450 300 META 0;
#X obj 10 25 declare -lib Gem;
#X text 10 45 DESCRIPTION shininess of the material;
#X text 10 65 KEYWORDS Gem openGL transformation;
#X text 20 85 INLET_0 gemlist;
#X text 20 105 INLET_1 int;
#X text 20 125 OUTLET_0 gemlist;
#X text 10 145 AUTHOR IOhannes m zmölnig;
#X text 10 165 LICENSE GPL v2;
#X restore 518 8 pd META;
#X obj 518 258 _gemwin \; 0 \; 0 \; lighting 1;
#X connect 14 0 27 0;
#X connect 15 0 18 0;
#X connect 18 0 16 0;
#X connect 19 0 17 0;
#X connect 20 0 27 1;
#X connect 27 0 19 0;
