#N canvas 289 160 683 363 10;
#X declare -lib Gem;
#X text 54 30 Class: geometric object;
#X obj 499 77 cnv 15 170 250 empty empty empty 20 12 0 14 #dce4fc #404040 0;
#X obj 564 254 cnv 15 100 60 empty empty empty 20 12 0 14 #bcbcbc #404040 0;
#X text 505 59 Example:;
#X obj 7 65 cnv 15 450 80 empty empty empty 20 12 0 14 #e0e0e0 #404040 0;
#X obj 8 216 cnv 15 450 130 empty empty empty 20 12 0 14 #e0e0e0 #404040 0;
#X text 9 221 Inlets:;
#X obj 8 156 cnv 15 450 50 empty empty empty 20 12 0 14 #bcbcbc #404040 0;
#X text 17 155 Arguments:;
#X text 27 247 Inlet 1: message: draw [line|fill|point];
#X text 502 8 GEM object;
#X text 27 233 Inlet 1: gemlist;
#X text 9 310 Outlets:;
#X text 21 323 Outlet 1: gemlist;
#X obj 502 112 cnv 15 160 120 empty empty empty 20 12 0 14 #14e814 #404040 0;
#X obj 513 84 gemhead;
#X floatatom 566 134 5 0 0 0 - - - 0;
#X floatatom 620 165 5 0 0 0 - - - 0;
#X text 620 149 height;
#X text 27 275 Inlet 3: float: height (dimY);
#X text 566 118 width;
#X text 33 14 Synopsis: [slideSquares];
#X text 7 69 Description: Renders sliding rectangles.;
#X text 16 86 The slideSquares object renders a number of sliding rectangles at the current position with current color. The dimensions of the sliding rectangles can be changed via the inlet2 and inlet3.;
#X text 63 167 dimensions of the sliding rectangles (width height);
#X text 65 181 default: 1 1;
#X text 27 260 Inlet 2: float: width (dimX);
#X obj 513 209 slideSquares 1 1;
#N canvas 484 243 450 300 META 0;
#X obj 10 25 declare -lib Gem;
#X text 10 45 DESCRIPTION Renders sliding rectangles.;
#X text 10 65 KEYWORDS Gem openGL shape;
#X text 20 85 INLET_0 gemlist draw;
#X text 20 105 INLET_1 float;
#X text 20 125 INLET_2 float;
#X text 20 145 OUTLET_0 gemlist;
#X text 10 165 AUTHOR IOhannes m zmölnig;
#X text 10 185 LICENSE GPL v2;
#X restore 568 8 pd META;
#X obj 571 261 _gemwin;
#X connect 15 0 27 0;
#X connect 16 0 27 1;
#X connect 17 0 27 2;
