#N canvas 339 182 600 500 10;
#X text 124 54 sphere;
#X msg 175 211 slices;
#X text 91 291 sphere renders a sphere with the current color \, transformation matrix \, and texture information. Slices is the number of slices which will be used to make up the sphere.;
#X msg 153 184 size;
#X msg 132 146 gemList;
#X msg 33 138 draw line;
#X msg 33 169 draw fill;
#X msg 33 201 draw point;
#X text 123 89 GEM object;
#X obj 132 246 sphere;
#X connect 1 0 9 2;
#X connect 3 0 9 1;
#X connect 4 0 9 0;
#X connect 5 0 9 0;
#X connect 6 0 9 0;
#X connect 7 0 9 0;
