#N canvas 274 73 663 374 10;
#X declare -lib Gem;
#X text 54 30 Class: geometric object;
#X obj 479 47 cnv 15 170 270 empty empty empty 20 12 0 14 #dce4fc #404040 0;
#X obj 485 252 cnv 15 100 60 empty empty empty 20 12 0 14 #bcbcbc #404040 0;
#X text 485 29 Example:;
#X obj 7 65 cnv 15 450 80 empty empty empty 20 12 0 14 #e0e0e0 #404040 0;
#X obj 8 216 cnv 15 450 100 empty empty empty 20 12 0 14 #e0e0e0 #404040 0;
#X text 9 221 Inlets:;
#X obj 8 154 cnv 15 450 50 empty empty empty 20 12 0 14 #bcbcbc #404040 0;
#X text 17 153 Arguments:;
#X text 27 247 Inlet 1: message: draw [line|fill|point];
#X text 27 261 Inlet 2: float: size;
#X text 452 8 GEM object;
#X text 27 233 Inlet 1: gemlist;
#X text 9 287 Outlets:;
#X text 21 300 Outlet 1: gemlist;
#X obj 486 184 cnv 15 130 60 empty empty empty 20 12 0 14 #14e814 #404040 0;
#X msg 506 88 draw line;
#X msg 512 111 draw fill;
#X msg 519 132 draw point;
#X obj 497 59 gemhead;
#X floatatom 519 187 3 0 0 0 - - - 0;
#X text 542 186 size;
#X floatatom 542 204 3 0 0 0 - - - 0;
#X text 565 203 segments;
#X text 27 272 Inlet 3: int: number of segments;
#X text 33 14 Synopsis: [sphere];
#X text 16 69 Description: Renders a sphere.;
#X text 30 85 The sphere object renders a segmented sphere at the current position with current color. The look of the sphere can be changed with the draw message \, its size can be changed via the second inlet.;
#X obj 497 222 sphere 1;
#X text 35 168 size of the sphere \, segments;
#X text 34 184 defaults: 1 \, 10;
#X text 33 330 see also:;
#X obj 102 331 sphere3d;
#N canvas 484 243 450 300 META 0;
#X obj 10 25 declare -lib Gem;
#X text 10 45 DESCRIPTION Renders a sphere.;
#X text 10 65 KEYWORDS Gem openGL shape;
#X text 20 85 INLET_0 gemlist draw;
#X text 20 105 INLET_1 float;
#X text 20 125 INLET_2 int;
#X text 20 145 OUTLET_0 gemlist;
#X text 10 165 AUTHOR IOhannes m zmölnig;
#X text 10 185 LICENSE GPL v2;
#X restore 548 8 pd META;
#X obj 492 257 _gemwin;
#X connect 16 0 28 0;
#X connect 17 0 28 0;
#X connect 18 0 28 0;
#X connect 19 0 28 0;
#X connect 20 0 28 1;
#X connect 22 0 28 2;
