#N canvas 474 165 730 643 12;
#X msg 199 131 gemList;
#X text 176 62 GEM object;
#X text 173 18 [text2d];
#X text 74 374 [text2d] renders one line of a text with the current
color \, but without 3D-transformation;
#X msg 309 295 <size>;
#X msg 301 118 text this is a line of text;
#X obj 199 293 text2d;
#X msg 307 184 font <font.ttf>;
#X text 74 446 "text <list>": text to render;
#X text 77 470 "font <font.ttf>": true type font;
#X text 78 494 "<size>": font-size in points;
#X msg 307 158 alias <mode>;
#X text 79 518 "alias <mode>": turn anti-aliasing on(1) r off(0);
#X msg 306 212 justify <horizontal> <vertical>;
#X text 78 546 "justify <h> <v>": text-justification. <h> can be "left"
\, "right" or "center". <v> can be "top" \, "bottom" or "center";
#X text 79 590 "precision <prec>": select precision;
#X msg 306 243 precision <prec>;
#X connect 0 0 6 0;
#X connect 4 0 6 1;
#X connect 5 0 6 0;
#X connect 7 0 6 0;
#X connect 13 0 6 0;
#X connect 16 0 6 0;
