#N canvas 474 165 730 633 12;
#X msg 199 131 gemList;
#X text 176 62 GEM object;
#X msg 332 321 <size>;
#X msg 301 118 text this is a line of text;
#X msg 307 184 font <font.ttf>;
#X text 74 436 "text <list>": text to render;
#X text 77 460 "font <font.ttf>": true type font;
#X text 78 484 "<size>": font-size in points;
#X msg 307 158 alias <mode>;
#X text 79 508 "alias <mode>": turn anti-aliasing on(1) r off(0);
#X text 79 590 "precision <prec>": select precision;
#X msg 306 243 precision <prec>;
#X obj 199 333 textextruded;
#X text 173 18 [textextruded];
#X text 74 374 [textextruded] renders one line of a text with the current
color and all 3d-transformations and extrudes it to the specified depth
;
#X msg 307 274 depth <depth>;
#X msg 306 212 justify <horizontal> <vertical> <z>;
#X text 76 533 "justify <h> [<v> [<z>]]": text-justification. <h> can
be "left" \, "right" or "center". <v> can be "top" \, "bottom" or "middle".
<z> can be "front" \, "back" or "halfway";
#X text 79 614 "depth <depth>": set the amount of extrusion (default:
20);
#X connect 0 0 12 0;
#X connect 2 0 12 1;
#X connect 3 0 12 0;
#X connect 4 0 12 0;
#X connect 8 0 12 0;
#X connect 11 0 12 0;
#X connect 15 0 12 0;
#X connect 16 0 12 0;
