#N canvas 372 239 600 500 10;
#X msg 32 120 gemList;
#X msg 32 283 gemList;
#X text 126 63 GEM object;
#X msg 235 132 gemList;
#X msg 235 279 gemList;
#X text 252 198 translate 3 units in the X direction;
#X obj 32 230 translateXYZ;
#X msg 62 145 X distance;
#X msg 92 171 Y distance;
#X msg 123 197 Z distance;
#X obj 235 225 translateXYZ 3 0 0;
#X text 125 28 translateXYZ;
#X text 47 336 translateXYZ accepts a gemList and changes the current transformation matrix by the specified translation;
#X connect 0 0 6 0;
#X connect 3 0 10 0;
#X connect 6 0 1 0;
#X connect 7 0 6 1;
#X connect 8 0 6 2;
#X connect 9 0 6 3;
#X connect 10 0 4 0;
