#N canvas 749 231 600 500 10;
#X text 124 68 GEM object;
#X obj 123 273 unpack 0 0 0;
#X floatatom 123 319;
#X floatatom 168 348;
#X floatatom 214 319;
#X text 138 24 tripleRand;
#X msg 123 156 bang;
#X obj 123 223 tripleRand 1 0.1 0.5;
#X text 46 406 tripleRand is like the randomF object except that it works with 3 values at once.;
#X connect 1 0 2 0;
#X connect 1 1 3 0;
#X connect 1 2 4 0;
#X connect 6 0 7 0;
#X connect 7 0 1 0;
