#N canvas 165 104 485 311 12;
#X obj 16 116 gemwin;
#X obj 206 14 gemhead;
#X obj 206 41 color;
#X msg 226 136 draw line;
#X msg 235 158 draw fill;
#X msg 244 180 width 1;
#X msg 252 202 width 10;
#X msg 16 15 create \, 1;
#X floatatom 317 100 5 0 0 0 - - -;
#X msg 217 114 draw point;
#X obj 16 170 world_light;
#X obj 16 143 gemhead 1;
#X obj 36 60 loadbang;
#X floatatom 327 119 5 0 0 0 - - -;
#X floatatom 337 138 5 0 0 0 - - -;
#X obj 206 276 tube 0.5 0.9;
#X floatatom 347 157 5 0 0 0 - - -;
#X floatatom 355 176 5 0 0 0 - - -;
#X floatatom 363 195 5 0 0 0 - - -;
#X floatatom 372 214 5 0 0 0 - - -;
#X floatatom 381 233 5 0 0 0 - - -;
#X floatatom 390 252 5 0 0 0 - - -;
#X text 365 99 D1;
#X text 375 119 D2;
#X text 385 137 H;
#X text 393 157 Tx;
#X text 402 176 ty;
#X text 410 194 R1x;
#X text 420 214 R1y;
#X text 428 233 R12;
#X text 438 252 R2y;
#X obj 206 92 rotateXYZ;
#X floatatom 274 65 5 0 0 0 - - -;
#X floatatom 321 65 5 0 0 0 - - -;
#X msg 26 37 0 \, destroy;
#X msg 36 85 reset \, lighting 1;
#X floatatom 228 65 5 0 0 0 - - -;
#X text 314 277 default = D1 and D2;
#X obj 279 12 loadbang;
#X msg 279 35 45;
#X connect 1 0 2 0;
#X connect 2 0 31 0;
#X connect 3 0 15 0;
#X connect 4 0 15 0;
#X connect 5 0 15 0;
#X connect 6 0 15 0;
#X connect 7 0 0 0;
#X connect 8 0 15 1;
#X connect 9 0 15 0;
#X connect 11 0 10 0;
#X connect 12 0 35 0;
#X connect 13 0 15 2;
#X connect 14 0 15 3;
#X connect 16 0 15 4;
#X connect 17 0 15 5;
#X connect 18 0 15 6;
#X connect 19 0 15 7;
#X connect 20 0 15 8;
#X connect 21 0 15 9;
#X connect 31 0 15 0;
#X connect 32 0 31 2;
#X connect 33 0 31 3;
#X connect 34 0 0 0;
#X connect 35 0 0 0;
#X connect 36 0 31 1;
#X connect 38 0 39 0;
#X connect 39 0 36 0;
