#N canvas 577 180 600 500 10;
#X text 119 93 GEM object;
#X obj 123 273 unpack 0 0 0;
#X floatatom 123 319;
#X floatatom 168 348;
#X floatatom 214 319;
#X obj 367 276 unpack 0 0 0;
#X floatatom 367 322;
#X floatatom 412 351;
#X floatatom 458 322;
#X floatatom 174 190;
#X msg 123 157 1 0 5;
#X msg 367 164 1 0 5;
#X floatatom 394 191;
#X floatatom 394 191;
#X text 138 26 vector-;
#X text 161 50 v-;
#X obj 123 224 vector-;
#X obj 367 226 v-;
#X text 109 427 subtract a scalar from a vector;
#X connect 1 0 2 0;
#X connect 1 1 3 0;
#X connect 1 2 4 0;
#X connect 5 0 6 0;
#X connect 5 1 7 0;
#X connect 5 2 8 0;
#X connect 9 0 16 1;
#X connect 10 0 16 0;
#X connect 11 0 17 0;
#X connect 13 0 17 1;
#X connect 16 0 1 0;
#X connect 17 0 5 0;
