#N canvas 200 45 600 500 10;
#X text 124 68 GEM object;
#X obj 123 273 unpack 0 0 0;
#X floatatom 123 319;
#X floatatom 168 348;
#X floatatom 214 319;
#X text 138 25 vector+ v+;
#X obj 123 223 vector+;
#X obj 367 226 v+ 5;
#X obj 367 276 unpack 0 0 0;
#X floatatom 367 322;
#X floatatom 412 351;
#X floatatom 458 322;
#X floatatom 174 190;
#X msg 123 157 1 0 5;
#X msg 367 164 1 0 5;
#X floatatom 394 191;
#X floatatom 394 191;
#X text 109 428 add a scalar to a vector;
#X connect 1 0 2 0;
#X connect 1 1 3 0;
#X connect 1 2 4 0;
#X connect 6 0 1 0;
#X connect 7 0 8 0;
#X connect 8 0 9 0;
#X connect 8 1 10 0;
#X connect 8 2 11 0;
#X connect 12 0 6 1;
#X connect 13 0 6 0;
#X connect 14 0 7 0;
#X connect 16 0 7 1;
