#N canvas 673 187 529 313 12;
#X text 21 74 The imageIO plugin can write the following formats:;
#X text 22 176 This plugin uses Apple's deprecated QuickTime framework and is only available on 32bit OSX and Windows., f 55;
#X text 37 100 - JPEG \, JPEG2000 \, TIFF \, GIF \, PNG \, BMP \, TARGA \, SGI \, PhotoShop \, QuickTime images \, MacPaint images, f 69;
