#N canvas 61 128 636 521 10;
#X text 89 47 DeckLink video backend;
#X text 89 59 ======================;
#X text 61 94 this allows you to use capture cards manufactured by
Blackmagic \, using their proprietary API.;
#X text 120 195 SDI;
#X text 120 210 HDMI;
#X text 120 225 OpticalSDI;
#X text 120 240 Component;
#X text 120 255 SVideo;
#X text 89 176 connection;
#X text 95 286 format;
#X text 120 300 ntsc;
#X text 120 315 nt23;
#X text 120 330 pal;
#X text 120 345 ntsp;
#X text 120 360 palp;
#X text 180 300 Hp25;
#X text 180 315 Hp29;
#X text 180 330 Hp30;
#X text 180 345 Hi50;
#X text 180 360 Hi59;
#X text 180 375 Hi60;
#X text 180 390 Hp50;
#X text 180 405 Hp59;
#X text 180 420 Hp60;
#X text 180 435 hp50;
#X text 180 450 hp59;
#X text 180 465 hp60;
#X text 330 300 2k23;
#X text 330 315 2k24;
#X text 330 330 2k25;
#X text 330 345 2d23;
#X text 330 360 2d24;
#X text 330 375 2d25;
#X text 390 300 4k23;
#X text 390 315 4k24;
#X text 390 330 4k25;
#X text 390 345 4k29;
#X text 390 360 4k30;
#X text 390 375 4k50;
#X text 390 390 4k59;
#X text 390 405 4k60;
#X text 390 420 4d23;
#X text 390 435 4d24;
#X text 390 450 4d25;
#X text 390 465 iunk;
#X text 63 151 known parameters-values:;
#X text 120 375 23fps;
#X text 120 390 24fps;
#X text 240 300 1080p23.98;
#X text 240 315 1080p24;
#X text 240 330 1080p25;
#X text 240 345 1080p29.97;
#X text 240 360 1080p30;
#X text 240 375 1080i50;
#X text 240 390 1080i59.94;
#X text 240 405 1080i60;
#X text 240 420 720p50;
#X text 240 435 720p59.94;
#X text 240 450 720p60;
