#N canvas 180 41 560 399 10;
#X obj 22 342 gemwin;
#X msg 32 38 create;
#X msg 45 70 destroy;
#X msg 52 129 1;
#X msg 65 156 0;
#X floatatom 369 147 0 0 0;
#X text 99 141 turn rendering on and off;
#X text 101 51 create and destroy the graphics window;
#X obj 325 202 pix_image ../data/fractal.JPG;
#X obj 325 245 pix_texture;
#X obj 325 171 rotate 0 1 1;
#X obj 325 277 cube;
#X obj 325 124 gemhead;
#N canvas 87 154 247 179 Gem.init 0;
#X obj 118 46 loadbang;
#X msg 118 81 reset;
#X obj 118 113 outlet;
#X connect 0 0 1 0;
#X connect 1 0 2 0;
#X restore 44 314 pd Gem.init;
#X connect 1 0 0 0;
#X connect 2 0 0 0;
#X connect 3 0 0 0;
#X connect 4 0 0 0;
#X connect 5 0 10 1;
#X connect 8 0 9 0;
#X connect 9 0 11 0;
#X connect 10 0 8 0;
#X connect 12 0 10 0;
#X connect 13 0 0 0;
