#N canvas 605 462;
#X obj 58 264 gemwin;
#X msg 117 208 create;
#X obj 251 46 gemhead;
#X msg 124 235 destroy;
#X msg 81 90 1;
#X msg 96 118 0;
#X obj 251 424 square;
#X obj 251 369 pix_coordinate;
#X obj 251 118 pix_texture;
#X intatom 333 179 0;
#X msg 113 159 dimen 300 300;
#X obj 251 83 pix_image ../data/fractal.JPG;
#X msg 380 266 0.0 0.0 1.0 0.0 1.0 1.0 0.0 1.0;
#X msg 366 242 0.0 0.0 2.0 0.0 2.0 2.0 0.0 2.0;
#X msg 386 292 0.0 0.0 0.5 0.0 0.5 0.5 0.0 0.5;
#X msg 333 214 0.0 0.0 \$1 0.0 \$1 \$1 0.0 \$1;
#X connect 1 0 0 0;
#X connect 2 0 11 0;
#X connect 3 0 0 0;
#X connect 4 0 0 0;
#X connect 5 0 0 0;
#X connect 7 0 6 0;
#X connect 8 0 7 0;
#X connect 9 0 15 0;
#X connect 10 0 0 0;
#X connect 11 0 8 0;
#X connect 12 0 7 1;
#X connect 13 0 7 1;
#X connect 14 0 7 1;
#X connect 15 0 7 1;
