#N canvas 110 90 876 486 10;
#X text 653 313 Inlet 1: gemlist;
#X obj 209 277 gemhead;
#X floatatom 622 130 5 0 0 2 size - -;
#X floatatom 539 84 5 0 0 2 height - -;
#X floatatom 241 339 5 0 0 0 - - -;
#X msg 322 5 draw line;
#X msg 322 25 draw fill;
#X msg 322 45 draw point;
#X text 653 188 00..retrigger current action;
#X text 653 200 01..flat;
#X text 653 211 02..spike;
#X text 653 221 03..diagonal wall;
#X text 652 234 04..sidewall;
#X text 652 245 05..hole;
#X text 652 256 06..middleblock;
#X text 652 267 07..diagonalblock;
#X text 652 278 08..cornerblock;
#X text 652 288 09..hill;
#X obj 718 28 vradio 11 1 0 11 empty empty action -10 -6 0 8 -262144
-1 -1 0;
#X text 651 299 10..hill4 (default);
#X floatatom 274 339 5 0 0 0 - - -;
#X floatatom 308 339 5 0 0 0 - - -;
#X floatatom 13 -15 5 0 0 0 - - -;
#X msg 415 228 force 25 25 30;
#X msg 539 45 0.06;
#X obj 539 17 loadbang;
#X obj 13 3 / 100;
#X floatatom 173 -15 5 0 0 0 - - -;
#X obj 173 4 / 100;
#X obj 401 39 random 50;
#X obj 444 59 random 50;
#X obj 401 81 pack 0 0;
#X obj 401 15 metro 300;
#X msg 415 273 position 10 10 100;
#X msg 718 155 mode \$1;
#X msg 415 250 force 4 2 50;
#X msg 538 101 height \$1;
#X floatatom 65 -16 5 0 0 0 - - -;
#X obj 65 2 / 100;
#X floatatom 216 -16 5 0 0 0 - - -;
#X obj 216 3 / 100;
#X floatatom 114 -17 5 0 0 0 - - -;
#X obj 114 1 / 100;
#X floatatom 258 -17 5 0 0 0 - - -;
#X obj 258 2 / 100;
#X obj 623 74 loadbang;
#X msg 23 48 K1 0.05;
#X msg 13 24 K1 \$1;
#X msg 179 46 D1 0.1;
#X msg 173 25 D1 \$1;
#X msg 65 23 K2 \$1;
#X msg 114 22 K3 \$1;
#X msg 75 47 K2 0.05;
#X msg 124 46 K3 0.05;
#X msg 216 24 D2 \$1;
#X msg 222 45 D2 0.1;
#X msg 258 23 D3 \$1;
#X obj 13 235 newWave 50;
#X msg 264 44 D3 0.01;
#X msg 329 67 width 1;
#X msg 330 87 width 10;
#X obj 402 -3 tgl 15 0 empty empty empty 0 -6 0 8 -262144 -1 -1 0 1
;
#X msg 20 345 create;
#X msg 87 411 \; pd quit \;;
#N canvas 448 80 472 322 gemwin 0;
#X obj 67 89 outlet;
#X obj 67 10 inlet;
#X obj 67 41 route create;
#X msg 67 70 set destroy;
#X msg 142 68 set create;
#X msg 198 112 destroy;
#X msg 132 112 create \, 1;
#X msg 290 67 lighting 1;
#X obj 288 45 loadbang;
#X obj 132 136 gemwin 40;
#X msg 317 90 lighting 0;
#X connect 1 0 2 0;
#X connect 2 0 3 0;
#X connect 2 0 6 0;
#X connect 2 1 4 0;
#X connect 2 1 5 0;
#X connect 3 0 0 0;
#X connect 4 0 0 0;
#X connect 5 0 9 0;
#X connect 6 0 9 0;
#X connect 7 0 9 0;
#X connect 8 0 7 0;
#X connect 10 0 9 0;
#X restore 20 372 pd gemwin;
#N canvas 0 22 247 188 cpu 0;
#X obj 30 45 metro 1000;
#X obj 32 22 loadbang;
#X obj 33 96 cputime;
#X obj 30 69 t b b;
#X obj 34 125 / 10;
#X obj 33 150 outlet;
#X connect 0 0 3 0;
#X connect 1 0 0 0;
#X connect 2 0 4 0;
#X connect 3 0 2 0;
#X connect 3 1 2 1;
#X connect 4 0 5 0;
#X restore 20 396 pd cpu;
#X floatatom 20 426 5 0 0 0 - - -;
#X obj 87 348 gemhead;
#X obj 87 374 world_light;
#X obj 209 382 render_trigger;
#X obj 209 360 rotateXYZ 300 0 0;
#X obj 311 -18 loadbang;
#X msg 415 207 force 20 20 30;
#X msg 623 97 2;
#X obj 209 317 pix_texture;
#X obj 209 298 pix_image ../data/fractal.JPG;
#X msg 400 101 force \$1 \$2 -0.1;
#X connect 1 0 75 0;
#X connect 2 0 57 1;
#X connect 3 0 36 0;
#X connect 4 0 70 1;
#X connect 5 0 57 0;
#X connect 6 0 57 0;
#X connect 7 0 57 0;
#X connect 18 0 34 0;
#X connect 20 0 70 2;
#X connect 21 0 70 3;
#X connect 22 0 26 0;
#X connect 23 0 57 0;
#X connect 24 0 3 0;
#X connect 25 0 24 0;
#X connect 26 0 47 0;
#X connect 27 0 28 0;
#X connect 28 0 49 0;
#X connect 29 0 31 0;
#X connect 30 0 31 1;
#X connect 31 0 76 0;
#X connect 32 0 29 0;
#X connect 32 0 30 0;
#X connect 33 0 57 0;
#X connect 34 0 57 0;
#X connect 35 0 57 0;
#X connect 36 0 57 0;
#X connect 37 0 38 0;
#X connect 38 0 50 0;
#X connect 39 0 40 0;
#X connect 40 0 54 0;
#X connect 41 0 42 0;
#X connect 42 0 51 0;
#X connect 43 0 44 0;
#X connect 44 0 56 0;
#X connect 45 0 73 0;
#X connect 46 0 57 0;
#X connect 47 0 57 0;
#X connect 48 0 57 0;
#X connect 49 0 57 0;
#X connect 50 0 57 0;
#X connect 51 0 57 0;
#X connect 52 0 57 0;
#X connect 53 0 57 0;
#X connect 54 0 57 0;
#X connect 55 0 57 0;
#X connect 56 0 57 0;
#X connect 58 0 57 0;
#X connect 59 0 57 0;
#X connect 60 0 57 0;
#X connect 61 0 32 0;
#X connect 62 0 64 0;
#X connect 64 0 62 0;
#X connect 65 0 66 0;
#X connect 67 0 68 0;
#X connect 69 0 57 0;
#X connect 69 2 57 0;
#X connect 70 0 69 0;
#X connect 71 0 48 0;
#X connect 71 0 46 0;
#X connect 72 0 57 0;
#X connect 73 0 2 0;
#X connect 74 0 70 0;
#X connect 75 0 74 0;
#X connect 76 0 57 0;
