#N canvas 80 202 550 399 10;
#X obj 23 151 gemwin;
#X msg 20 89 create;
#X msg 27 114 destroy;
#X obj 88 105 tgl 30 0 empty empty empty 20 8 32 8 -262144 -1 -1 0
1;
#X msg 12 36 profile 0;
#X msg 22 60 profile 1;
#X msg 107 34 dimen 640 480;
#X msg 111 62 offset 0 0;
#X obj 251 145 gemhead;
#X obj 15 185 metro 33;
#X obj 16 211 counter;
#X obj 86 162 tgl 15 0 empty empty empty 0 -6 32 8 -262144 -1 -1 0
1;
#X floatatom 99 278 5 0 0 0 - - -;
#X floatatom 108 294 5 0 0 0 - - -;
#X obj 91 346 newWave;
#X msg 211 115 open ../data/anim-1.mov;
#X obj 187 233 t f b;
#X msg 190 179 auto \$1;
#X obj 195 150 tgl 15 0 empty empty empty 0 -6 32 8 -262144 -1 -1 0
1;
#X floatatom 435 198 0 0 0 0 - - -;
#X floatatom 399 198 0 0 0 0 - - -;
#X floatatom 470 198 0 0 0 0 - - -;
#X floatatom 362 162 0 0 0 0 - - -;
#X floatatom 326 162 0 0 0 0 - - -;
#X floatatom 397 162 0 0 0 0 - - -;
#X obj 210 57 openpanel;
#X obj 213 29 bng 15 250 50 0 empty empty empty 0 -6 32 8 -262144 -1
-1;
#X msg 210 84 open \$1;
#X floatatom 119 312 5 0 0 0 - - -;
#X floatatom 162 311 5 0 0 0 - - -;
#X floatatom 324 242 5 0 0 0 - - -;
#X obj 90 260 pix_texture;
#X obj 251 200 rotateXYZ 0 0 -90;
#X obj 380 239 translateXYZ -7 -7 -5;
#X obj 309 277 scale 1;
#X obj 90 233 pix_film;
#X connect 1 0 0 0;
#X connect 2 0 0 0;
#X connect 3 0 0 0;
#X connect 4 0 0 0;
#X connect 5 0 0 0;
#X connect 6 0 0 0;
#X connect 7 0 0 0;
#X connect 8 0 32 0;
#X connect 9 0 10 0;
#X connect 10 0 35 1;
#X connect 11 0 9 0;
#X connect 12 0 14 1;
#X connect 13 0 14 2;
#X connect 15 0 35 0;
#X connect 16 0 35 1;
#X connect 17 0 35 0;
#X connect 18 0 17 0;
#X connect 19 0 33 2;
#X connect 20 0 33 1;
#X connect 21 0 33 3;
#X connect 22 0 32 2;
#X connect 23 0 32 1;
#X connect 24 0 32 3;
#X connect 25 0 27 0;
#X connect 26 0 25 0;
#X connect 27 0 35 0;
#X connect 28 0 14 3;
#X connect 29 0 14 4;
#X connect 30 0 34 1;
#X connect 31 0 14 0;
#X connect 32 0 33 0;
#X connect 33 0 34 0;
#X connect 34 0 35 0;
#X connect 35 0 31 0;
#X connect 35 2 16 0;
