#N canvas 146 125 630 424 10;
#X msg 320 121 snap;
#X obj 320 68 gemhead 15;
#X obj 39 64 gemhead 10;
#X obj 39 126 scaleXYZ 6 0.1 6;
#X obj 55 95 hsl 128 15 0.02 1.53 0 0 empty empty empty -2 -6 0 8 -262139
-1 -1 0 1;
#X obj 39 259 cube 0.34;
#X obj 320 260 rotateXYZ;
#X obj 357 237 hsl 128 15 -34 34 0 0 empty empty empty -2 -6 0 8 -261879
-1 -1 6350 1;
#X obj 40 364 light;
#X obj 40 341 translateXYZ 0 0 4;
#X obj 320 154 pix_snap2tex 0 0 512 512;
#X obj 320 300 sphere 3.64 50;
#X obj 40 318 gemhead 1;
#X msg 354 216 0;
#X obj 354 195 loadbang;
#X obj 125 158 hsl 128 15 0 1 0 1 empty empty R 12 8 1 12 -261689 -1
-1 12700 1;
#X obj 125 178 hsl 128 15 0 1 0 1 empty empty G 12 8 1 12 -225271 -1
-1 12700 1;
#X obj 125 198 hsl 128 15 0 1 0 1 empty empty B 12 8 1 12 -228992 -1
-1 12700 1;
#X obj 39 227 colorRGB 1 1 1;
#X obj 481 326 cnv 15 100 60 empty empty empty 20 12 0 14 -195568 -66577
0;
#N canvas 0 22 462 312 gemwin 0;
#X obj 150 212 gemwin;
#X obj 67 89 outlet;
#X obj 67 10 inlet;
#X obj 67 41 route create;
#X msg 67 70 set destroy;
#X msg 142 68 set create;
#X msg 276 113 destroy;
#X msg 234 221 dimen 500 500;
#X msg 279 189 dimen 1024 768;
#X msg 132 113 create \, 1 \, lighting 1;
#X connect 2 0 3 0;
#X connect 3 0 4 0;
#X connect 3 0 9 0;
#X connect 3 1 5 0;
#X connect 3 1 6 0;
#X connect 4 0 1 0;
#X connect 5 0 1 0;
#X connect 6 0 0 0;
#X connect 7 0 0 0;
#X connect 8 0 0 0;
#X connect 9 0 0 0;
#X restore 486 365 pd gemwin;
#X msg 486 346 create;
#X text 482 325 Create window:;
#X obj 320 92 trigger bang anything;
#X connect 0 0 10 0;
#X connect 1 0 23 0;
#X connect 2 0 3 0;
#X connect 3 0 18 0;
#X connect 4 0 3 2;
#X connect 6 0 11 0;
#X connect 7 0 6 2;
#X connect 9 0 8 0;
#X connect 10 0 6 0;
#X connect 12 0 9 0;
#X connect 13 0 7 0;
#X connect 14 0 13 0;
#X connect 15 0 18 1;
#X connect 16 0 18 2;
#X connect 17 0 18 3;
#X connect 18 0 5 0;
#X connect 20 0 21 0;
#X connect 21 0 20 0;
#X connect 23 0 0 0;
#X connect 23 1 10 0;
