#N canvas 519 316 628 271 10;
#X msg 365 79 snap;
#X obj 365 26 gemhead 15;
#X obj 174 22 gemhead 10;
#X obj 174 84 scaleXYZ 6 0.1 6;
#X obj 190 53 hsl 128 15 0.02 1.53 0 0 empty empty empty -2 -6 0 8
-262144 -1 -1 700 1;
#X obj 174 107 cube 0.34;
#X obj 365 188 rotateXYZ;
#X obj 379 165 hsl 128 15 -34 34 0 0 empty empty empty -2 -6 0 8 -262144
-1 -1 1700 1;
#X obj 17 122 gemwin 60;
#N canvas 525 586 276 170 init 0;
#X obj 65 128 outlet;
#X obj 59 25 loadbang;
#X msg 94 69 dimen 512 512;
#X msg 14 68 lighting 1;
#X connect 1 0 2 0;
#X connect 1 0 3 0;
#X connect 2 0 0 0;
#X connect 3 0 0 0;
#X restore 50 80 pd init;
#X obj 175 231 light;
#X msg 17 19 create \, 1;
#X msg 37 49 0 \, destroy;
#X obj 175 208 translateXYZ 0 0 4;
#X obj 365 112 pix_snap2tex 0 0 512 512;
#X obj 365 228 sphere 3.64 50;
#X obj 365 50 t b a;
#X obj 175 185 gemhead 1;
#X msg 376 144 0;
#X obj 404 143 loadbang;
#X msg 17 185 frame 100;
#X msg 46 160 frame 20;
#X connect 0 0 14 0;
#X connect 1 0 16 0;
#X connect 2 0 3 0;
#X connect 3 0 5 0;
#X connect 4 0 3 2;
#X connect 6 0 15 0;
#X connect 7 0 6 2;
#X connect 9 0 8 0;
#X connect 11 0 8 0;
#X connect 12 0 8 0;
#X connect 13 0 10 0;
#X connect 14 0 6 0;
#X connect 16 0 0 0;
#X connect 16 1 14 0;
#X connect 17 0 13 0;
#X connect 18 0 7 0;
#X connect 19 0 18 0;
#X connect 20 0 8 0;
#X connect 21 0 8 0;
