#N canvas 180 41 1035 404 10;
#X obj 22 342 gemwin;
#X msg 45 70 destroy;
#X msg 52 129 1;
#X msg 65 156 0;
#X floatatom 370 259 0 0 0 0 - - -;
#X text 99 141 turn rendering on and off;
#X text 101 51 create and destroy the graphics window;
#X obj 325 122 pix_image ../data/fractal.JPG;
#X obj 325 155 pix_texture;
#X obj 325 279 rotate 0 1 1;
#X obj 325 307 cube;
#N canvas 87 154 247 179 Gem.init 0;
#X obj 118 46 loadbang;
#X msg 118 81 reset;
#X obj 118 113 outlet;
#X connect 0 0 1 0;
#X connect 1 0 2 0;
#X restore 44 314 pd Gem.init;
#X msg 32 38 create;
#X obj 704 201 pix_texture;
#X obj 325 237 translateXYZ -2 1 0;
#X obj 704 283 circle;
#X obj 704 253 translateXYZ 2 1 0;
#X obj 704 230 pix_coordinate;
#X msg 811 209 0 0 \$1 0 \$1 \$1 0 \$1;
#X msg 811 111 1;
#X floatatom 811 192 5 0 0 0 - - -;
#X msg 824 166 256;
#X text 857 166 for rectangle textures;
#X text 845 111 for normalized textures;
#X obj 325 84 gemhead 10;
#X obj 704 154 gemhead 30;
#X obj 570 272 gemhead 20;
#X obj 570 299 pix_texture;
#X obj 570 328 pix_coordinate;
#X obj 570 351 translateXYZ 0 -1 0;
#X obj 570 381 triangle;
#X connect 1 0 0 0;
#X connect 2 0 0 0;
#X connect 3 0 0 0;
#X connect 4 0 9 1;
#X connect 7 0 8 0;
#X connect 8 0 14 0;
#X connect 8 1 13 1;
#X connect 9 0 10 0;
#X connect 11 0 0 0;
#X connect 12 0 0 0;
#X connect 13 0 17 0;
#X connect 14 0 9 0;
#X connect 16 0 15 0;
#X connect 17 0 16 0;
#X connect 18 0 17 1;
#X connect 19 0 20 0;
#X connect 20 0 18 0;
#X connect 21 0 20 0;
#X connect 24 0 7 0;
#X connect 25 0 13 0;
#X connect 26 0 27 0;
#X connect 27 0 28 0;
#X connect 28 0 29 0;
#X connect 29 0 30 0;
