#N canvas 535 42 834 667 10;
#X obj 202 83 gemhead 20;
#X obj 491 166 gemhead;
#X floatatom 532 391 5 0 0 0 - - -;
#X floatatom 481 392 5 0 0 0 - - -;
#X obj 581 389 nbx 5 14 -1e+37 1e+37 0 0 empty empty empty 0 -6 0 10
-262144 -1 -1 0 256;
#X msg 286 97 dim 320 240;
#X msg 286 117 dim 256 256;
#X obj 278 634 rotateXYZ;
#X floatatom 334 617 5 0 0 0 - - -;
#X floatatom 346 636 5 0 0 0 - - -;
#X floatatom 295 617 5 0 0 0 - - -;
#X floatatom 299 443 5 0 0 0 - - -;
#X floatatom 348 443 5 0 0 0 - - -;
#X floatatom 250 443 5 0 0 0 - - -;
#X obj 278 333 separator;
#X obj -56 319 gemhead 1;
#X obj -56 339 world_light;
#X msg 286 137 dim 512 512;
#X obj -54 173 gemwin;
#X msg -47 29 destroy;
#X floatatom 507 322 5 0 0 0 - - -;
#X floatatom 582 333 5 0 0 0 - - -;
#X msg 289 45 color 0 0 1 0;
#X msg 286 157 dim 1024 1024;
#X msg 289 69 color 0 0 0 0;
#X obj 203 507 rotateXYZ;
#X floatatom 226 490 5 0 0 0 - - -;
#X floatatom 269 490 5 0 0 0 - - -;
#X floatatom 318 496 5 0 0 0 - - -;
#X msg -21 72 color 0 0 0 0;
#X obj 278 554 t a b;
#X msg -33 51 color 0 1 1 0;
#X msg -12 121 lighting \$1;
#X obj -12 100 tgl 15 0 empty empty empty 0 -6 0 8 -262144 -1 -1 0
1;
#X floatatom 554 433 5 0 0 0 - - -;
#X obj 202 302 t a a;
#X obj 202 355 color 1 1 1;
#X obj 203 413 pix_texture;
#X msg 406 94 mode \$1;
#X obj 406 67 tgl 15 0 empty empty empty 0 -6 0 8 -262144 -1 -1 0 1
;
#X obj 203 467 translateXYZ -0.5 -0.8 -1;
#X msg 229 374 open data/fractal.JPG;
#X floatatom 376 507 5 0 0 0 - - -;
#X msg 289 10 type FLOAT;
#X obj 460 131 tgl 15 0 empty empty empty 0 -6 0 8 -262144 -1 -1 0
1;
#X floatatom 342 281 5 0 0 0 - - -;
#X obj 203 527 sphere 0.4;
#X obj 491 357 rotateXYZ 28 0 200;
#X obj 491 431 square 2;
#X obj 491 410 translateXYZ 0 0 1.53;
#X obj 202 281 translateXYZ 0 0 -4;
#X obj 278 681 cube 0.57;
#X obj 278 527 translateXYZ 2 0 -1;
#X obj 202 135 color 0 1 0;
#X msg -54 8 reset \, create \, 1;
#X obj 179 195 cnv 15 400 60 empty empty empty 20 12 0 14 -233017 -66577
0;
#X obj 202 200 gemframebuffer;
#X obj 491 233 pix_texture;
#X obj -56 410 gemhead;
#X obj -56 459 teapot 0.3;
#X obj -56 435 translateXYZ -3 3 0;
#X text -52 726 this example renders a scene (cube and sphere) into
a framebuffer \, which is then used as a texture onto a square. teapot
and square live in a "meta"-world in relation to cube and sphere.;
#X obj 362 575 % 360;
#X obj 308 575 i;
#X obj 491 265 t a b;
#X obj 567 286 + 1;
#X obj 334 575 + 5;
#X obj 521 286 i 200;
#X obj 595 286 % 3600;
#X obj 582 313 / 10;
#X text 435 65 <-- click me to change between normalized(0) and rectangle(1)
textures.;
#X text 399 717 you need framebuffer support on your gfx-card;
#X text 395 738 (and its driver!);
#X obj 202 394 pix_image ../data/fractal.JPG;
#X connect 0 0 53 0;
#X connect 1 0 57 0;
#X connect 2 0 49 2;
#X connect 3 0 49 1;
#X connect 4 0 49 3;
#X connect 5 0 56 0;
#X connect 6 0 56 0;
#X connect 7 0 51 0;
#X connect 8 0 7 2;
#X connect 9 0 7 3;
#X connect 10 0 7 1;
#X connect 11 0 40 2;
#X connect 12 0 40 3;
#X connect 13 0 40 1;
#X connect 14 0 52 0;
#X connect 15 0 16 0;
#X connect 17 0 56 0;
#X connect 19 0 18 0;
#X connect 20 0 47 1;
#X connect 21 0 47 3;
#X connect 22 0 56 0;
#X connect 23 0 56 0;
#X connect 24 0 56 0;
#X connect 25 0 46 0;
#X connect 26 0 25 1;
#X connect 27 0 25 2;
#X connect 28 0 25 3;
#X connect 29 0 18 0;
#X connect 30 0 7 0;
#X connect 30 1 63 0;
#X connect 31 0 18 0;
#X connect 32 0 18 0;
#X connect 33 0 32 0;
#X connect 34 0 48 1;
#X connect 35 0 36 0;
#X connect 35 1 14 0;
#X connect 36 0 73 0;
#X connect 37 0 40 0;
#X connect 38 0 56 0;
#X connect 39 0 38 0;
#X connect 40 0 25 0;
#X connect 41 0 73 0;
#X connect 42 0 52 3;
#X connect 43 0 56 0;
#X connect 44 0 1 0;
#X connect 45 0 50 3;
#X connect 47 0 49 0;
#X connect 49 0 48 0;
#X connect 50 0 35 0;
#X connect 52 0 30 0;
#X connect 53 0 56 0;
#X connect 54 0 18 0;
#X connect 56 0 50 0;
#X connect 56 1 57 1;
#X connect 57 0 64 0;
#X connect 58 0 60 0;
#X connect 60 0 59 0;
#X connect 62 0 63 1;
#X connect 63 0 8 0;
#X connect 63 0 66 0;
#X connect 64 0 47 0;
#X connect 64 1 67 0;
#X connect 65 0 68 0;
#X connect 66 0 62 0;
#X connect 67 0 65 0;
#X connect 67 0 69 0;
#X connect 68 0 67 1;
#X connect 69 0 21 0;
#X connect 73 0 37 0;
