#N canvas 589 308 889 620 12;
#X obj 54 142 _gemwin;
#X obj 549 390 pix_texture;
#X obj 549 455 square 4;
#X obj 408 182 translateXYZ 0 0 -4;
#X obj 408 266 t a a;
#X obj 408 352 t a b;
#X obj 549 423 colorRGB 1 1 1;
#X obj 427 524 output~;
#X obj 548 267 +~ 1;
#X obj 548 292 *~ 0.5;
#X msg 82 210 \; pd dsp 1;
#X obj 598 105 gemhead;
#X obj 598 130 pix_texture;
#X obj 598 155 square 3;
#X floatatom 656 393 5 0 0 0 - - - 0;
#X obj 548 242 osc~ 750;
#X obj 408 99 gemframebuffer \; dimen 64 64 \; type FLOAT \; format RGBA32F;
#X obj 673 249 sig~ 180.5;
#X obj 673 274 /~ 255;
#X obj 562 513 snapshot~;
#X obj 672 474 loadbang;
#X obj 672 499 metro 50;
#X obj 736 473 tgl 20 0 empty empty empty 0 -10 0 12 #fcfcfc #000000 #000000 0 1;
#X obj 562 490 *~ 255;
#X obj 676 198 hsl 170 20 100 255 0 0 empty empty empty -2 -10 0 12 #fcfcfc #000000 #000000 0 1;
#X floatatom 673 223 5 0 0 0 - - - 0;
#X obj 408 377 pix_snap 64 1 \; type FLOAT;
#X text 82 21 RGBA32F is needed for floating point pixels;
#X obj 549 320 pix_sig2pix~ 64 1 \; type FLOAT;
#X obj 408 447 pix_pix2sig~;
#X obj 408 29 bang~;
#X obj 408 55 gemhead 20 \; 0;
#X floatatom 549 208 5 0 0 0 - - - 0;
#X obj 562 538 nbx 5 18 -1e+37 1e+37 0 0 empty empty empty 0 -10 0 12 #c6ffc7 #000000 #000000 0 256;
#X obj 146 38 cnv 20 133 80 empty empty empty 20 12 0 12 #c6ffc7 #404040 0;
#X msg 157 79 format RGBA;
#X msg 157 54 format RGBA32F;
#X connect 1 0 6 0;
#X connect 3 0 4 0;
#X connect 4 0 5 0;
#X connect 4 1 28 0;
#X connect 5 0 26 0;
#X connect 5 1 26 0;
#X connect 6 0 2 0;
#X connect 8 0 9 0;
#X connect 9 0 28 0;
#X connect 9 0 28 1;
#X connect 11 0 12 0;
#X connect 12 0 13 0;
#X connect 14 0 6 1;
#X connect 15 0 8 0;
#X connect 16 0 3 0;
#X connect 16 1 12 1;
#X connect 17 0 18 0;
#X connect 18 0 28 2;
#X connect 19 0 33 0;
#X connect 20 0 21 0;
#X connect 21 0 19 0;
#X connect 22 0 21 0;
#X connect 23 0 19 0;
#X connect 24 0 25 0;
#X connect 25 0 17 0;
#X connect 26 0 29 0;
#X connect 28 0 1 0;
#X connect 29 1 7 0;
#X connect 29 2 7 1;
#X connect 29 3 23 0;
#X connect 30 0 31 0;
#X connect 31 0 16 0;
#X connect 32 0 15 0;
#X connect 35 0 16 0;
#X connect 36 0 16 0;
