#N canvas 121 383 762 473 10;
#X obj 35 49 gemwin;
#X obj 37 155 gemhead;
#X obj 37 176 pix_film;
#X msg 35 29 create \, 1;
#X text 35 75 Test movie playback:;
#X obj 198 352 gemhead;
#X obj 37 136 tgl 15 0 empty empty empty 0 -6 0 8 -262144 -1 -1 0 1
;
#X floatatom 196 75 5 0 0 0 - - which;
#X obj 37 116 == 0;
#X obj 37 96 r which;
#X obj 198 334 tgl 15 0 empty empty empty 0 -6 0 8 -262144 -1 -1 1
1;
#X obj 198 292 r which;
#X obj 196 53 f;
#X obj 226 33 + 1;
#X obj 196 34 bng 15 250 50 0 empty empty empty 0 -6 0 8 -262144 -1
-1;
#X text 35 269 Font rendering:;
#X msg 100 131 open ../examples/data/anim-1.mov
\, auto 1;
#X obj 37 196 pix_texture;
#X obj 37 219 square;
#X obj 36 356 gemhead;
#X obj 36 338 tgl 15 0 empty empty empty 0 -6 0 8 -262144 -1 -1 0 1
;
#X obj 36 296 r which;
#X obj 226 53 % 3;
#X obj 36 317 == 1;
#X obj 198 313 == 2;
#X obj 36 377 text3d default font;
#X msg 259 332 font ../examples/data/vera.ttf
\, text vera.ttf;
#X obj 198 373 text2d;
#X connect 1 0 2 0;
#X connect 2 0 17 0;
#X connect 3 0 0 0;
#X connect 5 0 27 0;
#X connect 6 0 1 0;
#X connect 8 0 16 0;
#X connect 8 0 6 0;
#X connect 9 0 8 0;
#X connect 10 0 5 0;
#X connect 11 0 24 0;
#X connect 12 0 7 0;
#X connect 12 0 13 0;
#X connect 13 0 22 0;
#X connect 14 0 12 0;
#X connect 16 0 2 0;
#X connect 17 0 18 0;
#X connect 19 0 25 0;
#X connect 20 0 19 0;
#X connect 21 0 23 0;
#X connect 22 0 12 1;
#X connect 23 0 20 0;
#X connect 24 0 10 0;
#X connect 24 0 26 0;
#X connect 26 0 27 0;
