#N canvas 486 82 722 633 10;
#X declare -lib Gem;
#X obj 76 22 gemhead;
#X obj 76 367 glsl_program;
#X obj 169 329 print linking;
#X obj 76 411 rotateXYZ;
#X floatatom 96 389 5 0 0 0 - - -;
#X floatatom 140 389 5 0 0 0 - - -;
#X floatatom 182 389 5 0 0 0 - - -;
#X obj 76 580 pix_texture;
#X msg 548 116 color 1 0 0;
#X obj 106 69 bng 15 250 50 0 empty empty empty 0 -6 0 8 -262144 -1
-1;
#X msg 106 154 open texture.frag;
#X obj 76 197 glsl_fragment;
#X text 215 459 <- load texture;
#X obj 106 535 tgl 15 0 empty empty empty 17 7 0 10 -262144 -1 -1 0
1;
#X obj 76 489 pix_image img1.jpg;
#X msg 103 460 open img2.jpg;
#X msg 243 154 open texture_rect.frag;
#X msg 114 114 0;
#X obj 243 72 bng 15 250 50 0 empty empty empty 0 -6 0 8 -262144 -1
-1;
#X text 275 70 <-load an other shader;
#X text 279 84 (using rectangular texturing);
#X msg 254 113 1;
#X msg 351 258 B \$1;
#X msg 364 297 C \$1;
#X floatatom 351 241 5 0 0 0 - - -;
#X floatatom 364 280 5 0 0 0 - - -;
#X text 408 280 <- adjust Contrast;
#X text 400 240 <- adjust Brightness;
#X text 138 67 <- load shader;
#X obj 76 604 square 3;
#N canvas 87 154 247 179 Gem.init 0;
#X obj 118 46 loadbang;
#X msg 118 81 reset;
#X obj 118 113 outlet;
#X connect 0 0 1 0;
#X connect 1 0 2 0;
#X restore 566 142 pd Gem.init;
#N canvas 340 107 682 322 gemwin 0;
#X obj 102 122 tgl 15 0 \$0-gemstart \$0-gemstart empty 17 7 0 10 -262144
-1 -1 0 1;
#X obj 102 161 r \$0-gemstart;
#X obj 102 182 select 1 0;
#X msg 102 214 create \, 1;
#X msg 177 215 destroy;
#X obj 102 239 t a;
#X obj 318 54 inlet;
#X obj 318 255 gemwin;
#X obj 318 100 t a a;
#X obj 318 287 outlet;
#X obj 350 128 route create destroy;
#X obj 350 150 t b;
#X msg 350 172 1;
#X obj 390 150 t b;
#X msg 390 172 0;
#X obj 350 195 t f;
#X msg 350 219 set \$1;
#X text 118 122 rendering;
#X connect 1 0 2 0;
#X connect 2 0 3 0;
#X connect 2 1 4 0;
#X connect 3 0 5 0;
#X connect 4 0 5 0;
#X connect 5 0 8 0;
#X connect 6 0 8 0;
#X connect 7 0 9 0;
#X connect 8 0 7 0;
#X connect 8 1 10 0;
#X connect 10 0 11 0;
#X connect 10 1 13 0;
#X connect 11 0 12 0;
#X connect 12 0 15 0;
#X connect 13 0 14 0;
#X connect 14 0 15 0;
#X connect 15 0 16 0;
#X connect 16 0 0 0;
#X coords 0 -1 1 1 85 40 1 100 100;
#X restore 548 163 pd gemwin;
#X msg 106 555 rectangle \$1;
#X obj 254 134 s rectangle;
#X obj 114 135 s rectangle;
#X obj 106 512 r rectangle;
#X msg 32 167 print;
#X msg 39 340 print;
#X floatatom 192 372 0 0 0 0 - - -;
#X msg 151 308 link \$1;
#X obj 151 259 change;
#X obj 604 13 declare -lib Gem;
#X connect 0 0 11 0;
#X connect 1 0 3 0;
#X connect 1 1 38 0;
#X connect 3 0 14 0;
#X connect 4 0 3 1;
#X connect 5 0 3 2;
#X connect 6 0 3 3;
#X connect 7 0 29 0;
#X connect 8 0 31 0;
#X connect 9 0 10 0;
#X connect 9 0 17 0;
#X connect 10 0 11 0;
#X connect 11 0 1 0;
#X connect 11 1 40 0;
#X connect 13 0 32 0;
#X connect 14 0 7 0;
#X connect 15 0 14 0;
#X connect 16 0 11 0;
#X connect 17 0 34 0;
#X connect 18 0 16 0;
#X connect 18 0 21 0;
#X connect 21 0 33 0;
#X connect 22 0 1 0;
#X connect 23 0 1 0;
#X connect 24 0 22 0;
#X connect 25 0 23 0;
#X connect 30 0 31 0;
#X connect 32 0 7 0;
#X connect 35 0 13 0;
#X connect 36 0 11 0;
#X connect 37 0 1 0;
#X connect 39 0 1 0;
#X connect 39 0 2 0;
#X connect 40 0 39 0;
