#N canvas 243 80 520 689 10;
#X obj 76 22 gemhead;
#X msg 31 57 print;
#X obj 76 347 glsl_program;
#X obj 149 262 pack 0 0;
#X msg 33 143 print;
#X obj 170 242 t b f;
#X obj 166 197 change;
#X obj 148 98 change;
#X msg 149 288 link \$1 \$2;
#X msg 34 308 print;
#X floatatom 170 223 2 0 0 0 ID - -;
#X floatatom 148 121 2 0 0 0 ID - -;
#X obj 167 309 print linking;
#X obj 76 391 rotateXYZ;
#X floatatom 95 369 5 0 0 0 - - -;
#X floatatom 139 369 5 0 0 0 - - -;
#X floatatom 181 369 5 0 0 0 - - -;
#X obj 76 540 pix_texture;
#X msg 344 94 color 1 0 0;
#X obj 327 141 gemwin;
#X msg 327 70 create \, 1;
#X msg 359 118 destroy;
#X obj 76 564 square;
#X obj 142 27 bng 15 250 50 0 empty empty empty 0 -6 0 8 -262144 -1
-1;
#X msg 90 57 open texture.vert;
#X msg 86 147 open texture.frag;
#X obj 76 79 glsl_vertex;
#X obj 76 177 glsl_fragment;
#X text 174 25 <-load shader;
#X text 215 439 <- load texture;
#X msg 106 515 mode \$1;
#X obj 106 495 tgl 15 0 empty empty empty 17 7 0 10 -262144 -1 -1 0
1;
#X msg 103 440 open img1.jpg;
#X obj 76 469 pix_image img1.jpg;
#X text 93 599 This shader will just hange the color of a texture;
#X text 91 615 (it should be a bit darker);
#X connect 0 0 26 0;
#X connect 1 0 26 0;
#X connect 2 0 13 0;
#X connect 3 0 8 0;
#X connect 4 0 27 0;
#X connect 5 0 3 0;
#X connect 5 1 3 1;
#X connect 6 0 10 0;
#X connect 7 0 11 0;
#X connect 8 0 2 0;
#X connect 8 0 12 0;
#X connect 9 0 2 0;
#X connect 10 0 5 0;
#X connect 11 0 3 0;
#X connect 13 0 33 0;
#X connect 14 0 13 1;
#X connect 15 0 13 2;
#X connect 16 0 13 3;
#X connect 17 0 22 0;
#X connect 18 0 19 0;
#X connect 20 0 19 0;
#X connect 21 0 19 0;
#X connect 23 0 24 0;
#X connect 23 0 25 0;
#X connect 24 0 26 0;
#X connect 25 0 27 0;
#X connect 26 0 27 0;
#X connect 26 1 7 0;
#X connect 27 0 2 0;
#X connect 27 1 6 0;
#X connect 30 0 17 0;
#X connect 31 0 30 0;
#X connect 32 0 33 0;
#X connect 33 0 17 0;
