#N canvas 310 27 520 726 10;
#X obj 74 -1 gemhead;
#X msg 29 80 print;
#X obj 74 372 glsl_program;
#X obj 147 281 pack 0 0;
#X msg 31 162 print;
#X obj 168 261 t b f;
#X obj 168 216 change;
#X obj 146 121 change;
#X msg 147 301 link \$1 \$2;
#X msg 98 343 print;
#X floatatom 168 242 2 0 0 0 ID - -;
#X floatatom 146 144 2 0 0 0 ID - -;
#X obj 165 322 print linking;
#X obj 74 196 glsl_fragment;
#X obj 74 102 glsl_vertex;
#X obj 74 561 pix_texture;
#X obj 124 59 bng 15 250 50 0 empty empty empty 0 -6 0 8 -262144 -1
-1;
#X obj 74 24 alpha;
#X msg 101 527 mode \$1;
#X obj 101 507 tgl 15 0 empty empty empty 17 7 0 10 -262144 -1 -1 0
1;
#X floatatom 292 312 5 0 0 0 - - -;
#X msg 101 485 0;
#X msg 292 333 K \$1;
#X obj 317 88 gemwin 30;
#X msg 317 31 create \, 1;
#X text 393 31 <- 1;
#X obj 74 604 sphere 2 30;
#N canvas 0 0 450 300 load_shader 0;
#X obj 89 99 t b b;
#X msg 119 126 0;
#X obj 89 154 outlet;
#X obj 89 71 gemhead 1;
#X connect 0 0 2 0;
#X connect 0 1 1 0;
#X connect 1 0 3 0;
#X connect 3 0 0 0;
#X restore 124 38 pd load_shader;
#N canvas 0 0 450 300 init_shader 0;
#X obj 89 154 outlet;
#X obj 89 45 inlet;
#X obj 89 73 change;
#X obj 89 100 t b;
#X connect 1 0 2 0;
#X connect 2 0 3 0;
#X connect 3 0 0 0;
#X restore 153 396 pd init_shader;
#X obj 101 464 loadbang;
#X text 347 311 <- 2;
#X text 395 670 ch 20007;
#X msg 103 415 open texture.jpg;
#X msg 332 56 0 \, destroy;
#X obj 74 581 rotateXYZ -90 0 0;
#X msg 292 287 0.1;
#X obj 74 438 pix_image img3.jpg;
#X msg 88 80 open P_distord.vert;
#X msg 85 166 open P_distord.frag;
#X text 69 637 this shader create a dirty pseudo random value \, and
move all vertex separatly;
#X connect 0 0 17 0;
#X connect 1 0 14 0;
#X connect 2 0 36 0;
#X connect 2 1 28 0;
#X connect 3 0 8 0;
#X connect 4 0 13 0;
#X connect 5 0 3 0;
#X connect 5 1 3 1;
#X connect 6 0 10 0;
#X connect 7 0 11 0;
#X connect 8 0 2 0;
#X connect 8 0 12 0;
#X connect 9 0 2 0;
#X connect 10 0 5 0;
#X connect 11 0 3 0;
#X connect 13 0 2 0;
#X connect 13 1 6 0;
#X connect 14 0 13 0;
#X connect 14 1 7 0;
#X connect 15 0 34 0;
#X connect 16 0 37 0;
#X connect 16 0 38 0;
#X connect 17 0 14 0;
#X connect 18 0 15 0;
#X connect 19 0 18 0;
#X connect 20 0 22 0;
#X connect 21 0 19 0;
#X connect 22 0 2 0;
#X connect 24 0 23 0;
#X connect 27 0 16 0;
#X connect 28 0 35 0;
#X connect 29 0 21 0;
#X connect 32 0 36 0;
#X connect 33 0 23 0;
#X connect 34 0 26 0;
#X connect 35 0 20 0;
#X connect 36 0 15 0;
#X connect 37 0 14 0;
#X connect 38 0 13 0;
