#N canvas 713 71 599 512 10;
#X declare -lib Gem;
#X obj 316 323 alpha;
#X obj 316 373 square 4;
#X msg 52 75 frame \$1;
#X floatatom 52 57 5 0 0 0 - - - 0;
#X msg 328 84 print;
#X obj 316 37 gemhead -1;
#X obj 316 347 colorRGB 1 1 1 1;
#X obj 39 259 tgl 15 0 empty empty empty 17 7 0 10 #fcfcfc #000000 #000000 0 1;
#X obj 39 281 gemhead 50;
#X obj 39 311 translateXYZ 0 0 1;
#X obj 39 409 rectangle;
#X obj 39 216 loadbang;
#X msg 39 237 0;
#X text 157 261 <- 3;
#X obj 316 202 t b a;
#X floatatom 69 362 5 0 0 0 - - - 0;
#X floatatom 124 363 5 0 0 0 - - - 0;
#X obj 69 381 / 100;
#X obj 124 384 / 100;
#X text 13 454 This is an example of iterative process : the output of the shader is used for next frame input;
#X text 145 140 <----- 1;
#N canvas 87 154 247 179 Gem.init 0;
#X obj 118 46 loadbang;
#X msg 118 81 reset;
#X obj 118 113 outlet;
#X connect 0 0 1 0;
#X connect 1 0 2 0;
#X restore 82 100 pd Gem.init;
#N canvas 340 107 682 322 gemwin 0;
#X obj 102 122 tgl 15 0 \$0-gemstart \$0-gemstart empty 17 7 0 10 #fcfcfc #000000 #000000 0 1;
#X obj 102 161 r \$0-gemstart;
#X obj 102 182 select 1 0;
#X msg 102 214 create \, 1;
#X msg 177 215 destroy;
#X obj 102 239 t a;
#X obj 318 54 inlet;
#X obj 318 255 gemwin;
#X obj 318 100 t a a;
#X obj 318 287 outlet;
#X obj 350 128 route create destroy;
#X obj 350 150 t b;
#X msg 350 172 1;
#X obj 390 150 t b;
#X msg 390 172 0;
#X obj 350 195 t f;
#X msg 350 219 set \$1;
#X text 118 122 rendering;
#X connect 1 0 2 0;
#X connect 2 0 3 0;
#X connect 2 1 4 0;
#X connect 3 0 5 0;
#X connect 4 0 5 0;
#X connect 5 0 8 0;
#X connect 6 0 8 0;
#X connect 7 0 9 0;
#X connect 8 0 7 0;
#X connect 8 1 10 0;
#X connect 10 0 11 0;
#X connect 10 1 13 0;
#X connect 11 0 12 0;
#X connect 12 0 15 0;
#X connect 13 0 14 0;
#X connect 14 0 15 0;
#X connect 15 0 16 0;
#X connect 16 0 0 0;
#X coords 0 -1 1 1 85 40 1 100 100;
#X restore 52 117 pd gemwin;
#X obj 484 13 declare -lib Gem;
#X obj 316 106 glsl shader/game;
#X obj 316 298 pix_snap2tex 500 500;
#X connect 0 0 6 0;
#X connect 2 0 22 0;
#X connect 3 0 2 0;
#X connect 4 0 24 0;
#X connect 5 0 24 0;
#X connect 6 0 1 0;
#X connect 7 0 8 0;
#X connect 8 0 9 0;
#X connect 9 0 10 0;
#X connect 11 0 12 0;
#X connect 12 0 7 0;
#X connect 14 0 25 0;
#X connect 14 1 25 0;
#X connect 15 0 17 0;
#X connect 16 0 18 0;
#X connect 17 0 10 1;
#X connect 18 0 10 2;
#X connect 21 0 22 0;
#X connect 24 0 14 0;
#X connect 25 0 0 0;
