#N canvas 507 4 759 759 10;
#X declare -lib Gem;
#X obj 76 5 gemhead;
#X obj 76 339 glsl_program;
#X obj 149 268 pack 0 0;
#X obj 170 248 t b f;
#X obj 164 203 change;
#X msg 149 294 link \$1 \$2;
#X floatatom 170 229 2 0 0 0 ID - - 0;
#X floatatom 148 121 2 0 0 0 ID - - 0;
#X obj 167 315 print linking;
#X msg 365 63 color 1 0 0;
#X obj 142 27 bng 15 250 50 0 empty empty empty 0 -6 0 8 #fcfcfc #000000 #000000;
#X obj 76 79 glsl_vertex;
#X obj 76 183 glsl_fragment;
#X obj 159 365 openpanel;
#X obj 137 367 bng 15 250 50 0 empty empty empty 17 7 0 10 #fcfcfc #000000 #000000;
#X text 463 130 1) turn on rendering;
#N canvas 0 0 450 300 load_shader 0;
#X obj 89 99 t b b;
#X msg 119 126 0;
#X obj 89 154 outlet;
#X obj 89 71 gemhead 1;
#X connect 0 0 2 0;
#X connect 0 1 1 0;
#X connect 1 0 3 0;
#X connect 3 0 0 0;
#X restore 142 5 pd load_shader;
#X msg 159 390 set open \$1 \, bang;
#X obj 104 467 loadbang;
#X obj 95 389 loadbang;
#X msg 95 414 open ../data/img2.jpg;
#X obj 76 443 pix_image ../data/img2.jpg;
#X obj 148 98 change;
#X text 343 187 This is an example of multitexturing \, this shader mixes 2 textures;
#N canvas 87 154 247 179 Gem.init 0;
#X obj 118 46 loadbang;
#X msg 118 81 reset;
#X obj 118 113 outlet;
#X connect 0 0 1 0;
#X connect 1 0 2 0;
#X restore 395 87 pd Gem.init;
#N canvas 340 107 682 322 gemwin 0;
#X obj 102 122 tgl 15 0 \$0-gemstart \$0-gemstart empty 17 7 0 10 #fcfcfc #000000 #000000 0 1;
#X obj 102 161 r \$0-gemstart;
#X obj 102 182 select 1 0;
#X msg 102 214 create \, 1;
#X msg 177 215 destroy;
#X obj 102 239 t a;
#X obj 318 54 inlet;
#X obj 318 255 gemwin;
#X obj 318 100 t a a;
#X obj 318 287 outlet;
#X obj 350 128 route create destroy;
#X obj 350 150 t b;
#X msg 350 172 1;
#X obj 390 150 t b;
#X msg 390 172 0;
#X obj 350 195 t f;
#X msg 350 219 set \$1;
#X text 118 122 rendering;
#X connect 1 0 2 0;
#X connect 2 0 3 0;
#X connect 2 1 4 0;
#X connect 3 0 5 0;
#X connect 4 0 5 0;
#X connect 5 0 8 0;
#X connect 6 0 8 0;
#X connect 7 0 9 0;
#X connect 8 0 7 0;
#X connect 8 1 10 0;
#X connect 10 0 11 0;
#X connect 10 1 13 0;
#X connect 11 0 12 0;
#X connect 12 0 15 0;
#X connect 13 0 14 0;
#X connect 14 0 15 0;
#X connect 15 0 16 0;
#X connect 16 0 0 0;
#X coords 0 -1 1 1 85 40 1 100 100;
#X restore 365 104 pd gemwin;
#X obj 76 708 rectangle 3 3;
#X obj 76 514 pix_texture;
#X obj 159 536 openpanel;
#X obj 139 537 bng 15 250 50 0 empty empty empty 17 7 0 10 #fcfcfc #000000 #000000;
#X msg 159 561 set open \$1 \, bang;
#X obj 104 636 loadbang;
#X obj 95 560 loadbang;
#X obj 76 683 pix_texture;
#X msg 95 585 open ../data/img1.jpg;
#X obj 76 614 pix_image ../data/img1.jpg;
#X obj 365 21 declare -lib Gem;
#X msg 90 57 open shader/multitexture.vert;
#X msg 86 153 open shader/multitexture.frag;
#X msg 104 658 rectangle 0 \, texunit 1;
#X msg 104 489 rectangle 0 \, texunit 0;
#X msg 170 341 MyTex 0 \, MyTex 1;
#X connect 0 0 11 0;
#X connect 1 0 21 0;
#X connect 1 1 41 0;
#X connect 2 0 5 0;
#X connect 3 0 2 0;
#X connect 3 1 2 1;
#X connect 4 0 6 0;
#X connect 5 0 1 0;
#X connect 5 0 8 0;
#X connect 6 0 3 0;
#X connect 7 0 2 0;
#X connect 9 0 25 0;
#X connect 10 0 37 0;
#X connect 10 0 38 0;
#X connect 11 0 12 0;
#X connect 11 1 22 0;
#X connect 12 0 1 0;
#X connect 12 1 4 0;
#X connect 13 0 17 0;
#X connect 14 0 13 0;
#X connect 16 0 10 0;
#X connect 17 0 20 0;
#X connect 18 0 40 0;
#X connect 19 0 20 0;
#X connect 20 0 21 0;
#X connect 21 0 27 0;
#X connect 22 0 7 0;
#X connect 24 0 25 0;
#X connect 27 0 35 0;
#X connect 28 0 30 0;
#X connect 29 0 28 0;
#X connect 30 0 34 0;
#X connect 31 0 39 0;
#X connect 32 0 34 0;
#X connect 33 0 26 0;
#X connect 34 0 35 0;
#X connect 35 0 33 0;
#X connect 37 0 11 0;
#X connect 38 0 12 0;
#X connect 39 0 33 0;
#X connect 40 0 27 0;
#X connect 41 0 1 0;
