#N canvas 873 66 930 699 10;
#X obj 76 5 gemhead;
#X obj 75 429 glsl_program;
#X obj 149 268 pack 0 0;
#X obj 170 248 t b f;
#X obj 164 203 change;
#X msg 149 294 link \$1 \$2;
#X floatatom 170 229 2 0 0 0 ID - -;
#X floatatom 148 121 2 0 0 0 ID - -;
#X obj 167 315 print linking;
#X msg 382 33 color 1 0 0;
#X msg 365 9 create \, 1;
#X msg 397 57 destroy;
#X obj 142 27 bng 15 250 50 0 empty empty empty 0 -6 0 8 -262144 -1
-1;
#X obj 76 79 glsl_vertex;
#X obj 76 183 glsl_fragment;
#X obj 463 464 pix_texture;
#X obj 546 271 openpanel;
#X obj 546 248 bng 15 250 50 0 empty empty empty 17 7 0 10 -262144
-1 -1;
#X msg 90 57 open multitexture.vert;
#X msg 86 153 open multitexture.frag;
#X obj 75 670 rectangle 4 3;
#X obj 463 230 gemhead 11;
#X obj 463 204 tgl 15 0 empty empty empty 17 7 0 10 -262144 -1 -1 0
1;
#X obj 365 80 gemwin 30;
#X text 447 9 1) turn on rendering;
#X obj 462 514 square 2;
#X msg 503 432 texunit 1;
#X msg 491 409 texunit 0;
#X obj 687 467 pix_texture;
#X obj 768 271 openpanel;
#X obj 768 250 bng 15 250 50 0 empty empty empty 17 7 0 10 -262144
-1 -1;
#X obj 687 204 tgl 15 0 empty empty empty 17 7 0 10 -262144 -1 -1 0
1;
#X obj 685 516 square 2;
#X msg 716 409 texunit 1;
#X msg 725 430 texunit 0;
#X obj 462 488 translateXYZ -2 0 0;
#X obj 685 490 translateXYZ 2 0 0;
#X msg 187 406 MyTex 0;
#X obj 75 644 pix_texture;
#X obj 218 498 openpanel;
#X obj 218 477 bng 15 250 50 0 empty empty empty 17 7 0 10 -262144
-1 -1;
#X msg 220 591 texunit 2;
#X msg 254 381 MyTex1 1;
#X msg 255 406 MyTex 1;
#X msg 186 381 MyTex1 0;
#X msg 321 382 MyTex1 2;
#X msg 326 407 MyTex 2;
#N canvas 0 0 450 300 load_shader 0;
#X obj 89 99 t b b;
#X msg 119 126 0;
#X obj 89 154 outlet;
#X obj 89 71 gemhead 1;
#X connect 0 0 2 0;
#X connect 0 1 1 0;
#X connect 1 0 3 0;
#X connect 3 0 0 0;
#X restore 142 5 pd load_shader;
#N canvas 0 0 450 300 init_shader 0;
#X obj 89 154 outlet;
#X obj 89 45 inlet;
#X obj 89 73 change;
#X obj 89 100 t b;
#X connect 1 0 2 0;
#X connect 2 0 3 0;
#X connect 3 0 0 0;
#X restore 156 450 pd init_shader;
#X msg 546 296 set open \$1 \, bang;
#X obj 491 387 loadbang;
#X msg 218 519 set open \$1 \, bang;
#X msg 768 294 set open \$1 \, bang;
#X obj 482 295 loadbang;
#X obj 153 519 loadbang;
#X obj 704 294 loadbang;
#X obj 220 569 loadbang;
#X obj 716 388 loadbang;
#X obj 687 229 gemhead 22;
#X text 187 360 2) change shader texuinit;
#X msg 482 320 open img2.jpg;
#X obj 463 349 pix_image img2.jpg;
#X obj 687 346 pix_image img3.jpg;
#X msg 704 318 open img3.jpg;
#X msg 153 544 open img1.jpg;
#X obj 75 613 pix_image img1.jpg;
#X obj 148 98 change;
#X text 343 127 This is an example of multitexturing \, this shader
mix 2 textures;
#X connect 0 0 13 0;
#X connect 1 0 65 0;
#X connect 1 1 48 0;
#X connect 2 0 5 0;
#X connect 3 0 2 0;
#X connect 3 1 2 1;
#X connect 4 0 6 0;
#X connect 5 0 1 0;
#X connect 5 0 8 0;
#X connect 6 0 3 0;
#X connect 7 0 2 0;
#X connect 9 0 23 0;
#X connect 10 0 23 0;
#X connect 11 0 23 0;
#X connect 12 0 18 0;
#X connect 12 0 19 0;
#X connect 13 0 14 0;
#X connect 13 1 66 0;
#X connect 14 0 1 0;
#X connect 14 1 4 0;
#X connect 15 0 35 0;
#X connect 16 0 49 0;
#X connect 17 0 16 0;
#X connect 18 0 13 0;
#X connect 19 0 14 0;
#X connect 21 0 61 0;
#X connect 22 0 21 0;
#X connect 26 0 15 0;
#X connect 27 0 15 0;
#X connect 28 0 36 0;
#X connect 29 0 52 0;
#X connect 30 0 29 0;
#X connect 31 0 58 0;
#X connect 33 0 28 0;
#X connect 34 0 28 0;
#X connect 35 0 25 0;
#X connect 36 0 32 0;
#X connect 37 0 1 0;
#X connect 38 0 20 0;
#X connect 39 0 51 0;
#X connect 40 0 39 0;
#X connect 41 0 38 0;
#X connect 42 0 1 0;
#X connect 43 0 1 0;
#X connect 44 0 1 0;
#X connect 45 0 1 0;
#X connect 46 0 1 0;
#X connect 47 0 12 0;
#X connect 48 0 42 0;
#X connect 48 0 46 0;
#X connect 49 0 60 0;
#X connect 50 0 27 0;
#X connect 51 0 64 0;
#X connect 52 0 63 0;
#X connect 53 0 60 0;
#X connect 54 0 64 0;
#X connect 55 0 63 0;
#X connect 56 0 41 0;
#X connect 57 0 33 0;
#X connect 58 0 62 0;
#X connect 60 0 61 0;
#X connect 61 0 15 0;
#X connect 62 0 28 0;
#X connect 63 0 62 0;
#X connect 64 0 65 0;
#X connect 65 0 38 0;
#X connect 66 0 7 0;
