#N canvas 464 130 933 476 10;
#N canvas 16 329 450 300 init 0;
#X obj 81 183 outlet;
#X obj 81 143 loadbang;
#X msg 81 163 dimen 320 240;
#X connect 1 0 2 0;
#X connect 2 0 0 0;
#X restore 78 456 pd init;
#X msg 60 409 create \, 1;
#X obj 123 229 square 4;
#X obj 123 91 gemframebuffer;
#X obj 123 113 translateXYZ 0 0 -4;
#X obj 635 376 pix_texture;
#X obj 635 403 square 4;
#N canvas 58 90 407 295 init 0;
#X obj 106 175 outlet;
#X msg 125 89 type FLOAT;
#X msg 211 147 mode 1;
#X obj 124 68 loadbang;
#X msg 146 109 dim 1024 1024;
#X connect 1 0 0 0;
#X connect 2 0 0 0;
#X connect 3 0 1 0;
#X connect 3 0 4 0;
#X connect 3 0 2 0;
#X connect 4 0 0 0;
#X restore 132 72 pd init;
#X text 406 -3 second input;
#X obj 614 228 pix_texture;
#X obj 614 250 square 4;
#X floatatom 688 253 5 0 0 0 - - -;
#N canvas 157 111 316 255 init 0;
#X msg 93 92 type FLOAT;
#X obj 93 68 t b;
#X msg 113 133 mode 1;
#X obj 95 47 loadbang;
#X obj 93 159 outlet;
#X msg 102 114 dim 1024 1024;
#X connect 0 0 4 0;
#X connect 1 0 0 0;
#X connect 1 0 5 0;
#X connect 1 0 2 0;
#X connect 2 0 4 0;
#X connect 3 0 1 0;
#X connect 5 0 4 0;
#X restore 633 73 pd init;
#X obj 156 292 loadbang;
#X msg 77 431 destroy;
#X obj 144 338 pix_texture;
#X obj 400 108 translateXYZ 0 0 -4;
#N canvas 58 90 407 295 init 0;
#X obj 106 175 outlet;
#X msg 125 89 type FLOAT;
#X msg 211 147 mode 1;
#X obj 124 68 loadbang;
#X msg 146 109 dim 1024 1024;
#X connect 1 0 0 0;
#X connect 2 0 0 0;
#X connect 3 0 1 0;
#X connect 3 0 4 0;
#X connect 3 0 2 0;
#X connect 4 0 0 0;
#X restore 409 67 pd init;
#X obj 433 293 loadbang;
#X obj 421 339 pix_texture;
#X text 30 1 first input \, render whatever in a frambuffer;
#X obj 123 209 pix_texture;
#X obj 400 204 pix_texture;
#X obj 421 270 gemhead 22;
#X msg 154 311 mode 1 \, texunit 1;
#X msg 431 313 mode 1 \, texunit 2;
#X text 14 362 send the framebuffer to a pix_texture to load it in
an other texunit;
#X obj 657 335 loadbang;
#X msg 655 355 mode 1;
#X obj 123 136 pix_image img1.jpg;
#X text 582 157 dummy image \, used to set texture coordinate;
#X obj 123 21 gemhead 11;
#X msg 630 207 mode 1;
#X obj 400 131 pix_image img2.jpg;
#X obj 630 185 loadbang;
#X obj 614 119 translateXYZ 0 0 -4;
#X obj 614 95 gemframebuffer;
#X text 587 52 shader mixing 2 textures;
#X obj 400 88 gemframebuffer;
#X obj 400 224 scaleXYZ 4 4 1;
#X obj 400 245 mesh_square 10 10;
#N canvas 330 106 589 635 shader1 0;
#X obj 94 500 glsl_program;
#X obj 94 340 glsl_fragment;
#X obj 94 160 glsl_vertex;
#X obj 172 400 pack 0 0;
#X obj 162 200 change;
#X obj 182 375 change;
#X msg 172 420 link \$1 \$2;
#X obj 162 220 t b f;
#X obj 176 444 print linking;
#X obj 94 66 inlet;
#X obj 94 530 outlet;
#X obj 464 245 inlet;
#X floatatom 182 179 0 0 0 0 - - -;
#X floatatom 234 377 0 0 0 0 - - -;
#X msg 56 472 print;
#X obj 246 86 change -1;
#X msg 246 65 1;
#X obj 246 106 t b;
#X obj 246 46 gemhead 1;
#X obj 175 524 change;
#X obj 175 548 t b;
#X obj 175 571 outlet;
#X msg 246 135 open T_distord.vert;
#X msg 289 160 open T_distord.frag;
#X msg 331 446 K1 1;
#X connect 0 0 10 0;
#X connect 0 1 19 0;
#X connect 1 0 0 0;
#X connect 1 1 5 0;
#X connect 1 1 13 0;
#X connect 2 0 1 0;
#X connect 2 1 4 0;
#X connect 2 1 12 0;
#X connect 3 0 6 0;
#X connect 4 0 7 0;
#X connect 5 0 3 0;
#X connect 6 0 0 0;
#X connect 6 0 8 0;
#X connect 7 0 3 0;
#X connect 7 1 3 1;
#X connect 9 0 2 0;
#X connect 11 0 0 0;
#X connect 14 0 0 0;
#X connect 15 0 17 0;
#X connect 16 0 15 0;
#X connect 17 0 22 0;
#X connect 17 0 23 0;
#X connect 18 0 16 0;
#X connect 19 0 20 0;
#X connect 20 0 21 0;
#X connect 20 0 24 0;
#X connect 22 0 2 0;
#X connect 23 0 1 0;
#X connect 24 0 0 0;
#X restore 123 48 pd shader1;
#N canvas 476 68 589 635 shader2 0;
#X obj 94 500 glsl_program;
#X obj 94 340 glsl_fragment;
#X obj 94 160 glsl_vertex;
#X obj 172 400 pack 0 0;
#X obj 162 200 change;
#X obj 182 375 change;
#X msg 172 420 link \$1 \$2;
#X obj 162 220 t b f;
#X obj 176 444 print linking;
#X obj 94 66 inlet;
#X obj 94 530 outlet;
#X obj 464 245 inlet;
#X floatatom 182 179 0 0 0 0 - - -;
#X floatatom 234 377 0 0 0 0 - - -;
#X msg 56 472 print;
#X obj 246 86 change -1;
#X msg 246 65 1;
#X obj 246 106 t b;
#X obj 246 46 gemhead 1;
#X obj 175 524 change;
#X obj 175 548 t b;
#X obj 175 571 outlet;
#X msg 246 135 open P_distord.vert;
#X msg 289 160 open P_distord.frag;
#X msg 331 446 K 0.1;
#X connect 0 0 10 0;
#X connect 0 1 19 0;
#X connect 1 0 0 0;
#X connect 1 1 5 0;
#X connect 1 1 13 0;
#X connect 2 0 1 0;
#X connect 2 1 4 0;
#X connect 2 1 12 0;
#X connect 3 0 6 0;
#X connect 4 0 7 0;
#X connect 5 0 3 0;
#X connect 6 0 0 0;
#X connect 6 0 8 0;
#X connect 7 0 3 0;
#X connect 7 1 3 1;
#X connect 9 0 2 0;
#X connect 11 0 0 0;
#X connect 14 0 0 0;
#X connect 15 0 17 0;
#X connect 16 0 15 0;
#X connect 17 0 22 0;
#X connect 17 0 23 0;
#X connect 18 0 16 0;
#X connect 19 0 20 0;
#X connect 20 0 21 0;
#X connect 20 0 24 0;
#X connect 22 0 2 0;
#X connect 23 0 1 0;
#X connect 24 0 0 0;
#X restore 400 40 pd shader2;
#N canvas 153 105 589 635 shader3 0;
#X obj 94 500 glsl_program;
#X obj 94 340 glsl_fragment;
#X obj 94 160 glsl_vertex;
#X obj 172 400 pack 0 0;
#X obj 162 200 change;
#X obj 182 375 change;
#X msg 172 420 link \$1 \$2;
#X obj 162 220 t b f;
#X obj 176 444 print linking;
#X obj 94 66 inlet;
#X obj 94 530 outlet;
#X obj 464 245 inlet;
#X floatatom 182 179 0 0 0 0 - - -;
#X floatatom 234 377 0 0 0 0 - - -;
#X msg 56 472 print;
#X obj 246 86 change -1;
#X msg 246 65 1;
#X obj 246 106 t b;
#X obj 246 46 gemhead 1;
#X obj 175 524 change;
#X obj 175 548 t b;
#X obj 175 571 outlet;
#X msg 246 135 open multitexture_rect.vert;
#X msg 291 160 open multitexture_rect.frag;
#X msg 326 429 MyTex 1;
#X msg 336 451 MyTex1 2;
#X connect 0 0 10 0;
#X connect 0 1 19 0;
#X connect 1 0 0 0;
#X connect 1 1 5 0;
#X connect 1 1 13 0;
#X connect 2 0 1 0;
#X connect 2 1 4 0;
#X connect 2 1 12 0;
#X connect 3 0 6 0;
#X connect 4 0 7 0;
#X connect 5 0 3 0;
#X connect 6 0 0 0;
#X connect 6 0 8 0;
#X connect 7 0 3 0;
#X connect 7 1 3 1;
#X connect 9 0 2 0;
#X connect 11 0 0 0;
#X connect 14 0 0 0;
#X connect 15 0 17 0;
#X connect 16 0 15 0;
#X connect 17 0 22 0;
#X connect 17 0 23 0;
#X connect 18 0 16 0;
#X connect 19 0 20 0;
#X connect 20 0 21 0;
#X connect 20 0 24 0;
#X connect 20 0 25 0;
#X connect 22 0 2 0;
#X connect 23 0 1 0;
#X connect 24 0 0 0;
#X connect 25 0 0 0;
#X restore 614 32 pd shader3;
#X text 436 361 do the same a 2nd time;
#X obj 144 269 gemhead 12;
#X obj 400 16 gemhead 21;
#X obj 614 7 gemhead 31;
#X obj 635 311 gemhead 32;
#X obj 614 141 pix_set 1024 1024;
#X obj 59 479 gemwin;
#X msg 138 184 mode 0;
#X obj 138 162 loadbang;
#X msg 414 175 mode 0;
#X obj 414 153 loadbang;
#X connect 0 0 50 0;
#X connect 1 0 50 0;
#X connect 3 0 4 0;
#X connect 3 1 15 1;
#X connect 4 0 29 0;
#X connect 5 0 6 0;
#X connect 7 0 3 0;
#X connect 9 0 10 0;
#X connect 9 1 11 0;
#X connect 12 0 36 0;
#X connect 13 0 24 0;
#X connect 14 0 50 0;
#X connect 16 0 33 0;
#X connect 17 0 38 0;
#X connect 18 0 25 0;
#X connect 21 0 2 0;
#X connect 22 0 39 0;
#X connect 23 0 19 0;
#X connect 24 0 15 0;
#X connect 25 0 19 0;
#X connect 27 0 28 0;
#X connect 28 0 5 0;
#X connect 29 0 21 0;
#X connect 31 0 41 0;
#X connect 32 0 9 0;
#X connect 33 0 22 0;
#X connect 34 0 32 0;
#X connect 35 0 49 0;
#X connect 36 0 35 0;
#X connect 36 1 5 1;
#X connect 38 0 16 0;
#X connect 38 1 19 1;
#X connect 39 0 40 0;
#X connect 41 0 3 0;
#X connect 42 0 38 0;
#X connect 43 0 36 0;
#X connect 45 0 15 0;
#X connect 46 0 42 0;
#X connect 47 0 43 0;
#X connect 48 0 5 0;
#X connect 49 0 9 0;
#X connect 51 0 21 0;
#X connect 52 0 51 0;
#X connect 53 0 22 0;
#X connect 54 0 53 0;
