#N canvas 434 114 550 486 10;
#X obj 27 399 hradio 15 1 0 5 empty empty empty 0 -8 0 10 -262144 -1
-1 0;
#X floatatom 185 212 5 0 0 0 - - -;
#N canvas 0 0 187 219 fps 0;
#X obj 22 62 realtime;
#X obj 22 41 t b b;
#X obj 22 19 gemhead;
#X obj 22 170 outlet;
#X msg 22 84 1000 \$1;
#X obj 22 105 /;
#X obj 22 126 + 0.5;
#X obj 22 147 i;
#X connect 0 0 4 0;
#X connect 1 0 0 0;
#X connect 1 1 0 1;
#X connect 2 0 1 0;
#X connect 4 0 5 0;
#X connect 5 0 6 0;
#X connect 6 0 7 0;
#X connect 7 0 3 0;
#X restore 185 192 pd fps;
#N canvas 970 374 337 368 time_and_direction_Wind 0;
#X obj 41 82 pack f f;
#X msg 41 104 wind \$1 \$2;
#X obj 41 126 s shader_link;
#X obj 41 30 inlet;
#X obj 105 32 inlet;
#X obj 181 304 s oscillation1;
#X obj 41 58 / 11000;
#X obj 105 58 / 11000;
#X obj 181 187 *;
#X obj 181 164 t f f;
#X obj 181 212 +;
#X obj 181 236 sqrt;
#X obj 231 187 *;
#X obj 231 164 t f f;
#X obj 181 259 * 600;
#X obj 181 281 min 300;
#X connect 0 0 1 0;
#X connect 1 0 2 0;
#X connect 3 0 6 0;
#X connect 3 0 9 0;
#X connect 4 0 7 0;
#X connect 4 0 13 0;
#X connect 6 0 0 0;
#X connect 7 0 0 1;
#X connect 8 0 10 0;
#X connect 9 0 8 0;
#X connect 9 1 8 1;
#X connect 10 0 11 0;
#X connect 11 0 14 0;
#X connect 12 0 10 1;
#X connect 13 0 12 0;
#X connect 13 1 12 1;
#X connect 14 0 15 0;
#X connect 15 0 5 0;
#X restore 272 417 pd time_and_direction_Wind __;
#X obj 272 171 vsl 15 128 0 1 0 0 empty empty empty 0 -9 0 10 -262144
-1 -1 0 1;
#X obj 365 172 vsl 15 128 0 1 0 0 empty empty empty 0 -9 0 10 -262144
-1 -1 0 1;
#N canvas 543 225 707 425 pos_wind 0;
#X obj 323 265 pack 0 0;
#X msg 323 286 \; pos_wind_canvas pos \$1 \$2;
#X obj 394 116 sin;
#X obj 341 116 cos;
#X obj 341 88 t f f;
#X obj 323 244 + 145;
#X obj 376 244 + 145;
#X obj 341 9 inlet;
#X obj 270 10 inlet;
#X obj 376 202 *;
#X obj 416 382 outlet;
#X obj 476 382 outlet;
#X obj 323 223 * 45;
#X obj 376 223 * 45;
#X obj 270 382 s force_wind;
#X obj 270 67 min 1;
#X obj 270 88 max 0;
#X obj 159 145 cnv 10 10 10 empty pos_wind_canvas empty 20 12 0 14
-258113 -66577 0;
#X obj 146 147 bng 8 250 50 0 empty empty empty 17 7 0 10 -262144 -1
-1;
#X obj 341 65 * 6.28;
#X obj 341 29 t b f;
#X obj 323 201 * 1;
#X connect 0 0 1 0;
#X connect 2 0 9 1;
#X connect 3 0 21 1;
#X connect 4 0 3 0;
#X connect 4 1 2 0;
#X connect 5 0 0 0;
#X connect 6 0 0 1;
#X connect 7 0 20 0;
#X connect 8 0 15 0;
#X connect 9 0 11 0;
#X connect 9 0 13 0;
#X connect 12 0 5 0;
#X connect 13 0 6 0;
#X connect 15 0 16 0;
#X connect 16 0 14 0;
#X connect 16 0 9 0;
#X connect 16 0 21 0;
#X connect 19 0 4 0;
#X connect 20 0 15 0;
#X connect 20 1 19 0;
#X connect 21 0 10 0;
#X connect 21 0 12 0;
#X coords 0 -1 1 1 100 100 2 100 100;
#X restore 272 308 pd pos_wind;
#X text 269 152 force;
#X text 362 152 direction;
#N canvas 419 141 683 511 shaders_PM 0;
#X obj 24 367 translateXYZ 0 0 -4;
#X obj 24 428 pix_texture;
#X obj 24 449 square 4;
#X obj 24 325 gemframebuffer;
#N canvas 0 0 450 300 inti_fb 0;
#X msg 92 85 type BYTE;
#X msg 70 63 format RGB32;
#X obj 44 13 loadbang;
#X obj 44 33 t b b;
#X obj 80 149 t a;
#X obj 84 177 outlet;
#X msg 135 127 rectangle 1;
#X msg 44 108 dimen 128 128;
#X connect 0 0 4 0;
#X connect 1 0 4 0;
#X connect 2 0 3 0;
#X connect 3 0 7 0;
#X connect 3 1 1 0;
#X connect 3 1 0 0;
#X connect 3 1 6 0;
#X connect 4 0 5 0;
#X connect 6 0 4 0;
#X connect 7 0 4 0;
#X restore 48 299 pd inti_fb;
#X msg 35 278 texunit 1;
#X obj 35 257 loadbang;
#N canvas 573 206 496 427 shader 0;
#X obj 126 187 change;
#X obj 126 233 print linking;
#X obj 32 167 glsl_fragment;
#X msg 126 208 link \$1;
#N canvas 0 0 450 300 load_shader 0;
#X obj 89 99 t b b;
#X msg 119 126 0;
#X obj 89 154 outlet;
#X obj 89 71 gemhead 1;
#X connect 0 0 2 0;
#X connect 0 1 1 0;
#X connect 1 0 3 0;
#X connect 3 0 0 0;
#X restore 122 83 pd load_shader;
#X obj 32 36 inlet;
#X obj 32 333 outlet;
#X obj 155 18 inlet;
#N canvas 0 0 450 300 init_shader 0;
#X obj 89 154 outlet;
#X obj 89 45 inlet;
#X obj 89 73 change;
#X obj 89 100 t b;
#X connect 1 0 2 0;
#X connect 2 0 3 0;
#X connect 3 0 0 0;
#X restore 113 288 pd init_shader;
#X obj 278 25 inlet;
#X obj 113 318 outlet;
#X msg 42 143 open mass.frag;
#X floatatom 63 306 9 0 0 0 - - -;
#X obj 32 264 glsl_program;
#X connect 0 0 3 0;
#X connect 2 0 13 0;
#X connect 2 1 0 0;
#X connect 3 0 1 0;
#X connect 3 0 13 0;
#X connect 4 0 11 0;
#X connect 5 0 2 0;
#X connect 7 0 11 0;
#X connect 8 0 10 0;
#X connect 9 0 13 0;
#X connect 11 0 2 0;
#X connect 13 0 6 0;
#X connect 13 1 8 0;
#X connect 13 1 12 0;
#X restore 24 237 pd shader;
#X obj 49 211 bng 15 250 50 0 empty empty empty 17 7 0 10 -262144 -1
-1;
#X msg 141 147 init \$1;
#X obj 173 370 translateXYZ 0 0 -4;
#X obj 173 431 pix_texture;
#X obj 173 452 square 4;
#X obj 173 330 gemframebuffer;
#X floatatom 141 129 5 0 1 0 - - -;
#X obj 127 59 t b;
#X obj 330 350 translateXYZ 0 0 -4;
#X obj 330 311 gemframebuffer;
#N canvas 0 0 450 300 inti_fb 0;
#X msg 92 85 type BYTE;
#X msg 70 63 format RGB32;
#X obj 44 13 loadbang;
#X obj 44 33 t b b;
#X obj 80 149 t a;
#X obj 84 177 outlet;
#X msg 135 127 rectangle 1;
#X msg 44 108 dimen 128 128;
#X connect 0 0 4 0;
#X connect 1 0 4 0;
#X connect 2 0 3 0;
#X connect 3 0 7 0;
#X connect 3 1 1 0;
#X connect 3 1 0 0;
#X connect 3 1 6 0;
#X connect 4 0 5 0;
#X connect 6 0 4 0;
#X connect 7 0 4 0;
#X restore 351 283 pd inti_fb;
#X obj 336 241 loadbang;
#N canvas 573 206 496 427 shader 0;
#X obj 32 264 glsl_program;
#X obj 126 187 change;
#X obj 126 233 print linking;
#X obj 32 167 glsl_fragment;
#X msg 126 208 link \$1;
#N canvas 0 0 450 300 load_shader 0;
#X obj 89 99 t b b;
#X msg 119 126 0;
#X obj 89 154 outlet;
#X obj 89 71 gemhead 20;
#X connect 0 0 2 0;
#X connect 0 1 1 0;
#X connect 1 0 3 0;
#X connect 3 0 0 0;
#X restore 129 85 pd load_shader;
#X obj 32 36 inlet;
#X obj 32 333 outlet;
#X obj 155 18 inlet;
#N canvas 0 0 450 300 init_shader 0;
#X obj 89 154 outlet;
#X obj 89 45 inlet;
#X obj 89 73 change;
#X obj 89 100 t b;
#X connect 1 0 2 0;
#X connect 2 0 3 0;
#X connect 3 0 0 0;
#X restore 113 288 pd init_shader;
#X obj 278 25 inlet;
#X obj 113 318 outlet;
#X msg 42 143 open link.frag;
#X connect 0 0 7 0;
#X connect 0 1 9 0;
#X connect 1 0 4 0;
#X connect 3 0 0 0;
#X connect 3 1 1 0;
#X connect 4 0 0 0;
#X connect 4 0 2 0;
#X connect 5 0 12 0;
#X connect 6 0 3 0;
#X connect 8 0 12 0;
#X connect 9 0 11 0;
#X connect 10 0 0 0;
#X connect 12 0 3 0;
#X restore 329 219 pd shader;
#X obj 354 200 bng 15 250 50 0 empty empty empty 17 7 0 10 -262144
-1 -1;
#X obj 329 178 gemhead 11;
#X obj 38 387 loadbang;
#X msg 38 406 rectangle 1;
#X obj 349 382 loadbang;
#X msg 349 403 rectangle 1;
#X obj 56 347 s texture_mass;
#X obj 339 331 s texture_link;
#X obj 127 41 bng 15 250 50 0 empty empty empty 17 7 0 10 -262144 -1
-1;
#X obj 187 262 loadbang;
#X msg 187 283 texunit 2;
#X msg 336 262 texunit 3;
#X msg 119 170 texture_link 3;
#X obj 173 240 gemhead 21;
#X msg 128 189 texture_mass 2;
#X obj 190 350 s texture_mass2;
#X obj 24 189 gemhead 2;
#X msg 50 124 0;
#X obj 33 16 gemhead 2;
#X obj 50 105 loadbang;
#X obj 330 422 pix_texture;
#X msg 141 107 1;
#X obj 389 198 r shader_link;
#X obj 413 242 s init_shader_link;
#X obj 180 76 delay 100;
#X msg 209 119 0;
#X obj 412 55 delay 100;
#X obj 428 85 delay 1000;
#X msg 243 124 N 1;
#X obj 179 97 t b b;
#X obj 33 72 until;
#X obj 330 445 square 4;
#X msg 33 37 20;
#X obj 33 146 t a a a;
#X obj 329 101 t b;
#X msg 329 142 N 0;
#X obj 327 121 delay 30;
#X obj 410 3 inlet;
#X obj 412 27 t b;
#X obj 539 19 gemhead;
#X obj 539 42 route gem_state;
#X obj 539 64 route 1 0;
#X connect 0 0 1 0;
#X connect 1 0 2 0;
#X connect 3 0 0 0;
#X connect 3 1 27 0;
#X connect 3 1 11 1;
#X connect 4 0 3 0;
#X connect 4 0 13 0;
#X connect 5 0 3 0;
#X connect 6 0 5 0;
#X connect 7 0 3 0;
#X connect 7 1 29 0;
#X connect 8 0 7 1;
#X connect 9 0 7 2;
#X connect 10 0 11 0;
#X connect 11 0 12 0;
#X connect 13 0 10 0;
#X connect 13 1 36 0;
#X connect 13 1 1 1;
#X connect 14 0 9 0;
#X connect 15 0 33 0;
#X connect 15 0 35 0;
#X connect 15 0 42 0;
#X connect 15 0 45 0;
#X connect 16 0 41 0;
#X connect 17 0 16 0;
#X connect 17 1 28 0;
#X connect 18 0 17 0;
#X connect 19 0 32 0;
#X connect 20 0 17 0;
#X connect 20 1 44 0;
#X connect 21 0 20 1;
#X connect 22 0 20 0;
#X connect 23 0 24 0;
#X connect 24 0 1 0;
#X connect 24 0 11 0;
#X connect 25 0 26 0;
#X connect 26 0 41 0;
#X connect 29 0 15 0;
#X connect 30 0 31 0;
#X connect 31 0 13 0;
#X connect 32 0 17 0;
#X connect 33 0 7 2;
#X connect 34 0 13 0;
#X connect 35 0 7 2;
#X connect 37 0 7 0;
#X connect 38 0 54 0;
#X connect 39 0 53 0;
#X connect 40 0 38 0;
#X connect 41 0 52 0;
#X connect 42 0 14 0;
#X connect 43 0 20 2;
#X connect 45 0 50 0;
#X connect 46 0 14 0;
#X connect 47 0 29 0;
#X connect 48 0 44 0;
#X connect 49 0 20 2;
#X connect 49 0 55 0;
#X connect 50 0 49 0;
#X connect 50 1 46 0;
#X connect 51 0 54 0;
#X connect 53 0 51 0;
#X connect 54 0 34 0;
#X connect 54 1 22 0;
#X connect 54 2 37 0;
#X connect 55 0 57 0;
#X connect 56 0 20 2;
#X connect 57 0 56 0;
#X connect 58 0 59 0;
#X connect 59 0 8 0;
#X connect 59 0 47 0;
#X connect 59 0 21 0;
#X connect 59 0 48 0;
#X connect 60 0 61 0;
#X connect 61 0 62 0;
#X connect 62 0 59 0;
#X restore 27 323 pd shaders_PM _________________;
#N canvas 694 201 301 383 shader_normal 0;
#X obj 51 153 gemframebuffer;
#X obj 51 267 pix_texture;
#X obj 51 192 translateXYZ 0 0 -4;
#X obj 51 286 square 4;
#X obj 67 224 loadbang;
#N canvas 0 0 1052 398 init 0;
#X obj 14 30 loadbang;
#X obj 14 80 outlet;
#X msg 14 54 rectangle 0 \, type BYTE \, format RGB32 \, dim 128 128
;
#X connect 0 0 2 0;
#X connect 2 0 1 0;
#X restore 63 132 pd init;
#N canvas 573 206 496 427 shader 0;
#X obj 32 264 glsl_program;
#X obj 126 187 change;
#X obj 126 233 print linking;
#X obj 32 167 glsl_fragment;
#X msg 126 208 link \$1;
#N canvas 0 0 450 300 load_shader 0;
#X obj 89 99 t b b;
#X msg 119 126 0;
#X obj 89 154 outlet;
#X obj 89 71 gemhead 30;
#X connect 0 0 2 0;
#X connect 0 1 1 0;
#X connect 1 0 3 0;
#X connect 3 0 0 0;
#X restore 120 89 pd load_shader;
#X obj 32 36 inlet;
#X obj 32 333 outlet;
#X obj 155 18 inlet;
#N canvas 0 0 450 300 init_shader 0;
#X obj 89 154 outlet;
#X obj 89 45 inlet;
#X obj 89 73 change;
#X obj 89 100 t b;
#X connect 1 0 2 0;
#X connect 2 0 3 0;
#X connect 3 0 0 0;
#X restore 113 288 pd init_shader;
#X obj 278 25 inlet;
#X obj 113 318 outlet;
#X msg 43 143 open normal.frag;
#X connect 0 0 7 0;
#X connect 0 1 9 0;
#X connect 1 0 4 0;
#X connect 3 0 0 0;
#X connect 3 1 1 0;
#X connect 4 0 0 0;
#X connect 4 0 2 0;
#X connect 5 0 12 0;
#X connect 6 0 3 0;
#X connect 8 0 12 0;
#X connect 9 0 11 0;
#X connect 10 0 0 0;
#X connect 12 0 3 0;
#X restore 51 112 pd shader;
#X obj 76 93 bng 15 250 50 0 empty empty empty 17 7 0 10 -262144 -1
-1;
#X obj 121 56 t b;
#X msg 102 76 texture_mass 1;
#X obj 102 57 bng 15 250 50 0 empty empty empty 17 7 0 10 -262144 -1
-1;
#X obj 71 173 s texture_normal;
#X obj 51 39 gemhead 32;
#X obj 125 115 loadbang;
#X msg 67 243 rectangle 0;
#X msg 116 95 texture_image 4;
#X msg 125 134 texunit 4;
#X connect 0 0 2 0;
#X connect 0 1 11 0;
#X connect 1 0 3 0;
#X connect 2 0 1 0;
#X connect 4 0 14 0;
#X connect 5 0 0 0;
#X connect 6 0 0 0;
#X connect 6 1 10 0;
#X connect 7 0 6 1;
#X connect 8 0 9 0;
#X connect 8 0 15 0;
#X connect 9 0 6 2;
#X connect 10 0 8 0;
#X connect 12 0 6 0;
#X connect 13 0 16 0;
#X connect 14 0 1 0;
#X connect 16 0 0 0;
#X restore 27 342 pd shader_normal ______________;
#N canvas 0 0 363 355 init_shader_link 0;
#X msg 16 179 gravite \$1;
#X floatatom 14 139 5 0 0 0 - - -;
#X floatatom 78 140 5 0 0 0 - - -;
#X msg 78 156 D \$1;
#X msg 129 158 K1 \$1;
#X floatatom 128 139 5 0 0 0 - - -;
#X obj 14 157 / 100;
#X obj 16 201 t a;
#X obj 17 224 s shader_link;
#N canvas 0 0 699 400 init_general 0;
#X msg 22 42 texture_mass 1;
#X msg 30 62 texture_mass_old 2;
#X obj 22 9 inlet;
#X obj 24 131 outlet;
#X msg 164 85 K \$1;
#X floatatom 163 60 5 0 0 0 - - -;
#X msg 163 38 0;
#X connect 0 0 3 0;
#X connect 1 0 3 0;
#X connect 2 0 0 0;
#X connect 2 0 1 0;
#X connect 2 0 6 0;
#X connect 4 0 3 0;
#X connect 5 0 4 0;
#X connect 6 0 5 0;
#X restore 50 64 pd init_general;
#X obj 50 85 s shader_link;
#X obj 18 40 bng 15 250 50 0 empty empty empty 17 7 0 10 -262144 -1
-1;
#X obj 18 20 r init_shader_link;
#X obj 16 96 t b;
#X obj 18 77 bng 15 250 50 0 empty empty empty 17 7 0 10 -262144 -1
-1;
#X msg 125 118 0.05;
#X msg 16 119 -0.0025;
#X msg 75 120 0.004;
#X connect 0 0 7 0;
#X connect 1 0 6 0;
#X connect 2 0 3 0;
#X connect 3 0 7 0;
#X connect 4 0 7 0;
#X connect 5 0 4 0;
#X connect 6 0 0 0;
#X connect 7 0 8 0;
#X connect 9 0 10 0;
#X connect 11 0 9 0;
#X connect 11 0 14 0;
#X connect 12 0 11 0;
#X connect 13 0 16 0;
#X connect 13 0 17 0;
#X connect 13 0 15 0;
#X connect 14 0 13 0;
#X connect 15 0 5 0;
#X connect 16 0 1 0;
#X connect 17 0 2 0;
#X restore 27 361 pd init_shader_link ___________;
#N canvas 266 498 450 300 config 0;
#X msg 26 75 W \$1;
#X floatatom 225 101 5 0 0 0 - - -;
#X msg 225 120 f \$1;
#X obj 134 155 t a;
#X msg 134 83 N \$1;
#X obj 134 181 s shader_link;
#X text 142 101 bruit;
#X obj 133 31 r qqt_noise;
#X obj 26 29 r oscillation1;
#X obj 26 53 / 11000;
#X obj 225 31 r force_wind;
#X obj 225 78 + 5;
#X obj 225 55 * 5;
#X obj 133 61 / 5000;
#X msg 338 120 t \$1;
#X obj 338 31 gemhead 77;
#X obj 338 56 t b;
#X obj 338 79 f;
#X obj 338 141 s shader_link;
#X obj 338 99 + 0.3;
#X connect 0 0 3 0;
#X connect 1 0 2 0;
#X connect 2 0 3 0;
#X connect 3 0 5 0;
#X connect 4 0 3 0;
#X connect 7 0 13 0;
#X connect 8 0 9 0;
#X connect 9 0 0 0;
#X connect 10 0 12 0;
#X connect 11 0 1 0;
#X connect 12 0 11 0;
#X connect 13 0 4 0;
#X connect 14 0 18 0;
#X connect 15 0 16 0;
#X connect 16 0 17 0;
#X connect 17 0 19 0;
#X connect 19 0 17 1;
#X connect 19 0 14 0;
#X restore 27 380 pd config _____________________;
#N canvas 0 0 450 300 render 0;
#X obj 43 137 pix_texture;
#X obj 43 181 square 4;
#X obj 43 115 gemhead 66;
#X obj 241 120 != 0;
#X obj 210 119 == 0;
#X obj 133 58 r texture_link;
#X obj 146 77 r texture_interpol;
#X obj 210 146 s aff_drapeau;
#X obj 120 39 r texture_mass;
#X msg 43 94 0;
#X obj 43 73 loadbang;
#N canvas 0 0 656 297 spigot4 0;
#X obj 40 21 inlet;
#X obj 458 22 inlet;
#X obj 40 179 outlet;
#X obj 113 24 inlet;
#X obj 112 91 spigot 0;
#X obj 196 24 inlet;
#X obj 195 91 spigot 0;
#X obj 86 68 == 1;
#X obj 159 71 == 2;
#X obj 240 71 == 3;
#X obj 40 88 spigot 0;
#X obj 283 29 inlet;
#X obj 282 96 spigot 0;
#X obj 327 76 == 4;
#X obj 361 32 inlet;
#X obj 360 99 spigot 0;
#X obj 405 79 == 5;
#X connect 0 0 10 0;
#X connect 1 0 7 0;
#X connect 1 0 8 0;
#X connect 1 0 9 0;
#X connect 1 0 13 0;
#X connect 1 0 16 0;
#X connect 3 0 4 0;
#X connect 4 0 2 0;
#X connect 5 0 6 0;
#X connect 6 0 2 0;
#X connect 7 0 10 1;
#X connect 8 0 4 1;
#X connect 9 0 6 1;
#X connect 10 0 2 0;
#X connect 11 0 12 0;
#X connect 12 0 2 0;
#X connect 13 0 12 1;
#X connect 14 0 15 0;
#X connect 15 0 2 0;
#X connect 16 0 15 1;
#X restore 120 115 pd spigot4;
#X obj 160 96 r texture_normal;
#X obj 43 160 translateXYZ 0 0 -40;
#X obj 240 27 f;
#X obj 238 5 inlet;
#X connect 0 0 13 0;
#X connect 2 0 0 0;
#X connect 3 0 2 0;
#X connect 4 0 7 0;
#X connect 5 0 11 1;
#X connect 6 0 11 2;
#X connect 8 0 11 0;
#X connect 9 0 2 0;
#X connect 10 0 9 0;
#X connect 11 0 0 1;
#X connect 12 0 11 3;
#X connect 13 0 1 0;
#X connect 14 0 3 0;
#X connect 14 0 4 0;
#X connect 14 0 11 5;
#X connect 15 0 14 0;
#X restore 27 417 pd render _____________________;
#X text 288 6 Made by Cyrille Henry 2008 10 24;
#N canvas 412 143 612 457 shader_render 0;
#X obj 255 329 pix_texture;
#X obj 67 226 gemframebuffer;
#X obj 67 343 pix_texture;
#X obj 67 265 translateXYZ 0 0 -4;
#X obj 67 362 square 4;
#X obj 83 284 loadbang;
#N canvas 0 0 1052 398 init 0;
#X obj 14 30 loadbang;
#X obj 14 80 outlet;
#X msg 14 54 rectangle 0 \, type BYTE \, format RGB32 \, dim 256 256
;
#X connect 0 0 2 0;
#X connect 2 0 1 0;
#X restore 82 203 pd init;
#N canvas 573 206 496 427 shader 0;
#X obj 32 264 glsl_program;
#X obj 126 187 change;
#X obj 126 233 print linking;
#X obj 32 167 glsl_fragment;
#X msg 126 208 link \$1;
#N canvas 0 0 450 300 load_shader 0;
#X obj 89 99 t b b;
#X msg 119 126 0;
#X obj 89 154 outlet;
#X obj 89 71 gemhead 30;
#X connect 0 0 2 0;
#X connect 0 1 1 0;
#X connect 1 0 3 0;
#X connect 3 0 0 0;
#X restore 120 89 pd load_shader;
#X obj 32 36 inlet;
#X obj 32 333 outlet;
#X obj 155 18 inlet;
#N canvas 0 0 450 300 init_shader 0;
#X obj 89 154 outlet;
#X obj 89 45 inlet;
#X obj 89 73 change;
#X obj 89 100 t b;
#X connect 1 0 2 0;
#X connect 2 0 3 0;
#X connect 3 0 0 0;
#X restore 113 288 pd init_shader;
#X obj 278 25 inlet;
#X obj 113 318 outlet;
#X msg 43 143 open interpol.frag;
#X connect 0 0 7 0;
#X connect 0 1 9 0;
#X connect 1 0 4 0;
#X connect 3 0 0 0;
#X connect 3 1 1 0;
#X connect 4 0 0 0;
#X connect 4 0 2 0;
#X connect 5 0 12 0;
#X connect 6 0 3 0;
#X connect 8 0 12 0;
#X connect 9 0 11 0;
#X connect 10 0 0 0;
#X connect 12 0 3 0;
#X restore 67 185 pd shader;
#X obj 92 166 bng 15 250 50 0 empty empty empty 17 7 0 10 -262144 -1
-1;
#X obj 135 144 t b;
#X msg 116 165 texture_mass 1;
#N canvas 0 0 301 465 shader 0;
#X obj 110 298 pack 0 0;
#X obj 131 278 t b f;
#X msg 110 321 link \$1 \$2;
#X floatatom 131 259 2 0 0 0 ID - -;
#X floatatom 110 158 2 0 0 0 ID - -;
#X obj 128 342 print linking;
#X obj 74 70 bng 15 250 50 0 empty empty empty 17 7 0 10 -262144 -1
-1;
#X obj 38 213 glsl_fragment;
#X obj 38 116 glsl_vertex;
#X obj 110 135 change;
#X obj 131 233 change;
#X obj 38 371 glsl_program;
#N canvas 703 231 450 300 load_glsl 0;
#X obj 51 22 gemhead;
#X obj 51 98 outlet;
#X obj 51 50 route gem_state;
#X obj 51 74 route 1;
#X connect 0 0 2 0;
#X connect 2 0 3 0;
#X connect 3 0 1 0;
#X restore 74 45 pd load_glsl;
#X obj 41 13 inlet;
#X obj 37 397 outlet;
#X obj 150 10 inlet;
#X obj 265 14 inlet;
#N canvas 0 0 450 300 init_shader 0;
#X obj 89 154 outlet;
#X obj 89 45 inlet;
#X obj 89 73 change;
#X obj 89 100 t b;
#X connect 1 0 2 0;
#X connect 2 0 3 0;
#X connect 3 0 0 0;
#X restore 107 399 pd init_shader;
#X obj 107 429 outlet;
#X msg 52 94 open fetching2.vert;
#X msg 48 183 open fetching2.frag;
#X connect 0 0 2 0;
#X connect 1 0 0 0;
#X connect 1 1 0 1;
#X connect 2 0 5 0;
#X connect 2 0 11 0;
#X connect 3 0 1 0;
#X connect 4 0 0 0;
#X connect 6 0 19 0;
#X connect 6 0 20 0;
#X connect 7 0 11 0;
#X connect 7 1 10 0;
#X connect 8 0 7 0;
#X connect 8 1 9 0;
#X connect 9 0 4 0;
#X connect 10 0 3 0;
#X connect 11 0 14 0;
#X connect 11 1 17 0;
#X connect 12 0 6 0;
#X connect 13 0 8 0;
#X connect 15 0 6 0;
#X connect 16 0 11 0;
#X connect 17 0 18 0;
#X connect 19 0 8 0;
#X connect 20 0 7 0;
#X restore 255 208 pd shader;
#X obj 280 185 bng 15 250 50 0 empty empty empty 17 7 0 10 -262144
-1 -1;
#X obj 317 229 t b;
#X obj 255 116 tgl 15 0 empty empty empty 17 7 0 10 -262144 -1 -1 0
1;
#X obj 117 144 bng 15 250 50 0 empty empty empty 17 7 0 10 -262144
-1 -1;
#X obj 87 246 s texture_interpol;
#X obj 255 96 r aff_drapeau;
#X obj 67 112 gemhead 31;
#X obj 255 135 gemhead 51;
#X msg 316 185 texture 4;
#X obj 316 24 inlet;
#X obj 315 56 delay 1000;
#X obj 255 351 mesh_square 92 64;
#X obj 255 156 alpha;
#X obj 255 286 scaleXYZ 15 15 15;
#X obj 255 256 translateXYZ 0 0.55 -8;
#X msg 267 309 quality 0;
#X msg 461 258 draw line;
#X msg 461 238 draw default;
#X msg 462 279 draw point;
#X floatatom 425 203 5 0 0 0 - - -;
#X obj 433 28 inlet;
#X msg 83 303 rectangle 0 \, quality 0;
#X connect 0 0 23 0;
#X connect 1 0 3 0;
#X connect 1 1 0 1;
#X connect 1 1 2 1;
#X connect 1 1 16 0;
#X connect 2 0 4 0;
#X connect 3 0 2 0;
#X connect 5 0 33 0;
#X connect 5 0 27 0;
#X connect 6 0 1 0;
#X connect 7 0 1 0;
#X connect 7 1 15 0;
#X connect 8 0 7 1;
#X connect 9 0 10 0;
#X connect 10 0 7 2;
#X connect 11 0 26 0;
#X connect 11 1 13 0;
#X connect 12 0 11 1;
#X connect 13 0 20 0;
#X connect 14 0 19 0;
#X connect 15 0 9 0;
#X connect 17 0 14 0;
#X connect 18 0 7 0;
#X connect 19 0 24 0;
#X connect 20 0 11 2;
#X connect 21 0 22 0;
#X connect 21 0 12 0;
#X connect 21 0 8 0;
#X connect 22 0 20 0;
#X connect 24 0 11 0;
#X connect 25 0 0 0;
#X connect 26 0 25 0;
#X connect 27 0 0 0;
#X connect 28 0 23 0;
#X connect 29 0 23 0;
#X connect 30 0 23 0;
#X connect 31 0 25 1;
#X connect 31 0 25 2;
#X connect 31 0 25 3;
#X connect 32 0 31 0;
#X connect 33 0 2 0;
#X restore 27 304 pd shader_render ______________;
#X text 12 6 "Potential Flag" \, by Samuel Bianchini;
#X text 28 20 Simple version for Gem exemples;
#X text 29 34 Did work under Linux \, with Nvidia driver. I don't know
on other OS/ hardware.;
#X obj 398 375 s qqt_noise;
#X floatatom 398 333 5 0 0 0 - - -;
#X obj 398 353 * 10;
#X text 29 72 This patch is quite huge. the GPU compute the position
of 64x92 masses \, and 64x92x12 links at 50x20 Hz. (about 7e+07 links/sec
\, so about 100 time faster than what is curently possible with MSD
on a CPU) (My GPU is old \, this patch performe 10 to 50 times faster
on a good GPU);
#N canvas 830 53 450 300 Gem.init 0;
#X obj 26 3 loadbang;
#X msg 26 26 perspec -1 1 -1 1 10 100;
#X obj 26 124 t a;
#X obj 25 153 outlet;
#X msg 55 77 dimen 800 600;
#X msg 37 51 FSAA 5;
#X connect 0 0 1 0;
#X connect 0 0 5 0;
#X connect 0 0 4 0;
#X connect 1 0 2 0;
#X connect 2 0 3 0;
#X connect 4 0 2 0;
#X connect 5 0 2 0;
#X restore 66 188 pd Gem.init;
#N canvas 340 107 682 322 gemwin 0;
#X obj 102 122 tgl 15 0 \$0-gemstart \$0-gemstart empty 17 7 0 10 -262144
-1 -1 0 1;
#X obj 102 161 r \$0-gemstart;
#X obj 102 182 select 1 0;
#X msg 102 214 create \, 1;
#X msg 177 215 destroy;
#X obj 102 239 t a;
#X obj 318 54 inlet;
#X obj 318 100 t a a;
#X obj 318 287 outlet;
#X obj 350 128 route create destroy;
#X obj 350 150 t b;
#X msg 350 172 1;
#X obj 390 150 t b;
#X msg 390 172 0;
#X obj 350 195 t f;
#X msg 350 219 set \$1;
#X text 118 122 rendering;
#X obj 318 255 gemwin 30;
#X connect 1 0 2 0;
#X connect 2 0 3 0;
#X connect 2 1 4 0;
#X connect 3 0 5 0;
#X connect 4 0 5 0;
#X connect 5 0 7 0;
#X connect 6 0 7 0;
#X connect 7 0 17 0;
#X connect 7 1 9 0;
#X connect 9 0 10 0;
#X connect 9 1 12 0;
#X connect 10 0 11 0;
#X connect 11 0 14 0;
#X connect 12 0 13 0;
#X connect 13 0 14 0;
#X connect 14 0 15 0;
#X connect 15 0 0 0;
#X connect 17 0 8 0;
#X coords 0 -1 1 1 85 40 1 100 100;
#X restore 47 209 pd gemwin 30;
#X floatatom 206 282 5 0 0 0 - - -;
#X text 126 281 scale ->;
#X obj 2 327 bng 15 250 50 0 empty empty empty 17 7 0 10 -262144 -1
-1;
#X connect 0 0 13 0;
#X connect 2 0 1 0;
#X connect 4 0 6 0;
#X connect 5 0 6 1;
#X connect 6 0 3 0;
#X connect 6 1 3 1;
#X connect 20 0 21 0;
#X connect 21 0 19 0;
#X connect 23 0 24 0;
#X connect 25 0 15 1;
#X connect 27 0 9 0;
