#N canvas 606 49 689 596 10;
#X declare -lib Gem;
#X obj 61 78 gemhead;
#X floatatom 102 348 5 0 0 0 - - - 0;
#X floatatom 144 348 5 0 0 0 - - - 0;
#X floatatom 189 349 5 0 0 0 - - - 0;
#X obj 87 226 bng 15 250 50 0 empty empty reload 17 7 0 10 #fcfcfc #000000 #000000;
#X obj 61 420 t a b;
#X msg 240 484 2;
#X msg 322 113 create \, 1;
#X msg 331 135 destroy;
#X obj 302 424 triangle;
#X obj 61 397 spigot 1;
#X obj 130 398 tgl 15 0 empty empty empty 17 7 0 10 #fcfcfc #000000 #000000 0 1;
#X obj 370 403 tgl 15 0 empty empty empty 17 7 0 10 #fcfcfc #000000 #000000 0 1;
#X obj 302 401 spigot 0;
#N canvas 5 51 877 520 light 0;
#X obj 225 45 gemhead 10;
#X floatatom 258 78 5 0 0 0 - - - 0;
#X floatatom 299 77 5 0 0 0 - - - 0;
#X floatatom 341 78 5 0 0 0 - - - 0;
#X obj 225 227 world_light;
#X obj 250 151 tgl 15 0 empty empty empty 0 -6 0 8 #fcfcfc #000000 #000000 0 1;
#X msg 250 172 debug \$1;
#X obj 225 103 rotateXYZ 0 30 0;
#X obj 27 51 gemhead 10;
#X floatatom 60 84 5 0 0 0 - - - 0;
#X floatatom 101 83 5 0 0 0 - - - 0;
#X floatatom 143 84 5 0 0 0 - - - 0;
#X obj 27 233 world_light;
#X obj 48 158 tgl 15 0 empty empty empty 0 -6 0 8 #fcfcfc #000000 #000000 0 1;
#X msg 48 179 debug \$1;
#X obj 27 109 rotateXYZ 0 -90 0;
#X msg 297 207 0.8 0.8 0.8;
#X msg 100 210 0.7 0.7 0.7;
#X obj 408 73 loadbang;
#X connect 0 0 7 0;
#X connect 1 0 7 1;
#X connect 2 0 7 2;
#X connect 3 0 7 3;
#X connect 5 0 6 0;
#X connect 6 0 4 0;
#X connect 7 0 4 0;
#X connect 8 0 15 0;
#X connect 9 0 15 1;
#X connect 10 0 15 2;
#X connect 11 0 15 3;
#X connect 13 0 14 0;
#X connect 14 0 12 0;
#X connect 15 0 12 0;
#X connect 16 0 4 1;
#X connect 17 0 12 1;
#X connect 18 0 17 0;
#X connect 18 0 16 0;
#X restore 321 223 pd light;
#X obj 61 365 rotateXYZ -55 20 0;
#X floatatom 198 307 5 0 0 0 - - - 0;
#X text 135 13 replace triangle with 3 triangles the orientations of which depend on the normal of the original primitive;
#X obj 61 324 scaleXYZ 0.2 0.2 0.2;
#X floatatom 450 360 5 0 25 0 - - - 0;
#X obj 452 405 pack f f;
#X obj 450 378 t f f;
#X msg 452 425 force \$1 \$2 0.3;
#X obj 574 13 declare -lib Gem;
#X obj 61 245 glsl shader/tri2fan;
#X obj 61 151 alpha \; auto 1;
#X obj 61 494 newWave 25 25 \; D1 0.01 \; D2 0.1;
#X obj 322 169 gemwin \; perspec -0.1 0.1 -0.1 0.1 1 110 \; lighting 1;
#X connect 0 0 25 0;
#X connect 1 0 15 1;
#X connect 2 0 15 2;
#X connect 3 0 15 3;
#X connect 4 0 24 0;
#X connect 5 0 26 0;
#X connect 5 1 26 0;
#X connect 6 0 26 3;
#X connect 7 0 27 0;
#X connect 8 0 27 0;
#X connect 10 0 5 0;
#X connect 11 0 10 1;
#X connect 12 0 13 1;
#X connect 13 0 9 0;
#X connect 15 0 10 0;
#X connect 15 0 13 0;
#X connect 16 0 18 2;
#X connect 16 0 18 3;
#X connect 16 0 18 1;
#X connect 18 0 15 0;
#X connect 19 0 21 0;
#X connect 20 0 22 0;
#X connect 21 0 20 1;
#X connect 21 1 20 0;
#X connect 22 0 26 0;
#X connect 24 0 18 0;
#X connect 25 0 24 0;
