#N canvas 169 446 486 397 10;
#X declare -lib Gem;
#X obj 26 342 dac~;
#X obj 60 228 oscillo~;
#X obj 26 187 *~ 5;
#N canvas 671 180 972 717 audio_GPU 0;
#X obj 39 332 declare -lib Gem;
#X obj 40 116 select 0 1;
#X msg 40 137 0 \, destroy;
#X obj 40 95 tgl 16 0 empty empty empty 0 -8 0 10 #fcfcfc #000000 #000000 0 1;
#X obj 79 445 bang~;
#X obj 318 601 outlet~;
#X obj 318 578 clip~ -1 1;
#X obj 40 305 block~ 4096;
#X obj 318 531 *~ 2;
#X obj 318 555 -~ 1;
#X obj 274 168 translateXYZ 0 0 -4;
#X obj 274 396 square 4;
#X obj 301 471 pix_pix2sig~;
#X obj 301 448 pix_snap 0 0 4096 1;
#X obj 274 419 t b a;
#X obj 334 500 /~ 255;
#X obj 383 500 /~ 65535;
#X msg 451 378 t \$1;
#X obj 451 309 f;
#X floatatom 463 357 5 0 0 0 - - - 0;
#X obj 451 332 + 1;
#X msg 451 264 0;
#X msg 39 448 0;
#X obj 39 423 loadbang;
#X obj 361 144 s rendered_sound;
#X obj 654 150 s input_image;
#X obj 567 60 gemhead 10;
#X obj 274 93 gemframebuffer \; dimen 4096 1 \; rectangle 1;
#X obj 274 322 pix_texture \; rectangle 1 \; quality 0;
#X obj 343 298 r input_image;
#X obj 274 66 gemhead 20 \;;
#X obj 90 502 s gemhead_input;
#X obj 73 526 s gemhead_sound;
#X obj 56 550 s gemhead_display;
#X obj 567 33 r gemhead_input;
#X obj 274 40 r gemhead_sound;
#X obj 462 286 bang~;
#X obj 567 593 square 4;
#X obj 567 572 translateXYZ 0 4 -4;
#X obj 705 591 square 4;
#X obj 705 547 pix_texture;
#X obj 768 522 r input_image;
#X obj 705 403 r gemhead_display;
#X obj 705 427 gemhead 30 \;;
#X obj 89 185 bng 18 250 50 0 empty empty empty 0 -9 0 10 #fcfcfc #000000 #000000;
#X obj 705 451 gemframebuffer \; dimen 4096 1 \; rectangle 1 \; quality 0;
#X obj 705 570 translateXYZ 0 4 -4;
#X obj 567 539 pix_texture \; quality 0;
#X obj 567 150 t b a;
#X obj 567 441 separator;
#X obj 594 172 separator;
#X obj 567 403 gemhead 40 \; 0;
#X obj 274 623 tabwrite~ block_vector;
#X obj 38 358 table block_vector 4096;
#X text 270 643 only for visualisation purpose;
#N canvas 1440 78 450 366 noise 0;
#X obj 25 33 inlet;
#X obj 25 154 pix_noise 4096 1 \; auto 1;
#X obj 25 199 pix_texture;
#X msg 58 86 auto \$1;
#X obj 58 61 tgl 18 0 empty empty empty 0 -9 0 10 #fcfcfc #000000 #000000 0 1;
#X obj 77 112 bng 18 250 50 0 empty empty empty 0 -9 0 10 #fcfcfc #000000 #000000;
#X obj 25 229 rectangle 4 4;
#X connect 0 0 1 0;
#X connect 1 0 2 0;
#X connect 2 0 6 0;
#X connect 3 0 1 0;
#X connect 4 0 3 0;
#X connect 5 0 1 0;
#X restore 628 327 pd noise;
#X f 11;
#N canvas 1441 501 450 300 route4 0;
#X obj 28 37 inlet;
#X obj 39 205 outlet;
#X obj 42 168 spigot 1;
#X obj 90 146 == 0;
#X obj 182 147 == 1;
#X obj 270 146 == 2;
#X obj 348 147 == 3;
#X obj 400 35 inlet;
#X obj 130 206 outlet;
#X obj 222 210 outlet;
#X obj 300 208 outlet;
#X obj 133 169 spigot 0;
#X obj 222 168 spigot 0;
#X obj 300 169 spigot 0;
#X connect 0 0 2 0;
#X connect 0 0 11 0;
#X connect 0 0 12 0;
#X connect 0 0 13 0;
#X connect 2 0 1 0;
#X connect 3 0 2 1;
#X connect 4 0 11 1;
#X connect 5 0 12 1;
#X connect 6 0 13 1;
#X connect 7 0 6 0;
#X connect 7 0 5 0;
#X connect 7 0 4 0;
#X connect 7 0 3 0;
#X connect 11 0 8 0;
#X connect 12 0 9 0;
#X connect 13 0 10 0;
#X restore 594 259 pd route4;
#N canvas 1441 501 450 300 video 0;
#X obj 35 100 pix_texture;
#X obj 35 75 pix_video;
#X obj 35 38 inlet;
#X obj 35 132 rectangle 4 4;
#X connect 0 0 3 0;
#X connect 1 0 0 0;
#X connect 2 0 1 0;
#X restore 646 348 pd video;
#N canvas 1458 625 450 300 test 0;
#X obj 35 26 inlet;
#X obj 35 173 translateXYZ 0 -4 0;
#X obj 35 204 rectangle 0.02 4;
#X obj 97 141 line;
#X obj 97 23 loadbang;
#X obj 97 46 tgl 18 0 empty empty empty 0 -9 0 10 #fcfcfc #000000 #000000 0 1;
#X floatatom 113 118 5 0 0 0 - - - 0;
#X msg 97 95 -4 \, 4 20000;
#X obj 97 70 metro 20000;
#X connect 0 0 1 0;
#X connect 1 0 2 0;
#X connect 3 0 1 1;
#X connect 4 0 5 0;
#X connect 5 0 8 0;
#X connect 6 0 3 0;
#X connect 7 0 3 0;
#X connect 8 0 7 0;
#X restore 611 307 pd test;
#X f 14;
#X obj 39 477 t a a a a;
#X obj 39 573 s gemhead_display_text;
#N canvas 1058 252 669 673 visualisation 0;
#X obj 61 204 rectangle 4 1;
#X obj 61 175 translateXYZ 0 1.5 0;
#X obj 264 186 translateXYZ 0 -1.5 0;
#X obj 130 98 r input_image;
#X obj 61 76 gemhead 30;
#X obj 264 81 gemhead 30;
#X obj 61 122 pix_texture \; rectangle 1 \; quality 0;
#X obj 264 136 pix_texture \; rectangle 1 \; quality 0;
#X obj 333 109 r rendered_sound;
#X obj 61 50 r gemhead_display;
#X obj 264 52 r gemhead_display;
#X obj 264 209 rectangle 4 0.5;
#X obj 63 276 r gemhead_display_text;
#X obj 63 302 gemhead 40;
#X obj 63 336 translateXYZ -3.5 2 0;
#X obj 63 413 translateXYZ 0 -1 0;
#X obj 63 367 text2d last_input_buffer \; justify left;
#X obj 63 444 text2d current_input_buffer \; justify left;
#X obj 62 519 text2d audio_out_buffer \; justify left;
#X obj 62 488 translateXYZ 0 -2.5 0;
#X connect 1 0 0 0;
#X connect 2 0 11 0;
#X connect 3 0 6 1;
#X connect 4 0 6 0;
#X connect 5 0 7 0;
#X connect 6 0 1 0;
#X connect 7 0 2 0;
#X connect 8 0 7 1;
#X connect 9 0 4 0;
#X connect 10 0 5 0;
#X connect 12 0 13 0;
#X connect 13 0 14 0;
#X connect 14 0 16 0;
#X connect 15 0 17 0;
#X connect 16 0 15 0;
#X connect 17 0 19 0;
#X connect 19 0 18 0;
#X restore 37 617 pd visualisation;
#X msg 712 105 color 0 0 0;
#X obj 594 200 color 1 0 0;
#X text 675 202 only red channel is used;
#X text 563 624 copy the curent texture in an other buffer and render if the next frame \, to keep the previous frame in order to do smooth transition between 2 frames;
#X obj 703 286 vradio 20 1 0 4 empty empty empty 0 -9 0 10 #fcfcfc #000000 #000000 0;
#X text 737 282 you can change here to put what you want to convert to sound, f 25;
#N canvas 1252 195 496 590 img 0;
#X obj 35 38 inlet;
#X obj 105 271 line;
#X obj 105 190 metro 10000;
#X obj 105 143 loadbang;
#X obj 105 166 tgl 18 0 empty empty empty 0 -9 0 10 #fcfcfc #000000 #000000 0 1;
#X floatatom 118 244 5 0 0 0 - - - 0;
#X obj 35 111 pix_texture;
#X obj 35 324 rectangle 4 4;
#X obj 35 293 translateXYZ 0 0 0;
#X msg 105 217 -6 \, 2 10000;
#X obj 35 68 pix_image \; open ../data/dancer.JPG;
#X connect 0 0 10 0;
#X connect 1 0 8 2;
#X connect 2 0 9 0;
#X connect 3 0 4 0;
#X connect 4 0 2 0;
#X connect 5 0 1 0;
#X connect 6 0 8 0;
#X connect 8 0 7 0;
#X connect 9 0 1 0;
#X connect 10 0 6 0;
#X restore 594 286 pd img;
#X f 17;
#X obj 594 228 translateXYZ 0 0 -4;
#X obj 40 30 inlet;
#X obj 63 84 s pd;
#X msg 69 165 create \, 1 \, bang;
#N canvas 346 93 673 762 shader 0;
#X obj 78 339 glsl_vertex;
#X msg 32 338 print;
#X obj 78 626 glsl_program;
#X obj 163 555 pack 0 0;
#X msg 30 476 print;
#X obj 163 511 change;
#X obj 150 358 change;
#X msg 163 579 link \$1 \$2;
#X msg 32 620 print;
#X obj 77 490 glsl_fragment;
#X floatatom 163 535 2 0 0 0 ID - - 0;
#X floatatom 150 381 2 0 0 0 ID - - 0;
#X obj 181 600 print linking;
#X obj 15 21 inlet;
#X obj 78 662 outlet;
#X msg 106 309 open \$1.vert;
#X msg 90 453 open \$1.frag;
#X obj 577 95 inlet;
#X obj 15 44 route bang;
#X obj 255 11 gemhead 1;
#X msg 255 33 1;
#X obj 255 57 change;
#X obj 255 81 t b;
#X obj 157 647 change;
#X obj 157 668 t b;
#X obj 158 690 outlet;
#X obj 140 224 t a a;
#X obj 90 426 symbol;
#X obj 90 401 t b;
#X msg 287 598 0;
#X obj 15 65 t b b b, f 29;
#X obj 140 199 symbol shader/additive;
#X connect 0 0 9 0;
#X connect 0 1 6 0;
#X connect 1 0 0 0;
#X connect 2 0 14 0;
#X connect 2 1 23 0;
#X connect 3 0 7 0;
#X connect 4 0 9 0;
#X connect 5 0 10 0;
#X connect 6 0 11 0;
#X connect 6 0 28 0;
#X connect 7 0 2 0;
#X connect 7 0 12 0;
#X connect 8 0 2 0;
#X connect 9 0 2 0;
#X connect 9 1 5 0;
#X connect 10 0 3 0;
#X connect 11 0 3 1;
#X connect 13 0 18 0;
#X connect 15 0 0 0;
#X connect 16 0 9 0;
#X connect 17 0 2 0;
#X connect 18 0 30 0;
#X connect 18 1 0 0;
#X connect 19 0 20 0;
#X connect 20 0 21 0;
#X connect 21 0 22 0;
#X connect 22 0 31 0;
#X connect 23 0 24 0;
#X connect 24 0 25 0;
#X connect 26 0 15 0;
#X connect 26 1 27 1;
#X connect 27 0 16 0;
#X connect 28 0 27 0;
#X connect 29 0 23 0;
#X connect 30 0 10 0;
#X connect 30 1 31 0;
#X connect 30 2 29 0;
#X connect 31 0 26 0;
#X restore 274 223 pd shader;
#X obj 284 198 bng 18 250 50 0 empty empty empty 0 -9 0 10 #fcfcfc #000000 #000000;
#X obj 40 215 gemwin \; buffer 1 \; color 0.3 0.3 0.3;
#X obj 567 86 gemframebuffer \; dimen 4096 2 \; rectangle 1 \; texunit 0;
#X msg 63 59 dsp 0 \, dsp \$1;
#X connect 1 0 2 0;
#X connect 1 1 72 0;
#X connect 2 0 75 0;
#X connect 3 0 1 0;
#X connect 4 0 59 0;
#X connect 6 0 5 0;
#X connect 6 0 52 0;
#X connect 8 0 9 0;
#X connect 9 0 6 0;
#X connect 10 0 73 0;
#X connect 11 0 14 0;
#X connect 12 1 8 0;
#X connect 12 2 15 0;
#X connect 12 3 16 0;
#X connect 13 0 12 0;
#X connect 14 0 13 0;
#X connect 14 0 52 0;
#X connect 14 1 13 0;
#X connect 15 0 8 0;
#X connect 16 0 8 0;
#X connect 17 0 73 1;
#X connect 18 0 20 0;
#X connect 20 0 18 1;
#X connect 20 0 19 0;
#X connect 20 0 17 0;
#X connect 21 0 18 0;
#X connect 22 0 59 0;
#X connect 23 0 22 0;
#X connect 26 0 76 0;
#X connect 27 0 10 0;
#X connect 27 1 24 0;
#X connect 28 0 11 0;
#X connect 29 0 28 1;
#X connect 30 0 27 0;
#X connect 34 0 26 0;
#X connect 35 0 30 0;
#X connect 36 0 18 0;
#X connect 38 0 37 0;
#X connect 40 0 46 0;
#X connect 41 0 40 1;
#X connect 42 0 43 0;
#X connect 43 0 45 0;
#X connect 44 0 75 0;
#X connect 45 0 40 0;
#X connect 45 1 47 1;
#X connect 46 0 39 0;
#X connect 47 0 38 0;
#X connect 48 0 51 0;
#X connect 48 1 50 0;
#X connect 49 0 47 0;
#X connect 50 0 63 0;
#X connect 51 0 49 0;
#X connect 56 0 68 0;
#X connect 56 1 58 0;
#X connect 56 2 55 0;
#X connect 56 3 57 0;
#X connect 59 0 60 0;
#X connect 59 1 33 0;
#X connect 59 2 32 0;
#X connect 59 3 31 0;
#X connect 62 0 76 0;
#X connect 63 0 69 0;
#X connect 66 0 56 1;
#X connect 69 0 56 0;
#X connect 70 0 77 0;
#X connect 70 0 3 0;
#X connect 72 0 75 0;
#X connect 73 0 28 0;
#X connect 73 1 21 0;
#X connect 74 0 73 0;
#X connect 76 0 48 0;
#X connect 76 1 25 0;
#X connect 77 0 71 0;
#X restore 26 45 pd audio_GPU;
#X text 43 68 This patch use an image buffer to control the amplitude of 200 audio oscillators. Everything is computed inside the GPU.;
#X text 44 116 Rendering must be sync to audio dsp \, and large buffer should be used \, so we need to clock everything with a block~ 4096 Latency is highly noticable!;
#X obj 26 14 tgl 18 0 empty empty empty 0 -9 0 10 #fcfcfc #000000 #000000 0 1;
#X text 51 15 <- start;
#X text 48 166 Pd sould be configured at 48KHz;
#X connect 2 0 0 0;
#X connect 2 0 1 0;
#X connect 2 0 0 1;
#X connect 3 0 2 0;
#X connect 6 0 3 0;
