#N canvas 1980 98 668 629 10;
#X obj 78 496 glsl_program;
#X msg 32 360 print;
#X msg 32 496 print;
#X obj 78 360 glsl_fragment;
#X floatatom 153 395 2 0 0 0 ID - - 0;
#X obj 153 470 print linking;
#X obj 78 21 inlet;
#X obj 78 532 outlet;
#X msg 202 293 open \$1.frag;
#X obj 577 95 inlet;
#X obj 127 209 symbol \$1;
#X obj 197 161 loadbang;
#X obj 78 44 route bang symbol;
#X obj 78 192 t a;
#X floatatom 157 532 2 0 0 0 ID - - 0;
#X text 270 193 This abstraction can be useful to load a vertex+fragment shader. Shader location is relative to this abstraction path.;
#X obj 162 185 t b b;
#X obj 127 247 select symbol;
#X msg 189 209 symbol;
#X obj 157 560 outlet programID;
#X msg 153 439 link \$1;
#X connect 0 0 7 0;
#X connect 0 1 14 0;
#X connect 1 0 3 0;
#X connect 2 0 0 0;
#X connect 3 0 0 0;
#X connect 3 1 4 0;
#X connect 4 0 20 0;
#X connect 6 0 12 0;
#X connect 8 0 3 0;
#X connect 9 0 0 0;
#X connect 10 0 17 0;
#X connect 11 0 16 0;
#X connect 12 0 10 0;
#X connect 12 1 10 0;
#X connect 12 2 13 0;
#X connect 13 0 3 0;
#X connect 14 0 19 0;
#X connect 16 0 10 0;
#X connect 16 1 18 0;
#X connect 17 1 8 0;
#X connect 18 0 17 1;
#X connect 20 0 0 0;
#X connect 20 0 5 0;
