#N canvas 1980 98 668 783 10;
#X obj 78 339 glsl_vertex;
#X msg 30 339 print;
#X obj 78 626 glsl_program;
#X msg 30 490 print;
#X msg 32 626 print;
#X obj 78 490 glsl_fragment;
#X floatatom 153 525 2 0 0 0 ID - - 0;
#X floatatom 210 341 2 0 0 0 ID - - 0;
#X obj 171 590 print linking;
#X obj 78 21 inlet;
#X obj 78 662 outlet;
#X msg 164 320 open \$1.vert;
#X msg 164 470 open \$1.frag;
#X obj 577 95 inlet;
#X obj 157 697 change;
#X obj 157 718 t b;
#X obj 157 740 outlet;
#X obj 127 209 symbol \$1;
#X obj 197 161 loadbang;
#X msg 287 598 set 0;
#X obj 260 87 t b b;
#X obj 78 44 route bang symbol;
#X obj 78 192 t a;
#X floatatom 157 662 2 0 0 0 ID - - 0;
#X text 270 193 This abstraction can be useful to load a vertex+fragment shader. Shader location is relative to this abstraction path.;
#X obj 162 185 t b b;
#X obj 127 247 select symbol;
#X msg 189 209 symbol;
#X msg 30 420 print;
#X obj 78 420 glsl_geometry;
#X obj 153 545 pack 0 0 0;
#X obj 164 294 t s s s;
#X floatatom 181 431 2 0 0 0 ID - - 0;
#X msg 153 569 link \$1 \$2 \$3;
#X msg 164 400 open \$1.geom;
#X connect 0 0 29 0;
#X connect 0 1 7 0;
#X connect 1 0 0 0;
#X connect 2 0 10 0;
#X connect 2 1 23 0;
#X connect 3 0 5 0;
#X connect 4 0 2 0;
#X connect 5 0 2 0;
#X connect 5 1 6 0;
#X connect 6 0 30 0;
#X connect 7 0 30 2;
#X connect 9 0 21 0;
#X connect 11 0 0 0;
#X connect 12 0 5 0;
#X connect 13 0 2 0;
#X connect 14 0 15 0;
#X connect 15 0 16 0;
#X connect 17 0 26 0;
#X connect 18 0 25 0;
#X connect 19 0 14 0;
#X connect 20 0 17 0;
#X connect 20 1 19 0;
#X connect 21 0 20 0;
#X connect 21 1 17 0;
#X connect 21 2 22 0;
#X connect 22 0 0 0;
#X connect 23 0 14 0;
#X connect 25 0 17 0;
#X connect 25 1 27 0;
#X connect 26 1 31 0;
#X connect 27 0 26 1;
#X connect 28 0 29 0;
#X connect 29 0 5 0;
#X connect 29 1 32 0;
#X connect 30 0 33 0;
#X connect 31 0 11 0;
#X connect 31 1 34 0;
#X connect 31 2 12 0;
#X connect 32 0 30 1;
#X connect 33 0 2 0;
#X connect 33 0 8 0;
#X connect 34 0 29 0;
