#N canvas 310 229 681 595 10;
#X obj 99 59 inlet;
#X obj 26 145 gemframebuffer;
#X obj 26 215 translateXYZ 0 0 -4;
#X obj 26 345 square 4;
#X obj 128 431 outlet;
#X obj 47 166 bng 15 250 50 0 empty empty empty 17 7 0 10 #fcfcfc #000000 #000000;
#X obj 248 85 t f f;
#X obj 248 17 r blur;
#X obj 248 133 pack f f;
#X obj 26 85 gemhead \$1;
#X obj 248 112 * \$2;
#X obj 301 111 * \$3;
#X msg 248 153 distance \$1 \$2;
#X obj 42 119 r to_fb;
#X obj 248 39 route float;
#X obj 322 61 unpack f f;
#X obj 441 18 r motion_blur;
#X obj 441 90 pack f f;
#X obj 441 65 * \$2;
#X obj 441 41 unpack f f;
#X obj 508 65 * \$2;
#X obj 26 195 _glsl shader/blur;
#X obj 26 285 pix_texture \; quality 1 \; rectangle 0;
#X connect 0 0 22 1;
#X connect 1 0 21 0;
#X connect 1 1 4 0;
#X connect 2 0 22 0;
#X connect 5 0 21 0;
#X connect 6 0 10 0;
#X connect 6 1 11 0;
#X connect 7 0 14 0;
#X connect 8 0 12 0;
#X connect 9 0 1 0;
#X connect 10 0 8 0;
#X connect 11 0 8 1;
#X connect 12 0 21 1;
#X connect 13 0 1 0;
#X connect 14 0 6 0;
#X connect 14 1 15 0;
#X connect 15 0 10 0;
#X connect 15 1 11 0;
#X connect 16 0 19 0;
#X connect 17 0 12 0;
#X connect 18 0 17 0;
#X connect 19 0 18 0;
#X connect 19 1 20 0;
#X connect 20 0 17 1;
#X connect 21 0 2 0;
#X connect 22 0 3 0;
