#N canvas 396 160 600 500 10;
#X obj 23 247 gemwin;
#X msg 25 50 create;
#X obj 373 75 gemhead;
#X msg 31 81 destroy;
#X msg 65 118 1;
#X msg 65 150 0;
#X text 104 122 turn rendering on and off;
#X text 23 25 create and destroy the graphics window;
#X msg 128 165 lighting 1;
#X msg 128 197 lighting 0;
#X obj 373 115 sphere;
#X obj 148 268 gemhead;
#X obj 148 424 light;
#X obj 148 308 rotateXYZ;
#X floatatom 238 274 0 0 0;
#X msg 55 355 debug 1;
#X msg 56 388 debug 0;
#X msg 178 399 1 0 0;
#X obj 148 346 translateXYZ 3 0 0;
#X obj 399 256 gemhead;
#X obj 399 296 rotateXYZ;
#X floatatom 489 262 0 0 0;
#X msg 305 352 debug 1;
#X msg 306 385 debug 0;
#X msg 471 396 0 1 0;
#X obj 399 426 world_light;
#X obj 471 364 loadbang;
#X obj 178 370 loadbang;
#X floatatom 246 305 0 0 0;
#X text 263 177 notice that translation affects the;
#X text 261 190 light object \, but not the world_light;
#N canvas 87 154 247 179 Gem.init 0;
#X obj 118 46 loadbang;
#X msg 118 81 reset;
#X obj 118 113 outlet;
#X connect 0 0 1 0;
#X connect 1 0 2 0;
#X restore 73 229 pd Gem.init;
#X obj 399 336 translateXYZ 3 0 0;
#X floatatom 476 312 0 0 0;
#X text 504 311 quite useless;
#X connect 1 0 0 0;
#X connect 2 0 10 0;
#X connect 3 0 0 0;
#X connect 4 0 0 0;
#X connect 5 0 0 0;
#X connect 8 0 0 0;
#X connect 9 0 0 0;
#X connect 11 0 13 0;
#X connect 13 0 18 0;
#X connect 14 0 13 2;
#X connect 15 0 12 0;
#X connect 16 0 12 0;
#X connect 17 0 12 1;
#X connect 18 0 12 0;
#X connect 19 0 20 0;
#X connect 20 0 32 0;
#X connect 21 0 20 1;
#X connect 22 0 25 0;
#X connect 23 0 25 0;
#X connect 24 0 25 1;
#X connect 26 0 24 0;
#X connect 27 0 17 0;
#X connect 28 0 18 1;
#X connect 31 0 0 0;
#X connect 32 0 25 0;
#X connect 33 0 32 1;
