#N canvas 426 119 824 640 8;
#X text 745 116 on;
#X text 782 114 off;
#X text 557 122 on;
#X text 594 120 off;
#X obj 671 360 r initstuff;
#X msg 742 143 1;
#X msg 779 142 0;
#X text 303 503 on;
#X text 340 501 off;
#X msg 116 527 1;
#X msg 152 529 0;
#X msg 297 529 1;
#X msg 335 529 0;
#X obj 373 547 gemhead 1;
#X obj 483 231 int 0;
#X obj 532 231 + 2;
#X obj 634 118 gemhead;
#X floatatom 673 252;
#X obj 634 416 sphere;
#X obj 21 482 gemwin;
#X msg 70 216 create;
#X obj 444 115 gemhead;
#X msg 77 244 destroy;
#X msg 80 303 1;
#X msg 82 330 0;
#X msg 21 171 dimen 300 300;
#X msg 111 432 lighting 1;
#X floatatom 483 264;
#X obj 194 573 world_light;
#X obj 194 534 gemhead 1;
#X msg 110 404 lighting 0;
#X obj 444 424 sphere;
#X obj 673 225 int 0;
#X obj 373 584 light;
#X msg 671 387 20;
#X msg 481 400 5;
#X text 125 480 global light;
#X text 303 483 local light;
#X text 122 505 on;
#X text 152 506 off;
#X text 13 133 set the window size to 300 x 300;
#X text 75 378 you can turn lighting on and off while it is running;
#X text 127 315 turn rendering on and off;
#X text 142 227 create and destroy the graphics window;
#X obj 483 197 metro 50;
#X msg 555 145 1;
#X msg 591 146 0;
#X obj 673 191 metro 100;
#X obj 735 223 + 1;
#X obj 50 96 send initstuff;
#X obj 481 368 r initstuff;
#X obj 444 147 colorRGB 1 0 1;
#X obj 634 146 colorRGB 0 1 0;
#X obj 444 301 rotate 0 1 0;
#X obj 444 342 translate 2 1 0 0;
#X obj 634 329 translate 2 0 1 0;
#X obj 634 287 rotate 1 0 0;
#X text 446 69 Purple sphere;
#X text 636 74 Green sphere;
#X obj 49 65 loadbang;
#X connect 4 0 34 0;
#X connect 5 0 47 0;
#X connect 6 0 47 0;
#X connect 9 0 28 0;
#X connect 10 0 28 0;
#X connect 11 0 33 0;
#X connect 12 0 33 0;
#X connect 13 0 33 0;
#X connect 14 0 15 0;
#X connect 14 0 27 0;
#X connect 15 0 14 1;
#X connect 16 0 52 0;
#X connect 17 0 56 1;
#X connect 20 0 19 0;
#X connect 21 0 51 0;
#X connect 22 0 19 0;
#X connect 23 0 19 0;
#X connect 24 0 19 0;
#X connect 25 0 19 0;
#X connect 26 0 19 0;
#X connect 27 0 53 1;
#X connect 29 0 28 0;
#X connect 30 0 19 0;
#X connect 32 0 17 0;
#X connect 32 0 48 0;
#X connect 34 0 18 2;
#X connect 35 0 31 2;
#X connect 44 0 14 0;
#X connect 45 0 44 0;
#X connect 46 0 44 0;
#X connect 47 0 32 0;
#X connect 48 0 32 1;
#X connect 50 0 35 0;
#X connect 51 0 53 0;
#X connect 52 0 56 0;
#X connect 53 0 54 0;
#X connect 54 0 31 0;
#X connect 55 0 18 0;
#X connect 56 0 55 0;
#X connect 59 0 49 0;
