#N canvas 275 166 602 502 10;
#X obj 27 337 gemwin;
#X msg 59 120 create;
#X obj 350 226 gemhead;
#X msg 65 147 destroy;
#X msg 87 217 1;
#X msg 85 256 0;
#X floatatom 458 298 0 0 0;
#X obj 350 286 color;
#X msg 452 231 1 1 1;
#X msg 452 196 1 0 0;
#X obj 350 379 square;
#X text 109 26 this demonstrates how to create a red square;
#X text 438 159 change the color;
#X text 451 266 rotate the square;
#X text 57 97 create and destroy the graphics window;
#X text 129 232 turn rendering on and off;
#X msg 453 342 draw line;
#X msg 453 362 draw fill;
#X msg 456 415 width 1;
#X msg 457 435 width 10;
#N canvas 26 40 290 300 Gem.init 0;
#X obj 68 196 outlet;
#X obj 68 86 loadbang;
#X msg 68 136 reset;
#X connect 1 0 2 0;
#X connect 2 0 0 0;
#X restore 85 313 pd Gem.init;
#X obj 350 337 rotate;
#X connect 1 0 0 0;
#X connect 2 0 7 0;
#X connect 3 0 0 0;
#X connect 4 0 0 0;
#X connect 5 0 0 0;
#X connect 6 0 21 1;
#X connect 7 0 21 0;
#X connect 8 0 7 1;
#X connect 9 0 7 1;
#X connect 16 0 10 0;
#X connect 17 0 10 0;
#X connect 18 0 10 0;
#X connect 19 0 10 0;
#X connect 20 0 0 0;
#X connect 21 0 10 0;
