#N canvas 538 153 600 500 8;
#X obj 27 337 gemwin;
#X msg 59 120 create;
#X obj 350 159 gemhead;
#X msg 65 147 destroy;
#X msg 86 218 1;
#X msg 85 256 0;
#X obj 350 337 rotate;
#X floatatom 458 231;
#X obj 350 219 color;
#X msg 452 164 1 1 1;
#X text 438 92 change the color;
#X text 57 97 create and destroy the graphics window;
#X text 129 232 turn rendering on and off;
#X msg 237 313 draw line;
#X msg 237 346 draw fill;
#X text 109 29 this demonstrates how to create a blue rectangle;
#X obj 350 379 rectangle 2 1;
#X text 423 201 rotate the rectangle;
#X msg 452 129 0 0 1;
#X floatatom 427 336;
#X floatatom 482 337;
#X text 419 314 width;
#X text 477 313 height;
#X connect 1 0 0 0;
#X connect 2 0 8 0;
#X connect 3 0 0 0;
#X connect 4 0 0 0;
#X connect 5 0 0 0;
#X connect 6 0 16 0;
#X connect 7 0 6 1;
#X connect 8 0 6 0;
#X connect 9 0 8 1;
#X connect 13 0 16 0;
#X connect 14 0 16 0;
#X connect 18 0 8 1;
#X connect 19 0 16 1;
#X connect 20 0 16 2;
