#N canvas 732 202 601 392 8;
#X obj 23 247 gemwin;
#X msg 25 50 create;
#X obj 274 138 gemhead;
#X msg 31 81 destroy;
#X msg 65 118 1;
#X msg 65 150 0;
#X text 96 109 turn rendering on and off;
#X text 23 25 create and destroy the graphics window;
#X floatatom 318 169;
#X obj 22 325 world_light;
#X obj 22 283 gemhead 1;
#X msg 74 206 lighting 1;
#X obj 74 174 loadbang;
#X msg 303 88 lighting 0;
#X text 211 63 click this before closing the patch;
#X text 369 251 change the number of slices;
#X msg 421 269 15;
#X obj 274 207 rotateXYZ 26 26 0;
#X text 299 277 size;
#X floatatom 299 303;
#X text 383 309 set the inner radius;
#X floatatom 410 336;
#X obj 274 356 disk 2 5 1;
#X msg 384 269 10;
#X connect 1 0 0 0;
#X connect 2 0 17 0;
#X connect 3 0 0 0;
#X connect 4 0 0 0;
#X connect 5 0 0 0;
#X connect 8 0 17 1;
#X connect 8 0 17 2;
#X connect 10 0 9 0;
#X connect 11 0 0 0;
#X connect 12 0 11 0;
#X connect 13 0 0 0;
#X connect 16 0 22 2;
#X connect 17 0 22 0;
#X connect 19 0 22 1;
#X connect 21 0 22 3;
#X connect 23 0 22 2;
