#N canvas 28 218 601 392 10;
#X obj 23 247 gemwin;
#X msg 25 50 create;
#X obj 274 138 gemhead;
#X msg 31 81 destroy;
#X msg 65 118 1;
#X msg 65 150 0;
#X text 96 109 turn rendering on and off;
#X text 23 25 create and destroy the graphics window;
#X floatatom 350 169 0 0 0;
#X obj 22 325 world_light;
#X obj 22 283 gemhead 1;
#X text 369 251 change the number of slices;
#X msg 421 269 15;
#X obj 274 207 rotateXYZ 26 26 0;
#X text 299 251 size;
#X floatatom 299 277 0 1 4;
#X text 383 309 set the inner radius;
#X floatatom 410 336 0 0 0.9;
#X obj 274 356 disk 2 5 1;
#X msg 384 269 10;
#N canvas 22 20 213 300 Gem.init 0;
#X obj 71 191 outlet;
#X obj 71 81 loadbang;
#X msg 101 134 reset;
#X obj 71 109 t b b;
#X msg 71 164 lighting 1;
#X connect 1 0 3 0;
#X connect 2 0 0 0;
#X connect 3 0 4 0;
#X connect 3 1 2 0;
#X connect 4 0 0 0;
#X restore 127 222 pd Gem.init;
#X connect 1 0 0 0;
#X connect 2 0 13 0;
#X connect 3 0 0 0;
#X connect 4 0 0 0;
#X connect 5 0 0 0;
#X connect 8 0 13 1;
#X connect 8 0 13 2;
#X connect 10 0 9 0;
#X connect 12 0 18 2;
#X connect 13 0 18 0;
#X connect 15 0 18 1;
#X connect 17 0 18 3;
#X connect 19 0 18 2;
#X connect 20 0 0 0;
