#N canvas 521 209 667 589 12;
#X obj 27 337 gemwin;
#X msg 59 120 create;
#X obj 350 226 gemhead;
#X msg 64 156 destroy;
#X msg 86 218 1;
#X msg 85 256 0;
#X obj 350 337 rotate;
#X floatatom 458 298 0 0 0;
#X text 57 97 create and destroy the graphics window;
#X text 84 184 turn rendering on and off;
#X msg 168 296 draw line;
#X msg 186 329 draw fill;
#X obj 350 520 primTri;
#X text 48 23 this demonstrates how to create a triangle primitive
;
#X text 381 261 rotate the triangle;
#X msg 605 395 1 0 0;
#X msg 605 431 0 1 0;
#X msg 605 467 0 0 1;
#X text 599 359 colors;
#X text 460 336 vertices;
#X msg 467 375 1 1 0;
#X msg 466 446 -1 1 0;
#X msg 467 411 1 -2 0;
#X text 192 52 the colors can be RGB or RGBA;
#X msg 60 311 reset;
#X obj 60 285 loadbang;
#X connect 1 0 0 0;
#X connect 2 0 6 0;
#X connect 3 0 0 0;
#X connect 4 0 0 0;
#X connect 5 0 0 0;
#X connect 6 0 12 0;
#X connect 7 0 6 1;
#X connect 10 0 12 0;
#X connect 11 0 12 0;
#X connect 15 0 12 4;
#X connect 16 0 12 5;
#X connect 17 0 12 6;
#X connect 20 0 12 1;
#X connect 21 0 12 3;
#X connect 22 0 12 2;
#X connect 24 0 0 0;
#X connect 25 0 24 0;
