#N canvas 393 222 603 394 10;
#X obj 23 247 gemwin;
#X msg 25 50 create;
#X obj 275 174 gemhead;
#X msg 31 81 destroy;
#X msg 65 118 1;
#X msg 65 150 0;
#X text 96 109 turn rendering on and off;
#X text 24 25 create and destroy the graphics window;
#X floatatom 319 205 0 0 0;
#X obj 275 317 sphere;
#X obj 22 325 world_light;
#X obj 22 283 gemhead 1;
#X msg 303 88 lighting 0;
#X text 211 63 click this before closing the patch;
#X text 377 279 change the number of slices;
#X obj 275 242 rotateXYZ;
#X msg 340 280 15;
#X msg 303 280 5;
#N canvas 26 40 290 300 Gem.init 0;
#X obj 71 191 outlet;
#X obj 71 81 loadbang;
#X msg 101 134 reset;
#X obj 71 109 t b b;
#X msg 71 164 lighting 1;
#X connect 1 0 3 0;
#X connect 2 0 0 0;
#X connect 3 0 4 0;
#X connect 3 1 2 0;
#X connect 4 0 0 0;
#X restore 53 208 pd Gem.init;
#X connect 1 0 0 0;
#X connect 2 0 15 0;
#X connect 3 0 0 0;
#X connect 4 0 0 0;
#X connect 5 0 0 0;
#X connect 8 0 15 1;
#X connect 8 0 15 2;
#X connect 11 0 10 0;
#X connect 12 0 0 0;
#X connect 15 0 9 0;
#X connect 16 0 9 2;
#X connect 17 0 9 2;
#X connect 18 0 0 0;
