#N canvas 348 152 673 462 12;
#X floatatom 414 85 0 0 0 0 - - -;
#X obj 385 134 translate;
#X msg 452 86 0 0 1;
#X obj 385 44 gemhead;
#X msg 501 163 0 1 0;
#X obj 385 205 rotate;
#X floatatom 403 165 0 0 0 0 - - -;
#X obj 212 283 gemhead 1;
#X obj 212 321 world_light;
#X text 185 21 load in a model file;
#X obj 501 37 loadbang;
#X obj 385 255 model ../data/venus.obj;
#X obj 33 85 cnv 15 220 70 empty empty empty 20 12 0 14 -195568 -66577
0;
#N canvas 0 22 454 304 gemwin 0;
#X obj 132 136 gemwin;
#X obj 67 89 outlet;
#X obj 67 10 inlet;
#X obj 67 41 route create;
#X msg 67 70 set destroy;
#X msg 182 68 set create;
#X msg 132 112 create \, 1;
#X msg 238 112 destroy;
#N canvas 87 154 247 179 Gem.init 0;
#X obj 59 26 loadbang;
#X msg 118 81 reset;
#X obj 118 113 outlet;
#X obj 59 45 t b b;
#X msg 51 75 lighting 1;
#X connect 0 0 3 0;
#X connect 1 0 2 0;
#X connect 3 0 4 0;
#X connect 3 1 1 0;
#X connect 4 0 2 0;
#X restore 289 80 pd Gem.init;
#X connect 2 0 3 0;
#X connect 3 0 4 0;
#X connect 3 0 6 0;
#X connect 3 1 5 0;
#X connect 3 1 7 0;
#X connect 4 0 1 0;
#X connect 5 0 1 0;
#X connect 6 0 0 0;
#X connect 7 0 0 0;
#X connect 8 0 0 0;
#X restore 38 129 pd gemwin;
#X msg 38 105 create;
#X text 34 85 Create window and render;
#X text 69 378 Gem can load 3d-models in the alias|wavefront .obj format
;
#X connect 0 0 1 1;
#X connect 1 0 5 0;
#X connect 2 0 1 2;
#X connect 3 0 1 0;
#X connect 4 0 5 2;
#X connect 5 0 11 0;
#X connect 6 0 5 1;
#X connect 7 0 8 0;
#X connect 10 0 2 0;
#X connect 10 0 4 0;
#X connect 13 0 14 0;
#X connect 14 0 13 0;
