#N canvas 56 158 635 502 12;
#X obj 27 337 gemwin;
#X msg 59 120 create;
#X obj 350 226 gemhead;
#X msg 65 147 destroy;
#X msg 86 218 1;
#X msg 85 256 0;
#X floatatom 458 298 0 0 0;
#X obj 350 286 color;
#X msg 452 231 1 1 1;
#X text 438 159 change the color;
#X text 57 97 create and destroy the graphics window;
#X text 66 197 turn rendering on and off;
#X obj 350 379 teapot;
#X obj 350 337 rotateXYZ;
#X obj 29 398 gemhead;
#X obj 29 420 world_light;
#X msg 452 196 1 1 0;
#X text 109 29 this demonstrates how to create a yellow teapot;
#X text 451 266 rotate the teapot;
#N canvas 207 8 231 160 Gem.init 0;
#X obj 73 30 loadbang;
#X obj 73 53 t b b;
#X msg 113 77 reset;
#X msg 73 103 lighting 1;
#X obj 73 129 outlet;
#X connect 0 0 1 0;
#X connect 1 0 3 0;
#X connect 1 1 2 0;
#X connect 2 0 4 0;
#X connect 3 0 4 0;
#X restore 76 306 pd Gem.init;
#X msg 456 365 draw line;
#X msg 453 395 draw fill;
#X connect 1 0 0 0;
#X connect 2 0 7 0;
#X connect 3 0 0 0;
#X connect 4 0 0 0;
#X connect 5 0 0 0;
#X connect 6 0 13 1;
#X connect 6 0 13 2;
#X connect 7 0 13 0;
#X connect 8 0 7 1;
#X connect 13 0 12 0;
#X connect 14 0 15 0;
#X connect 16 0 7 1;
#X connect 19 0 0 0;
#X connect 20 0 12 0;
#X connect 21 0 12 0;
