#N canvas 509 196 487 398 10;
#X obj 35 217 gemwin;
#X msg 35 70 create;
#X msg 60 90 destroy;
#X obj 167 160 gemhead;
#X obj 167 192 part_head;
#X obj 167 328 part_draw;
#X msg 88 116 1;
#X msg 96 142 0;
#X text 277 258 set the number per frame;
#X text 291 290 set the age to kill at;
#X text 296 110 the velocity domain;
#X text 295 125 a sphere at 0 \, 0.2 \, 0;
#X text 296 144 radius = 0.3;
#X msg 271 170 0 0.2 0 0.3;
#X msg 358 169 0.2 0 0 0.3;
#X obj 167 228 part_velsphere 0 0.2 0 0.3;
#X obj 167 261 part_source 20;
#X obj 167 292 part_killold 50;
#N canvas 87 154 247 179 Gem.init 0;
#X obj 118 46 loadbang;
#X msg 118 81 reset;
#X obj 118 113 outlet;
#X connect 0 0 1 0;
#X connect 1 0 2 0;
#X restore 66 194 pd Gem.init;
#X connect 1 0 0 0;
#X connect 2 0 0 0;
#X connect 3 0 4 0;
#X connect 4 0 15 0;
#X connect 6 0 0 0;
#X connect 7 0 0 0;
#X connect 13 0 15 1;
#X connect 14 0 15 1;
#X connect 15 0 16 0;
#X connect 16 0 17 0;
#X connect 17 0 5 0;
#X connect 18 0 0 0;
