#N canvas 396 160 600 500 10;
#X obj 40 300 gemwin;
#X msg 40 97 create;
#X msg 60 135 destroy;
#X obj 198 50 gemhead;
#X obj 198 82 part_head;
#X obj 198 136 part_color;
#X obj 198 447 part_draw;
#X msg 103 158 1;
#X msg 121 185 0;
#X msg 335 69 0 1 0;
#X text 329 37 set the color range;
#X obj 198 174 part_size 1;
#X text 299 126 set the size;
#X obj 198 331 part_gravity 0 -0.01 0;
#X obj 198 206 part_velocity sphere 0 0.2 0 0.2;
#X text 310 269 set the number per frame;
#X text 310 378 set the age to kill at;
#X text 366 327 gravity to affect the particles;
#X text 428 174 the velocity domain;
#X text 426 191 a sphere at 0 \, 0.2 \, 0;
#X msg 219 413 draw line;
#X msg 298 413 draw point;
#X msg 309 151 2;
#X msg 393 69 1 0 0;
#X obj 198 270 part_source 25;
#X obj 198 381 part_killold 45;
#X text 426 208 radius = 0.2;
#X msg 126 51 speed 0.1;
#N canvas 87 154 247 179 Gem.init 0;
#X obj 118 46 loadbang;
#X msg 118 81 reset;
#X obj 118 113 outlet;
#X connect 0 0 1 0;
#X connect 1 0 2 0;
#X restore 95 271 pd Gem.init;
#X connect 1 0 0 0;
#X connect 2 0 0 0;
#X connect 3 0 4 0;
#X connect 4 0 5 0;
#X connect 5 0 11 0;
#X connect 7 0 0 0;
#X connect 8 0 0 0;
#X connect 9 0 5 1;
#X connect 11 0 14 0;
#X connect 13 0 25 0;
#X connect 14 0 24 0;
#X connect 20 0 6 0;
#X connect 21 0 6 0;
#X connect 22 0 11 1;
#X connect 23 0 5 2;
#X connect 24 0 13 0;
#X connect 25 0 6 0;
#X connect 27 0 4 0;
#X connect 28 0 0 0;
