#N canvas 396 20 600 641 10;
#X obj 41 261 gemwin;
#X msg 41 97 create;
#X msg 58 126 destroy;
#X obj 198 50 gemhead;
#X obj 198 82 part_head;
#X obj 198 136 part_color;
#X obj 198 620 part_draw;
#X text 329 37 set the color range;
#X text 299 174 set the size;
#X text 310 269 set the number per frame;
#X text 321 588 set the age to kill at;
#X text 404 196 the velocity domain;
#X text 402 230 radius = 0.2;
#X obj 360 61 loadbang;
#X obj 198 586 part_killold 35;
#X obj 198 174 part_size 0.8;
#X text 401 214 a sphere at -1 0 0;
#X text 361 318 apply a gravity to the right;
#X obj 198 317 part_gravity 0.07 0 0;
#X obj 198 461 part_color;
#X obj 251 383 loadbang;
#X msg 275 421 0.4 0.4 0.4;
#X msg 227 420 1 0 0;
#X obj 198 277 part_source 5;
#X obj 198 497 part_source 5;
#X obj 198 537 part_gravity -0.01 -0.02 0;
#X obj 198 352 part_velsphere 0 0.2 0 0.05;
#X msg 324 96 0.4 0.4 0.4;
#X msg 396 98 0 1 0;
#X obj 198 220 part_velsphere -0.2 0 0 0.1;
#X obj 375 507 tripleLine 1000;
#X obj 375 479 v* -1;
#X obj 375 454 tripleRand 0.1 0.2 0;
#X obj 375 419 metro 1000;
#X obj 375 392 r onOff;
#N canvas 87 154 247 179 Gem.init 0;
#X obj 118 46 loadbang;
#X msg 118 81 reset;
#X obj 118 113 outlet;
#X connect 0 0 1 0;
#X connect 1 0 2 0;
#X restore 82 235 pd Gem.init;
#X obj 91 163 tgl 40 0 onOff empty empty 0 -6 128 8 -262144 -1 -1 1
1;
#X connect 1 0 0 0;
#X connect 2 0 0 0;
#X connect 3 0 4 0;
#X connect 4 0 5 0;
#X connect 5 0 15 0;
#X connect 13 0 28 0;
#X connect 13 0 27 0;
#X connect 14 0 6 0;
#X connect 15 0 29 0;
#X connect 18 0 26 0;
#X connect 19 0 24 0;
#X connect 20 0 21 0;
#X connect 20 0 22 0;
#X connect 21 0 19 2;
#X connect 22 0 19 1;
#X connect 23 0 18 0;
#X connect 24 0 25 0;
#X connect 25 0 14 0;
#X connect 26 0 19 0;
#X connect 27 0 5 1;
#X connect 28 0 5 2;
#X connect 29 0 23 0;
#X connect 30 0 25 1;
#X connect 31 0 30 0;
#X connect 32 0 31 0;
#X connect 33 0 32 0;
#X connect 34 0 33 0;
#X connect 35 0 0 0;
#X connect 36 0 0 0;
