#N canvas 396 160 600 500 10;
#X obj 40 296 gemwin;
#X msg 40 97 create;
#X msg 60 135 destroy;
#X obj 198 50 gemhead;
#X obj 198 82 part_head;
#X obj 198 447 part_draw;
#X msg 103 158 1;
#X msg 121 185 0;
#X obj 198 331 part_gravity 0 -0.01 0;
#X obj 198 160 part_velocity sphere 0 0.2 0 0.2;
#X text 310 269 set the number per frame;
#X text 310 378 set the age to kill at;
#X text 366 327 gravity to affect the particles;
#X text 331 94 the velocity domain;
#X text 329 111 a sphere at 0 \, 0.2 \, 0;
#X obj 198 270 part_source 25;
#X obj 198 381 part_killold 45;
#X text 329 128 radius = 0.2;
#X obj 198 116 part_size 0.1;
#X obj 198 236 part_targetcolor 0 0 1;
#X obj 198 201 part_targetsize 3;
#N canvas 87 154 247 179 Gem.init 0;
#X obj 118 46 loadbang;
#X msg 118 81 reset;
#X obj 118 113 outlet;
#X connect 0 0 1 0;
#X connect 1 0 2 0;
#X restore 95 271 pd Gem.init;
#X connect 1 0 0 0;
#X connect 2 0 0 0;
#X connect 3 0 4 0;
#X connect 4 0 18 0;
#X connect 6 0 0 0;
#X connect 7 0 0 0;
#X connect 8 0 16 0;
#X connect 9 0 20 0;
#X connect 15 0 8 0;
#X connect 16 0 5 0;
#X connect 18 0 9 0;
#X connect 19 0 15 0;
#X connect 20 0 19 0;
#X connect 21 0 0 0;
