#N canvas 136 52 487 571 10;
#X obj 35 217 gemwin;
#X msg 35 70 create;
#X msg 60 90 destroy;
#X obj 167 53 gemhead;
#X obj 167 81 part_head;
#X msg 88 116 1;
#X msg 96 142 0;
#X text 293 262 set the number per frame;
#X text 291 290 set the age to kill at;
#X text 296 110 the velocity domain;
#X text 295 125 a sphere at 0 \, 0.2 \, 0;
#X text 296 144 radius = 0.3;
#X msg 271 170 0 0.2 0 0.3;
#X msg 358 169 0.2 0 0 0.3;
#X obj 167 231 part_velocity sphere 0 0.2 0 0.3;
#N canvas 87 154 247 179 Gem.init 0;
#X msg 118 81 reset;
#X obj 118 113 outlet;
#X msg 33 82 lighting 1;
#X obj 118 48 t b b;
#X obj 116 18 loadbang;
#X connect 0 0 1 0;
#X connect 2 0 1 0;
#X connect 3 0 2 0;
#X connect 3 1 0 0;
#X connect 4 0 3 0;
#X restore 66 194 pd Gem.init;
#X obj 167 330 part_render;
#X obj 167 393 sphere 0.2;
#X obj 47 308 gemhead;
#X obj 47 331 world_light;
#X obj 167 128 part_size 1;
#X msg 257 105 2;
#X obj 167 204 part_color;
#X msg 190 150 1 0 0;
#X obj 167 261 part_source 5;
#X obj 167 292 part_killold 10;
#X msg 202 178 0 1 0;
#X msg 227 104 1;
#X connect 1 0 0 0;
#X connect 2 0 0 0;
#X connect 3 0 4 0;
#X connect 4 0 20 0;
#X connect 5 0 0 0;
#X connect 6 0 0 0;
#X connect 12 0 14 2;
#X connect 13 0 14 2;
#X connect 14 0 24 0;
#X connect 15 0 0 0;
#X connect 16 0 17 0;
#X connect 18 0 19 0;
#X connect 20 0 22 0;
#X connect 21 0 20 1;
#X connect 22 0 14 0;
#X connect 23 0 22 1;
#X connect 24 0 25 0;
#X connect 25 0 16 0;
#X connect 26 0 22 2;
#X connect 27 0 20 1;
