#N canvas 22 71 611 571 10;
#X obj 35 217 gemwin;
#X msg 35 70 create;
#X msg 60 90 destroy;
#X obj 169 18 gemhead;
#X obj 168 85 part_head;
#X msg 88 116 1;
#X msg 96 142 0;
#X text 278 259 set the number per frame;
#X text 292 291 set the age to kill at;
#X msg 290 201 0 0.2 0 0.3;
#X msg 377 200 0.2 0 0 0.3;
#X obj 168 229 part_velocity sphere 0 0.2 0 0.3;
#N canvas 87 154 247 179 Gem.init 0;
#X msg 118 81 reset;
#X obj 118 113 outlet;
#X obj 118 48 t b b;
#X obj 116 18 loadbang;
#X connect 0 0 1 0;
#X connect 2 1 0 0;
#X connect 3 0 2 0;
#X restore 66 194 pd Gem.init;
#X obj 168 132 part_size 1;
#X obj 168 254 part_source 5;
#X obj 168 279 part_killold 10;
#X obj 169 300 part_info;
#X obj 169 382 separator;
#X obj 169 408 translate 1 0 0 0;
#X obj 169 431 color;
#X obj 169 471 scale;
#X msg 278 518 draw line;
#X msg 257 105 2;
#X obj 170 502 rotateXYZ;
#X obj 320 435 unpack 0 0 0;
#X text 375 400 this is rather velocity;
#X text 379 416 than rotation;
#X obj 279 498 loadbang;
#X obj 170 537 square 0.2;
#X msg 300 378 \$1 \$2 0;
#X obj 169 56 rotateXYZ;
#X floatatom 272 20 5 0 0 0 - - -;
#X obj 168 205 part_color;
#X msg 200 180 1 0 0;
#X msg 252 180 0 0 1;
#X text 254 362 we don't allow particles spread along the z-axis;
#X msg 257 76 1;
#X obj 255 463 * 360;
#X obj 315 461 * 360;
#X obj 382 460 * 360;
#X connect 1 0 0 0;
#X connect 2 0 0 0;
#X connect 3 0 30 0;
#X connect 4 0 13 0;
#X connect 5 0 0 0;
#X connect 6 0 0 0;
#X connect 9 0 11 2;
#X connect 10 0 11 2;
#X connect 11 0 14 0;
#X connect 12 0 0 0;
#X connect 13 0 32 0;
#X connect 14 0 15 0;
#X connect 15 0 16 0;
#X connect 16 0 17 0;
#X connect 16 2 29 0;
#X connect 16 3 19 1;
#X connect 16 4 24 0;
#X connect 16 5 20 1;
#X connect 17 0 18 0;
#X connect 18 0 19 0;
#X connect 19 0 20 0;
#X connect 20 0 23 0;
#X connect 21 0 28 0;
#X connect 22 0 13 1;
#X connect 23 0 28 0;
#X connect 24 0 37 0;
#X connect 24 1 38 0;
#X connect 24 2 39 0;
#X connect 27 0 21 0;
#X connect 29 0 18 2;
#X connect 30 0 4 0;
#X connect 31 0 30 2;
#X connect 32 0 11 0;
#X connect 33 0 32 1;
#X connect 34 0 32 2;
#X connect 36 0 13 1;
#X connect 37 0 23 1;
#X connect 38 0 23 2;
#X connect 39 0 23 3;
