#N canvas 424 93 600 500 10;
#X obj 40 300 gemwin;
#X msg 60 135 destroy;
#X obj 198 50 gemhead;
#X obj 198 82 part_head;
#X obj 198 136 part_color;
#X obj 199 447 part_draw;
#X msg 103 158 1;
#X msg 121 185 0;
#X msg 335 69 0 1 0;
#X text 329 37 set the color range;
#X obj 198 174 part_size 1;
#X text 299 126 set the size;
#X obj 198 206 part_velocity sphere 0 0.2 0 0.2;
#X text 310 239 set the number per frame;
#X text 311 378 set the age to kill at;
#X text 309 255 gravity to affect the particles;
#X text 428 174 the velocity domain;
#X text 426 191 a sphere at 0 \, 0.2 \, 0;
#X msg 220 413 draw line;
#X msg 299 413 draw point;
#X msg 309 151 2;
#X msg 393 69 1 0 0;
#X obj 198 240 part_source 25;
#X obj 199 381 part_killold 45;
#X text 426 208 radius = 0.2;
#X msg 126 51 speed 0.1;
#N canvas 87 154 247 179 Gem.init 0;
#X obj 118 46 loadbang;
#X msg 118 81 reset;
#X obj 118 113 outlet;
#X connect 0 0 1 0;
#X connect 1 0 2 0;
#X restore 95 271 pd Gem.init;
#X obj 245 303 tgl 15 0 empty empty empty 0 -6 0 8 -262144 -1 -1 0
1;
#X obj 78 338 zexy;
#X floatatom 389 314 5 0 0 0 - - -;
#X msg 389 331 0 \$1 0 0 1 0;
#X obj 198 271 part_gravity 0 -0.1 0;
#X obj 198 355 part_sink plane 0 -1 0 0 1 0;
#X msg 245 322 kill \$1;
#X obj 392 293 hsl 128 15 -4 0.1 0 0 empty empty empty -2 -6 0 8 -262144
-1 -1 0 1;
#X msg 40 97 create \, 1;
#X connect 1 0 0 0;
#X connect 2 0 3 0;
#X connect 3 0 4 0;
#X connect 4 0 10 0;
#X connect 6 0 0 0;
#X connect 7 0 0 0;
#X connect 8 0 4 1;
#X connect 10 0 12 0;
#X connect 12 0 22 0;
#X connect 18 0 5 0;
#X connect 19 0 5 0;
#X connect 20 0 10 1;
#X connect 21 0 4 2;
#X connect 22 0 31 0;
#X connect 23 0 5 0;
#X connect 25 0 3 0;
#X connect 26 0 0 0;
#X connect 27 0 33 0;
#X connect 29 0 30 0;
#X connect 30 0 32 2;
#X connect 31 0 32 0;
#X connect 32 0 23 0;
#X connect 33 0 32 0;
#X connect 34 0 29 0;
#X connect 35 0 0 0;
