#N canvas 262 20 734 641 10;
#X floatatom 623 223 0 0 0;
#X floatatom 322 240 0 0 0;
#X msg 490 144 1;
#X msg 494 168 0;
#X floatatom 694 403 0 0 0;
#X floatatom 529 284 3 0 0;
#X floatatom 578 222 0 0 0;
#X obj 479 194 gemhead;
#X floatatom 533 223 0 0 0;
#X msg 213 155 1;
#X msg 217 179 0;
#X floatatom 395 478 0 0 0;
#X floatatom 226 305 4 0 0;
#X floatatom 279 240 0 0 0;
#X obj 209 207 gemhead;
#X floatatom 235 240 0 0 0;
#X obj 208 496 text3d hello world;
#X obj 209 386 rotate;
#X obj 25 291 gemwin;
#X msg 25 185 create;
#X msg 31 212 destroy;
#X msg 45 234 1;
#X msg 49 258 0;
#X obj 479 421 textoutline hello world;
#X msg 279 320 0 1 0;
#X msg 283 344 1 0 0;
#X msg 5 449 justify right top;
#X obj 209 281 translateXYZ;
#X msg 532 334 justify left bottom;
#X msg 4 422 justify center center;
#X text 205 111 3-D polygonal text;
#X text 480 99 3-D outline text;
#X obj 479 308 rotateXYZ;
#X msg 225 463 font ../data/times.ttf;
#X msg 218 433 font ../data/arial.ttf;
#X msg 515 364 font ../data/arial.ttf;
#X msg 511 390 font ../data/cour.ttf;
#X text 401 496 size;
#X obj 479 257 translateXYZ 0 2 0;
#N canvas 87 154 247 179 Gem.init 0;
#X obj 118 46 loadbang;
#X msg 118 81 reset;
#X obj 118 113 outlet;
#X connect 0 0 1 0;
#X connect 1 0 2 0;
#X restore 95 271 pd Gem.init;
#X connect 0 0 38 3;
#X connect 1 0 27 3;
#X connect 2 0 7 0;
#X connect 3 0 7 0;
#X connect 4 0 23 1;
#X connect 5 0 32 2;
#X connect 6 0 38 2;
#X connect 7 0 38 0;
#X connect 8 0 38 1;
#X connect 9 0 14 0;
#X connect 10 0 14 0;
#X connect 11 0 16 1;
#X connect 12 0 17 1;
#X connect 13 0 27 2;
#X connect 14 0 27 0;
#X connect 15 0 27 1;
#X connect 17 0 16 0;
#X connect 19 0 18 0;
#X connect 20 0 18 0;
#X connect 21 0 18 0;
#X connect 22 0 18 0;
#X connect 24 0 17 2;
#X connect 25 0 17 2;
#X connect 26 0 16 0;
#X connect 27 0 17 0;
#X connect 28 0 23 0;
#X connect 29 0 16 0;
#X connect 32 0 23 0;
#X connect 33 0 16 0;
#X connect 34 0 16 0;
#X connect 35 0 23 0;
#X connect 36 0 23 0;
#X connect 38 0 32 0;
#X connect 39 0 18 0;
