#N canvas 262 100 734 532 10;
#X floatatom 489 359 0 0 0;
#X obj 451 243 gemhead;
#X obj 451 484 text3d hello world;
#X obj 25 291 gemwin;
#X msg 23 78 create;
#X msg 29 105 destroy;
#X msg 55 171 1;
#X msg 59 195 0;
#X text 354 25 3-D polygonal text;
#X msg 240 303 text something really cool;
#X msg 222 275 text bar;
#X msg 188 248 text foo;
#X msg 141 225 text and now with 1 4.5;
#X obj 201 180 sel 0 1 2 3 4;
#X msg 179 44 1;
#X msg 225 55 0;
#X obj 218 107 metro 250;
#X obj 216 142 random 7;
#X msg 262 342 text good bye again;
#X msg 324 267 text rand \$1;
#X obj 451 270 translateXYZ 0 0 -3.5;
#X obj 489 333 counter 0 360;
#X obj 489 298 metro 20;
#X obj 451 397 rotateXYZ;
#N canvas 87 154 247 179 Gem.init 0;
#X msg 118 81 reset;
#X obj 118 113 outlet;
#X connect 0 0 1 0;
#X connect 1 0 2 0;
#X restore 55 268 pd Gem.init;
#X msg 497 461 font ../data/arial.ttf;
#X connect 0 0 23 2;
#X connect 1 0 20 0;
#X connect 4 0 3 0;
#X connect 5 0 3 0;
#X connect 6 0 3 0;
#X connect 7 0 3 0;
#X connect 9 0 2 0;
#X connect 10 0 2 0;
#X connect 11 0 2 0;
#X connect 12 0 2 0;
#X connect 13 0 12 0;
#X connect 13 1 11 0;
#X connect 13 2 10 0;
#X connect 13 3 9 0;
#X connect 13 4 18 0;
#X connect 13 5 19 0;
#X connect 14 0 16 0;
#X connect 14 0 22 0;
#X connect 15 0 16 0;
#X connect 15 0 22 0;
#X connect 16 0 17 0;
#X connect 17 0 13 0;
#X connect 18 0 2 0;
#X connect 19 0 2 0;
#X connect 20 0 23 0;
#X connect 21 0 0 0;
#X connect 22 0 21 0;
#X connect 23 0 2 0;
#X connect 24 0 3 0;
#X connect 25 0 2 0;
#X connect 26 0 25 0;
