#N canvas 714 348 549 630 10;
#X text 75 381 1- select the backend;
#X obj 232 453 s \$1-ctl;
#X msg 261 422 record 1;
#X text 75 401 2- name the NDI-stream;
#X text 75 421 3- start sending out stream;
#X text 89 47 recordPNM - PPM/PGM image stream output;
#X text 89 57 =======================================;
#X msg 261 382 codec pnm;
#X msg 261 402 filename fifo.ppm;
#X text 80 98 PNM is a family of lowest common denominator image formats \, with an ASCII header containing metadata \, followed by raw uncompressed image data.;
#X msg 237 136 https://netpbm.sourceforge.net/doc/pnm.html;
#N canvas 735 459 450 300 open 0;
#X obj 37 37 inlet;
#X obj 37 60 symbol;
#X msg 37 83 open \$1;
#X obj 37 106 pdcontrol;
#X connect 0 0 1 0;
#X connect 1 0 2 0;
#X connect 2 0 3 0;
#X restore 237 159 pd open;
#X text 104 149 Sepcification:;
#X text 76 197 The 'pnm' backend writes a single file containing a concatenated stream of PNM images.;
#X text 78 231 The following codecs are currently supported:;
#X text 103 255 - ppm (rgb888 PPM P6 binary format);
#X text 103 270 - pgm (gray8 PGM P5 binary format);
#X text 28 310 Example cuse case:;
#X text 51 332 I. create a named pipe (in the terminal): 'mkfifo fifo.ppm';
#X text 49 357 II. record frames into the named pipe using this backend:;
#X text 52 490 III. encode the video with FFMPEG:;
#X text 84 511 'ffmpeg -f image2pipe -i fifo.ppm ...';
#X text 71 544 note that the [pix_record] may block if data is not read fast enough by the encoder.;
#X connect 2 0 1 0;
#X connect 7 0 1 0;
#X connect 8 0 1 0;
#X connect 10 0 11 0;
