#N canvas 725 113 967 800 10;
#X declare -lib Gem;
#N canvas 640 443 450 300 fps 0;
#X obj 60 28 gemhead;
#X obj 60 68 realtime;
#X obj 60 48 t b b;
#X obj 60 130 /;
#X msg 60 110 1000 \$1;
#X obj 60 235 outlet;
#X obj 60 152 + 0.5;
#X obj 60 214 i;
#N canvas 3 119 450 300 iir 0;
#X obj 63 31 inlet;
#X obj 63 81 +;
#X obj 63 107 / 21;
#X obj 119 138 * 20;
#X obj 63 176 outlet;
#X connect 0 0 1 0;
#X connect 1 0 2 0;
#X connect 2 0 3 0;
#X connect 2 0 4 0;
#X connect 3 0 1 1;
#X restore 60 182 pd iir;
#X connect 0 0 2 0;
#X connect 1 0 4 0;
#X connect 2 0 1 0;
#X connect 2 1 1 1;
#X connect 3 0 6 0;
#X connect 4 0 3 0;
#X connect 6 0 8 0;
#X connect 7 0 5 0;
#X connect 8 0 7 0;
#X restore 44 104 pd fps;
#X floatatom 44 127 5 0 0 1 fps - - 0;
#X msg 347 275 link \$1 \$2;
#X obj 267 199 glsl_vertex;
#X obj 267 232 glsl_fragment;
#X obj 318 106 loadbang;
#X obj 267 14 gemhead;
#X msg 428 590 program \$1;
#X obj 373 624 cnv 15 120 30 empty empty empty 20 12 0 14 #c4fcc4 #404040 0;
#X msg 381 630 print_attributes;
#X obj 402 467 t b f;
#X obj 374 320 print linking;
#X obj 347 297 t a a;
#X obj 330 690 print vb;
#X obj 44 9 declare -lib Gem;
#X obj 347 255 pack f f;
#N canvas 171 609 682 322 gemwin 0;
#X obj 102 122 tgl 15 0 \$0-gemstart \$0-gemstart empty 17 7 0 10 #fcfcfc #000000 #000000 0 1;
#X obj 102 161 r \$0-gemstart;
#X obj 102 182 select 1 0;
#X msg 102 214 create \, 1;
#X msg 177 215 destroy;
#X obj 102 239 t a;
#X obj 318 54 inlet;
#X obj 318 255 gemwin;
#X obj 318 100 t a a;
#X obj 318 287 outlet;
#X obj 350 128 route create destroy;
#X obj 350 150 t b;
#X msg 350 172 1;
#X obj 390 150 t b;
#X msg 390 172 0;
#X obj 350 195 t f;
#X msg 350 219 set \$1;
#X text 118 122 rendering;
#X connect 1 0 2 0;
#X connect 2 0 3 0;
#X connect 2 1 4 0;
#X connect 3 0 5 0;
#X connect 4 0 5 0;
#X connect 5 0 8 0;
#X connect 6 0 8 0;
#X connect 7 0 9 0;
#X connect 8 0 7 0;
#X connect 8 1 10 0;
#X connect 10 0 11 0;
#X connect 10 1 13 0;
#X connect 11 0 12 0;
#X connect 12 0 15 0;
#X connect 13 0 14 0;
#X connect 14 0 15 0;
#X connect 15 0 16 0;
#X connect 16 0 0 0;
#X coords 0 -1 1 1 85 40 1 100 100;
#X restore 42 51 pd gemwin;
#X obj 318 149 t a a;
#X msg 345 176 open shader/\$1.vert;
#X msg 345 199 open shader/\$1.frag;
#X obj 303 666 t a a;
#X obj 582 18 gemhead;
#X floatatom 617 50 5 0 0 0 - - - 0;
#X floatatom 652 50 5 0 0 0 - - - 0;
#X floatatom 687 50 5 0 0 0 - - - 0;
#X floatatom 598 163 5 0 0 0 - - - 0;
#X floatatom 632 163 5 0 0 0 - - - 0;
#X floatatom 666 163 5 0 0 0 - - - 0;
#X obj 582 184 rotateXYZ;
#X obj 582 209 gemlist_matrix;
#X obj 663 236 list prepend transformation_matrix;
#X obj 663 258 list trim;
#X obj 582 73 translateXYZ 0 0 4;
#X obj 267 42 translateXYZ;
#X floatatom 330 16 5 0 0 0 - - - 0;
#X text 369 15 this transformation is ignored..., f 19;
#X msg 285 303 print;
#N canvas 1001 526 302 371 table 0;
#X obj 29 30 table table_posX;
#X obj 29 53 table table_posY;
#X obj 29 76 table table_posZ;
#X obj 27 113 table table_normalX;
#X obj 27 136 table table_normalY;
#X obj 27 159 table table_normalZ;
#X obj 28 195 table table_colorR;
#X obj 28 215 table table_colorG;
#X obj 28 235 table table_colorB;
#X restore 42 175 pd table;
#N canvas 1279 243 543 538 modelfiler 0;
#X obj 81 277 modelfiler;
#X msg 106 132 position table_pos;
#X msg 118 158 color table_color;
#X msg 136 212 normal table_normal;
#X obj 81 25 loadbang;
#X obj 144 24 bng 18 250 50 0 empty empty empty 0 -9 0 10 #fcfcfc #000000 #000000;
#X msg 81 95 open ../data/venus.obj;
#X obj 81 303 route vertices;
#X msg 81 332 resize \$1;
#X obj 81 55 t b b b;
#X msg 201 361 sinesum 8192 0.5 0.25 0.25 0 0.2;
#X obj 91 419 s table_colorR;
#X obj 91 449 s table_colorG;
#X obj 91 479 s table_colorB;
#X msg 219 383 sinesum 8192 0.5 -0.25 0.25 0 0.2;
#X msg 235 409 sinesum 8192 0.5 0.25 -0.25 0 0.2;
#X connect 0 0 7 0;
#X connect 1 0 0 0;
#X connect 2 0 0 0;
#X connect 3 0 0 0;
#X connect 4 0 9 0;
#X connect 5 0 9 0;
#X connect 6 0 0 0;
#X connect 7 0 8 0;
#X connect 8 0 11 0;
#X connect 8 0 12 0;
#X connect 8 0 13 0;
#X connect 9 0 6 0;
#X connect 9 1 1 0;
#X connect 9 1 3 0;
#X connect 9 2 10 0;
#X connect 9 2 14 0;
#X connect 9 2 15 0;
#X connect 10 0 11 0;
#X connect 14 0 12 0;
#X connect 15 0 13 0;
#X restore 40 205 pd modelfiler;
#X msg 318 127 symbol 04.model;
#X obj 582 118 scaleXYZ 0.003 0.003 0.003;
#X obj 267 349 glsl_program \; LightPosition 5 3 1 1 \; LightL 1 1 1 \; LightLa 1 1 1 \; MaterialKa 0.5 0.5 0.5 \; MaterialKd 0.1 0.1 0.1 \; MaterialKs 0.3 0.3 0.3 \; MaterialShininess 30;
#X msg 402 492 attribute positionX table_posX \, attribute positionY table_posY \, attribute positionZ table_posZ \, attribute normal_X table_normalX \, attribute normal_Y table_normalY \, attribute normal_Z table_normalZ \, attribute colorR table_colorR \, attribute colorG table_colorG \, attribute colorB table_colorB, f 67;
#X obj 267 718 gemvertexbuffer \; draw tri;
#X connect 0 0 1 0;
#X connect 2 0 12 0;
#X connect 3 0 4 0;
#X connect 3 1 15 1;
#X connect 4 0 41 0;
#X connect 4 1 15 0;
#X connect 5 0 39 0;
#X connect 6 0 33 0;
#X connect 7 0 20 0;
#X connect 9 0 20 0;
#X connect 10 0 42 0;
#X connect 10 1 7 0;
#X connect 12 0 41 0;
#X connect 12 1 11 0;
#X connect 15 0 2 0;
#X connect 17 0 19 0;
#X connect 17 1 18 0;
#X connect 18 0 3 0;
#X connect 19 0 4 0;
#X connect 20 0 43 0;
#X connect 20 1 13 0;
#X connect 21 0 32 0;
#X connect 22 0 32 1;
#X connect 23 0 32 2;
#X connect 24 0 32 3;
#X connect 25 0 28 1;
#X connect 26 0 28 2;
#X connect 27 0 28 3;
#X connect 28 0 29 0;
#X connect 29 1 30 0;
#X connect 30 0 31 0;
#X connect 31 0 41 0;
#X connect 32 0 40 0;
#X connect 33 0 3 0;
#X connect 34 0 33 1;
#X connect 36 0 41 0;
#X connect 39 0 17 0;
#X connect 40 0 28 0;
#X connect 41 0 43 0;
#X connect 41 1 10 0;
#X connect 42 0 20 0;
