#N canvas 707 27 1210 853 12;
#X obj 34 27 inlet;
#X obj 276 113 gemargs;
#X obj 344 30 inlet;
#X text 418 245 forward to the corresponding table, f 21;
#X obj 407 380 send;
#X obj 481 294 list split 1;
#X obj 407 321 list trim;
#X obj 367 296 list split 1;
#X obj 683 251 unpack f f f f;
#X msg 683 417 const \$1;
#X obj 683 440 s table-\$0-colorR;
#X obj 261 21 loadbang;
#X msg 778 278 const \$1;
#X msg 746 324 const \$1;
#X msg 714 371 const \$1;
#X obj 714 394 s table-\$0-colorG;
#X obj 746 347 s table-\$0-colorB;
#X obj 778 301 s table-\$0-colorA;
#X obj 683 188 route color;
#X msg 344 535 color table-\$1-colorR table-\$1-colorG table-\$1-colorB table-\$1-colorA, f 39;
#X obj 344 476 delay 0;
#X text 426 479 delay is here to limit the update rate of thevertex buffer once per input message, f 45;
#X text 694 213 RGB or RGBA value;
#X obj 344 505 \$0;
#X obj 261 614 \$0;
#X obj 379 505 bng 20 250 50 0 empty empty empty 0 -10 0 12 #fcfcfc #000000 #000000;
#X obj 293 612 bng 20 250 50 0 empty empty empty 0 -10 0 12 #fcfcfc #000000 #000000;
#X obj 261 48 t b b;
#X obj 344 245 t b a a;
#X obj 344 430 b;
#X msg 365 116 color 1 1 1 1;
#X obj 58 83 table table-\$0-posX 4;
#X obj 58 105 table table-\$0-posY 4;
#X obj 58 127 table table-\$0-posZ 4;
#X obj 58 152 table table-\$0-colorR 4;
#X obj 58 174 table table-\$0-colorG 4;
#X obj 58 196 table table-\$0-colorB 4;
#X obj 58 218 table table-\$0-colorA 4;
#X obj 58 243 table table-\$0-textureU 4;
#X obj 58 265 table table-\$0-textureV 4;
#X obj 58 290 table table-\$0-normalX 4;
#X obj 58 312 table table-\$0-normalY 4;
#X obj 58 334 table table-\$0-normalZ 4;
#X obj 34 775 outlet;
#X obj 481 318 list prepend \$0;
#X msg 481 341 symbol table-\$1-\$2;
#X msg 261 644 position table-\$1-posX table-\$1-posY table-\$1-posZ \, texture table-\$1-textureU table-\$1-textureV \, normal table-\$1-normalX table-\$1-normalY table-\$1-normalZ;
#X text 257 722 TODO : for rectangle texturing \, the textureU table must be multiply by the image size X \, and textureV table must be multiply by the image size Y;
#X text 256 780 TODO : add a size message for the square (is that really needed? a scaleXYZ object can be use);
#X obj 866 419 route draw;
#X obj 866 677 t a;
#X obj 866 445 route point points line lines fill;
#X msg 866 486 draw point;
#X obj 344 152 route table res, f 27;
#X msg 491 116 res 20;
#N canvas 915 123 722 770 resolution 0;
#X obj 42 10 inlet;
#X obj 137 70 + 2;
#N canvas 457 346 481 444 resize_tables 0;
#X obj 128 109 s table-\$0-posX;
#X obj 128 131 s table-\$0-posY;
#X obj 128 153 s table-\$0-posZ;
#X obj 128 177 s table-\$0-colorR;
#X obj 128 199 s table-\$0-colorG;
#X obj 128 221 s table-\$0-colorB;
#X obj 128 243 s table-\$0-colorA;
#X obj 128 266 s table-\$0-textureU;
#X obj 128 288 s table-\$0-textureV;
#X obj 128 313 s table-\$0-normalX;
#X obj 128 335 s table-\$0-normalY;
#X obj 128 357 s table-\$0-normalZ;
#X msg 90 54 resize \$1;
#X obj 88 23 inlet;
#X connect 12 0 0 0;
#X connect 12 0 11 0;
#X connect 12 0 10 0;
#X connect 12 0 9 0;
#X connect 12 0 8 0;
#X connect 12 0 7 0;
#X connect 12 0 6 0;
#X connect 12 0 5 0;
#X connect 12 0 4 0;
#X connect 12 0 3 0;
#X connect 12 0 2 0;
#X connect 12 0 1 0;
#X connect 13 0 12 0;
#X restore 137 97 pd resize_tables;
#X obj 42 38 t b f f;
#N canvas -10 69 452 340 init_tables 0;
#X obj 118 96 s table-\$0-posZ;
#X obj 118 256 s table-\$0-normalX;
#X obj 118 278 s table-\$0-normalY;
#X obj 98 16 inlet;
#X connect 3 0 2 0;
#X connect 3 0 1 0;
#X connect 3 0 0 0;
#X restore 73 343 pd init_tables;
#X msg 73 316 const 0;
#N canvas -10 69 452 340 init_tables 0;
#X obj 118 120 s table-\$0-colorR;
#X obj 118 142 s table-\$0-colorG;
#X obj 118 164 s table-\$0-colorB;
#X obj 118 186 s table-\$0-colorA;
#X obj 118 300 s table-\$0-normalZ;
#X obj 98 16 inlet;
#X connect 5 0 4 0;
#X connect 5 0 3 0;
#X connect 5 0 2 0;
#X connect 5 0 1 0;
#X connect 5 0 0 0;
#X restore 59 399 pd init_tables;
#X msg 59 372 const 1;
#X obj 141 200 until;
#X obj 201 239 f;
#X obj 264 305 + 1;
#X msg 201 191 0;
#X obj 201 354 /;
#X obj 141 152 t f b f, f 17;
#X obj 344 261 atan;
#X text 383 288 2 pi;
#X msg 344 234 1;
#X obj 344 208 loadbang;
#X obj 201 381 *;
#X obj 253 606 cos;
#X obj 473 614 sin;
#X obj 265 641 tabwrite table-\$0-posX;
#X obj 489 641 tabwrite table-\$0-posY;
#X obj 201 268 t f f;
#X obj 253 672 + 1;
#X obj 253 695 / 2;
#X obj 450 544 f;
#X obj 473 670 + 1;
#X obj 473 693 / 2;
#X obj 42 459 t b b;
#X msg 42 510 0;
#X msg 74 484 0;
#X obj 344 287 * 8;
#X obj 253 723 tabwrite table-\$0-textureU;
#X obj 473 720 tabwrite table-\$0-textureV;
#X connect 0 0 3 0;
#X connect 1 0 2 0;
#X connect 3 0 5 0;
#X connect 3 0 7 0;
#X connect 3 0 29 0;
#X connect 3 1 13 0;
#X connect 3 2 1 0;
#X connect 5 0 4 0;
#X connect 7 0 6 0;
#X connect 8 0 9 0;
#X connect 9 0 23 0;
#X connect 10 0 9 1;
#X connect 10 0 26 0;
#X connect 11 0 9 0;
#X connect 12 0 18 0;
#X connect 13 0 8 0;
#X connect 13 1 11 0;
#X connect 13 2 12 1;
#X connect 14 0 32 0;
#X connect 16 0 14 0;
#X connect 17 0 16 0;
#X connect 18 0 19 0;
#X connect 18 0 20 0;
#X connect 19 0 21 0;
#X connect 19 0 24 0;
#X connect 20 0 22 0;
#X connect 20 0 27 0;
#X connect 23 0 12 0;
#X connect 23 1 10 0;
#X connect 24 0 25 0;
#X connect 25 0 33 0;
#X connect 26 0 21 1;
#X connect 26 0 22 1;
#X connect 26 0 33 1;
#X connect 26 0 34 1;
#X connect 27 0 28 0;
#X connect 28 0 34 0;
#X connect 29 0 30 0;
#X connect 29 1 31 0;
#X connect 30 0 21 0;
#X connect 30 0 24 0;
#X connect 30 0 22 0;
#X connect 30 0 27 0;
#X connect 31 0 26 0;
#X connect 32 0 18 1;
#X restore 437 186 pd resolution;
#X msg 1063 486 draw trifan;
#X msg 78 662 resize \$1;
#X obj 217 9 bng 20 250 50 0 empty empty empty 0 -10 0 12 #fcfcfc #000000 #000000;
#X obj 77 635 + 2;
#X msg 960 487 draw linestrip;
#X text 252 823 TODO : lis render is not good.;
#X obj 34 721 gemvertexbuffer \; draw trifan \;;
#X connect 0 0 62 0;
#X connect 1 0 53 0;
#X connect 2 0 53 0;
#X connect 5 0 44 0;
#X connect 6 0 4 0;
#X connect 7 1 6 0;
#X connect 8 0 9 0;
#X connect 8 1 14 0;
#X connect 8 2 13 0;
#X connect 8 3 12 0;
#X connect 9 0 10 0;
#X connect 11 0 27 0;
#X connect 12 0 17 0;
#X connect 13 0 16 0;
#X connect 14 0 15 0;
#X connect 18 0 8 0;
#X connect 18 0 20 0;
#X connect 18 1 49 0;
#X connect 19 0 62 0;
#X connect 20 0 23 0;
#X connect 23 0 19 0;
#X connect 24 0 46 0;
#X connect 25 0 23 0;
#X connect 26 0 24 0;
#X connect 27 0 1 0;
#X connect 27 0 24 0;
#X connect 27 1 30 0;
#X connect 27 1 54 0;
#X connect 28 0 29 0;
#X connect 28 1 7 0;
#X connect 28 2 5 0;
#X connect 29 0 20 0;
#X connect 30 0 53 0;
#X connect 44 0 45 0;
#X connect 45 0 4 1;
#X connect 46 0 62 0;
#X connect 49 0 51 0;
#X connect 49 1 50 0;
#X connect 50 0 62 0;
#X connect 51 0 52 0;
#X connect 51 1 52 0;
#X connect 51 2 60 0;
#X connect 51 3 60 0;
#X connect 51 4 56 0;
#X connect 51 5 56 0;
#X connect 52 0 50 0;
#X connect 53 0 28 0;
#X connect 53 1 55 0;
#X connect 53 1 59 0;
#X connect 53 2 18 0;
#X connect 54 0 53 0;
#X connect 56 0 50 0;
#X connect 57 0 62 0;
#X connect 58 0 27 0;
#X connect 59 0 57 0;
#X connect 60 0 50 0;
#X connect 62 0 43 0;
