#N canvas 270 128 1539 677 12;
#X obj 34 27 inlet;
#X obj 231 85 gemargs;
#X obj 314 30 inlet;
#X msg 346 218 resize \$1;
#X text 481 155 forward to the corresponding table, f 21;
#X obj 470 318 send;
#X obj 544 204 list split 1;
#X obj 470 231 list trim;
#X obj 58 83 table table-\$0-posX;
#X obj 58 105 table table-\$0-posY;
#X obj 58 127 table table-\$0-posZ;
#X obj 58 152 table table-\$0-colorR;
#X obj 58 174 table table-\$0-colorG;
#X obj 58 196 table table-\$0-colorB;
#X obj 58 218 table table-\$0-colorA;
#X obj 430 206 list split 1;
#X obj 653 221 unpack f f f f;
#X msg 653 387 const \$1;
#X obj 653 410 s table-\$0-colorR;
#X obj 231 21 loadbang;
#X msg 748 248 const \$1;
#X msg 716 294 const \$1;
#X msg 684 341 const \$1;
#X obj 684 364 s table-\$0-colorG;
#X obj 716 317 s table-\$0-colorB;
#X obj 748 271 s table-\$0-colorA;
#X obj 653 128 route color;
#X obj 920 126 route pos;
#X msg 552 505 color table-\$1-colorR table-\$1-colorG table-\$1-colorB table-\$1-colorA, f 39;
#X obj 552 446 delay 0;
#X obj 854 445 delay 0;
#X text 920 452 delay is here to limit the update rate of thevertex buffer once per input message, f 42;
#X text 664 153 RGB or RGBA value;
#X text 937 156 point number \, X Y Z position;
#X msg 854 504 position table-\$1-posX table-\$1-posY table-\$1-posZ, f 39;
#X obj 552 475 \$0;
#X obj 854 474 \$0;
#X obj 587 475 bng 20 250 50 0 empty empty empty 0 -10 0 12 #fcfcfc #000000 #000000;
#X obj 886 472 bng 20 250 50 0 empty empty empty 0 -10 0 12 #fcfcfc #000000 #000000;
#X obj 231 48 t b b;
#X obj 920 272 unpack f f f f;
#X obj 920 222 t a a;
#X msg 1166 269 \$1;
#X obj 951 310 tabwrite table-\$0-posX;
#X obj 1015 359 tabwrite table-\$0-posZ;
#X obj 983 334 tabwrite table-\$0-posY;
#X obj 314 122 route res table, f 27;
#X obj 407 155 t b a a;
#X obj 407 400 b;
#X obj 314 189 t b f;
#X obj 58 243 table table-\$0-textureU;
#X obj 58 265 table table-\$0-textureV;
#X obj 58 290 table table-\$0-normalX;
#X obj 58 312 table table-\$0-normalY;
#X obj 58 334 table table-\$0-normalZ;
#X obj 34 661 outlet;
#X obj 544 250 list prepend \$0;
#X msg 544 273 symbol table-\$1-\$2;
#N canvas -8 18 452 340 send_tables 0;
#X obj 118 52 s table-\$0-posX;
#X obj 118 74 s table-\$0-posY;
#X obj 118 96 s table-\$0-posZ;
#X obj 118 120 s table-\$0-colorR;
#X obj 118 142 s table-\$0-colorG;
#X obj 118 164 s table-\$0-colorB;
#X obj 118 186 s table-\$0-colorA;
#X obj 118 209 s table-\$0-textureU;
#X obj 118 231 s table-\$0-textureV;
#X obj 118 256 s table-\$0-normalX;
#X obj 118 278 s table-\$0-normalY;
#X obj 118 300 s table-\$0-normalZ;
#X obj 98 16 inlet;
#X connect 12 0 0 0;
#X connect 12 0 11 0;
#X connect 12 0 10 0;
#X connect 12 0 9 0;
#X connect 12 0 8 0;
#X connect 12 0 7 0;
#X connect 12 0 6 0;
#X connect 12 0 5 0;
#X connect 12 0 4 0;
#X connect 12 0 3 0;
#X connect 12 0 2 0;
#X connect 12 0 1 0;
#X restore 275 364 pd send_tables;
#X obj 314 161 f;
#X msg 330 77 res 2 \, color 1 1 1 1 \, pos 0 0 0 0 \, pos 1 1 0 0;
#X obj 198 45 bng 20 250 50 0 empty empty empty 0 -10 0 12 #fcfcfc #000000 #000000;
#X floatatom 363 191 5 0 0 0 - - - 0;
#X obj 34 611 gemvertexbuffer \; draw linestrip \;;
#X obj 1231 121 route draw;
#X obj 1231 207 route line lines point points;
#X msg 1231 241 draw linestrip;
#X msg 1330 279 draw point;
#X obj 1241 349 print error : not a valid drawing type;
#X obj 1231 520 t a;
#X connect 0 0 63 0;
#X connect 1 0 46 0;
#X connect 1 1 59 0;
#X connect 2 0 46 0;
#X connect 3 0 58 0;
#X connect 3 0 63 0;
#X connect 6 0 56 0;
#X connect 7 0 5 0;
#X connect 15 1 7 0;
#X connect 16 0 17 0;
#X connect 16 1 22 0;
#X connect 16 2 21 0;
#X connect 16 3 20 0;
#X connect 17 0 18 0;
#X connect 19 0 39 0;
#X connect 20 0 25 0;
#X connect 21 0 24 0;
#X connect 22 0 23 0;
#X connect 26 0 16 0;
#X connect 26 0 29 0;
#X connect 26 1 27 0;
#X connect 27 0 30 0;
#X connect 27 0 41 0;
#X connect 27 1 64 0;
#X connect 28 0 63 0;
#X connect 29 0 35 0;
#X connect 30 0 36 0;
#X connect 34 0 63 0;
#X connect 35 0 28 0;
#X connect 36 0 34 0;
#X connect 37 0 35 0;
#X connect 38 0 36 0;
#X connect 39 0 1 0;
#X connect 39 1 60 0;
#X connect 40 1 43 0;
#X connect 40 2 45 0;
#X connect 40 3 44 0;
#X connect 41 0 40 0;
#X connect 41 1 42 0;
#X connect 42 0 44 1;
#X connect 42 0 45 1;
#X connect 42 0 43 1;
#X connect 46 0 59 0;
#X connect 46 1 47 0;
#X connect 46 2 26 0;
#X connect 47 0 48 0;
#X connect 47 1 15 0;
#X connect 47 2 6 0;
#X connect 48 0 29 0;
#X connect 48 0 30 0;
#X connect 49 0 48 0;
#X connect 49 1 3 0;
#X connect 56 0 57 0;
#X connect 57 0 5 1;
#X connect 59 0 49 0;
#X connect 59 0 62 0;
#X connect 60 0 46 0;
#X connect 61 0 1 0;
#X connect 63 0 55 0;
#X connect 64 0 65 0;
#X connect 64 1 63 0;
#X connect 65 0 66 0;
#X connect 65 1 66 0;
#X connect 65 2 67 0;
#X connect 65 3 67 0;
#X connect 65 4 68 0;
#X connect 66 0 69 0;
#X connect 67 0 69 0;
#X connect 69 0 63 0;
