#N canvas 495 59 1210 853 12;
#X obj 34 27 inlet;
#X obj 276 113 gemargs;
#X obj 344 30 inlet;
#X text 418 245 forward to the corresponding table, f 21;
#X obj 407 380 send;
#X obj 481 294 list split 1;
#X obj 407 321 list trim;
#X obj 367 296 list split 1;
#X obj 683 251 unpack f f f f;
#X msg 683 417 const \$1;
#X obj 683 440 s table-\$0-colorR;
#X obj 261 21 loadbang;
#X msg 778 278 const \$1;
#X msg 746 324 const \$1;
#X msg 714 371 const \$1;
#X obj 714 394 s table-\$0-colorG;
#X obj 746 347 s table-\$0-colorB;
#X obj 778 301 s table-\$0-colorA;
#X obj 683 188 route color;
#X msg 344 535 color table-\$1-colorR table-\$1-colorG table-\$1-colorB table-\$1-colorA, f 39;
#X obj 344 476 delay 0;
#X text 426 479 delay is here to limit the update rate of thevertex buffer once per input message, f 45;
#X text 694 213 RGB or RGBA value;
#X obj 344 505 \$0;
#X obj 261 614 \$0;
#X obj 379 505 bng 20 250 50 0 empty empty empty 0 -10 0 12 #fcfcfc #000000 #000000;
#X obj 293 612 bng 20 250 50 0 empty empty empty 0 -10 0 12 #fcfcfc #000000 #000000;
#X obj 261 48 t b b;
#X obj 344 245 t b a a;
#X obj 344 430 b;
#X msg 365 116 color 1 1 1 1;
#X obj 58 83 table table-\$0-posX 4;
#X obj 58 105 table table-\$0-posY 4;
#X obj 58 127 table table-\$0-posZ 4;
#X obj 58 152 table table-\$0-colorR 4;
#X obj 58 174 table table-\$0-colorG 4;
#X obj 58 196 table table-\$0-colorB 4;
#X obj 58 218 table table-\$0-colorA 4;
#X obj 58 243 table table-\$0-textureU 4;
#X obj 58 265 table table-\$0-textureV 4;
#X obj 58 290 table table-\$0-normalX 4;
#X obj 58 312 table table-\$0-normalY 4;
#X obj 58 334 table table-\$0-normalZ 4;
#X obj 34 775 outlet;
#X obj 481 318 list prepend \$0;
#X msg 481 341 symbol table-\$1-\$2;
#X msg 261 644 position table-\$1-posX table-\$1-posY table-\$1-posZ \, texture table-\$1-textureU table-\$1-textureV \, normal table-\$1-normalX table-\$1-normalY table-\$1-normalZ;
#X text 257 722 TODO : for rectangle texturing \, the textureU table must be multiply by the image size X \, and textureV table must be multiply by the image size Y;
#X obj 866 419 route draw;
#X obj 866 677 t a;
#X obj 866 445 route point points line lines fill;
#X msg 866 486 draw point;
#X obj 344 152 route table res, f 27;
#N canvas 50 72 1769 922 resolution 0;
#X obj 42 10 inlet;
#N canvas 996 329 481 444 resize_tables 0;
#X obj 128 189 s table-\$0-posX;
#X obj 128 211 s table-\$0-posY;
#X obj 128 233 s table-\$0-posZ;
#X obj 128 257 s table-\$0-colorR;
#X obj 128 279 s table-\$0-colorG;
#X obj 128 301 s table-\$0-colorB;
#X obj 128 323 s table-\$0-colorA;
#X obj 128 346 s table-\$0-textureU;
#X obj 128 368 s table-\$0-textureV;
#X obj 128 393 s table-\$0-normalX;
#X obj 128 415 s table-\$0-normalY;
#X obj 128 437 s table-\$0-normalZ;
#X msg 90 134 resize \$1;
#X obj 90 23 inlet;
#X obj 90 50 t f f;
#X obj 90 77 *;
#X obj 90 104 * 6;
#X connect 12 0 0 0;
#X connect 12 0 11 0;
#X connect 12 0 10 0;
#X connect 12 0 9 0;
#X connect 12 0 8 0;
#X connect 12 0 7 0;
#X connect 12 0 6 0;
#X connect 12 0 5 0;
#X connect 12 0 4 0;
#X connect 12 0 3 0;
#X connect 12 0 2 0;
#X connect 12 0 1 0;
#X connect 13 0 14 0;
#X connect 14 0 15 0;
#X connect 14 1 15 1;
#X connect 15 0 16 0;
#X connect 16 0 12 0;
#X restore 143 89 pd resize_tables;
#X obj 42 58 t b f f;
#N canvas -10 69 452 340 init_tables 0;
#X obj 118 96 s table-\$0-posZ;
#X obj 118 256 s table-\$0-normalX;
#X obj 118 278 s table-\$0-normalY;
#X obj 98 16 inlet;
#X connect 3 0 2 0;
#X connect 3 0 1 0;
#X connect 3 0 0 0;
#X restore 54 156 pd init_tables;
#X msg 54 129 const 0;
#N canvas -10 69 452 340 init_tables 0;
#X obj 118 120 s table-\$0-colorR;
#X obj 118 142 s table-\$0-colorG;
#X obj 118 164 s table-\$0-colorB;
#X obj 118 186 s table-\$0-colorA;
#X obj 118 300 s table-\$0-normalZ;
#X obj 98 16 inlet;
#X connect 5 0 4 0;
#X connect 5 0 3 0;
#X connect 5 0 2 0;
#X connect 5 0 1 0;
#X connect 5 0 0 0;
#X restore 42 212 pd init_tables;
#X msg 42 185 const 1;
#X obj 193 163 until;
#X obj 233 191 f;
#X obj 296 254 + 1;
#X msg 251 164 0;
#X obj 193 135 t f b f, f 17;
#X obj 274 802 tabwrite table-\$0-posX;
#X obj 481 801 tabwrite table-\$0-posY;
#X obj 233 217 t f f;
#X obj 632 736 f;
#X obj 233 342 until;
#X obj 273 370 f;
#X obj 322 422 + 1;
#X msg 291 343 0;
#X obj 233 314 t f b f, f 17;
#X obj 233 288 f;
#X obj 233 263 t b f;
#X obj 273 584 /;
#X obj 304 584 /;
#X obj 379 584 /;
#X obj 419 584 /;
#X obj 379 560 + 1;
#X obj 485 585 /;
#X obj 525 584 /;
#X obj 591 584 /;
#X obj 631 584 /;
#X obj 485 561 + 1;
#X obj 525 560 + 1;
#X obj 274 776 - 1;
#X obj 273 678 pack f f f;
#X obj 273 716 unpack f f f;
#X obj 474 640 + 1;
#X obj 580 639 + 2;
#X obj 686 638 + 3;
#X obj 499 363 *;
#X obj 273 396 t f f f;
#X obj 481 390 +;
#X obj 273 450 pack f f f f, f 30;
#X obj 273 536 unpack f f f f;
#X obj 379 536 unpack f f f f;
#X obj 485 536 unpack f f f f;
#X obj 591 536 unpack f f f f;
#X obj 411 232 f;
#X obj 42 34 f 5;
#X obj 274 753 * 2;
#X obj 481 754 * -2;
#X obj 481 777 + 1;
#X obj 1337 762 f;
#X obj 946 833 tabwrite table-\$0-textureU;
#X obj 1158 837 tabwrite table-\$0-textureV;
#X obj 946 583 /;
#X obj 977 583 /;
#X obj 1052 583 /;
#X obj 1092 583 /;
#X obj 1052 559 + 1;
#X obj 1158 584 /;
#X obj 1198 583 /;
#X obj 1264 583 /;
#X obj 1304 583 /;
#X obj 1158 560 + 1;
#X obj 1198 559 + 1;
#X obj 946 677 pack f f f;
#X obj 946 715 unpack f f f;
#X obj 1147 639 + 1;
#X obj 1253 638 + 2;
#X obj 1359 637 + 3;
#X obj 946 535 unpack f f f f;
#X obj 1052 535 unpack f f f f;
#X obj 1158 535 unpack f f f f;
#X obj 1264 535 unpack f f f f;
#X obj 946 388 unpack f f f f, f 24;
#X obj 946 460 pack f f f f, f 25;
#X obj 946 424 + 0.5;
#X obj 1001 424 + 0.5;
#X obj 1056 424 + 1;
#X obj 481 416 * 6;
#X obj 273 494 t a a a a a a, f 76;
#X obj 700 584 /;
#X obj 740 583 /;
#X obj 806 583 /;
#X obj 846 583 /;
#X obj 700 560 + 1;
#X obj 740 559 + 1;
#X obj 846 559 + 1;
#X obj 700 535 unpack f f f f;
#X obj 806 535 unpack f f f f;
#X obj 795 638 + 4;
#X obj 901 637 + 5;
#X obj 1374 584 /;
#X obj 1414 583 /;
#X obj 1480 583 /;
#X obj 1520 583 /;
#X obj 1374 560 + 1;
#X obj 1414 559 + 1;
#X obj 1520 559 + 1;
#X obj 1374 535 unpack f f f f;
#X obj 1480 535 unpack f f f f;
#X obj 946 493 t a a a a a a, f 77;
#X obj 1469 638 + 4;
#X obj 1575 637 + 5;
#X connect 0 0 49 0;
#X connect 2 0 4 0;
#X connect 2 0 6 0;
#X connect 2 1 11 0;
#X connect 2 2 1 0;
#X connect 2 2 48 0;
#X connect 4 0 3 0;
#X connect 6 0 5 0;
#X connect 7 0 8 0;
#X connect 8 0 14 0;
#X connect 9 0 8 1;
#X connect 10 0 8 1;
#X connect 11 0 7 0;
#X connect 11 1 10 0;
#X connect 11 2 21 1;
#X connect 11 2 40 1;
#X connect 14 0 22 0;
#X connect 14 1 9 0;
#X connect 15 0 12 1;
#X connect 15 0 13 1;
#X connect 16 0 17 0;
#X connect 17 0 41 0;
#X connect 18 0 17 1;
#X connect 19 0 17 1;
#X connect 20 0 16 0;
#X connect 20 1 19 0;
#X connect 21 0 20 0;
#X connect 22 0 21 0;
#X connect 22 1 40 0;
#X connect 22 1 43 1;
#X connect 23 0 35 0;
#X connect 24 0 35 1;
#X connect 25 0 35 0;
#X connect 26 0 35 1;
#X connect 27 0 25 0;
#X connect 28 0 35 0;
#X connect 29 0 35 1;
#X connect 30 0 35 0;
#X connect 31 0 35 1;
#X connect 32 0 28 0;
#X connect 33 0 29 0;
#X connect 34 0 12 0;
#X connect 35 0 36 0;
#X connect 36 0 50 0;
#X connect 36 1 51 0;
#X connect 36 2 15 0;
#X connect 37 0 35 2;
#X connect 38 0 35 2;
#X connect 39 0 35 2;
#X connect 40 0 42 1;
#X connect 41 0 43 0;
#X connect 41 1 18 0;
#X connect 41 2 42 0;
#X connect 42 0 81 0;
#X connect 43 0 76 0;
#X connect 43 0 82 0;
#X connect 44 0 23 0;
#X connect 44 1 24 0;
#X connect 44 2 23 1;
#X connect 44 2 24 1;
#X connect 44 3 35 2;
#X connect 45 0 27 0;
#X connect 45 1 26 0;
#X connect 45 2 25 1;
#X connect 45 2 26 1;
#X connect 45 3 37 0;
#X connect 46 0 32 0;
#X connect 46 1 33 0;
#X connect 46 2 28 1;
#X connect 46 2 29 1;
#X connect 46 3 38 0;
#X connect 47 0 30 0;
#X connect 47 1 31 0;
#X connect 47 2 30 1;
#X connect 47 2 31 1;
#X connect 47 3 39 0;
#X connect 48 0 43 2;
#X connect 49 0 2 0;
#X connect 50 0 34 0;
#X connect 51 0 52 0;
#X connect 52 0 13 0;
#X connect 53 0 54 1;
#X connect 53 0 55 1;
#X connect 56 0 67 0;
#X connect 57 0 67 1;
#X connect 58 0 67 0;
#X connect 59 0 67 1;
#X connect 60 0 58 0;
#X connect 61 0 67 0;
#X connect 62 0 67 1;
#X connect 63 0 67 0;
#X connect 64 0 67 1;
#X connect 65 0 61 0;
#X connect 66 0 62 0;
#X connect 67 0 68 0;
#X connect 68 0 54 0;
#X connect 68 1 55 0;
#X connect 68 2 53 0;
#X connect 69 0 67 2;
#X connect 70 0 67 2;
#X connect 71 0 67 2;
#X connect 72 0 56 0;
#X connect 72 1 57 0;
#X connect 72 2 56 1;
#X connect 72 2 57 1;
#X connect 72 3 67 2;
#X connect 73 0 60 0;
#X connect 73 1 59 0;
#X connect 73 2 58 1;
#X connect 73 2 59 1;
#X connect 73 3 69 0;
#X connect 74 0 65 0;
#X connect 74 1 66 0;
#X connect 74 2 61 1;
#X connect 74 2 62 1;
#X connect 74 3 70 0;
#X connect 75 0 63 0;
#X connect 75 1 64 0;
#X connect 75 2 63 1;
#X connect 75 2 64 1;
#X connect 75 3 71 0;
#X connect 76 0 78 0;
#X connect 76 1 79 0;
#X connect 76 2 80 0;
#X connect 76 3 77 3;
#X connect 77 0 103 0;
#X connect 78 0 77 0;
#X connect 79 0 77 1;
#X connect 80 0 77 2;
#X connect 81 0 43 3;
#X connect 82 0 44 0;
#X connect 82 1 45 0;
#X connect 82 2 46 0;
#X connect 82 3 47 0;
#X connect 82 4 90 0;
#X connect 82 5 91 0;
#X connect 83 0 35 0;
#X connect 84 0 35 1;
#X connect 85 0 35 0;
#X connect 86 0 35 1;
#X connect 87 0 83 0;
#X connect 88 0 84 0;
#X connect 89 0 86 0;
#X connect 90 0 87 0;
#X connect 90 1 88 0;
#X connect 90 2 83 1;
#X connect 90 2 84 1;
#X connect 90 3 92 0;
#X connect 91 0 85 0;
#X connect 91 1 89 0;
#X connect 91 2 85 1;
#X connect 91 2 86 1;
#X connect 91 3 93 0;
#X connect 92 0 35 2;
#X connect 93 0 35 2;
#X connect 94 0 67 0;
#X connect 95 0 67 1;
#X connect 96 0 67 0;
#X connect 97 0 67 1;
#X connect 98 0 94 0;
#X connect 99 0 95 0;
#X connect 100 0 97 0;
#X connect 101 0 98 0;
#X connect 101 1 99 0;
#X connect 101 2 94 1;
#X connect 101 2 95 1;
#X connect 101 3 104 0;
#X connect 102 0 96 0;
#X connect 102 1 100 0;
#X connect 102 2 96 1;
#X connect 102 2 97 1;
#X connect 102 3 105 0;
#X connect 103 0 72 0;
#X connect 103 1 73 0;
#X connect 103 2 74 0;
#X connect 103 3 75 0;
#X connect 103 4 101 0;
#X connect 103 5 102 0;
#X connect 104 0 67 2;
#X connect 105 0 67 2;
#X restore 437 186 pd resolution;
#X msg 1063 486 draw trifan;
#X msg 74 662 resize \$1;
#X obj 217 9 bng 20 250 50 0 empty empty empty 0 -10 0 12 #fcfcfc #000000 #000000;
#X msg 960 487 draw linestrip;
#X obj 74 605 *;
#X obj 74 576 t f f;
#X text 259 786 TODO : draw line did not work correctly;
#X obj 34 721 gemvertexbuffer \; draw tri \;;
#X obj 74 633 * 6;
#X connect 0 0 61 0;
#X connect 1 0 52 0;
#X connect 1 1 53 0;
#X connect 2 0 52 0;
#X connect 5 0 44 0;
#X connect 6 0 4 0;
#X connect 7 1 6 0;
#X connect 8 0 9 0;
#X connect 8 1 14 0;
#X connect 8 2 13 0;
#X connect 8 3 12 0;
#X connect 9 0 10 0;
#X connect 11 0 27 0;
#X connect 12 0 17 0;
#X connect 13 0 16 0;
#X connect 14 0 15 0;
#X connect 18 0 8 0;
#X connect 18 0 20 0;
#X connect 18 1 48 0;
#X connect 19 0 61 0;
#X connect 20 0 23 0;
#X connect 23 0 19 0;
#X connect 24 0 46 0;
#X connect 25 0 23 0;
#X connect 26 0 24 0;
#X connect 27 0 1 0;
#X connect 27 0 24 0;
#X connect 27 1 30 0;
#X connect 28 0 29 0;
#X connect 28 1 7 0;
#X connect 28 2 5 0;
#X connect 29 0 20 0;
#X connect 30 0 52 0;
#X connect 44 0 45 0;
#X connect 45 0 4 1;
#X connect 46 0 61 0;
#X connect 48 0 50 0;
#X connect 48 1 49 0;
#X connect 49 0 61 0;
#X connect 50 0 51 0;
#X connect 50 1 51 0;
#X connect 50 2 57 0;
#X connect 50 3 57 0;
#X connect 50 4 54 0;
#X connect 50 5 54 0;
#X connect 51 0 49 0;
#X connect 52 0 28 0;
#X connect 52 1 53 0;
#X connect 52 1 59 0;
#X connect 52 2 18 0;
#X connect 54 0 49 0;
#X connect 55 0 61 0;
#X connect 56 0 27 0;
#X connect 57 0 49 0;
#X connect 58 0 62 0;
#X connect 59 0 58 0;
#X connect 59 1 58 1;
#X connect 61 0 43 0;
#X connect 62 0 55 0;
