#N canvas 328 103 602 502 12;
#X floatatom 241 258 0 0 0;
#X text 172 376 click on the pix_image object to display the loaded
image with imgview;
#X obj 14 262 gemwin;
#X msg 24 74 create;
#X obj 179 199 gemhead;
#X msg 30 105 destroy;
#X msg 56 133 1;
#X msg 56 165 0;
#X obj 179 351 pix_draw;
#X text 97 126 turn rendering on and off;
#X text 91 85 create and destroy the graphics window;
#X text 196 18 display an image using pix_draw;
#X obj 179 227 pix_image ../data/dancer.JPG;
#X obj 179 309 translateXYZ;
#X floatatom 205 258 0 0 0;
#X floatatom 276 258 0 0 0;
#X text 176 177 notice that Z doesn't change the size of the image
;
#X text 62 442 On most machines \, pix_draw is MUCH slower than pix_texture.
However \, pix_draw is easier to use in an example patch.;
#N canvas 87 154 247 179 Gem.init 0;
#X obj 118 46 loadbang;
#X msg 118 81 reset;
#X obj 118 113 outlet;
#X connect 0 0 1 0;
#X connect 1 0 2 0;
#X restore 39 232 pd Gem.init;
#X connect 0 0 13 2;
#X connect 3 0 2 0;
#X connect 4 0 12 0;
#X connect 5 0 2 0;
#X connect 6 0 2 0;
#X connect 7 0 2 0;
#X connect 12 0 13 0;
#X connect 13 0 8 0;
#X connect 14 0 13 1;
#X connect 15 0 13 3;
#X connect 18 0 2 0;
