#N canvas 351 48 602 502 12;
#X msg 385 220 1;
#X msg 385 252 0;
#X obj 36 301 gemwin;
#X msg 46 112 create;
#X obj 318 250 gemhead;
#X msg 52 143 destroy;
#X msg 54 220 1;
#X msg 54 252 0;
#X obj 318 363 pix_draw;
#X text 93 224 turn rendering on and off;
#X text 26 89 create and destroy the graphics window;
#X msg 384 183 2;
#X text 246 154 select one of the three images to display;
#X text 154 29 display images use pix_multiimage;
#X obj 318 305 pix_multiimage ../data/temp*.JPG 2;
#N canvas 87 154 247 179 Gem.init 0;
#X obj 118 46 loadbang;
#X msg 118 81 reset;
#X obj 118 113 outlet;
#X connect 0 0 1 0;
#X connect 1 0 2 0;
#X restore 95 271 pd Gem.init;
#X connect 0 0 14 1;
#X connect 1 0 14 1;
#X connect 3 0 2 0;
#X connect 4 0 14 0;
#X connect 5 0 2 0;
#X connect 6 0 2 0;
#X connect 7 0 2 0;
#X connect 11 0 14 1;
#X connect 14 0 8 0;
#X connect 15 0 2 0;
