#N canvas 191 104 724 558 12;
#X obj 42 157 gemwin;
#X msg 51 32 1;
#X msg 59 68 0;
#X msg 101 41 create;
#X msg 102 87 destroy;
#X obj 223 139 gemhead;
#X floatatom 462 173 0 0 0 0 - - -;
#X obj 223 391 rotateXYZ;
#X obj 223 443 cube;
#X floatatom 290 365 0 0 0 0 - - -;
#X obj 290 316 metro 50;
#X obj 269 418 translateXYZ 2 1 0;
#X obj 269 444 cube;
#X obj 223 207 pix_movie;
#X text 503 173 control which frame;
#X text 322 442 automatically textures;
#X obj 296 236 print frames;
#X msg 223 15 open ../data/homer.avi;
#X obj 290 296 tgl 15 0 empty empty empty 20 8 0 8 -262144 -1 -1 0
1;
#X obj 450 281 print done;
#X msg 462 101 auto \$1;
#X obj 462 82 tgl 15 0 empty empty empty 20 8 0 8 -262144 -1 -1 0 1
;
#X text 43 486 the texturing is done automatically: there is no need
to care for the image-size (it doesn't have to be a power of 2). on
the other hand \, you cannot do image-processing !! use [pix_film]
for this;
#X msg 450 258 reached the end !!!;
#X obj 410 233 t f b;
#X text 385 -1 Win32;
#X text 405 86 linux;
#X msg 233 58 open ../data/anim-1.mov;
#X msg 243 104 open ../data/alea.mpg;
#X text 5 268 notice: you don't need pix_texture;
#X text 532 97 play the movie !;
#N canvas 87 154 247 179 Gem.init 0;
#X obj 118 46 loadbang;
#X msg 118 81 reset;
#X obj 118 113 outlet;
#X connect 0 0 1 0;
#X connect 1 0 2 0;
#X restore 83 133 pd Gem.init;
#X obj 290 341 i;
#X obj 325 341 + 1;
#X obj 361 341 % 360;
#X text 406 41 apple;
#X obj 462 125 tgl 15 0 empty empty empty 0 -6 0 8 -262144 -1 -1 0
1;
#X msg 462 144 mode \$1;
#X text 524 138 change texture mode;
#X connect 1 0 0 0;
#X connect 2 0 0 0;
#X connect 3 0 0 0;
#X connect 4 0 0 0;
#X connect 5 0 13 0;
#X connect 6 0 13 1;
#X connect 7 0 8 0;
#X connect 7 0 11 0;
#X connect 9 0 7 2;
#X connect 9 0 7 3;
#X connect 10 0 32 0;
#X connect 11 0 12 0;
#X connect 13 0 7 0;
#X connect 13 1 16 0;
#X connect 13 2 24 0;
#X connect 17 0 13 0;
#X connect 18 0 10 0;
#X connect 20 0 13 0;
#X connect 21 0 20 0;
#X connect 23 0 19 0;
#X connect 24 0 13 1;
#X connect 24 1 23 0;
#X connect 27 0 13 0;
#X connect 28 0 13 0;
#X connect 31 0 0 0;
#X connect 32 0 33 0;
#X connect 32 0 9 0;
#X connect 33 0 34 0;
#X connect 34 0 32 1;
#X connect 36 0 37 0;
#X connect 37 0 13 0;
