#N canvas 191 67 551 576 12;
#X obj 14 262 gemwin;
#X msg 14 74 create;
#X obj 179 199 gemhead;
#X msg 30 105 destroy;
#X msg 56 133 1;
#X msg 56 165 0;
#X text 97 126 turn rendering on and off;
#X text 91 85 create and destroy the graphics window;
#X text 196 18 display an image using pix_draw;
#X obj 179 471 pix_texture;
#X obj 179 414 pix_rectangle;
#X msg 403 396 1 0 0;
#X obj 179 227 pix_image fractal.jpg;
#X obj 179 506 square 3;
#X floatatom 369 226 0 0 0;
#X obj 317 344 pack 0 0 0 0;
#X floatatom 417 226 0 0 0;
#X obj 417 264 t b f;
#X obj 416 311 + 40;
#X obj 369 311 + 40;
#X text 373 190 the position;
#X text 462 388 the color;
#X obj 403 370 loadbang;
#X connect 1 0 0 0;
#X connect 2 0 12 0;
#X connect 3 0 0 0;
#X connect 4 0 0 0;
#X connect 5 0 0 0;
#X connect 9 0 13 0;
#X connect 10 0 9 0;
#X connect 11 0 10 2;
#X connect 12 0 10 0;
#X connect 14 0 15 0;
#X connect 14 0 19 0;
#X connect 15 0 10 1;
#X connect 16 0 17 0;
#X connect 17 0 15 0;
#X connect 17 1 15 1;
#X connect 17 1 18 0;
#X connect 18 0 15 3;
#X connect 19 0 15 2;
#X connect 22 0 11 0;
