#N canvas 114 20 635 638 12;
#X obj 14 262 gemwin;
#X msg 14 74 create;
#X obj 179 176 gemhead;
#X msg 30 105 destroy;
#X msg 56 133 1;
#X msg 56 165 0;
#X text 97 126 turn rendering on and off;
#X text 91 85 create and destroy the graphics window;
#X text 196 18 display an image using pix_draw;
#X obj 179 587 pix_texture;
#X msg 291 536 1 0 0;
#X obj 179 612 square 3;
#X floatatom 329 238 0 -10 250 0 - - -;
#X obj 420 434 t b f;
#X obj 420 408 + 40;
#X obj 342 420 + 40;
#X text 372 182 the position;
#X text 433 539 the color;
#X obj 291 513 loadbang;
#X obj 179 204 pix_image ../data/fractal.JPG;
#X obj 329 308 t f f;
#X obj 380 308 t f f;
#X text 375 241 x-pos;
#X text 423 269 y-pos;
#X floatatom 466 304 0 -50 250 0 - - -;
#X text 512 307 width;
#X text 560 335 height;
#X obj 466 374 t b f;
#X obj 517 374 t b f;
#X obj 342 443 t b f;
#X floatatom 380 271 0 -10 250 0 - - -;
#X floatatom 517 333 0 -50 250 0 - - -;
#X msg 373 538 0 1 0;
#N canvas 87 154 247 179 Gem.init 0;
#X obj 118 46 loadbang;
#X msg 118 81 reset;
#X obj 118 113 outlet;
#X connect 0 0 1 0;
#X connect 1 0 2 0;
#X restore 39 231 pd Gem.init;
#X obj 235 488 pack 0 0 40 40;
#X obj 179 561 pix_rectangle;
#X connect 1 0 0 0;
#X connect 2 0 19 0;
#X connect 3 0 0 0;
#X connect 4 0 0 0;
#X connect 5 0 0 0;
#X connect 9 0 11 0;
#X connect 10 0 35 2;
#X connect 12 0 20 0;
#X connect 13 0 34 0;
#X connect 13 1 34 3;
#X connect 14 0 13 0;
#X connect 15 0 29 0;
#X connect 18 0 10 0;
#X connect 19 0 35 0;
#X connect 20 0 34 0;
#X connect 20 1 15 0;
#X connect 21 0 14 0;
#X connect 21 1 34 1;
#X connect 24 0 27 0;
#X connect 27 0 15 0;
#X connect 27 1 15 1;
#X connect 28 0 14 0;
#X connect 28 1 14 1;
#X connect 29 0 34 0;
#X connect 29 1 34 2;
#X connect 30 0 21 0;
#X connect 31 0 28 0;
#X connect 32 0 35 2;
#X connect 33 0 0 0;
#X connect 34 0 35 1;
#X connect 35 0 9 0;
