#N canvas 280 188 754 536 10;
#X obj 143 110 gemhead;
#X obj 25 259 gemwin;
#X msg 25 110 create;
#X msg 53 142 1;
#X msg 53 172 0;
#X msg 25 208 destroy;
#X text 99 37 ========;
#X msg 149 366 quality 0;
#X obj 143 409 square 2;
#X obj 149 343 loadbang;
#X text 101 487 maybe have a look at;
#X text 101 24 pix_set;
#X text 246 23 set the pixles of the image;
#X msg 279 165 rgb;
#X msg 279 141 rgba;
#X msg 279 189 grey;
#X msg 229 108 0 0.8 0 0 0.9 0 0.1 0 1 1 1 10;
#X msg 268 227 set 2 4;
#X text 461 109 a list of pixel-values;
#X text 331 163 interpret the list as;
#X text 514 136 r1 g1 b1 a1 r2 g2 b2 a2 r3...;
#X text 512 165 r1 g1 b1 r2 g2 b2 r3...;
#X text 512 194 grey1 grey2 grey3...;
#X text 507 236 set the imagesize to "X Y";
#X text 306 317 creation arguments :: [X Y] of the image buffer;
#X msg 265 249 set 1 1;
#X text 253 487 [pix_dump];
#X obj 143 243 pix_set 64 64;
#X obj 143 387 pix_texture;
#X connect 0 0 27 0;
#X connect 2 0 1 0;
#X connect 3 0 1 0;
#X connect 4 0 1 0;
#X connect 5 0 1 0;
#X connect 7 0 28 0;
#X connect 9 0 7 0;
#X connect 13 0 27 0;
#X connect 14 0 27 0;
#X connect 15 0 27 0;
#X connect 16 0 27 1;
#X connect 17 0 27 0;
#X connect 25 0 27 0;
#X connect 27 0 28 0;
#X connect 28 0 8 0;
