#N canvas 466 19 761 536 10;
#X obj 143 110 gemhead;
#X obj 25 259 gemwin;
#X msg 25 110 create;
#X msg 53 142 1;
#X msg 53 172 0;
#X msg 25 208 destroy;
#X obj 143 203 pix_dump;
#X text 101 24 pix_dump;
#X text 99 37 ========;
#X msg 369 184 bang;
#X obj 143 387 pix_texture;
#X msg 149 366 quality 0;
#X obj 143 409 square 2;
#X obj 149 343 loadbang;
#X text 412 184 trigger the pix_dump;
#X text 246 24 dump the pixles of the image;
#X obj 194 254 print dump;
#X obj 143 135 pix_image small.tif;
#X text 297 265 this produces an output like;
#X text 292 285 "r1 g1 b1 a1 r2 g2 b2 a2 r3 ...";
#X text 292 302 (r=red \; g=green \; b=blue \; a=alpha);
#X obj 474 371 repack;
#X text 278 369 maybe you would like to use;
#X text 525 373 (part of zexy);
#X text 275 389 to excerpt pixel information out of this;
#X text 101 487 maybe have a look at;
#X obj 250 487 pix_set;
#X connect 0 0 17 0;
#X connect 2 0 1 0;
#X connect 3 0 1 0;
#X connect 4 0 1 0;
#X connect 5 0 1 0;
#X connect 6 0 10 0;
#X connect 6 1 16 0;
#X connect 9 0 6 0;
#X connect 10 0 12 0;
#X connect 11 0 10 0;
#X connect 13 0 11 0;
#X connect 17 0 6 0;
