#N canvas 284 93 594 539 10;
#X obj 46 186 gemwin;
#X obj 319 173 gemhead;
#X obj 258 329 pix_data;
#X msg 244 103 1;
#X msg 243 128 0;
#X msg 113 74 create;
#X msg 114 104 destroy;
#X msg 319 143 bang;
#X msg 205 103 bang;
#X obj 205 73 t b b;
#X msg 205 44 bang;
#X obj 233 422 translateXYZ;
#X obj 233 360 gemhead;
#X obj 233 449 color;
#X obj 412 253 randF 1;
#X obj 337 253 randF 1;
#X obj 233 202 t b b b b;
#X obj 369 328 * 6;
#X obj 444 328 * 6;
#X obj 444 358 - 3;
#X obj 369 358 - 3;
#X msg 348 42 1;
#X msg 391 42 0;
#X obj 84 302 world_light;
#X obj 84 274 gemhead;
#X obj 348 93 metro 5;
#X obj 233 478 sphere 0.1;
#X text 79 13 click here to begin;
#X text 320 18 turn on/off the metro;
#X obj 319 202 pix_image ../data/fractal.JPG;
#N canvas 95 194 290 179 Gem.init 0;
#X obj 118 18 loadbang;
#X msg 201 78 reset;
#X obj 118 113 outlet;
#X obj 118 45 t b b;
#X msg 118 79 lighting 1;
#X msg 22 77 buffer 1;
#X connect 0 0 3 0;
#X connect 1 0 2 0;
#X connect 3 0 4 0;
#X connect 3 0 5 0;
#X connect 3 1 1 0;
#X connect 4 0 2 0;
#X connect 5 0 2 0;
#X restore 25 153 pd Gem.init;
#X connect 1 0 29 0;
#X connect 2 1 13 1;
#X connect 3 0 0 0;
#X connect 4 0 0 0;
#X connect 5 0 0 0;
#X connect 6 0 0 0;
#X connect 7 0 1 0;
#X connect 8 0 0 0;
#X connect 9 0 7 0;
#X connect 9 0 8 0;
#X connect 9 1 3 0;
#X connect 10 0 9 0;
#X connect 11 0 13 0;
#X connect 12 0 11 0;
#X connect 13 0 26 0;
#X connect 14 0 2 3;
#X connect 14 0 18 0;
#X connect 15 0 2 2;
#X connect 15 0 17 0;
#X connect 16 0 12 0;
#X connect 16 1 2 0;
#X connect 16 1 24 0;
#X connect 16 2 15 0;
#X connect 16 3 14 0;
#X connect 17 0 20 0;
#X connect 18 0 19 0;
#X connect 19 0 11 2;
#X connect 20 0 11 1;
#X connect 21 0 25 0;
#X connect 22 0 25 0;
#X connect 24 0 23 0;
#X connect 25 0 16 0;
#X connect 29 0 2 1;
#X connect 30 0 0 0;
