#N canvas 523 104 536 539 12;
#X obj 46 186 gemwin;
#X obj 319 173 gemhead;
#X obj 319 202 pix_image fractal.jpg;
#X obj 302 334 pix_data;
#X msg 244 103 1;
#X msg 243 128 0;
#X msg 113 74 create;
#X msg 114 104 destroy;
#X msg 25 48 buffer 1;
#X msg 319 143 bang;
#X msg 205 103 bang;
#X obj 25 22 loadbang;
#X obj 205 73 t b b;
#X msg 205 44 bang;
#X obj 233 422 translateXYZ;
#X obj 233 360 gemhead;
#X obj 233 449 color;
#X obj 395 252 randF 1;
#X obj 337 253 randF 1;
#X obj 233 202 t b b b b;
#X obj 369 328 * 6;
#X obj 427 327 * 6;
#X obj 427 357 - 3;
#X obj 369 358 - 3;
#X msg 348 42 1;
#X msg 391 42 0;
#X obj 84 302 world_light;
#X obj 84 274 gemhead;
#X msg 24 81 lighting 1;
#X obj 348 93 metro 5;
#X obj 233 478 sphere 0.1;
#X text 150 20 click here to begin;
#X text 320 18 turn on/off the metro;
#X connect 1 0 2 0;
#X connect 2 0 3 1;
#X connect 3 1 16 1;
#X connect 4 0 0 0;
#X connect 5 0 0 0;
#X connect 6 0 0 0;
#X connect 7 0 0 0;
#X connect 8 0 0 0;
#X connect 9 0 1 0;
#X connect 10 0 0 0;
#X connect 11 0 8 0;
#X connect 11 0 28 0;
#X connect 12 0 9 0;
#X connect 12 0 10 0;
#X connect 12 1 4 0;
#X connect 13 0 12 0;
#X connect 14 0 16 0;
#X connect 15 0 14 0;
#X connect 16 0 30 0;
#X connect 17 0 3 3;
#X connect 17 0 21 0;
#X connect 18 0 3 2;
#X connect 18 0 20 0;
#X connect 19 0 15 0;
#X connect 19 1 3 0;
#X connect 19 1 27 0;
#X connect 19 2 18 0;
#X connect 19 3 17 0;
#X connect 20 0 23 0;
#X connect 21 0 22 0;
#X connect 22 0 14 2;
#X connect 23 0 14 1;
#X connect 24 0 29 0;
#X connect 25 0 29 0;
#X connect 27 0 26 0;
#X connect 28 0 0 0;
#X connect 29 0 19 0;
