#N canvas 331 86 665 574 10;
#X obj 30 159 gemwin;
#X obj 372 135 gemhead;
#X obj 372 164 pix_image ../data/fractal.JPG;
#X obj 285 311 pix_data;
#X msg 183 110 1;
#X msg 218 110 0;
#X msg 48 27 create;
#X msg 49 57 destroy;
#X msg 372 105 bang;
#X msg 138 111 bang;
#X obj 214 51 t b b;
#X msg 214 16 bang;
#X obj 206 400 translateXYZ;
#X obj 206 338 gemhead;
#X obj 206 436 color;
#X obj 411 233 randF 1;
#X obj 353 231 randF 1;
#X obj 266 205 t b b b b;
#X obj 385 314 * 6;
#X obj 443 313 * 6;
#X obj 443 339 - 3;
#X obj 385 341 - 3;
#X msg 274 20 1;
#X msg 307 20 0;
#X obj 84 320 world_light;
#X obj 84 274 gemhead;
#X obj 206 471 rotate 1 1 1;
#X obj 336 397 * 90;
#X obj 292 114 metro 5;
#X obj 499 272 pix_image ../data/dancer.JPG;
#X obj 482 313 pix_data;
#X obj 499 237 gemhead;
#X obj 533 473 * 0.2;
#X obj 207 506 cube;
#N canvas 99 214 290 179 Gem.init 0;
#X obj 118 18 loadbang;
#X msg 215 80 reset;
#X obj 118 113 outlet;
#X obj 118 45 t b b;
#X msg 118 79 lighting 1;
#X msg 34 80 buffer 1;
#X connect 0 0 3 0;
#X connect 1 0 2 0;
#X connect 3 0 4 0;
#X connect 3 0 5 0;
#X connect 3 1 1 0;
#X connect 4 0 2 0;
#X connect 5 0 2 0;
#X restore 30 125 pd Gem.init;
#X connect 1 0 2 0;
#X connect 2 0 3 1;
#X connect 3 1 14 1;
#X connect 3 2 27 0;
#X connect 4 0 0 0;
#X connect 5 0 0 0;
#X connect 6 0 0 0;
#X connect 7 0 0 0;
#X connect 8 0 1 0;
#X connect 8 0 31 0;
#X connect 9 0 0 0;
#X connect 10 0 8 0;
#X connect 10 0 9 0;
#X connect 10 1 4 0;
#X connect 11 0 10 0;
#X connect 12 0 14 0;
#X connect 13 0 12 0;
#X connect 14 0 26 0;
#X connect 15 0 3 3;
#X connect 15 0 19 0;
#X connect 15 0 30 3;
#X connect 16 0 3 2;
#X connect 16 0 18 0;
#X connect 16 0 30 2;
#X connect 17 0 13 0;
#X connect 17 1 3 0;
#X connect 17 1 25 0;
#X connect 17 1 30 0;
#X connect 17 2 16 0;
#X connect 17 3 15 0;
#X connect 18 0 21 0;
#X connect 19 0 20 0;
#X connect 20 0 12 2;
#X connect 21 0 12 1;
#X connect 22 0 28 0;
#X connect 23 0 28 0;
#X connect 25 0 24 0;
#X connect 26 0 33 0;
#X connect 27 0 26 1;
#X connect 28 0 17 0;
#X connect 29 0 30 1;
#X connect 30 2 32 0;
#X connect 31 0 29 0;
#X connect 32 0 33 1;
#X connect 34 0 0 0;
