#N canvas 373 83 665 574 12;
#X obj 30 159 gemwin;
#X obj 372 135 gemhead;
#X obj 372 164 pix_image fractal.jpg;
#X obj 285 311 pix_data;
#X msg 183 110 1;
#X msg 218 110 0;
#X msg 124 29 create;
#X msg 125 59 destroy;
#X msg 25 48 buffer 1;
#X msg 372 105 bang;
#X msg 138 111 bang;
#X obj 25 22 loadbang;
#X obj 214 51 t b b;
#X msg 214 16 bang;
#X obj 206 400 translateXYZ;
#X obj 206 338 gemhead;
#X obj 206 436 color;
#X obj 411 233 randF 1;
#X obj 353 231 randF 1;
#X obj 266 205 t b b b b;
#X obj 385 314 * 6;
#X obj 443 313 * 6;
#X obj 443 339 - 3;
#X obj 385 341 - 3;
#X msg 274 20 1;
#X msg 307 20 0;
#X obj 84 320 world_light;
#X obj 84 274 gemhead;
#X msg 26 72 lighting 1;
#X obj 206 471 rotate 1 1 1;
#X obj 336 397 * 90;
#X obj 292 114 metro 5;
#X obj 499 272 pix_image dancer.jpg;
#X obj 482 313 pix_data;
#X obj 499 237 gemhead;
#X obj 533 473 * 0.2;
#X obj 207 506 cube;
#X connect 1 0 2 0;
#X connect 2 0 3 1;
#X connect 3 1 16 1;
#X connect 3 2 30 0;
#X connect 4 0 0 0;
#X connect 5 0 0 0;
#X connect 6 0 0 0;
#X connect 7 0 0 0;
#X connect 8 0 0 0;
#X connect 9 0 1 0;
#X connect 9 0 34 0;
#X connect 10 0 0 0;
#X connect 11 0 8 0;
#X connect 11 0 28 0;
#X connect 12 0 9 0;
#X connect 12 0 10 0;
#X connect 12 1 4 0;
#X connect 13 0 12 0;
#X connect 14 0 16 0;
#X connect 15 0 14 0;
#X connect 16 0 29 0;
#X connect 17 0 3 3;
#X connect 17 0 21 0;
#X connect 17 0 33 3;
#X connect 18 0 3 2;
#X connect 18 0 20 0;
#X connect 18 0 33 2;
#X connect 19 0 15 0;
#X connect 19 1 3 0;
#X connect 19 1 27 0;
#X connect 19 1 33 0;
#X connect 19 2 18 0;
#X connect 19 3 17 0;
#X connect 20 0 23 0;
#X connect 21 0 22 0;
#X connect 22 0 14 2;
#X connect 23 0 14 1;
#X connect 24 0 31 0;
#X connect 25 0 31 0;
#X connect 27 0 26 0;
#X connect 28 0 0 0;
#X connect 29 0 36 0;
#X connect 30 0 29 1;
#X connect 31 0 19 0;
#X connect 32 0 33 1;
#X connect 33 2 35 0;
#X connect 34 0 32 0;
#X connect 35 0 36 1;
