#N canvas 370 252 681 468 10;
#X obj 270 175 pix_image ../data/dancer.JPG;
#X obj 48 297 gemwin;
#X msg 129 164 create;
#X msg 138 194 destroy;
#X msg 139 222 1;
#X msg 141 255 0;
#X obj 270 392 pix_texture;
#X obj 270 433 square;
#X msg 329 414 3;
#X obj 369 209 gemhead 20;
#X obj 270 142 gemhead;
#X msg 370 141 open ../data/dancer.JPG;
#X obj 369 244 pix_image ../data/fractal.JPG;
#N canvas 91 0 290 179 Gem.init 0;
#X obj 118 46 loadbang;
#X msg 118 81 reset;
#X obj 118 113 outlet;
#X msg 17 82 dimen 400 400;
#X connect 0 0 1 0;
#X connect 0 0 3 0;
#X connect 1 0 2 0;
#X connect 3 0 2 0;
#X restore 26 265 pd Gem.init;
#X text 135 60 blending \, using he alpha-mask;
#X obj 270 332 pix_add;
#X obj 370 267 pix_yuv;
#X obj 493 317 pix_info;
#X floatatom 531 341 5 0 0;
#X obj 357 299 t a a a;
#X obj 372 359 pix_info;
#X floatatom 410 383 5 0 0;
#X connect 0 0 15 0;
#X connect 2 0 1 0;
#X connect 3 0 1 0;
#X connect 4 0 1 0;
#X connect 5 0 1 0;
#X connect 6 0 7 0;
#X connect 8 0 7 1;
#X connect 9 0 12 0;
#X connect 10 0 0 0;
#X connect 11 0 0 0;
#X connect 12 0 16 0;
#X connect 13 0 1 0;
#X connect 15 0 6 0;
#X connect 16 0 19 0;
#X connect 17 4 18 0;
#X connect 19 0 20 0;
#X connect 19 1 15 1;
#X connect 19 2 17 0;
#X connect 20 4 21 0;
