#N canvas 138 0 775 371 10;
#X obj 43 214 gemwin;
#X msg 124 81 create;
#X msg 133 111 destroy;
#X msg 134 139 1;
#X msg 136 172 0;
#X obj 254 305 pix_texture;
#X msg 43 39 dimen 400 400;
#X obj 290 112 gemhead 20;
#X obj 254 65 gemhead;
#X text 257 30 various methods for blending images;
#N canvas 155 486 561 386 blending 0;
#X obj 72 35 inlet;
#X obj 191 324 outlet;
#X obj 181 35 inlet;
#X obj 350 40 inlet;
#X obj 28 172 pix_composite;
#X obj 129 173 pix_add;
#X obj 285 172 pix_diff;
#X obj 191 172 pix_subtract;
#X obj 28 147 pix_alpha;
#N canvas 445 182 586 381 select 0;
#X obj 88 35 inlet;
#X msg 118 138 1;
#X msg 174 138 2;
#X msg 231 137 3;
#X obj 88 67 t b a;
#X msg 287 137 0;
#X obj 118 161 outlet;
#X obj 118 99 route pix_add pix_subtract pix_diff pix_composite pix_multiply
;
#X msg 359 140 4;
#X obj 88 218 s load;
#X msg 88 194 open ../data/dancer.JPG;
#X connect 0 0 4 0;
#X connect 1 0 6 0;
#X connect 2 0 6 0;
#X connect 3 0 6 0;
#X connect 4 0 10 0;
#X connect 4 1 7 0;
#X connect 5 0 6 0;
#X connect 7 0 1 0;
#X connect 7 1 2 0;
#X connect 7 2 3 0;
#X connect 7 3 5 0;
#X connect 7 4 8 0;
#X connect 8 0 6 0;
#X connect 10 0 9 0;
#X restore 350 62 pd select blending method;
#X obj 360 175 pix_multiply;
#N canvas 172 373 450 300 demux5 0;
#X obj 59 30 inlet;
#X obj 283 17 inlet;
#X obj 59 193 outlet;
#X obj 59 137 spigot;
#X obj 96 109 == 0;
#X obj 106 137 spigot;
#X obj 153 139 spigot;
#X obj 200 137 spigot;
#X obj 246 137 spigot;
#X obj 143 109 == 1;
#X obj 190 109 == 2;
#X obj 237 109 == 3;
#X obj 283 109 == 4;
#X obj 96 83 loadbang;
#X obj 59 52 t a a a a a;
#X obj 106 194 outlet;
#X obj 153 195 outlet;
#X obj 200 196 outlet;
#X obj 246 195 outlet;
#X obj 283 61 f;
#X connect 0 0 14 0;
#X connect 1 0 19 0;
#X connect 3 0 2 0;
#X connect 4 0 3 1;
#X connect 5 0 15 0;
#X connect 6 0 16 0;
#X connect 7 0 17 0;
#X connect 8 0 18 0;
#X connect 9 0 5 1;
#X connect 10 0 6 1;
#X connect 11 0 7 1;
#X connect 12 0 8 1;
#X connect 13 0 4 0;
#X connect 14 0 3 0;
#X connect 14 1 5 0;
#X connect 14 2 6 0;
#X connect 14 3 7 0;
#X connect 14 4 8 0;
#X connect 19 0 4 0;
#X connect 19 0 9 0;
#X connect 19 0 10 0;
#X connect 19 0 11 0;
#X connect 19 0 12 0;
#X restore 72 79 pd demux5;
#X connect 0 0 11 0;
#X connect 2 0 5 1;
#X connect 2 0 4 1;
#X connect 2 0 7 1;
#X connect 2 0 6 1;
#X connect 2 0 10 1;
#X connect 3 0 9 0;
#X connect 4 0 1 0;
#X connect 5 0 1 0;
#X connect 6 0 1 0;
#X connect 7 0 1 0;
#X connect 8 0 4 0;
#X connect 9 0 11 1;
#X connect 10 0 1 0;
#X connect 11 0 8 0;
#X connect 11 1 5 0;
#X connect 11 2 7 0;
#X connect 11 3 6 0;
#X connect 11 4 10 0;
#X restore 254 250 pd blending;
#X obj 254 328 square 3;
#X obj 93 214 r gem;
#X text 461 210 additive blending (likely to get white);
#X text 461 231 subtractive blending (likely to get black);
#X text 467 184 alpha blending;
#X msg 367 281 pix_multiply;
#X msg 368 256 pix_diff;
#X msg 366 232 pix_subtract;
#X msg 366 207 pix_add;
#X msg 367 184 pix_composite;
#X text 469 281 multiply 2 images together;
#X obj 254 87 pix_image ../data/dancer.JPG;
#X obj 290 136 pix_image ../data/fractal.JPG;
#X obj 381 62 r load;
#X obj 254 175 pix_alpha;
#X text 465 259 difference;
#X connect 1 0 0 0;
#X connect 2 0 0 0;
#X connect 3 0 0 0;
#X connect 4 0 0 0;
#X connect 5 0 11 0;
#X connect 6 0 0 0;
#X connect 7 0 23 0;
#X connect 8 0 22 0;
#X connect 10 0 5 0;
#X connect 12 0 0 0;
#X connect 16 0 10 2;
#X connect 17 0 10 2;
#X connect 18 0 10 2;
#X connect 19 0 10 2;
#X connect 20 0 10 2;
#X connect 22 0 25 0;
#X connect 23 0 10 1;
#X connect 24 0 22 0;
#X connect 25 0 10 0;
