#N canvas 50 16 600 500 10;
#X obj 288 247 pix_image ../data/dancer.JPG;
#X obj 270 153 gemhead;
#X obj 48 297 gemwin;
#X msg 96 134 create;
#X msg 97 160 destroy;
#X msg 150 200 1;
#X msg 154 235 0;
#X obj 270 188 pix_image ../data/fractal.JPG;
#X obj 270 338 pix_texture;
#X obj 270 379 square;
#X msg 329 360 3;
#X obj 288 214 gemhead 20;
#X obj 270 278 pix_multiply;
#X text 296 84 multiply two images together;
#X text 270 116 the dancer image is just black and white;
#X text 104 25 blending \, using multiplication;
#N canvas 91 174 290 179 Gem.init 0;
#X obj 120 25 loadbang;
#X msg 180 82 reset;
#X obj 123 148 outlet;
#X obj 115 51 t b b;
#X msg 71 83 dimen 400 400;
#X msg 71 109 color 1 1 1 0;
#X connect 0 0 3 0;
#X connect 1 0 2 0;
#X connect 3 0 4 0;
#X connect 3 0 5 0;
#X connect 3 1 1 0;
#X connect 5 0 2 0;
#X restore 95 271 pd Gem.init;
#X connect 0 0 12 1;
#X connect 1 0 7 0;
#X connect 3 0 2 0;
#X connect 4 0 2 0;
#X connect 5 0 2 0;
#X connect 6 0 2 0;
#X connect 7 0 12 0;
#X connect 8 0 9 0;
#X connect 10 0 9 1;
#X connect 11 0 0 0;
#X connect 12 0 8 0;
#X connect 16 0 2 0;
