#N canvas 740 70 600 500 10;
#X obj 288 247 pix_image ../data/dancer.JPG;
#X obj 270 153 gemhead;
#X obj 48 297 gemwin;
#X msg 32 129 create;
#X msg 97 160 destroy;
#X msg 110 192 1;
#X msg 153 257 0;
#X obj 270 188 pix_image ../data/fractal.JPG;
#X obj 270 338 pix_texture;
#X obj 270 379 square;
#X msg 329 360 3;
#X msg 86 59 dimen 400 400;
#X msg 113 99 color 1 1 1 0;
#X obj 288 214 gemhead 20;
#X obj 270 278 pix_multiply;
#X text 296 84 multiply two images together;
#X text 270 116 the dancer image is just black and white;
#X connect 0 0 14 1;
#X connect 1 0 7 0;
#X connect 3 0 2 0;
#X connect 4 0 2 0;
#X connect 5 0 2 0;
#X connect 6 0 2 0;
#X connect 7 0 14 0;
#X connect 8 0 9 0;
#X connect 10 0 9 1;
#X connect 11 0 2 0;
#X connect 12 0 2 0;
#X connect 13 0 0 0;
#X connect 14 0 8 0;
