#N canvas 4 20 600 500 10;
#X obj 270 278 pix_mask;
#X obj 288 247 pix_image ../data/dancer.JPG;
#X obj 270 153 gemhead;
#X obj 48 297 gemwin;
#X msg 41 94 create;
#X msg 41 116 destroy;
#X msg 110 192 1;
#X msg 112 223 0;
#X obj 270 312 alpha;
#X obj 270 188 pix_image ../data/fractal.JPG;
#X obj 270 338 pix_texture;
#X obj 288 214 gemhead 20;
#X obj 270 379 square 3;
#X text 234 59 blending \, using mask;
#N canvas 91 174 290 179 Gem.init 0;
#X obj 117 24 loadbang;
#X msg 193 80 reset;
#X obj 132 136 outlet;
#X obj 117 51 t b b;
#X msg 34 76 dimen 400 400;
#X msg 25 112 color 1 1 1 0;
#X connect 0 0 3 0;
#X connect 1 0 2 0;
#X connect 3 0 4 0;
#X connect 3 0 5 0;
#X connect 3 1 1 0;
#X connect 4 0 2 0;
#X connect 5 0 2 0;
#X restore 95 271 pd Gem.init;
#X connect 0 0 8 0;
#X connect 1 0 0 1;
#X connect 2 0 9 0;
#X connect 4 0 3 0;
#X connect 5 0 3 0;
#X connect 6 0 3 0;
#X connect 7 0 3 0;
#X connect 8 0 10 0;
#X connect 9 0 0 0;
#X connect 10 0 12 0;
#X connect 11 0 1 0;
#X connect 14 0 3 0;
