#N canvas 78 67 719 587 10;
#X obj 38 357 gemwin;
#X msg 75 95 create;
#X obj 332 30 gemhead;
#X msg 84 124 destroy;
#X msg 95 246 1;
#X msg 95 278 0;
#X obj 332 371 pix_texture;
#X msg 375 394 4;
#X obj 332 76 pix_image ../data/fractal.JPG;
#X obj 332 302 pix_alpha;
#X obj 332 421 square;
#X obj 332 336 alpha;
#X msg 456 166 1 1 1;
#X msg 459 243 0 0 0;
#X msg 356 219 0.5;
#X msg 348 185 1;
#X msg 457 209 1 0.5 0.5;
#X msg 362 255 0;
#X text 212 222 set the alpha value;
#X text 394 138 set the high threshold;
#N canvas 12 0 271 246 cube 0;
#X obj 69 39 gemhead 20;
#X obj 69 71 translateXYZ 0 0 -4;
#X obj 69 205 cube;
#X obj 69 180 rotateXYZ;
#X obj 69 112 render_trigger;
#X obj 115 141 i;
#X obj 145 142 + 1;
#X obj 180 143 % 360;
#X connect 0 0 1 0;
#X connect 1 0 4 0;
#X connect 3 0 2 0;
#X connect 4 0 3 0;
#X connect 4 1 5 0;
#X connect 5 0 6 0;
#X connect 5 0 3 1;
#X connect 5 0 3 2;
#X connect 5 0 3 3;
#X connect 6 0 7 0;
#X connect 7 0 5 1;
#X restore 444 551 pd cube in the back;
#N canvas 660 350 290 179 Gem.init 0;
#X obj 92 34 loadbang;
#X msg 118 81 reset;
#X obj 80 119 outlet;
#X obj 82 58 t b b;
#X msg 15 81 dimen 400 400;
#X connect 0 0 3 0;
#X connect 1 0 2 0;
#X connect 3 0 4 0;
#X connect 3 1 1 0;
#X connect 4 0 2 0;
#X restore 116 322 pd Gem.init;
#X connect 1 0 0 0;
#X connect 2 0 8 0;
#X connect 3 0 0 0;
#X connect 4 0 0 0;
#X connect 5 0 0 0;
#X connect 6 0 10 0;
#X connect 7 0 10 1;
#X connect 8 0 9 0;
#X connect 9 0 11 0;
#X connect 11 0 6 0;
#X connect 12 0 9 3;
#X connect 13 0 9 3;
#X connect 14 0 9 1;
#X connect 15 0 9 1;
#X connect 16 0 9 3;
#X connect 17 0 9 1;
#X connect 21 0 0 0;
