#N canvas 704 335 600 500 8;
#X obj 14 262 gemwin;
#X msg 24 74 create;
#X obj 179 135 gemhead;
#X msg 30 105 destroy;
#X msg 56 133 1;
#X msg 56 165 0;
#X text 22 49 create and destroy the graphics window;
#X obj 179 351 pix_texture;
#X obj 179 408 square 2;
#X obj 179 170 pix_image ../data/fractalAlpha.TIF;
#X obj 179 313 pix_a_2grey 0.5;
#X obj 179 214 translateXYZ -2 0 0;
#X obj 386 140 gemhead;
#X obj 386 309 pix_texture;
#X obj 386 402 square 2;
#X obj 386 171 pix_image ../data/fractalAlpha.TIF;
#X obj 386 348 alpha;
#X obj 386 209 translateXYZ 2 0 0;
#X connect 1 0 0 0;
#X connect 2 0 9 0;
#X connect 3 0 0 0;
#X connect 4 0 0 0;
#X connect 5 0 0 0;
#X connect 7 0 8 0;
#X connect 9 0 11 0;
#X connect 10 0 7 0;
#X connect 11 0 10 0;
#X connect 12 0 15 0;
#X connect 13 0 16 0;
#X connect 15 0 17 0;
#X connect 16 0 14 0;
#X connect 17 0 13 0;
