#N canvas 126 134 713 500 10;
#X obj 14 262 gemwin;
#X msg 24 74 create;
#X obj 135 138 gemhead;
#X msg 30 105 destroy;
#X msg 56 133 1;
#X msg 56 165 0;
#X obj 135 378 pix_texture;
#X obj 135 435 square 2;
#X obj 135 173 pix_image ../data/fractalAlpha.TIF;
#X obj 135 340 pix_a_2grey 0.5;
#X obj 135 217 translateXYZ -2 0 0;
#X obj 386 140 gemhead;
#X obj 386 309 pix_texture;
#X obj 386 402 square 2;
#X obj 386 171 pix_image ../data/fractalAlpha.TIF;
#X obj 386 348 alpha;
#X obj 386 209 translateXYZ 2 0 0;
#X obj 228 13 pix_a_2grey;
#X text 141 55 grey's out all pixels \, of which the alpha-channel
is above a certain threshold;
#X obj 238 311 hsl 128 15 -1 1 0 0 empty empty empty 20 8 0 8 -262144
-1 -1 0 1;
#X msg 235 288 0;
#X msg 264 288 0.5;
#N canvas 87 154 247 179 Gem.init 0;
#X obj 118 46 loadbang;
#X msg 118 81 reset;
#X obj 118 113 outlet;
#X connect 0 0 1 0;
#X connect 1 0 2 0;
#X restore 40 237 pd Gem.init;
#X connect 1 0 0 0;
#X connect 2 0 8 0;
#X connect 3 0 0 0;
#X connect 4 0 0 0;
#X connect 5 0 0 0;
#X connect 6 0 7 0;
#X connect 8 0 10 0;
#X connect 9 0 6 0;
#X connect 10 0 9 0;
#X connect 11 0 14 0;
#X connect 12 0 15 0;
#X connect 14 0 16 0;
#X connect 15 0 13 0;
#X connect 16 0 12 0;
#X connect 19 0 9 1;
#X connect 20 0 19 0;
#X connect 21 0 19 0;
#X connect 22 0 0 0;
