#N canvas 204 170 691 547 10;
#X obj 14 262 gemwin;
#X msg 24 74 create;
#X msg 30 105 destroy;
#X msg 56 133 1;
#X msg 56 165 0;
#X obj 188 50 gemhead;
#X obj 188 284 pix_texture;
#X obj 188 312 square 2;
#X obj 188 81 pix_image ../data/fractalAlpha.TIF;
#N canvas 87 154 247 179 Gem.init 0;
#X obj 118 46 loadbang;
#X msg 118 81 reset;
#X obj 118 113 outlet;
#X connect 0 0 1 0;
#X connect 1 0 2 0;
#X restore 40 237 pd Gem.init;
#X obj 188 207 pix_2grey;
#X connect 1 0 0 0;
#X connect 2 0 0 0;
#X connect 3 0 0 0;
#X connect 4 0 0 0;
#X connect 5 0 8 0;
#X connect 6 0 7 0;
#X connect 8 0 10 0;
#X connect 9 0 0 0;
#X connect 10 0 6 0;
