#N canvas 362 87 679 456 8;
#X floatatom 503 162;
#X obj 503 190 / 100;
#X floatatom 449 143;
#X obj 449 172 / 100;
#X obj 32 282 gemwin;
#X msg 69 115 create;
#X obj 343 26 gemhead;
#X msg 78 144 destroy;
#X msg 89 171 1;
#X msg 89 203 0;
#X msg 32 50 dimen 300 300;
#X obj 343 319 pix_texture;
#X msg 394 359 4;
#X floatatom 395 101;
#X obj 395 129 / 100;
#X obj 343 268 pix_gain;
#X obj 395 221 pack 0 0 0;
#X obj 343 387 triangle;
#X text 471 101 change the color;
#X text 128 174 turn rendering on and off;
#X text 44 89 create and destroy the graphics window;
#X text 31 28 set the window size to 300 x 300;
#X text 356 341 click here to change the size of the triangle;
#X msg 409 193 bang;
#X obj 343 72 pix_image ../data/fractal.JPG;
#X connect 0 0 1 0;
#X connect 1 0 16 2;
#X connect 1 0 23 0;
#X connect 2 0 3 0;
#X connect 3 0 16 1;
#X connect 3 0 23 0;
#X connect 5 0 4 0;
#X connect 6 0 24 0;
#X connect 7 0 4 0;
#X connect 8 0 4 0;
#X connect 9 0 4 0;
#X connect 10 0 4 0;
#X connect 11 0 17 0;
#X connect 12 0 17 1;
#X connect 13 0 14 0;
#X connect 14 0 16 0;
#X connect 15 0 11 0;
#X connect 16 0 15 2;
#X connect 23 0 16 0;
#X connect 24 0 15 0;
