#N canvas 10 20 986 486 10;
#X obj 67 350 gemwin;
#X msg 101 113 create;
#X obj 492 258 gemhead;
#X msg 107 144 destroy;
#X msg 109 221 1;
#X msg 109 253 0;
#X text 148 225 turn rendering on and off;
#X text 98 87 create and destroy the graphics window;
#X obj 492 313 pix_image ../data/fractal.JPG;
#X obj 492 343 pix_colormatrix;
#X msg 591 223 0 1 0 0 0 1 1 0 0;
#X msg 561 157 0 0 1 1 0 0 0 1 0;
#X msg 524 61 1 0 0 0 0 1 0 1 0;
#X obj 492 371 pix_texture;
#X obj 492 411 square;
#X msg 552 110 1 0 0 0 1 0 0 0 1;
#X text 700 156 shift colors: red->[0 \, 0 \, 1]=blue \; green->[1
\, 0 \, 0]=red \; blue->[0 \, 1 \, 0]=green;
#X text 709 97 unity matrix: [1 \, 0 \, 0 \; 0 \, 1 \, 0 \; 0 \, 0
\, 1];
#X text 686 47 swap green and blue: [1 \, 0 \, 0 \; 0 \, 0 \, 1 \;
0 \, 1 \, 0];
#X text 732 210 shift colors: red->[0 \, 1 \, 0]=green \; green->[0
\, 0 \, 1]=blue \; blue->[1 \, 0 \, 0]=red;
#X text 26 23 matrix-multiply the RGB-vector;
#N canvas 91 174 290 179 Gem.init 0;
#X obj 83 30 loadbang;
#X msg 161 76 reset;
#X obj 45 107 outlet;
#X msg 45 75 dimen 300 300;
#X obj 88 51 t b b;
#X connect 0 0 4 0;
#X connect 1 0 2 0;
#X connect 3 0 2 0;
#X connect 4 0 3 0;
#X connect 4 1 1 0;
#X restore 107 315 pd Gem.init;
#X connect 1 0 0 0;
#X connect 2 0 8 0;
#X connect 3 0 0 0;
#X connect 4 0 0 0;
#X connect 5 0 0 0;
#X connect 8 0 9 0;
#X connect 9 0 13 0;
#X connect 10 0 9 1;
#X connect 11 0 9 1;
#X connect 12 0 9 1;
#X connect 13 0 14 0;
#X connect 15 0 9 1;
#X connect 21 0 0 0;
