#N canvas 150 20 846 641 12;
#X obj 575 515 s matrix;
#X obj 502 516 s scale;
#X msg 502 483 1;
#X obj 575 404 s matrix;
#X obj 502 405 s scale;
#X msg 502 372 1;
#X obj 572 311 s matrix;
#X obj 499 312 s scale;
#X msg 499 279 1;
#X obj 572 206 s matrix;
#X obj 499 207 s scale;
#X msg 499 174 1;
#X obj 576 106 s matrix;
#X obj 503 107 s scale;
#X msg 503 74 1;
#X obj 320 153 s matrix;
#X obj 247 154 s scale;
#X msg 247 121 1;
#X msg 576 47 -1 -1 -1 -1 8 -1 -1 -1 -1;
#X msg 572 146 -1 -4 -1 -4 20 -4 -1 -4 -1;
#X msg 314 517 1 2 1 2 4 2 1 2 1;
#X text 506 10 edge detection matrices;
#X text 506 26 scale = 1;
#X text 234 497 scale = 16;
#X text 234 482 smoothing matrix;
#X obj 12 272 gemwin;
#X msg 31 85 create;
#X obj 14 330 gemhead;
#X msg 40 114 destroy;
#X msg 49 173 1;
#X msg 49 205 0;
#X obj 14 522 pix_texture;
#X text 88 186 turn rendering on and off;
#X obj 14 356 pix_image ../data/fractal.JPG;
#X obj 14 455 pix_convolve 3 3;
#X msg 241 545 16;
#X msg 320 92 0 0 0 0 1 0 0 0 0;
#X msg 572 248 0 -1 0 0 2 0 0 -1 0;
#X msg 575 450 -1 0 -1 0 4 0 -1 0 -1;
#X msg 575 343 0 0 0 -1 2 -1 0 0 0;
#X obj 314 575 s matrix;
#X obj 137 423 r matrix;
#X obj 241 576 s scale;
#X obj 75 421 r scale;
#X text 241 72 scale = 1;
#X text 241 55 identity matrix;
#X obj 14 547 square 4;
#N canvas 91 174 290 179 Gem.init 0;
#X obj 83 30 loadbang;
#X msg 161 76 reset;
#X obj 45 107 outlet;
#X msg 45 75 dimen 300 300;
#X obj 88 51 t b b;
#X connect 0 0 4 0;
#X connect 1 0 2 0;
#X connect 3 0 2 0;
#X connect 4 0 3 0;
#X connect 4 1 1 0;
#X restore 100 254 pd Gem.init;
#X connect 2 0 1 0;
#X connect 5 0 4 0;
#X connect 8 0 7 0;
#X connect 11 0 10 0;
#X connect 14 0 13 0;
#X connect 17 0 16 0;
#X connect 18 0 14 0;
#X connect 18 0 12 0;
#X connect 19 0 11 0;
#X connect 19 0 9 0;
#X connect 20 0 35 0;
#X connect 20 0 40 0;
#X connect 26 0 25 0;
#X connect 27 0 33 0;
#X connect 28 0 25 0;
#X connect 29 0 25 0;
#X connect 30 0 25 0;
#X connect 31 0 46 0;
#X connect 33 0 34 0;
#X connect 34 0 31 0;
#X connect 35 0 42 0;
#X connect 36 0 17 0;
#X connect 36 0 15 0;
#X connect 37 0 8 0;
#X connect 37 0 6 0;
#X connect 38 0 2 0;
#X connect 38 0 0 0;
#X connect 39 0 5 0;
#X connect 39 0 3 0;
#X connect 41 0 34 2;
#X connect 43 0 34 1;
#X connect 47 0 25 0;
