#N canvas 269 10 753 499 10;
#X obj 33 102 gemwin;
#X msg 33 20 create;
#X msg 89 20 1;
#X msg 91 42 0;
#X msg 18 71 destroy;
#X msg 360 312 set;
#X floatatom 401 209 4 0 0;
#X floatatom 442 209 4 0 0;
#X obj 441 229 t b f;
#X floatatom 491 209 4 0 0;
#X obj 490 229 t b f;
#X floatatom 532 208 4 0 0;
#X obj 531 228 t b f;
#X floatatom 576 210 4 0 0;
#X obj 575 230 t b f;
#X text 147 23 calculates the following difference equation:;
#X text 151 38 y(n) = ff1 * w(n) + ff2 * w(n-1) + ff3 * w(n-2);
#X floatatom 621 210 4 0 0;
#X obj 620 230 t b f;
#X obj 407 260 pack 0 0 0 0 0 0;
#X text 155 55 w(n) = fb0 * x(n) + fb1 * w(n-1) + fb2 * w(n-2);
#X msg 403 98 1 0 0 1 0 0;
#X msg 403 121 1 0 0 0.2 0.2 0.6;
#X obj 35 224 gemhead;
#X obj 35 300 pix_texture;
#X obj 35 324 square 3;
#X text 403 190 fb0;
#X text 443 190 fb1;
#X text 494 189 fb2;
#X text 533 186 ff1;
#X text 582 187 ff2;
#X text 623 186 ff3;
#X obj 355 257 t l;
#X msg 175 218 0;
#X msg 202 218 1;
#X msg 231 218 2;
#X text 551 94 route through;
#X text 553 120 a low-pass;
#X text 34 391 pix_biquad: fb0 fb1 fb2 ff1 ff2 ff3;
#X text 338 377 very(*) similar to the pd-object;
#X obj 572 375 biquad~;
#X text 336 406 *: but not exactly the same;
#X text 390 312 set w(n-1) and w(n-2) to the next(!) x(n);
#X obj 35 274 pix_biquad;
#X msg 404 150 0.05 0.8 0.15 0.2 0.2 0.6;
#X text 587 148 a LOW-pass;
#X text 397 331 (important for hard feedback-loops);
#X text 98 455 no sanity check is done for the coefficients !;
#X obj 35 247 pix_multiimage temp*.JPG 2;
#X text 151 200 click these OFTEN !;
#X connect 1 0 0 0;
#X connect 2 0 0 0;
#X connect 3 0 0 0;
#X connect 4 0 0 0;
#X connect 5 0 43 0;
#X connect 6 0 19 0;
#X connect 7 0 8 0;
#X connect 8 0 19 0;
#X connect 8 1 19 1;
#X connect 9 0 10 0;
#X connect 10 0 19 0;
#X connect 10 1 19 2;
#X connect 11 0 12 0;
#X connect 12 0 19 0;
#X connect 12 1 19 3;
#X connect 13 0 14 0;
#X connect 14 0 19 0;
#X connect 14 1 19 4;
#X connect 17 0 18 0;
#X connect 18 0 19 0;
#X connect 18 1 19 5;
#X connect 19 0 32 0;
#X connect 21 0 32 0;
#X connect 22 0 32 0;
#X connect 23 0 48 0;
#X connect 24 0 25 0;
#X connect 32 0 43 0;
#X connect 33 0 48 1;
#X connect 34 0 48 1;
#X connect 35 0 48 1;
#X connect 43 0 24 0;
#X connect 44 0 32 0;
#X connect 48 0 43 0;
