#N canvas 110 104 396 354 10;
#X floatatom 59 191 5 0 0 0 - - -;
#X obj 46 241 pix_tIIR 2 2;
#X obj 59 211 * 0.01;
#X obj 59 146 unpack 30 60 10 50 50 -20;
#X floatatom 108 191 5 0 0 0 - - -;
#X obj 108 211 * 0.01;
#X floatatom 155 191 5 0 0 0 - - -;
#X obj 155 211 * 0.01;
#X floatatom 204 191 5 0 0 0 - - -;
#X obj 204 211 * 0.01;
#X floatatom 251 191 5 0 0 0 - - -;
#X obj 251 211 * 0.01;
#X floatatom 300 191 5 0 0 0 - - -;
#X obj 300 211 * 0.01;
#X msg 59 100 bang;
#X obj 46 38 gemhead;
#X obj 260 104 t f;
#X msg 131 31 auto \$1;
#X obj 135 5 tgl 15 0 empty empty empty 0 -6 0 8 -262144 -1 -1 0 1
;
#X obj 59 122 pack 30 60 10 50 50 -20;
#X floatatom 282 68 5 0 0 0 - - -;
#X floatatom 132 91 5 0 0 0 - - -;
#X obj 46 61 pix_film ../data/alea.mpg;
#X msg 201 27 open ../data/alea.mpg;
#X obj 47 286 rotateXYZ 0 -60 0;
#X obj 47 309 sphere 6;
#X obj 47 262 pix_texture;
#X connect 0 0 2 0;
#X connect 1 0 26 0;
#X connect 2 0 1 1;
#X connect 3 0 0 0;
#X connect 3 1 4 0;
#X connect 3 2 6 0;
#X connect 3 3 8 0;
#X connect 3 4 10 0;
#X connect 3 5 12 0;
#X connect 4 0 5 0;
#X connect 5 0 1 2;
#X connect 6 0 7 0;
#X connect 7 0 1 3;
#X connect 8 0 9 0;
#X connect 9 0 1 4;
#X connect 10 0 11 0;
#X connect 11 0 1 5;
#X connect 12 0 13 0;
#X connect 13 0 1 6;
#X connect 14 0 19 0;
#X connect 15 0 22 0;
#X connect 16 0 20 0;
#X connect 17 0 22 0;
#X connect 18 0 17 0;
#X connect 19 0 3 0;
#X connect 20 0 22 1;
#X connect 22 0 1 0;
#X connect 22 1 21 0;
#X connect 22 2 16 0;
#X connect 23 0 22 0;
#X connect 24 0 25 0;
#X connect 26 0 24 0;
