#N canvas 228 84 794 352 10;
#X floatatom 229 191 5 0 0 0 - - -;
#X obj 216 241 pix_tIIR 2 2;
#X obj 229 211 * 0.01;
#X obj 229 146 unpack 30 60 10 50 50 -20;
#X floatatom 278 191 5 0 0 0 - - -;
#X obj 278 211 * 0.01;
#X floatatom 325 191 5 0 0 0 - - -;
#X obj 325 211 * 0.01;
#X floatatom 374 191 5 0 0 0 - - -;
#X obj 374 211 * 0.01;
#X floatatom 421 191 5 0 0 0 - - -;
#X obj 421 211 * 0.01;
#X floatatom 470 191 5 0 0 0 - - -;
#X obj 470 211 * 0.01;
#X msg 229 100 bang;
#X obj 216 38 gemhead;
#X msg 551 44 auto \$1;
#X obj 551 25 tgl 15 0 empty empty empty 0 -6 0 8 -262144 -1 -1 1 1
;
#X obj 229 122 pack 30 60 10 50 50 -20;
#X floatatom 411 64 5 0 0 0 - - -;
#X floatatom 301 86 5 0 0 0 - - -;
#X obj 216 262 pix_texture;
#X msg 371 27 open ../data/alea.mpg;
#X msg 371 7 open \$1;
#X obj 433 7 openpanel;
#X obj 523 5 bng 20 250 50 0 empty empty empty 0 -6 0 8 -262144 -1
-1;
#X obj 14 262 gemwin;
#X msg 24 74 create;
#X msg 30 105 destroy;
#X msg 56 133 1;
#X msg 56 165 0;
#N canvas 87 154 247 179 Gem.init 0;
#X obj 118 46 loadbang;
#X msg 118 81 reset;
#X obj 118 113 outlet;
#X connect 0 0 1 0;
#X connect 1 0 2 0;
#X restore 39 232 pd Gem.init;
#X obj 396 63 bng 15 250 50 0 empty empty empty 0 -6 0 8 -262144 -1
-1;
#X obj 216 61 pix_film ../data/alea.mpg;
#X obj 216 309 square 3;
#X obj 216 286 rotateXYZ 0 -30 0;
#X connect 0 0 2 0;
#X connect 1 0 21 0;
#X connect 2 0 1 1;
#X connect 3 0 0 0;
#X connect 3 1 4 0;
#X connect 3 2 6 0;
#X connect 3 3 8 0;
#X connect 3 4 10 0;
#X connect 3 5 12 0;
#X connect 4 0 5 0;
#X connect 5 0 1 2;
#X connect 6 0 7 0;
#X connect 7 0 1 3;
#X connect 8 0 9 0;
#X connect 9 0 1 4;
#X connect 10 0 11 0;
#X connect 11 0 1 5;
#X connect 12 0 13 0;
#X connect 13 0 1 6;
#X connect 14 0 18 0;
#X connect 15 0 33 0;
#X connect 16 0 33 0;
#X connect 17 0 16 0;
#X connect 18 0 3 0;
#X connect 19 0 33 1;
#X connect 21 0 35 0;
#X connect 22 0 33 0;
#X connect 23 0 33 0;
#X connect 24 0 23 0;
#X connect 25 0 24 0;
#X connect 27 0 26 0;
#X connect 28 0 26 0;
#X connect 29 0 26 0;
#X connect 30 0 26 0;
#X connect 31 0 26 0;
#X connect 32 0 19 0;
#X connect 33 0 1 0;
#X connect 33 1 20 0;
#X connect 33 2 32 0;
#X connect 35 0 34 0;
