#N canvas 0 0 832 589 10;
#X obj 54 92 gemwin;
#X msg 54 6 create;
#X msg 106 74 destroy;
#X msg 86 31 1;
#X msg 88 52 0;
#X obj 62 327 gemhead;
#X obj 62 369 pix_texture;
#X obj 62 392 square 4;
#X text 264 32 ============;
#X text 216 48 store/get images into/from a buffer;
#X msg 206 87 bang;
#X floatatom 206 184 5 0 0 0 - - -;
#X text 245 87 get the size of the depot;
#X msg 217 126 allocate 128 64 4;
#X text 351 114 pre-allocate each image-buffer to hold at east 128*64*4
pixels;
#X obj 316 316 gemhead;
#X obj 316 342 pix_film;
#X obj 316 387 t a b;
#X obj 361 430 i;
#X obj 388 430 + 1;
#X obj 361 408 spigot;
#X obj 398 364 t b b;
#X msg 398 387 1;
#X msg 455 388 0;
#X obj 398 339 bng 15 250 50 0 empty empty empty 0 -6 0 8 -262144 -1
-1;
#X text 419 339 start recording into the buffer;
#X msg 398 296 open \$1;
#X obj 398 275 openpanel;
#X obj 398 257 bng 15 250 50 0 empty empty empty 0 -6 0 8 -262144 -1
-1;
#X msg 477 240 ../data/anim-1.mov;
#X msg 477 260 ../data/alea.mpg;
#X msg 478 216 ../data/homer.avi;
#X obj 477 282 symbol;
#X floatatom 155 321 5 0 0 0 - - -;
#X text 195 320 index;
#X msg 408 408 0;
#X obj 571 401 gemhead;
#X obj 571 427 pix_image ../data/fractal.JPG;
#X floatatom 423 497 5 0 0 0 - - -;
#X msg 405 318 auto 1;
#X msg 457 319 0;
#X obj 361 456 moses 10;
#X floatatom 663 406 5 0 0 0 - - -;
#X msg 663 386 5;
#X text 368 165 a storage-place for "10" pix-images called "myImages"
;
#X text 467 493 put the next image into "myImages" @ index;
#X msg 140 390 set yourImages;
#X msg 212 490 set yourImages;
#X text 213 473 set the storage-name;
#X obj 206 163 pix_buffer myImages 10;
#X obj 62 349 pix_buffer_read myImages;
#X obj 316 515 pix_buffer_write myImages;
#X obj 571 453 pix_buffer_write myImages;
#X text 267 20 [pix_buffer];
#X text 291 539 write an image into a certain storage-buffer;
#X text 15 422 read an image from a certain storage-buffer;
#X text 17 302 get an image from the pix_buffer;
#X obj 33 227 pix_buffer yourImages 10;
#X connect 1 0 0 0;
#X connect 2 0 0 0;
#X connect 3 0 0 0;
#X connect 4 0 0 0;
#X connect 5 0 50 0;
#X connect 6 0 7 0;
#X connect 10 0 49 0;
#X connect 13 0 49 0;
#X connect 15 0 16 0;
#X connect 16 0 17 0;
#X connect 17 0 51 0;
#X connect 17 1 20 0;
#X connect 18 0 19 0;
#X connect 18 0 41 0;
#X connect 19 0 18 1;
#X connect 20 0 18 0;
#X connect 21 0 22 0;
#X connect 21 1 35 0;
#X connect 22 0 20 1;
#X connect 23 0 20 1;
#X connect 23 0 43 0;
#X connect 24 0 21 0;
#X connect 26 0 16 0;
#X connect 26 0 24 0;
#X connect 26 0 39 0;
#X connect 26 0 40 0;
#X connect 27 0 26 0;
#X connect 28 0 27 0;
#X connect 29 0 32 0;
#X connect 30 0 32 0;
#X connect 31 0 32 0;
#X connect 32 0 26 0;
#X connect 33 0 50 1;
#X connect 35 0 18 1;
#X connect 36 0 37 0;
#X connect 37 0 52 0;
#X connect 38 0 51 1;
#X connect 39 0 16 0;
#X connect 40 0 16 1;
#X connect 41 0 38 0;
#X connect 41 1 23 0;
#X connect 42 0 52 1;
#X connect 43 0 42 0;
#X connect 46 0 50 0;
#X connect 47 0 51 0;
#X connect 49 0 11 0;
#X connect 50 0 6 0;
