#N canvas 1284 464 825 449 10;
#X obj 31 250 pix_dump;
#X obj 211 363 pix_texture;
#X obj 433 129 gemwin;
#X msg 476 106 0 \, destroy;
#X msg 55 316 quality 0;
#X obj 31 200 pix_crop 0 0 6 8;
#X obj 31 363 pix_texture;
#X obj 31 403 rectangle 1 1;
#X obj 55 296 loadbang;
#X obj 31 10 gemhead 10;
#X msg 433 88 dimen 1024 256 \, color 1 1 1 1 \, create \, 1;
#X obj 31 383 translateXYZ 0 2.25 0;
#X obj 211 343 pix_set 120 8;
#N canvas 4 136 750 300 grab-ascii 0;
#X obj 76 13 key;
#X obj 76 34 moses 65;
#X obj 121 54 moses 91;
#X obj 166 84 moses 97;
#X obj 211 104 moses 123;
#X obj 153 198 outlet;
#X obj 211 124 - 97;
#X text 174 54 from A to Z (65 to 90);
#X text 276 102 from a to z (97 to 122);
#X text 137 221 remap from 0 to 25;
#X obj 121 75 - 65;
#X obj 335 232 outlet;
#X text 326 249 bang on <ENTER>;
#X obj 455 232 outlet;
#X floatatom 41 74 5 0 0 0 - - -;
#X obj 334 179 sel 10 32 8;
#X obj 565 232 outlet;
#X text 556 249 bang on <DEL>;
#X text 446 249 bang on <SPACE>;
#X connect 0 0 1 0;
#X connect 0 0 14 0;
#X connect 1 0 15 0;
#X connect 1 1 2 0;
#X connect 2 0 10 0;
#X connect 2 1 3 0;
#X connect 3 1 4 0;
#X connect 4 0 6 0;
#X connect 6 0 5 0;
#X connect 10 0 5 0;
#X connect 15 0 11 0;
#X connect 15 1 13 0;
#X connect 15 2 16 0;
#X restore 73 51 pd grab-ascii;
#X obj 100 132 f;
#X obj 392 238 loadbang;
#X obj 242 157 * 6;
#X obj 73 158 * 6;
#X msg 135 92 0;
#X obj 211 383 translateXYZ 0 -2.25 0;
#X obj 211 403 rectangle 16 -1;
#X obj 211 263 gemhead 9;
#X obj 135 72 t b b;
#X msg 344 199 fill 1 \, bang;
#X obj 73 178 t b b f;
#X obj 344 179 loadbang;
#X obj 31 29 pix_image bitmap_font_6x8.bmp;
#X obj 433 35 bng 15 250 50 0 empty empty empty 17 7 0 10 -262144 -1
-1;
#X text 469 56 2 type something with your keyboard;
#X text 451 36 <- 1 clic here to start rendering;
#X text 218 29 <- this is the bitmap font;
#X obj 31 138 pix_grey;
#X obj 73 92 t f b;
#X obj 127 133 + 1;
#X text 485 213 - key in range A-Z and a-z;
#X text 510 194 features :;
#X text 485 223 - space bar add a space...;
#X text 485 233 - enter reset all;
#X text 520 265 purpose :;
#X text 495 281 - orginally design to drive a LED matrix;
#X obj 211 285 pix_roi;
#X obj 31 222 pix_info . . . .;
#N canvas 4 49 450 300 normalize 0;
#X obj 84 70 inlet x1 y1 x2 y2;
#X obj 84 92 unpack 0 0 0 0;
#X obj 84 154 pack 0 0 0 0;
#X obj 84 176 outlet X1 Y1 X2 Y2;
#X obj 84 114 / 640;
#X obj 184 114 / 640;
#X obj 304 35 inlet width height;
#X obj 304 57 unpack;
#X obj 134 114 / 480;
#X obj 234 114 / 480;
#X connect 0 0 1 0;
#X connect 1 0 4 0;
#X connect 1 1 8 0;
#X connect 1 2 5 0;
#X connect 1 3 9 0;
#X connect 2 0 3 0;
#X connect 4 0 2 0;
#X connect 5 0 2 2;
#X connect 6 0 7 0;
#X connect 7 0 4 1;
#X connect 7 0 5 1;
#X connect 7 1 8 1;
#X connect 7 1 9 1;
#X connect 8 0 2 1;
#X connect 9 0 2 3;
#X restore 320 294 pd normalize;
#X obj 112 250 pack;
#X msg 320 316 roi \$1 \$2 \$3 \$4;
#X obj 242 179 t f f;
#X obj 242 221 pack 0 0 0 8;
#X obj 294 197 + 6;
#X msg 392 258 grey;
#X connect 0 0 6 0;
#X connect 0 1 12 1;
#X connect 1 0 19 0;
#X connect 3 0 2 0;
#X connect 4 0 1 0;
#X connect 4 0 6 0;
#X connect 5 0 41 0;
#X connect 6 0 11 0;
#X connect 8 0 4 0;
#X connect 9 0 26 0;
#X connect 10 0 2 0;
#X connect 11 0 7 0;
#X connect 12 0 1 0;
#X connect 13 0 32 0;
#X connect 13 1 22 0;
#X connect 13 2 14 0;
#X connect 14 0 16 0;
#X connect 14 0 33 0;
#X connect 15 0 48 0;
#X connect 16 0 45 0;
#X connect 17 0 24 0;
#X connect 18 0 14 1;
#X connect 19 0 20 0;
#X connect 21 0 40 0;
#X connect 22 0 18 0;
#X connect 22 1 23 0;
#X connect 23 0 12 0;
#X connect 24 0 0 0;
#X connect 24 1 9 0;
#X connect 24 2 5 3;
#X connect 25 0 23 0;
#X connect 26 0 31 0;
#X connect 27 0 10 0;
#X connect 31 0 5 0;
#X connect 32 0 17 0;
#X connect 32 1 14 0;
#X connect 33 0 14 1;
#X connect 40 0 12 0;
#X connect 41 0 0 0;
#X connect 41 1 43 0;
#X connect 41 2 43 1;
#X connect 42 0 44 0;
#X connect 43 0 42 1;
#X connect 44 0 40 0;
#X connect 45 0 46 0;
#X connect 45 1 47 0;
#X connect 46 0 42 0;
#X connect 47 0 46 2;
#X connect 48 0 12 0;
