#N canvas 403 136 688 553 8;
#X msg 193 267 bang;
#X obj 371 327 spigot;
#X floatatom 444 438;
#X obj 13 376 gemwin;
#X msg 33 261 create;
#X obj 193 300 gemhead;
#X msg 35 284 destroy;
#X msg 56 306 1;
#X msg 63 330 0;
#X floatatom 371 439;
#X obj 13 165 loadbang;
#X obj 193 359 translateXYZ;
#X obj 371 383 - 1;
#X obj 371 411 * 4;
#X obj 444 322 spigot;
#X text 116 72 x pos;
#X text 167 74 y pos;
#X obj 396 107 gemtablet;
#X msg 13 193 dimen 400 400;
#X msg 122 331 bang;
#X msg 23 219 buffer 1;
#X obj 193 440 alpha;
#X text 110 56 the outputs of gemtablet are:;
#X text 225 76 pressure;
#X text 294 77 azimuth;
#X text 360 76 altitude;
#X text 435 76 twist;
#X text 110 27 Be aware that your tablet might not have all of the rotation variables.;
#X obj 262 161 / 90;
#X obj 193 330 colorRGB 1 0 0;
#X obj 371 355 / 200;
#X obj 444 353 / 200;
#X obj 444 382 - 1;
#X obj 444 410 * -4;
#X text 113 8 this demonstrates how to use gemtablet;
#X obj 396 266 s xPos;
#X obj 405 239 s yPos;
#X obj 371 296 r xPos;
#X obj 443 295 r yPos;
#X obj 454 140 s lBut;
#X obj 497 291 r lBut;
#X obj 415 214 s press;
#X obj 230 493 r press;
#X obj 286 271 r press;
#X obj 425 188 s azimuth;
#X obj 434 163 s altitude;
#X obj 232 381 r azimuth;
#X obj 262 133 r altitude;
#X text 96 306 clear screen;
#X obj 193 409 rotate 0 0 1;
#X obj 193 519 square;
#X obj 193 472 scaleXYZ 1 0.05 1;
#X obj 202 189 t b f;
#X obj 216 240 - 1;
#X msg 202 214 1;
#X obj 286 303 / 6;
#X text 523 75 middle;
#X text 484 76 left;
#X text 577 75 right;
#X obj 510 141 s mBut;
#X obj 566 140 s rBut;
#X obj 549 290 r mBut;
#X obj 605 289 r rBut;
#X connect 0 0 5 0;
#X connect 1 0 0 0;
#X connect 1 0 30 0;
#X connect 2 0 11 2;
#X connect 4 0 3 0;
#X connect 5 0 29 0;
#X connect 6 0 3 0;
#X connect 7 0 3 0;
#X connect 8 0 3 0;
#X connect 9 0 11 1;
#X connect 10 0 18 0;
#X connect 10 0 20 0;
#X connect 11 0 49 0;
#X connect 12 0 13 0;
#X connect 13 0 9 0;
#X connect 14 0 31 0;
#X connect 17 0 35 0;
#X connect 17 1 36 0;
#X connect 17 2 41 0;
#X connect 17 3 44 0;
#X connect 17 4 45 0;
#X connect 17 6 39 0;
#X connect 17 7 59 0;
#X connect 17 8 60 0;
#X connect 18 0 3 0;
#X connect 19 0 3 0;
#X connect 20 0 3 0;
#X connect 21 0 51 0;
#X connect 28 0 52 0;
#X connect 28 0 29 3;
#X connect 29 0 11 0;
#X connect 30 0 12 0;
#X connect 31 0 32 0;
#X connect 32 0 33 0;
#X connect 33 0 2 0;
#X connect 37 0 1 0;
#X connect 38 0 14 0;
#X connect 40 0 14 1;
#X connect 40 0 1 1;
#X connect 42 0 50 1;
#X connect 43 0 55 0;
#X connect 46 0 49 1;
#X connect 47 0 28 0;
#X connect 49 0 21 0;
#X connect 51 0 50 0;
#X connect 52 0 54 0;
#X connect 52 1 53 1;
#X connect 53 0 29 1;
#X connect 54 0 53 0;
#X connect 55 0 29 4;
