#N canvas 538 153 600 500 8;
#X obj 51 436 gemwin;
#X msg 83 219 create;
#X obj 231 224 gemhead;
#X msg 89 246 destroy;
#X msg 110 317 1;
#X msg 109 355 0;
#X msg 48 134 dimen 300 300;
#X obj 246 379 square;
#X text 109 29 this demonstrates how to create a red square;
#X text 35 102 set the window size to 300 x 300;
#X msg 349 342 draw line;
#X obj 346 183 gemorb 2;
#X obj 305 226 v/ 500;
#X obj 246 337 rotateXYZ;
#X obj 364 271 unpack 0 0 0;
#X obj 240 297 color;
#X obj 303 252 vabs;
#X obj 363 231 v* 0.25;
#X obj 475 273 unpack 0 0 0;
#X msg 435 342 draw fill;
#X obj 431 300 sel 1;
#X obj 488 306 sel 1;
#X obj 285 283 v+ 0.1;
#X connect 1 0 0 0;
#X connect 2 0 15 0;
#X connect 3 0 0 0;
#X connect 4 0 0 0;
#X connect 5 0 0 0;
#X connect 6 0 0 0;
#X connect 10 0 7 0;
#X connect 11 0 12 0;
#X connect 11 1 17 0;
#X connect 11 2 18 0;
#X connect 12 0 16 0;
#X connect 13 0 7 0;
#X connect 14 0 13 1;
#X connect 14 1 13 2;
#X connect 14 2 13 3;
#X connect 15 0 13 0;
#X connect 16 0 22 0;
#X connect 17 0 14 0;
#X connect 18 0 20 0;
#X connect 18 1 21 0;
#X connect 19 0 7 0;
#X connect 20 0 10 0;
#X connect 21 0 19 0;
#X connect 22 0 15 1;
