#N canvas 45 0 758 369 10;
#X obj 40 309 gemwin;
#X msg 47 133 create;
#X msg 62 167 1;
#X msg 71 202 0;
#X obj 346 130 gemhead;
#X msg 112 243 destroy;
#X text 422 -44 click on these for fun;
#X text 102 169 turn on/off rendering;
#N canvas 95 194 292 181 Gem.init 0;
#X obj 83 30 loadbang;
#X msg 161 76 reset;
#X obj 134 146 outlet;
#X obj 88 51 t b b;
#X msg 45 75 dimen 400 400;
#X connect 0 0 3 0;
#X connect 1 0 2 0;
#X connect 3 0 4 0;
#X connect 3 1 1 0;
#X connect 4 0 2 0;
#X restore 88 292 pd Gem.init;
#X msg 502 51 mode PAL 2;
#X msg 498 110 freq 1234;
#X msg 495 305 dimen 256 256;
#X msg 497 333 dimen 64 64;
#X msg 501 26 mode NTSC;
#X obj 347 307 pix_texture2;
#X msg 500 2 channel 2;
#X obj 346 161 pix_video 128 64;
#X obj 347 331 rectangle 4 3;
#X msg 496 163 dimen 256 128;
#X obj 346 212 pix_flip;
#X msg 478 213 horizontal;
#X msg 477 248 vertical;
#X connect 1 0 0 0;
#X connect 2 0 0 0;
#X connect 3 0 0 0;
#X connect 4 0 16 0;
#X connect 5 0 0 0;
#X connect 8 0 0 0;
#X connect 9 0 16 0;
#X connect 10 0 16 0;
#X connect 11 0 16 0;
#X connect 12 0 16 0;
#X connect 13 0 16 0;
#X connect 14 0 17 0;
#X connect 15 0 16 0;
#X connect 16 0 19 0;
#X connect 18 0 16 0;
#X connect 19 0 14 0;
#X connect 20 0 19 0;
#X connect 21 0 19 0;
