#N canvas 23 -16 1044 575 10;
#X obj 40 309 gemwin;
#X msg 47 133 create;
#X msg 62 167 1;
#X msg 71 202 0;
#X obj 346 30 gemhead;
#X msg 112 243 destroy;
#X text 422 -44 click on these for fun;
#X text 102 169 turn on/off rendering;
#N canvas 95 194 292 181 Gem.init 0;
#X obj 83 30 loadbang;
#X msg 161 76 reset;
#X obj 134 146 outlet;
#X obj 88 51 t b b;
#X msg 45 75 dimen 400 400;
#X connect 0 0 3 0;
#X connect 1 0 2 0;
#X connect 3 0 4 0;
#X connect 3 1 1 0;
#X connect 4 0 2 0;
#X restore 88 292 pd Gem.init;
#X msg 503 93 freq 1234;
#X msg 505 164 dimen 256 256;
#X msg 505 184 dimen 64 64;
#X msg 501 16 mode NTSC;
#X msg 502 42 channel 2;
#X obj 346 331 rectangle 4 3;
#X msg 505 144 dimen 256 128;
#X obj 346 307 pix_texture;
#X text 583 37 depending on your capture-device you can switch between
(e.g) Tuner \, COMPOSITE & S-VHS;
#X text 571 17 defaults to PAL;
#X text 581 95 set the frequency for the TV-Tuner;
#X text 620 148 various dimension (might not work on your specific
capture-device);
#X obj 346 251 pix_video;
#X msg 505 225 colorspace RGBA;
#X text 623 225 could be RGBA \, YUV or Grey;
#X msg 508 266 device 0;
#X msg 508 296 driver 0;
#X text 622 267 switch between capture-cards;
#X text 612 297 switch between drivers (e.g: v4l and ieee1394);
#X msg 510 334 enumerate;
#X text 608 333 list all devices to the console;
#X msg 516 376 dialog;
#X text 592 378 configure the device via a pop-up dialog (on Windows(r))
;
#X connect 1 0 0 0;
#X connect 2 0 0 0;
#X connect 3 0 0 0;
#X connect 4 0 21 0;
#X connect 5 0 0 0;
#X connect 8 0 0 0;
#X connect 9 0 21 0;
#X connect 10 0 21 0;
#X connect 11 0 21 0;
#X connect 12 0 21 0;
#X connect 13 0 21 0;
#X connect 15 0 21 0;
#X connect 16 0 14 0;
#X connect 21 0 16 0;
#X connect 22 0 21 0;
#X connect 24 0 21 0;
#X connect 25 0 21 0;
#X connect 28 0 21 0;
#X connect 30 0 21 0;
