#N canvas 38 374 800 574 10;
#X obj 50 130 gemhead;
#X obj 50 493 square;
#X obj 50 371 alpha;
#X obj 50 174 pix_video;
#X obj 50 267 pix_texture;
#X msg 136 456 4;
#X msg 167 456 2;
#X obj 50 392 depth;
#X obj 50 243 pix_threshold;
#X text 375 217 click on bang to;
#X text 187 90 click on these for fun;
#X text 388 69 turn on rendering before turning on the metro.;
#X text 437 86 If you don't \, it may crash/not work;
#X text 375 229 clear the screen;
#X obj 50 447 rotate;
#X obj 50 89 t b b;
#X floatatom 192 179 5 0 100 2 threshold - -;
#X obj 50 9 tgl 15 0 empty empty run 0 -6 0 10 -4034 -1 -1 0 1;
#X obj 195 144 hsl 128 15 0 1 0 0 empty empty empty -2 -6 0 10 -228856
-1 -1 0 1;
#X obj 176 230 hsl 128 15 0 1 0 1 empty empty R 12 8 1 12 -261689 -1
-1 12700 1;
#X obj 176 250 hsl 128 15 0 1 0 1 empty empty G 12 8 1 12 -225271 -1
-1 12700 1;
#X obj 176 270 hsl 128 15 0 1 0 1 empty empty B 12 8 1 12 -228992 -1
-1 12700 1;
#X obj 218 458 hsl 128 15 0.5 5 0 0 empty empty empty -2 -6 0 10 -232576
-1 -1 0 1;
#X floatatom 219 481 5 0 0 0 - - -;
#X obj 83 40 hsl 128 15 10 127 0 1 empty empty empty -2 -6 0 10 -204786
-1 -1 9900 1;
#X floatatom 93 63 5 0 0 0 - - -;
#X obj 50 62 metro;
#X obj 207 354 + 1;
#X obj 493 296 gemwin;
#X obj 482 243 bng 15 250 50 0 empty empty empty 0 -6 0 10 -128992
-1 -1;
#X msg 531 262 buffer 1;
#X obj 531 240 loadbang;
#X obj 485 432 cnv 15 100 60 empty empty empty 20 12 0 14 -195568 -66577
0;
#N canvas 0 22 454 304 gemwin 0;
#X obj 132 136 gemwin;
#X obj 67 89 outlet;
#X obj 67 10 inlet;
#X obj 67 41 route create;
#X msg 67 70 set destroy;
#X msg 142 68 set create;
#X msg 132 112 create \, 1;
#X msg 198 112 destroy;
#X msg 234 221 dimen 500 500;
#X msg 279 189 dimen 1024 768;
#X connect 2 0 3 0;
#X connect 3 0 4 0;
#X connect 3 0 6 0;
#X connect 3 1 5 0;
#X connect 3 1 7 0;
#X connect 4 0 1 0;
#X connect 5 0 1 0;
#X connect 6 0 0 0;
#X connect 7 0 0 0;
#X connect 8 0 0 0;
#X connect 9 0 0 0;
#X restore 490 471 pd gemwin;
#X msg 490 452 create;
#X text 486 431 Create window:;
#X msg 80 18 100;
#X obj 176 290 hsl 128 15 0 1 0 1 empty empty A 12 8 1 12 -195568 -1
-1 12700 1;
#X obj 50 319 colorRGB 1 1 1 0.15;
#X obj 233 354 % 360;
#X obj 180 354 i;
#X floatatom 180 375 5 0 0 0 - - -;
#X connect 0 0 3 0;
#X connect 2 0 7 0;
#X connect 3 0 8 0;
#X connect 4 0 38 0;
#X connect 5 0 1 1;
#X connect 6 0 1 1;
#X connect 7 0 14 0;
#X connect 8 0 4 0;
#X connect 14 0 1 0;
#X connect 15 0 0 0;
#X connect 15 1 40 0;
#X connect 16 0 8 1;
#X connect 17 0 26 0;
#X connect 18 0 16 0;
#X connect 19 0 38 1;
#X connect 20 0 38 2;
#X connect 21 0 38 3;
#X connect 22 0 1 1;
#X connect 22 0 23 0;
#X connect 24 0 25 0;
#X connect 24 0 26 1;
#X connect 26 0 15 0;
#X connect 27 0 39 0;
#X connect 29 0 28 0;
#X connect 30 0 28 0;
#X connect 31 0 30 0;
#X connect 33 0 34 0;
#X connect 34 0 33 0;
#X connect 36 0 24 0;
#X connect 37 0 38 4;
#X connect 38 0 2 0;
#X connect 39 0 40 1;
#X connect 40 0 27 0;
#X connect 40 0 41 0;
#X connect 41 0 14 1;
