#N canvas 331 116 612 514 10;
#X msg 486 293 1 1 1;
#X msg 487 235 0 0 1;
#X msg 58 189 1;
#X msg 62 223 0;
#X msg 41 109 create;
#X msg 167 276 destroy;
#X obj 307 179 gemhead;
#X obj 307 206 pix_video;
#X obj 41 381 gemwin 5;
#X msg 168 244 print;
#X msg 201 102 dimen 256 256;
#X msg 202 124 3;
#X obj 307 237 pix_threshold;
#X floatatom 493 119 0 0 0;
#X obj 493 150 / 100;
#X msg 489 192 0.1 0.1 0.1;
#X obj 307 323 color;
#X msg 485 265 1 0 0;
#X msg 202 80 offset 200 200;
#X obj 307 275 pix_texture;
#X obj 307 419 sphere;
#X obj 307 360 rotate;
#X floatatom 485 336 0 0 0;
#X text 102 187 turn on/off;
#X text 101 218 rendering;
#X text 437 85 click on any of these;
#X obj 202 54 loadbang;
#N canvas 95 194 290 179 Gem.init 0;
#X obj 83 30 loadbang;
#X msg 161 76 reset;
#X obj 45 107 outlet;
#X obj 88 51 t b b;
#X msg 45 75 frame 13;
#X connect 0 0 3 0;
#X connect 1 0 2 0;
#X connect 3 0 4 0;
#X connect 3 1 1 0;
#X connect 4 0 2 0;
#X restore 15 352 pd Gem.init;
#X connect 0 0 16 1;
#X connect 1 0 16 1;
#X connect 2 0 8 0;
#X connect 3 0 8 0;
#X connect 4 0 8 0;
#X connect 5 0 8 0;
#X connect 6 0 7 0;
#X connect 7 0 12 0;
#X connect 9 0 8 0;
#X connect 10 0 7 0;
#X connect 11 0 20 1;
#X connect 12 0 19 0;
#X connect 13 0 14 0;
#X connect 14 0 12 1;
#X connect 15 0 12 2;
#X connect 16 0 21 0;
#X connect 17 0 16 1;
#X connect 18 0 7 0;
#X connect 19 0 16 0;
#X connect 21 0 20 0;
#X connect 22 0 21 1;
#X connect 26 0 18 0;
#X connect 26 0 10 0;
#X connect 26 0 11 0;
#X connect 27 0 8 0;
