#N canvas 327 96 612 514 8;
#X msg 487 312 1 1 1;
#X msg 488 254 0 0 1;
#X msg 83 285 1;
#X msg 87 319 0;
#X msg 66 205 create;
#X msg 192 372 destroy;
#X obj 307 137 gemhead;
#X obj 307 187 pix_video;
#X obj 41 381 gemwin 5;
#X msg 193 340 print;
#X msg 36 68 frame 15;
#X msg 201 102 dimen 256 256;
#X msg 202 140 3;
#X obj 305 238 pix_threshold;
#X floatatom 493 119;
#X obj 493 150 / 100;
#X msg 489 192 0.1 0.1 0.1;
#X obj 305 324 color;
#X msg 486 284 1 0 0;
#X msg 199 67 offset 200 200;
#X obj 305 276 pix_texture;
#X obj 304 453 sphere;
#X obj 304 394 rotate;
#X floatatom 490 366;
#X text 127 283 turn on/off;
#X text 126 314 rendering;
#X text 437 85 click on any of these;
#X obj 191 24 loadbang;
#X connect 0 0 17 1;
#X connect 1 0 17 1;
#X connect 2 0 8 0;
#X connect 3 0 8 0;
#X connect 4 0 8 0;
#X connect 5 0 8 0;
#X connect 6 0 7 0;
#X connect 7 0 13 0;
#X connect 9 0 8 0;
#X connect 10 0 8 0;
#X connect 11 0 7 0;
#X connect 12 0 21 1;
#X connect 13 0 20 0;
#X connect 14 0 15 0;
#X connect 15 0 13 1;
#X connect 16 0 13 2;
#X connect 17 0 22 0;
#X connect 18 0 17 1;
#X connect 19 0 7 0;
#X connect 20 0 17 0;
#X connect 22 0 21 0;
#X connect 23 0 22 1;
#X connect 27 0 19 0;
#X connect 27 0 11 0;
#X connect 27 0 12 0;
#X connect 27 0 10 0;
