#N canvas 84 483 743 466 10;
#X obj 57 215 pix_texture;
#X text 187 75 click on any of these;
#X text 40 25 texture live video onto a sphere;
#X obj 183 196 hsl 128 15 0 360 0 0 empty empty X 12 8 1 12 -233017
-1 -1 0 1;
#X obj 183 216 hsl 128 15 0 360 0 0 empty empty Y 12 8 1 12 -233017
-1 -1 0 1;
#X obj 183 236 hsl 128 15 0 360 0 0 empty empty Z 12 8 1 12 -233017
-1 -1 0 1;
#X obj 57 255 rotateXYZ 0 0 0;
#X obj 183 266 hsl 128 15 0 1 0 1 empty empty R 12 8 1 12 -261689 -1
-1 12700 1;
#X obj 183 286 hsl 128 15 0 1 0 1 empty empty G 12 8 1 12 -225271 -1
-1 12700 1;
#X obj 183 306 hsl 128 15 0 1 0 1 empty empty B 12 8 1 12 -228992 -1
-1 12700 1;
#X obj 57 325 colorRGB 1 1 1;
#X obj 57 70 gemhead;
#X obj 57 114 pix_video;
#X obj 57 163 pix_threshold;
#X floatatom 185 122 5 0 100 1 threshold - -;
#X obj 184 103 hsl 128 15 0 1 0 0 empty empty empty -2 -6 0 10 -228856
-1 -1 0 1;
#X obj 183 348 hsl 128 15 0.5 5 0 1 empty empty empty -2 -6 0 10 -232576
-1 -1 4233 1;
#X floatatom 185 367 5 0 0 1 size - -;
#X obj 183 388 hsl 128 15 5 50 0 1 empty empty empty -2 -6 0 10 -204800
-1 -1 12700 1;
#X floatatom 185 407 5 0 0 1 segments - -;
#X obj 57 410 sphere;
#X msg 182 143 0.1 0.1 0.1;
#X obj 481 330 cnv 15 100 60 empty empty empty 20 12 0 14 -195568 -66577
0;
#N canvas 0 22 454 304 gemwin 0;
#X obj 132 136 gemwin;
#X obj 67 89 outlet;
#X obj 67 10 inlet;
#X obj 67 41 route create;
#X msg 67 70 set destroy;
#X msg 142 68 set create;
#X msg 132 112 create \, 1;
#X msg 198 112 destroy;
#X msg 234 221 dimen 500 500;
#X msg 279 189 dimen 1024 768;
#X connect 2 0 3 0;
#X connect 3 0 4 0;
#X connect 3 0 6 0;
#X connect 3 1 5 0;
#X connect 3 1 7 0;
#X connect 4 0 1 0;
#X connect 5 0 1 0;
#X connect 6 0 0 0;
#X connect 7 0 0 0;
#X connect 8 0 0 0;
#X connect 9 0 0 0;
#X restore 486 369 pd gemwin;
#X msg 486 350 create;
#X text 482 329 Create window:;
#X connect 0 0 6 0;
#X connect 3 0 6 1;
#X connect 4 0 6 2;
#X connect 5 0 6 3;
#X connect 6 0 10 0;
#X connect 7 0 10 1;
#X connect 8 0 10 2;
#X connect 9 0 10 3;
#X connect 10 0 20 0;
#X connect 11 0 12 0;
#X connect 12 0 13 0;
#X connect 13 0 0 0;
#X connect 15 0 14 0;
#X connect 15 0 13 1;
#X connect 16 0 17 0;
#X connect 16 0 20 1;
#X connect 18 0 19 0;
#X connect 18 0 20 2;
#X connect 21 0 13 2;
#X connect 23 0 24 0;
#X connect 24 0 23 0;
