#N canvas 30 17 626 514 10;
#X floatatom 237 298 5 0 0 0 - - -;
#X floatatom 290 300 5 0 0 0 - - -;
#X obj 54 92 gemwin;
#X msg 54 6 create;
#X msg 106 74 destroy;
#X msg 86 31 1;
#X msg 88 52 0;
#X floatatom 349 299 5 0 0 0 - - -;
#X obj 54 262 pix_blob 4;
#X obj 54 131 gemhead;
#X text 248 41 a movement detector;
#X obj 54 190 pix_movement;
#X obj 54 404 pix_texture;
#X obj 54 441 square 4;
#X obj 211 393 gemhead;
#X obj 211 447 translateXYZ;
#X obj 211 474 cube 0.5;
#X obj 237 344 * 8;
#X obj 237 366 - 4;
#X obj 290 344 * 8;
#X obj 290 366 - 4;
#X obj 349 365 * 2;
#X obj 54 157 pix_video;
#X connect 0 0 17 0;
#X connect 1 0 19 0;
#X connect 3 0 2 0;
#X connect 4 0 2 0;
#X connect 5 0 2 0;
#X connect 6 0 2 0;
#X connect 7 0 21 0;
#X connect 8 0 12 0;
#X connect 8 1 0 0;
#X connect 8 2 1 0;
#X connect 8 3 7 0;
#X connect 9 0 22 0;
#X connect 11 0 8 0;
#X connect 12 0 13 0;
#X connect 14 0 15 0;
#X connect 15 0 16 0;
#X connect 17 0 18 0;
#X connect 18 0 15 1;
#X connect 19 0 20 0;
#X connect 20 0 15 2;
#X connect 21 0 15 3;
#X connect 22 0 11 0;
